<?xml version="1.0" standalone="no"?><!DOCTYPE svg PUBLIC "-//W3C//DTD SVG 1.1//EN" "http://www.w3.org/Graphics/SVG/1.1/DTD/svg11.dtd"><svg t="1511778809952" class="icon" style="" viewBox="0 0 1024 1024" version="1.1" xmlns="http://www.w3.org/2000/svg" p-id="1833" xmlns:xlink="http://www.w3.org/1999/xlink" width="32" height="32"><defs><style type="text/css"></style></defs><path d="M956.982654 791.644001h-54.091966v-421.110966c0-30.717605-16.260335-62.657039-46.979987-62.657039h-130.318045c-20.562315 0-46.214555 23.476691-46.214554 44.039006v439.726953h-36.740786v-644.508943c0-30.717605-16.645099-62.764486-47.362704-62.764486H185.701422c-30.717605 0-64.594157 32.04688-64.594157 62.764486v644.514059H67.017346a2.039449 2.039449 0 0 0-2.041496 2.03945v143.905504c0 1.12666 0.912789 2.039449 2.041496 2.039449h889.964284a2.039449 2.039449 0 0 0 2.041496-2.039449V793.685497a2.038426 2.038426 0 0 0-2.040472-2.041496z m-614.403275-224.004796c0 20.564361-16.670681 37.232996-37.232996 37.232996h-73.520457c-20.562315 0-37.234019-16.670681-37.234019-37.232996v-73.520458c0-20.564361 16.670681-37.232996 37.234019-37.232996h73.520457c20.562315 0 37.232996 16.670681 37.232996 37.232996v73.520458z m0-224.5318c0 20.562315-16.670681 37.232996-37.232996 37.232996h-73.520457c-20.562315 0-37.234019-16.670681-37.234019-37.232996v-73.520457c0-20.564361 16.670681-37.236066 37.234019-37.236066h73.520457c20.562315 0 37.232996 16.672728 37.232996 37.236066v73.520457z m223.512587 224.5318c0 20.564361-16.670681 37.232996-37.232996 37.232996h-73.520458c-20.564361 0-37.232996-16.670681-37.232996-37.232996v-73.520458c0-20.564361 16.670681-37.232996 37.232996-37.232996h73.520458c20.564361 0 37.232996 16.670681 37.232996 37.232996v73.520458z m0-224.5318c0 20.562315-16.670681 37.232996-37.232996 37.232996h-73.520458c-20.564361 0-37.232996-16.670681-37.232996-37.232996v-73.520457c0-20.564361 16.670681-37.236066 37.232996-37.236066h73.520458c20.564361 0 37.232996 16.672728 37.232996 37.236066v73.520457z m280.666284 335.778486c0 20.564361-16.670681 37.232996-37.232996 37.232996h-36.779672c-20.562315 0-37.230949-16.670681-37.230949-37.232996v-36.779671c0-20.562315 16.668635-37.232996 37.230949-37.232996h36.779672c20.565385 0 37.232996 16.670681 37.232996 37.232996v36.779671z m0-185.751564c0 20.564361-16.670681 37.236066-37.232996 37.236066h-36.779672c-20.562315 0-37.230949-16.673751-37.230949-37.236066v-36.776602c0-20.564361 16.668635-37.234019 37.230949-37.234019h36.779672c20.565385 0 37.232996 16.670681 37.232996 37.234019v36.776602z" p-id="1834" fill="#997644"></path></svg>