<?xml version="1.0" encoding="utf-8"?>
<!-- Generator: Adobe Illustrator 21.1.0, SVG Export Plug-In . SVG Version: 6.00 Build 0)  -->
<svg version="1.1" id="图层_1" xmlns="http://www.w3.org/2000/svg" xmlns:xlink="http://www.w3.org/1999/xlink" x="0px" y="0px"
	 viewBox="0 0 210 132" style="enable-background:new 0 0 210 132;" xml:space="preserve">
<style type="text/css">
	.st0{fill:#1C1C1B;}
</style>
<path class="st0" d="M74.1,115.2v-2.9h0.8l0.4,2.2c0,0,0.8,0.2,1.2,0.2c0.8,0,1.5-0.8,1.5-1.9v-6.8l-1.8-0.3V105h5.1v0.6l-1.8,0.4
	v6.8c0,1.8-1.5,2.8-3,2.8C75.6,115.6,74.7,115.4,74.1,115.2"/>
<polygon class="st0" points="88.9,115.6 85.6,105.8 84.6,105.5 84.6,104.9 88.9,104.9 88.9,105.5 87.4,105.9 89.6,113.4 89.7,113.4 
	92.8,104.9 94,104.9 96.7,113.5 96.8,113.5 99.4,105.8 98,105.5 98,104.9 101.8,104.9 101.8,105.5 100.5,105.8 96.8,115.6 
	95.9,115.6 93.1,107 92.9,107 89.8,115.6 "/>
<path class="st0" d="M43.6,108.5l-0.7,0.6c-0.5-0.8-1.2-1.5-2.1-1.9l0.5-0.6C42.2,107,43,107.6,43.6,108.5 M41.8,115.8l-0.8-0.4
	c1.1-1.4,1.7-3.1,1.8-5.2l0.8,0.2C43.5,112.7,42.9,114.4,41.8,115.8 M44.3,105.8l-0.7,0.6c-0.5-0.9-1.2-1.5-2.1-1.9l0.6-0.6
	C42.9,104.3,43.6,104.9,44.3,105.8 M53.5,113h-3.8c0.7,1.2,1.8,1.9,3.6,2.2l0.7,0.1l-0.5,0.8c-2.5-0.5-4.1-1.5-4.6-3.1
	c-0.8,1.8-2.5,2.8-5,3.1l-0.5-0.9c2.3-0.3,3.8-1.1,4.5-2.3h-4v-0.8h4.3c0.1-0.2,0.2-0.5,0.2-1l0.8,0.2l-0.1,0.8h4.5V113z
	 M44.5,111.6v-7.1h2.8c0.4-0.2,0.7-0.6,1-1.3l0.8,0.3c-0.2,0.4-0.5,0.7-0.7,1h4.2v6.3c0,0.2-0.1,0.5-0.3,0.6
	c-0.2,0.2-0.5,0.2-0.6,0.2h-1l-0.2-0.8c0.2,0.1,0.5,0.1,0.9,0.1c0.1,0,0.2-0.1,0.2-0.2c0.1-0.1,0.1-0.2,0.1-0.2v-5.2h-6.3v6.3H44.5z
	 M48.2,109L48.2,109c-0.4,0.8-1,1.5-1.9,2.1l-0.6-0.7c0.8-0.4,1.5-1,1.8-1.7H46v-0.8h1.2c-0.1-0.2-0.3-0.5-0.6-0.8l0.7-0.2
	c0.3,0.4,0.5,0.7,0.7,1.1h0.4v-1.2c-0.8,0.1-1.5,0.2-1.8,0.2l-0.4-0.8c1.8,0,3.5-0.2,4.8-0.6l0.6,0.7c-0.8,0.2-1.5,0.4-2.4,0.5v1.4
	h0.5c0.3-0.5,0.5-0.9,0.5-1.4l0.8,0.3c-0.2,0.5-0.3,0.8-0.5,1.1h0.9v0.8h-2.2v0.6l0.5-0.4c0.7,0.2,1.3,0.5,1.9,1.1l-0.5,0.5
	c-0.5-0.5-1.1-0.8-1.8-1.1v1.3h-0.8V109H48.2z"/>
<path class="st0" d="M59.7,116.2h-0.8v-12.1h4.8v5.1h-3.8L59.7,116.2L59.7,116.2z M62.7,105h-3v1.3h3V105z M62.7,107.1h-3v1.5h3
	V107.1z M66.9,115.1c0.5,0,0.9,0.1,1.2,0.1c0.3,0,0.5-0.1,0.5-0.2c0.1-0.1,0.2-0.2,0.2-0.4v-5.3h-3.8v-5.1h4.8V115
	c0,0.2-0.1,0.5-0.3,0.7c-0.2,0.2-0.4,0.3-0.7,0.3h-1.5L66.9,115.1z M68.7,105h-3v1.3h3V105z M68.7,107.1h-3v1.5h3V107.1z"/>
<path class="st0" d="M104.7,104.7h3.1v-1.2h0.8v1.2h1.8v0.8h-1.8v1h-0.8v-1h-3.1V104.7z M112.8,113l0.8-0.4c0.6,0.4,1.1,1,1.4,1.8
	c-0.3,0.2-0.6,0.3-0.8,0.5c-0.2-0.4-0.2-0.5-0.3-0.7l-6.4,0.4c-0.2-0.3-0.2-0.5-0.4-0.8c1,0,2.1,0,3.3-0.2v-1.2h-3.8v3.8h-0.8v-3.8
	H105v-0.8h0.8V111h0.9v0.6h3.8v-0.8h-4v-4.1h8.8v4.1h-4v0.9h4.9v3.3c0,0.2-0.2,0.5-0.4,0.7c-0.2,0.2-0.5,0.3-0.8,0.3h-1.4
	c0-0.2-0.2-0.4-0.2-0.8c0.5,0,0.9,0.1,1.3,0.1c0.2,0,0.4,0,0.5,0c0.1,0,0.2-0.1,0.2-0.2c0.1-0.1,0.1-0.2,0.1-0.4v-2.2h-4v1.2l2-0.2
	C113.1,113.3,112.9,113.1,112.8,113 M110.5,107.5h-3.1v0.8h3.1V107.5z M110.5,109.1h-3.1v0.8h3.1V109.1z M113.1,105.4h-1.9v-0.8h1.9
	v-1.2h0.8v1.2h3.1v0.8h-3.1v1h-0.8V105.4z M114.4,107.5h-3.1v0.8h3.1V107.5z M114.4,109.1h-3.1v0.8h3.1V109.1z"/>
<path class="st0" d="M134,114.7l-0.4,0.8c-1.7-0.5-2.8-1.3-3.3-2.5c-0.4,0.2-0.7,0.2-0.8,0.3c0.2,0.5,0.2,1.1,0.2,1.5
	c0,0.5-0.1,0.8-0.3,1c-0.2,0.2-0.6,0.3-1.2,0.3c-0.2,0-0.6,0-1.2-0.1l-0.5-0.9c0.7,0.2,1.2,0.2,1.6,0.2c0.3,0,0.5-0.1,0.5-0.2
	c0.1-0.2,0.1-0.4,0.1-0.8c0-0.3,0-0.5,0-0.5c-1.5,0.8-3.6,1.3-6.4,1.6l-0.5-0.7c3.1-0.3,5.3-0.8,6.7-1.6c-0.1-0.2-0.2-0.4-0.3-0.6
	c-1.5,0.7-3.4,1.2-5.6,1.3l-0.5-0.8c2.2,0,4.1-0.4,5.5-1.1c-0.2-0.1-0.3-0.2-0.6-0.4c-1.4,0.4-2.8,0.6-4.5,0.7l-0.5-0.8
	c1.8-0.1,3.4-0.3,4.7-0.6c0,0,0.1,0,0.2-0.1c0.1,0,0.1-0.1,0.2-0.1h-3.5v-0.8h8.3v0.8h-2.8l-1,0.5c0.5,0.3,0.8,0.7,1.1,1.2
	c0.8-0.2,1.5-0.5,2.3-1.3l0.6,0.6c-0.2,0.2-0.5,0.4-1.1,0.7C131.7,113.8,132.7,114.6,134,114.7 M123,109.5v1h-0.8v-1.8h11.4v1.8
	h-0.8v-1H123z M122.3,104.5h5.4c-0.2-0.3-0.6-0.6-1.1-0.8l0.8-0.5c0.5,0.2,0.9,0.7,1.2,1.3h4.9v0.8h-11.1V104.5z M124,105.9h7.8v2.2
	H124V105.9z M130.9,106.5h-6v0.8h6V106.5z"/>
<path class="st0" d="M139.2,115.8l-0.8-0.5c1.3-1.6,2.1-3.2,2.2-4.9l0.7,0.3C141.2,112.5,140.4,114.2,139.2,115.8 M141.4,108.9
	l-0.7,0.6c-0.6-0.9-1.4-1.5-2.2-1.9l0.5-0.6C139.7,107.1,140.5,107.8,141.4,108.9 M141.9,105.8l-0.6,0.6c-0.6-0.8-1.4-1.4-2.2-1.6
	l0.5-0.6C140.4,104.4,141.2,104.9,141.9,105.8 M150.1,116.1h-0.8v-0.9h-5.9v0.9h-0.8v-9.4h2.3V105h-3.1v-0.8h9.4v0.8h-3.3v1.7h2.3
	V116.1z M149.3,110.7h-1.1c-0.4,0-0.7-0.2-0.9-0.4c-0.2-0.3-0.3-0.5-0.3-0.8v-2.2h-1.3c0.1,1.8-0.4,3.1-1.4,4.3l-0.8-0.5
	c0.8-0.9,1.3-2,1.3-3.3c0-0.2,0-0.2,0-0.4h-1.5v4.8h5.9L149.3,110.7z M143.3,114.4h5.9v-1.3h-5.9V114.4z M145.6,106.6h1.3v-1.7h-1.3
	V106.6z M148.3,109.9h1v-2.5h-1.4v2C147.9,109.7,148,109.9,148.3,109.9"/>
<path class="st0" d="M168.1,104.9v0.8h-9.8l-0.1,5.4c0,1.9-0.6,3.5-1.9,4.8c-0.2-0.2-0.4-0.4-0.7-0.6c0.6-0.5,1.1-1.2,1.3-1.9
	c0.2-0.8,0.4-1.4,0.4-1.8s0-0.8,0-0.8v-2.5v-3.3h5.2c-0.5-0.6-1.1-1-1.8-1.2l0.7-0.5c0.8,0.2,1.5,0.7,2,1.5
	c-0.2,0.2-0.3,0.2-0.4,0.3C163,104.9,168.1,104.9,168.1,104.9z M165.5,115.2h-5.1v0.9h-0.9v-5.1h2.5v-4.7h0.8v1.6h4.6v0.8h-4.6v2.2
	h3.5v5.1h-0.9V115.2L165.5,115.2z M165.5,111.8h-5.1v2.5h5.1V111.8z"/>
<path class="st0" d="M24.3,80.1v-3.7h0.9l0.5,2.8c0,0,1,0.3,1.5,0.3c1.2,0,2-1,2-2.5v-8.8L27,67.8V67h6.5v0.8l-2.3,0.5v8.7
	c0,2.2-1.9,3.6-3.8,3.6C26.2,80.6,25.1,80.4,24.3,80.1"/>
<polygon class="st0" points="41.1,80.6 37,68.2 35.6,67.8 35.6,67 41.2,67 41.2,67.8 39.2,68.3 42.1,77.9 42.2,77.9 46.1,67 
	47.7,67 51.1,77.9 51.2,77.9 54.6,68.2 52.8,67.8 52.8,67 57.6,67 57.6,67.8 56,68.2 51.2,80.6 50.1,80.6 46.5,69.7 46.4,69.7 
	42.2,80.6 "/>
<polygon class="st0" points="78.3,79.7 80.3,79.2 79.5,69.6 79.4,69.6 75.3,80.6 74.1,80.6 70.1,69.5 70,69.5 69.2,79.2 71.2,79.6 
	71.2,80.4 65.7,80.4 65.7,79.7 67.8,79.2 68.9,68.3 66.8,67.8 66.8,67 71.3,67 75,77.9 75.1,77.9 79,67 83.3,67 83.3,67.8 
	81.2,68.3 82.3,79.2 84.4,79.6 84.4,80.4 78.3,80.4 "/>
<path class="st0" d="M95.2,79.7l1.6-0.4l-1.2-4h-4.4l-1.5,3.8l1.8,0.5v0.7h-5v-0.7l1.7-0.5l5-12.2h1.4l4.3,12.3l1.6,0.4v0.7h-5.4
	V79.7z M91.6,74.3h3.7L93.8,69h-0.2L91.6,74.3z"/>
<path class="st0" d="M109.3,74.3c-0.3,0-0.5,0-0.8,0h-1.2v4.8l2.3,0.5v0.8h-6.5v-0.8l2.3-0.5V68.3l-2.3-0.5V67h6.3
	c2.6,0,4.5,1.2,4.5,3.7c0,1.7-0.9,2.8-2.7,3.3l3.2,5.1l1.7,0.6v0.7H113L109.3,74.3z M107.3,68.2v5.1h1.1c2.1-0.1,3.7-0.8,3.7-2.5
	c0-1.8-1.2-2.7-3.3-2.7H107.3z"/>
<path class="st0" d="M124.7,74.3c-0.3,0-0.5,0-0.8,0h-1.2v4.8l2.3,0.5v0.8h-6.5v-0.8l2.3-0.5V68.3l-2.3-0.5V67h6.3
	c2.6,0,4.5,1.2,4.5,3.7c0,1.7-0.9,2.8-2.7,3.3l3.2,5.1l1.7,0.6v0.7h-3.2L124.7,74.3z M122.7,68.2v5.1h1.1c2.1-0.1,3.7-0.8,3.7-2.5
	c0-1.8-1.2-2.7-3.3-2.7H122.7z"/>
<polygon class="st0" points="134.4,79.7 136.7,79.2 136.7,68.3 134.4,67.8 134.4,67 140.9,67 140.9,67.8 138.6,68.3 138.6,79.2 
	140.9,79.6 140.9,80.4 134.4,80.4 "/>
<path class="st0" d="M149.6,80.6c-4,0-6.5-2.6-6.5-6.5c0-4.2,2.8-7.3,6.9-7.3c4,0,6.5,2.7,6.5,6.4C156.5,77.2,153.9,80.6,149.6,80.6
	 M149.9,67.8c-2.9,0-4.7,2.3-4.7,5.8c0,3.3,1.6,6,4.5,6c3.1,0,4.7-2.8,4.7-6C154.4,70.3,152.7,67.8,149.9,67.8"/>
<polygon class="st0" points="161,79.7 163.2,79.2 163.2,68.1 160.2,68.1 159.2,70.9 158.5,70.9 158.5,67 170,67 170,70.9 
	169.3,70.9 168.1,68.1 165.2,68.1 165.2,79.2 167.5,79.6 167.5,80.4 161,80.4 "/>
<polygon class="st0" points="174.5,79.7 176.7,79.2 176.7,68.1 173.7,68.1 172.6,70.9 171.9,70.9 171.9,67 183.4,67 183.4,70.9 
	182.7,70.9 181.4,68.1 178.6,68.1 178.6,79.2 180.9,79.6 180.9,80.4 174.5,80.4 "/>
<path class="st0" d="M183.9,76.9c0.9,0,1.8,0.8,1.8,1.8s-0.8,1.8-1.8,1.8c-1,0-1.8-0.8-1.8-1.8S183,76.9,183.9,76.9 M183.9,80.2
	c0.8,0,1.5-0.7,1.5-1.5s-0.6-1.5-1.5-1.5s-1.5,0.7-1.5,1.5C182.4,79.6,183.1,80.2,183.9,80.2 M183.2,77.7h0.8c0.5,0,0.7,0.2,0.7,0.6
	c0,0.4-0.2,0.5-0.5,0.5l0.6,0.9h-0.3l-0.5-0.9h-0.3v0.9h-0.3L183.2,77.7L183.2,77.7z M183.5,78.6h0.3c0.3,0,0.5,0,0.5-0.3
	s-0.2-0.3-0.5-0.3h-0.4V78.6L183.5,78.6z"/>
<polygon class="st0" points="88.3,95.9 89.6,95.7 89,89.3 89,89.3 86.3,96.5 85.5,96.5 82.8,89.2 82.8,89.2 82.2,95.6 83.6,95.9 
	83.6,96.5 80,96.5 80,95.9 81.3,95.7 82,88.4 80.6,88.1 80.6,87.5 83.6,87.5 86.1,94.8 86.2,94.8 88.7,87.5 91.6,87.5 91.6,88.1 
	90.2,88.4 90.9,95.7 92.3,95.9 92.3,96.5 88.3,96.5 "/>
<path class="st0" d="M98.2,96l1.1-0.2l-0.8-2.6h-2.9l-0.9,2.5l1.2,0.3v0.5h-3.3V96l1.2-0.3l3.3-8.1H98l2.8,8.1l1.1,0.2v0.5h-3.5V96
	H98.2z M95.9,92.4h2.5l-1-3.5h-0.1L95.9,92.4z"/>
<path class="st0" d="M108.9,90.3l-0.5-1.8c-0.5-0.3-0.9-0.5-1.5-0.5c-1.8,0-3.5,1.2-3.5,3.8c0,2.8,1.7,4,3.8,4c1,0,1.7-0.5,2.2-0.9
	h0.3v1.1c-0.2,0.1-1,0.6-2.5,0.6c-2.9,0-5-1.4-5-4.5c0-2.6,2.1-4.6,4.9-4.6c1.5,0,2.2,0.3,2.6,0.5v2.4h-0.7V90.3z"/>
<path class="st0" d="M115.8,96l1.1-0.2l-0.8-2.6h-2.9l-0.9,2.5l1.2,0.3v0.5h-3.3V96l1.2-0.3l3.3-8.1h0.9l2.8,8.1l1.1,0.2v0.5H116V96
	H115.8z M113.5,92.4h2.5l-1-3.5h-0.1L113.5,92.4z"/>
<path class="st0" d="M120.2,93.3v-4.9l-1.4-0.3v-0.5h4.1v0.5l-1.5,0.3v4.8c0,1.8,1.2,2.6,2.5,2.6c1.5,0,2.5-0.9,2.5-2.9v-4.5
	l-1.3-0.3v-0.5h3.4v0.5l-1.2,0.3V93c0,2.6-1.8,3.6-3.4,3.6C122.1,96.5,120.2,95.8,120.2,93.3"/>
<path class="st0" d="M138,15.8c-0.3-0.2-0.8,1.4-5.5,2.5c-2.8,0.7-5.6,1.2-8.5,1c-14.3-1.3-17.1-2.5-20.7,3.5
	c-0.5,1.4-1.2,2.5-2,3.3c-0.2-0.9-0.8-1.8-1.4-2.7c0.1-0.1,0.3-0.2,0.2-0.2c-0.5-0.3-0.5-0.7-0.8-0.8l0,0c0.3,0.2,0.8,0.3,0.8,0.1
	c-0.1,0-0.8-1-0.8-1s0.3,0.1,0.6,0.2c-0.5-0.8-0.5-1-0.5-1l0.5,0.2c0,0-0.4-0.8-0.5-1c0.2-0.4-0.5-1.9-0.6-2.3
	c-0.1-0.8-0.4-1.3-1-1.9c-0.2-0.2-0.6,0.3-0.7,0.2c-0.6,0.5-0.8,0.5-0.9,0.5c-0.1,0.1-0.2,0.3-0.3,0.5c0,0-0.1,0.1-0.2,0.1
	c-0.2,0-0.2,0.1-0.2-0.2c-0.2,0.3-0.5,0.5-0.5,0.5s-0.2,0-0.2-0.2c-0.6,0.5-0.5,0.5-0.7,0.5c-1.8-0.5-4.9-0.8-7,0
	c0,0-1.1,0.4-1.4,1.2c0,0-2,0-3.1,1.5c0,0-0.7,1-0.2,2.3c0.1,0.2,0.2,0.2,0.2,0.3c0.1,0.1,0.2,0,0.2-0.1c-0.1-0.2-0.1-0.4,0.2-0.6
	c0,0,0.4-0.3,1.1-0.2c0.8,0.2,1.4,0.1,1.7,0c0,0,0.9-0.3,1.8,0.8c1.4,1.5,2.1,1.8,2.5,1.9c0.2,0.1,0.5,0.3,0.5,1.1
	c-0.1-0.1-0.2,0-0.3,0.3c-0.2,0.5-1.5,2.2-2.2,2.6c0,0-1.8,0.7-1.2,0.8c0.5,0,0.5,0.4,0.5,0.4s-0.3,0-1,0.5c-1,0.7-1.2,1.2-1.1,1.2
	c0.6-0.2,1.5-0.2,1.2,0.1c-0.6,0.5-1.3,0.8-1.6,1.6c0.3-0.1,0.7,0.3,0.7,0.4c-0.8,0.9-0.8,1.2-1.1,1.7c-0.2,0.4,0.8,0.9,0.8,0.9
	c-0.4,0.8-0.7,1.4-1.2,1.8c0.1,0.2,1.2-0.2,1.2-0.2s-0.4,0.6-0.5,1.3c-0.1,0.3-0.1,0.5,0,0.5c0.1,0,0.2,0,0.5-0.1
	c-0.2,0.3-0.2,0.5-0.2,0.7c0.1,0,0.2,0,0.3-0.1c-0.1,0.4-0.2,0.7-0.1,1c0.1,0.1,0.4-0.3,0.5-0.3c0.2,0.4-0.2,1.4-0.2,1.4
	c0.6,0,0,1.3,0.2,1.8c0,0,0.4,0,0.6-0.3c0.2-0.2-0.3,1.4-0.3,1.7c0,0,0.2-0.2,0.4-0.2c-0.1,0.8,0.1,1.4-0.2,2.4
	c0,0.2-0.2,0.8-0.2,0.8c0.1,0.2,0.5,0,0.5,0.2c-0.2,0.4,0.2,1.2,0.2,1.2c0,0.2-0.1,0.3-0.1,0.5c-0.2,0.3-0.2,1-0.1,0.8
	c0.2-0.1,0.2,0,0.5-0.2c0,0.5,0.2,1.2-0.2,1.8c0.7-0.1,0.6,0,0.6,0.2c-0.1,0.5-0.2,0.7-0.2,1.1c0.2-0.2,0.5,0,0.5,0.2
	c-0.1,0.5-0.2,1.1-0.1,1.2c0.3,0,0.4-0.2,0.4-0.2s-0.1,0.5,0,1.2c-0.1,0.2,0,0.6-0.3,0.6c0.1,0.2,0.4,0,0.6-0.1c0,0.2-0.1,0.4,0,0.5
	c-0.9,0.3-1.3,1.1-1.9,0.8c-0.7-0.2-0.8-0.2-1.2-0.1c-0.3,0.1-0.6,0.3-0.6,0.3s-0.2,0.1-0.5,0.2c-0.3,0.2-0.7,1-0.7,1.2
	c0,0.3,0,0.4,0.2,0.4c0.1,0,0.3-0.7,0.8-0.8c0.4-0.1,0.3,0,0.4,0.1c0.1,0.1,0.7,0.4,1.2,0.2c0.3-0.2,1.4-0.2,1.7-0.2
	c-0.1,0.2-0.6,0.5-0.6,0.5c-0.4,0.1-1,0.1-1.4,1.2C85.3,61.1,85,62,85,62.1c0,0.2,0.1,0.5,0.2,0.4c0.1,0,0.2-0.5,0.5-0.7
	c0.3-0.2,1.1,0.1,1.8-0.5c0.7-0.5,0.5-0.7,1.4-1.4c0.4-0.3,1-1.2,1.6-0.9c0.6,0.3,1.2,0.5,1.2,1.2c-0.2,0.2-0.1,0.4-0.1,0.6
	c-0.1,0.3-0.2,0.7-0.2,0.8c0.2,0.1,0.8-0.5,1-0.8c0.2-0.2,0.3-0.8,0.2-1.1c0.2-1.5-0.5-2.1-0.5-2.1s0.4-0.3,0.2-0.3
	c-0.2,0-0.5-0.1-0.5-0.1c0.3-0.4,0.4-1.2,0.5-1.2s0.8,0.8,0.6,0.2c-0.2-0.7-0.2-1-0.2-1.2V55c0.1-0.2,0.2-0.1,0.2-0.1
	c0.4,0.2,0.5,1.1,0.5,0c0-1.1-0.5-2.2-0.5-2.2s0.2,0.2,0.5,0.2c0.2-0.6-0.4-1.7-0.4-1.7s0.8,1.2,0.3-0.8c-0.1-0.3,0.2-0.6-0.1-0.9
	c0,0-0.2,0.2,0-1.1c0.3,0.2,0.6,0.5,0.8,0.5c0.4,0.2,0.8,0.1,1.1,0.1c0.3,0.2,0.9,0.3,1.2,0.3c0.2,0.2,0.3,0,0.5,0
	c0.2,0,0.4,0.2,0.6,0c0.2-0.1-1.9,2.2,1.2,6.1c1.1,1.4,3.5,1.9,3.8,2.2c-0.9-0.2-3.3-0.2-3.8-0.1c-2.7-0.2-3.1,0-3.8,1.2
	c-0.2,0.1-0.4,0.2-0.4,0.6c-0.2,0.2-0.2,1.1-0.1,0.8c0.2-0.2,0.3-0.2,0.5-0.5c0.2,0.2,0.3,0.2,0.5,0.4c0,0.2,0.1,0.7,0.2,0.7
	c0.1,0,0.2-0.2,0.2-0.3h0.1c0.3,0.1,0.4,0.2,0.5,0.4c0,0.2,0.1,0.3,0.2,0.4c0.1-0.1,0.2-0.2,0.2-0.2c1.8,0.3,2.8-0.1,4.5-0.2
	c1.3,0,2.8,0,3.2,0.1c0.8,0.2,2.8-0.5,2.8-0.5c0.4,0,2.5,0.4,4.8,0.1c1.2-0.2,2.2-0.2,3-0.8c0.2-0.2,1.1-0.5,1.2-0.8
	c1.1-0.7,2.5-2,2.8-3.1c0.8-1.9,1.2-3.2,1.2-4.6c0-0.7-0.1-1.5-0.5-3c-1.1-3.2-0.8-4.1-0.5-4.9c0.2-0.2,0.5-0.7,1-1
	c0.3,0.3,0.5,0.2,0.9,0.3c0.3,0.2,0.5,0.5,0.8,0.6c0.5,0.4,1,0.5,1.5,0.5c0.2,0,0.5,0.1,0.8,0c0.1-0.2,0.1-0.2,0.2-0.4
	c0.2,0.2,0.5,0.5,0.8,0.4c0-0.2-0.1-0.4-0.2-0.5c0.2,0,0.5,0.3,0.8,0.5c0.1,0.1,0.2,0.1,0.3-0.1c0.1-0.1,0-0.2,0.1-0.3
	c0,0,0,0,0-0.1c0.1,0.1,0.4,0.1,0.5,0.1s0.2-0.1,0.2-0.2c0.2,0,0.5,0,0.8-0.2c-0.4-0.5-0.8-0.5-1.3-0.8c0.2-0.2,0.3-0.3,0.5-0.5
	c-0.1-0.1-0.2-0.1-0.2-0.1c-0.2-0.1-0.2-0.1-0.4-0.2c-0.2-0.1-0.4-0.2-0.6-0.3c-0.1-0.1-0.2-0.1-0.3-0.2l-0.1-0.1
	c-0.3-0.5-0.4-0.6-0.7-0.7c-0.2-0.1-0.8-0.3-1-0.4c-0.7-0.2-1.5-0.2-2.1-0.2c-0.5,0.1-1.5,0.8-2.1,1.2c-0.7,0.5-0.7,0.5-0.7,0.5
	c-1.2,0.7-2,3.2-1.3,6.5c0.4,1.5,0.2,1,0.4,1.8c0.8,3.8-2.2,6.3-3.4,7.1c0,0,0-0.1,0.1-0.1c0.4-0.6,0.7-1.3,0.9-2
	c0.4-1.3,0.8-3.6,0.3-4.9c-0.2-0.8-0.7-2.2-1.2-2.8c0.2,0.2,0.2,0.1,0.5,0.1c-0.7-0.5-1.7-2.4-2-2.7c0.1-0.1,0.3-0.1,0.3-0.2
	c-0.5-0.5-1.8-1.8-1.8-1.8s0.4,0.1,0.6-0.1c0.2-0.1-1.5-0.8-2-1.5c-0.3-0.5,0.1-0.7,0.2-0.6c1,0.5,1.8,0.3,2.2,0.2
	c-0.2-0.5-1.2-1.2-1.1-1.2c0.4,0.2,1,0.2,1,0.2c0.7,0.2,0.9,0.2,1.4-0.1c-0.2-0.3-1.2-0.8-1.5-1.2c0.8,0.2,1.2,0.5,1.9,0.3
	c0.1-0.1-0.1-0.5-0.2-0.6c0.5,0.2,1.5,0.5,2,0.2c0.1-0.1-1.8-1.5-2.5-2.8c-0.3-0.5,1.5,1.6,3,1.8c0.3-0.2,0.1-0.8-0.2-1.2
	c-0.2-0.3,1.4,0.5,1.4,0.5s0-0.7-0.5-1.5c0.2,0.2,2,0.5,2.3,0.3c0.3-0.2-0.4-1.2-0.4-1.2s1.4,0.6,1.7,0.6c0.4,0,0.3-0.2,0.3-0.2
	c-0.1-0.3-0.1-0.7-0.4-1.4c-0.3-0.7-2.9-4.4,0-1.4c0.3,0.3,1.5,1.5,1.9,1.5c0.4,0-0.4-1.5-0.4-1.5s0.9,0.6,1.8,0.7
	c0.4,0-0.1-1.2-0.4-1.4c-0.5-0.6-0.7-0.8-1.8-1.5c-0.5-0.3,2.3,0.7,2.8,0.9c0.6,0.3-0.5-1.2-0.5-1.2c0.8,0,3-0.5,3.1-0.7
	c0.2-0.2-0.8-0.8-0.8-0.8h0.4c0,0,1.9,0.1,2-0.4c0-0.1-4.6-2.1-4.5-2c3.5,0.3,4.9,0.8,6.5,0.8c1.2-0.1,1.5-0.5,1.5-0.5
	c-0.2-0.6-2.9-1.2-2.9-1.2l1.4,0.1c2.2,0.1,3.9-1.2,3.9-1.5s-1.2-0.7-1.2-0.7c-0.2-0.2,1.7-0.2,2-1c1.8-0.9,1.6-1.5,1.6-1.5
	c-0.2-0.2-0.9,0-0.9,0s-1.3,0.4-2.9,0.6c-1.7,0.2-2.1-0.2-2.1-0.2c5.2-0.7,6.1-1.8,6.3-2.5C138.5,16.8,138,15.8,138,15.8 M84.3,36.8
	L84.3,36.8C84.2,36.8,84.2,36.8,84.3,36.8"/>
</svg>
