<?xml version="1.0" encoding="utf-8"?>
<!-- Generator: Adobe Illustrator 21.1.0, SVG Export Plug-In . SVG Version: 6.00 Build 0)  -->
<svg version="1.1" id="图层_1" xmlns="http://www.w3.org/2000/svg" xmlns:xlink="http://www.w3.org/1999/xlink" x="0px" y="0px"
	 viewBox="0 0 210 132" style="enable-background:new 0 0 210 132;" xml:space="preserve">
<style type="text/css">
	.st0{fill:#000001;}
	.st1{fill:#7673C0;}
	.st2{fill:#D18A00;}
	.st3{fill:#556221;}
</style>
<g>
	<path class="st0" d="M83.5,112.1c-0.1,0-0.3,0-0.5-0.1s-0.3-0.3-0.4-0.8l-0.7-5.1c0-0.2-0.1-0.3-0.1-0.3s-0.1,0.1-0.2,0.2l-2.2,4.7
		l-2.2-4.6c-0.1-0.2-0.2-0.3-0.2-0.3c-0.1,0-0.1,0.1-0.1,0.2l-0.8,5.4c0,0.3-0.1,0.6-0.3,0.6c-0.1,0-0.2,0-0.2,0
		c-0.1,0-0.1,0-0.1,0.1s0.1,0.1,0.1,0.1c0.3,0,0.7,0,0.8,0c0.1,0,0.5,0,0.9,0c0.1,0,0.2,0,0.2-0.1l-0.1-0.1c-0.1,0-0.2,0-0.3,0
		c-0.1,0-0.2-0.1-0.2-0.3c0-0.1,0-0.2,0-0.4l0.4-3.3l0,0c0.3,0.6,0.8,1.6,0.9,1.8c0.1,0.2,0.7,1.5,0.9,1.9c0.1,0.2,0.2,0.4,0.3,0.4
		c0.1,0,0.1-0.1,0.3-0.5l1.8-3.7l0,0l0.5,3.6c0,0.2,0,0.3-0.1,0.4c-0.1,0-0.1,0-0.1,0.1c0,0,0.1,0.1,0.2,0.1c0.3,0,1.4,0,1.6,0
		c0.1,0,0.2,0,0.2-0.1C83.6,112.1,83.6,112.1,83.5,112.1z"/>
	<path class="st0" d="M94.1,112.1C94,112.1,94,112.1,94.1,112.1c-0.1,0.2,0,0.2,0.1,0.2c0.6,0,1.2,0,1.5,0s0.4,0,0.4-0.1
		s0-0.1-0.1-0.1s-0.2,0-0.3,0c-0.2,0-0.4-0.2-0.7-0.9c-0.5-1.2-1.8-4.6-2-5.1c-0.1-0.2-0.1-0.3-0.2-0.3s-0.1,0.1-0.2,0.3l-2,5.2
		c-0.2,0.4-0.3,0.7-0.7,0.7c-0.1,0-0.2,0-0.3,0c-0.1,0-0.1,0-0.1,0.1s0.1,0.1,0.2,0.1c0.4,0,0.9,0,0.9,0c0.3,0,0.6,0,0.9,0
		c0.1,0,0.1,0,0.1-0.1c0,0,0-0.1-0.1-0.1h-0.1c-0.2,0-0.3-0.1-0.3-0.3c0-0.1,0-0.3,0.1-0.5l0.4-1.2c0,0,0-0.1,0.1-0.1h1.8
		c0,0,0.1,0,0.1,0.1l0.6,1.7C94.2,112,94.2,112,94.1,112.1z M93.3,109.6h-1.5l0,0l0.7-2v-0.1c0,0,0,0,0,0.1L93.3,109.6
		C93.4,109.6,93.4,109.6,93.3,109.6z"/>
	<path class="st0" d="M108.1,110.7c-0.1,0-0.1,0-0.1,0.2c0,0.1-0.1,0.4-0.3,0.5c-0.3,0.4-0.8,0.5-1.5,0.5c-1.1,0-2.5-1-2.5-2.9
		c0-0.8,0.2-1.6,0.8-2.1c0.3-0.3,0.8-0.5,1.5-0.5s1.4,0.2,1.6,0.5c0.2,0.2,0.3,0.5,0.3,0.8c0,0.1,0,0.2,0.1,0.2s0.1-0.1,0.1-0.2
		c0-0.2,0-0.6,0-0.9s0.1-0.4,0.1-0.5s-0.1-0.1-0.1-0.1c-0.3,0-0.5-0.1-0.8-0.1c-0.4-0.1-0.7-0.1-1.1-0.1c-1.2,0-2,0.3-2.5,0.9
		c-0.8,0.7-0.9,1.7-0.9,2.2c0,0.8,0.2,1.7,1,2.4c0.7,0.7,1.7,0.9,2.8,0.9c0.5,0,1.1-0.1,1.4-0.2c0.1,0,0.2-0.1,0.2-0.2
		c0.1-0.3,0.2-1,0.2-1.1C108.2,110.7,108.1,110.7,108.1,110.7z"/>
	<path class="st0" d="M121,112.1c-0.1,0-0.2,0-0.3,0c-0.2,0-0.4-0.2-0.7-0.9c-0.5-1.2-1.8-4.6-2-5.1c-0.1-0.2-0.1-0.3-0.2-0.3
		s-0.1,0.1-0.2,0.3l-2,5.2c-0.2,0.4-0.3,0.7-0.7,0.7c-0.1,0-0.2,0-0.3,0c-0.1,0-0.1,0-0.1,0.1s0.1,0.1,0.2,0.1c0.4,0,0.9,0,0.9,0
		c0.3,0,0.6,0,0.9,0c0.1,0,0.1,0,0.1-0.1c0,0,0-0.1-0.1-0.1h-0.1c-0.2,0-0.3-0.1-0.3-0.3c0-0.1,0-0.3,0.1-0.5l0.5-1.2
		c0,0,0-0.1,0.1-0.1h1.8c0,0,0,0,0.1,0.1l0.6,1.7c0,0.1,0,0.2-0.1,0.2s-0.1,0-0.1,0.1s0.1,0.1,0.2,0.1c0.6,0,1.2,0,1.5,0
		s0.4,0,0.4-0.1C121.1,112.1,121,112.1,121,112.1z M118.3,109.6h-1.5l0,0l0.7-2v-0.1c0,0,0,0,0.1,0.1L118.3,109.6L118.3,109.6z"/>
	<path class="st0" d="M132.2,111.7c0.7-0.6,0.8-1.6,0.8-2.5v-0.9c0-1.2,0-1.5,0-1.8s0.1-0.4,0.3-0.5c0.1,0,0.1,0,0.2,0
		c0.1,0,0.2,0,0.2-0.1s-0.1-0.1-0.2-0.1c-0.3,0-0.8,0-0.9,0c0,0-0.5,0-0.9,0c-0.1,0-0.2,0-0.2,0.1s0,0.1,0.1,0.1s0.2,0,0.3,0
		c0.3,0.1,0.3,0.2,0.4,0.5c0,0.3,0,0.5,0,1.8v1c0,0.9,0,1.6-0.5,2.1c-0.3,0.3-0.8,0.5-1.1,0.5s-0.7,0-1-0.3c-0.4-0.3-0.6-0.8-0.6-2
		v-1.2c0-1.2,0-1.5,0-1.8s0.1-0.4,0.3-0.5c0.1,0,0.1,0,0.2,0c0.1,0,0.1,0,0.1-0.1s-0.1-0.1-0.2-0.1c-0.3,0-0.8,0-1,0s-0.7,0-1.2,0
		c-0.1,0-0.2,0-0.2,0.1s0.1,0.1,0.1,0.1c0.1,0,0.3,0,0.3,0c0.3,0.1,0.3,0.2,0.3,0.5s0,0.5,0,1.8v1.2c0,1.2,0.3,1.8,0.7,2.2
		c0.6,0.6,1.4,0.6,1.8,0.6C131.1,112.3,131.6,112.2,132.2,111.7z"/>
	<path class="st0" d="M44.3,94.7c-0.2-0.1-3.3-1.2-7.5-3c4.9-6.5,13.1-14.4,13.8-15c0.7-0.7-0.5-1.6-0.8-1.4
		c-3.2,2.6-10.2,10.5-14.1,15.8c-0.3-0.1-0.6-0.3-0.9-0.4c-0.9-0.4-1.8-0.8-2.7-1.2c5-5.4,12.7-13.8,13.3-14.5
		c0.7-0.8,0-1.4-0.4-1.2c-0.1,0.1-2,1-2,1l0,0.2c0.5-0.3,0.5,0.5,0,1.1c-0.4,0.5-7.1,8.2-11.6,13.1c-2.6-1.2-5-2.4-7.2-3.3
		c-1.8-0.7-3.5-1.2-5.4-1.2c-1.8,0-6.8,0.9-6.7,5.8c0.1,6.2,7,6.6,7.9,6.6c4,0,6.9-2.3,8.6-4c0.5-0.5,1.3-1.3,2.2-2.3
		c1.3,0.7,2.6,1.3,3.7,1.9c-1,1.5-1.6,2.7-1.6,3.2c0,0.7,0.3,1.1,0.5,1.1s1.4-1,1.5-1.4s-0.2-0.9,0.4-1.8c0.1-0.2,0.2-0.4,0.4-0.6
		c1.8,0.9,3.1,1.6,3.6,1.8c2.2,1,4.8,0.2,5,0C44.4,95,44.6,94.9,44.3,94.7z M27.8,92.8c-1.6,1.3-4,3.1-7.6,3.1
		c-3.3,0-7.5-2.2-7.6-5.9c0-3.6,3.7-4.1,4.7-4.1c1.7,0,3.7,0.6,6,1.6c2.2,1,4.5,2.1,6.7,3.2C29.1,91.6,28.3,92.3,27.8,92.8z"/>
	<path class="st0" d="M49.4,97.3c3.6-0.1,8.3-4.4,8.2-8.4c0-2.8-2.2-3.3-3.2-3.3c-0.5,0-3.4-0.1-4.9,2.9l0.2,0.2
		c1.6-2.1,3-2.2,3.6-2.2s2.4,0.3,2.5,3.5c0.1,3.5-2.9,5.9-5.4,6c-1.9,0-3.5-1.3-3.5-3.9c-0.1-3.2,2.4-4.6,3.3-5v-0.2
		c-0.9,0.2-4.9,2.5-4.8,6.2C45.4,96.4,47.7,97.3,49.4,97.3z"/>
	<path class="st0" d="M100,75.9c-2.7,0.1-5.8,2.1-8.7,5.4c-2.8,3.2-5.6,8.1-5.5,11.9c0,0.3,0.1,0.8,0.2,1.3
		c-3.2,1.7-5.9,2.2-7.3,2.2c-2,0-4.7-0.7-4.8-4.5l0,0c5-0.8,8.4-3.4,8.3-5.2c0-1-1.3-1.5-2.9-1.5c-2.3,0.1-7.2,2-7.6,6.4
		c-0.5,0-0.9,0-1.4,0c-1.7,0-3.2-0.3-4.6-0.8c5.6-6.9,12.3-14.6,12.8-15.3c0.7-0.8,0.6-1.1,0.5-1.5s-0.3-0.8-0.3-0.8s-0.2-0.3-0.5,0
		c-0.2,0.2-2.7,3-5.6,6.7c-2.7,3.4-5.9,7.4-8.1,10.4c-1.5-0.6-2.6-1.4-3-1.9c-0.2-0.4-0.4-0.9-0.4-1.1c0-0.3,0-0.2-0.1-0.3
		c-0.5-0.4-1-0.2-1.3-0.1c-0.6,0.2-0.5,0.6-0.3,1c0.9,2.5,1,6.5,0.7,7.9c-0.1,0.8-0.1,0.8,0.2,1s0.4,0.4,0.7-0.1
		c1.2-1.6,2.6-3.4,4.1-5.3c1.5,0.4,3.4,0.7,5.5,0.7c0.3,0,0.6,0,0.9,0c0,0.1,0,0.1,0,0.2c0,1.8,1,5.1,7,4.8c2.5-0.1,5.1-1,7.5-2.3
		c0.5,1.1,1.4,2.3,3.4,2.2c4.4-0.1,8.5-5,9.6-6.7l0-0.1c-1.2,1.4-4.8,6.2-9.5,6.2c-1.4,0-2.1-0.8-2.3-2.2c4.1-2.4,7.6-5.6,9.3-7.4
		c3.2-3.4,5.1-7.3,5-9.7C101.5,76.8,101.3,75.8,100,75.9z M61.7,94.6l-0.2,0.2c0.1-1,0.2-3.7,0.1-4.5c0.6,0.4,1.5,0.8,2.4,1.1
		C62.8,92.9,62,94.1,61.7,94.6z M79.3,85.9c0.7,0,1.2,0.2,1.2,1.1c0,0.8-0.7,3.7-6.6,4.5C74.2,88.3,77.6,86,79.3,85.9z M93.8,88.5
		c-2.3,2.3-4.6,4.1-6.7,5.3c-0.1-2.3,1-5.5,3.2-8.6c4-5.7,8.2-8.7,9.6-8.7c0.6,0,1,0.2,1,0.9C100.9,78.4,99.7,82.6,93.8,88.5z"/>
	<path class="st0" d="M119.4,76.1v-0.2c-3.9,0.4-12.2,5.7-12.1,13c0.1,4.9,4.1,8.6,9.3,8.4c4.2-0.1,8.9-2.7,12.3-6.6
		c2.4-2.8,3.9-6,3.8-9.8c-0.1-4.6-3.8-6.4-6.7-6.3c-1.8,0-6.6,1.1-10.4,7.7l0.3,0.1c2.8-4.5,6.1-5.9,9.3-6c1.8,0,5.5,1,5.6,6.1
		c0.1,3.6-3.7,12.9-13,13.1c-3.3,0.1-7.6-2.4-7.7-7.6C110,83.3,114,77.4,119.4,76.1z"/>
	<path class="st0" d="M149.6,85.8c0-0.4-0.1-1-1.5-1c-3.2,0.1-5.8,1-8.2,2.5c-0.4-0.6-0.8-1-1.2-1.3c3.5-4.4,8.3-10.5,8.7-11.2
		c0.3-0.6,0.1-0.8-0.1-0.9c-0.2-0.2-0.4-0.1-0.7,0.2c-0.1,0.1-1.1,0.6-1.4,0.7c-0.3,0.1-0.1,0.4,0.2,0.4c0.4,0,0.3,0.5-0.3,1.3
		c-3.7,5.1-11.6,15.7-15.9,20.2c-0.4,0.5-0.3,0.6-0.3,0.7s0.4,0.1,0.5,0c0.2,0,0.3-0.2,0.7-0.7c2-2.4,5.1-5.8,9.5-7.9
		c0.7,2,1.4,4.8,1.3,6.6c0,0.8,0.5,1.5,1,1.4c0.6,0,1.3-0.7,1.3-1.7c0-1.6-1.3-4.6-2.6-6.8c1.9-0.8,4.1-1.3,6.5-1.4
		C149.2,87,149.6,86.5,149.6,85.8z M135.4,90.6l-0.1-0.1c0.2-0.3,1.5-1.9,3.1-4.1c0.3,0.2,0.5,0.6,0.8,1.2
		C137.9,88.6,136.6,89.5,135.4,90.6z"/>
	<path class="st0" d="M196.9,93.7c-1.5,1.4-3.6,3.2-5.3,3.2c-0.8,0-1.6,0.1-1.6-1.7c0-0.8,2.5-5.4,2.8-5.6c0.3-0.3,0.1-0.6,0-0.7
		c-0.2-0.1-0.4-0.2-0.7-0.2c-0.2,0-0.4-0.1-0.6,0.4c-0.1,0.3-1.2,2.2-2.5,3.9c-1.1,1.4-2.1,2.6-4.1,2.7c-1.7,0-2-1.3-2-2.8
		c-0.1-3.1,3.3-6.2,5.7-6.2c1.6,0,1.9,0.9,2,1.4c0,0.3,0,0.3,0.2,0.3c0.4,0,1.3-1.1,1.3-1.4s-0.3-1.5-2.2-1.4
		c-2.5,0.1-4.8,2-6.2,3.6c-0.7,0.8-1.2,1.6-1.5,1.9c-2.8,2.9-5.6,4.8-7.1,4.8c-0.8,0-1.6-0.1-1.6-2.1c-0.1-2.8,3.4-5.8,3.6-6
		c0.2-0.1,0-0.2-0.3-0.1c-0.5,0.1-3,0.5-3.6,0.5c-0.5,0-0.8,0-0.8-0.4v-0.1c0.3-0.4,1-1.4,0.9-2c0-0.5-0.2-0.8-0.5-0.8
		c-0.9,0-2.7,2.5-2.1,3.7l0,0c-1.9,2.6-6.5,7.7-10,7.8c-1,0-1.7-0.4-1.7-1.6c0-2.2,4.2-5.9,5.3-7.5c0.2-0.3,0.2-0.6,0.1-0.7
		c-0.1-0.1-0.3-0.2-0.5-0.3c-0.2-0.1-0.4-0.2-0.8,0.3c-5.7,6.5-8.3,8.9-10.2,9.5c-0.8,0.2-2.1,0.1-1.8-1.2c0.4-2.1,5-5.5,5-7.8
		c0-1.2-0.7-1.4-1.5-1.4c-1.2,0-3.7,1.7-4.3,2.1l0.1,0.1c1-0.6,2.3-1.5,2.9-1.5c0.4,0,0.6,0.2,0.6,0.7c0,2.3-5.1,5.1-5,8.1
		c0,1,0.8,2,2,2c2.5,0,4.8-2.1,5.8-3.1l0.1,0.1c-0.3,1.7,1,3,3.1,3c4.1-0.1,9.2-5.5,11.2-8.1l0,0c0.1,0.1,0.2,0.3,0.9,0.5
		c0.6,0.1,1.2,0.2,1.7,0.1l0,0c-0.7,1.1-2.2,3-2.2,4.8c0,2,1.3,2.6,2,2.6c3.3,0,5.8-2.6,7.9-4.5v0.1c-0.7,1.5-0.2,4.5,2.1,4.5
		c2.4-0.1,4.6-2.3,4.7-2.5c0.2-0.2,0.2,0,0.2,0.2c0,0.6,0,2.5,2.6,2.4C193.8,97.2,196.5,94.3,196.9,93.7L196.9,93.7z"/>
	<path class="st1" d="M78.6,27.7c-0.1,0.6-0.4,1.9-0.4,2.3s0.5,1.2,0.5,1.2s-0.8,1.3-0.8,1.8s0.7,2.4,1,2.8c0.4,0.6,0.4,3.3,2,3.5
		C91,40.4,107,10.4,100.7,1.5c-0.6-0.9-5.9,0-6.3,0.4s-1.2,1.3-1.2,2c0,0.6-1.4,0-1.4,0l-1.6,1.8c0,0-1.2-0.4-1.7,0s-1.5,2.7-2,3.1
		s-1.1,0.3-1.3,0.7c-0.2,0.4,0.2,1,0,1.9c-0.2,0.8-1.2,0.9-0.8,2.8c0.4,1.8,3.7,3.7,5.3,4.5c1.6,0.8,1.7,1.7,1.4,2.1
		c-0.3,0.4-0.9,0.2-1.3,0c-1-0.5-5.7-3.5-7.4-2.8c-1,0.4-1.2,1.5-1.7,1.9s-1.3,0.5-1.6,1.1c-0.3,0.6,0.2,1.3-0.1,2
		c-0.3,0.7-1.1,2.7-1.1,3.3C77.8,26.9,78.7,27.1,78.6,27.7z"/>
	<path class="st2" d="M128.3,39c1.5-0.2,1.5-2.9,1.9-3.5c0.3-0.4,1-2.3,1-2.8s-0.8-1.8-0.8-1.8s0.5-0.8,0.5-1.2
		c0-0.4-0.3-1.6-0.4-2.3c-0.1-0.6,0.8-0.8,0.8-1.5c0-0.6-0.8-2.6-1.1-3.3c-0.3-0.7,0.2-1.3-0.1-1.9s-1.1-0.7-1.6-1.1s-0.7-1.5-1.7-2
		c-1.6-0.7-6.3,2.3-7.3,2.9c-0.4,0.2-1,0.4-1.3,0s-0.2-1.2,1.4-2.1c1.6-0.8,4.9-2.7,5.3-4.6s-0.6-2-0.8-2.8c-0.2-0.8,0.2-1.4,0-1.9
		c-0.2-0.4-0.8-0.3-1.3-0.7s-1.5-2.7-2-3.1s-1.7,0-1.7,0l-1.6-1.7c0,0-1.4,0.6-1.4,0s-0.8-1.5-1.2-2c-0.4-0.4-5.7-1.3-6.3-0.4
		C102,10.3,118.2,40.3,128.3,39z"/>
	<path class="st3" d="M84.7,45.9c-0.6,1.4,1.6,2.9,1.9,3.6c0.2,0.5,1.1,2.3,1.5,2.6c0.4,0.2,1.9,0.1,1.9,0.1s0.5,0.8,0.8,1
		s1.5,0.5,2.1,0.7s0.3,1.1,0.9,1.4c0.5,0.3,2.5,0.5,3.3,0.5c0.8,0.1,1,0.8,1.7,0.8s1.1-0.6,1.7-0.9c0.6-0.3,1.6,0,2.4-0.6
		c1.4-1.1,1-7.4,1-8.5c0-0.4,0.1-1.1,0.6-1.2c0.5-0.1,1.1,0.4,1.1,2.2s0.1,6.4,1.4,7.6c1.4,1.2,1.9,0.4,2.7,0.6
		c0.8,0.2,1.1,0.8,1.6,0.9c0.4,0,0.6-0.6,1.2-0.8c0.6-0.3,3-0.1,3.5-0.4c0.6-0.3,0.8-1.5,0.8-1.5l2.2-0.6c0,0,0.1-1.5,0.6-1.2
		s1.8-0.6,2.4-0.8c0.5-0.2,3.4-4.5,3-5.5C120.4,36,89.2,35.6,84.7,45.9z"/>
</g>
</svg>
