<svg xmlns="http://www.w3.org/2000/svg" viewBox="0 0 86.7 61.47"><defs><style>.cls-1{fill:#000001;}.cls-2{fill:#7673c0;}.cls-3{fill:#d18a00;}.cls-4{fill:#556221;}</style></defs><title>资源 5</title><g id="图层_2" data-name="图层 2"><g id="Logos"><path class="cls-1" d="M33.51,52.28h-.24c-.11,0-.14-.16-.18-.4l-.35-2.38c0-.09,0-.12-.07-.12s0,0-.09.1l-1,2.2-1-2.17c-.06-.11-.07-.12-.1-.12s0,0-.07.1L30,52c0,.12,0,.28-.16.3h.55c-.07,0-.12,0-.12-.13a.91.91,0,0,1,0-.18l.19-1.53h0c.14.29.36.77.4.86l.43.88c.09.18.1.19.13.19s0,0,.14-.21l.82-1.76h0l.23,1.7v.17h1Z"/><path class="cls-1" d="M38.48,52.28h.74c-.08,0-.18-.07-.34-.42-.24-.58-.84-2.16-.93-2.37s0-.13-.1-.13-.06,0-.1.15l-1,2.43c-.08.19-.14.32-.32.35h.71c-.12,0-.15,0-.15-.12a.76.76,0,0,1,.06-.23l.2-.56h.84l.3.81a.06.06,0,0,1,0,.07Zm-.37-1.13h-.7l.35-1h0l.34,1Z"/><path class="cls-1" d="M45,51.66v.08a.74.74,0,0,1-.13.26.81.81,0,0,1-.69.22A1.29,1.29,0,0,1,43,50.85a1.31,1.31,0,0,1,.35-1,1,1,0,0,1,.71-.24,1.14,1.14,0,0,1,.77.24.59.59,0,0,1,.14.36v-.64s0,0-.06,0a1,1,0,0,1-.39-.07,3.18,3.18,0,0,0-.54,0,1.62,1.62,0,0,0-1.19.41A1.45,1.45,0,0,0,42.37,51a1.47,1.47,0,0,0,.46,1.14,1.85,1.85,0,0,0,1.3.42,2.14,2.14,0,0,0,.68-.09.13.13,0,0,0,.1-.11A3.64,3.64,0,0,0,45,51.8S45.06,51.66,45,51.66Z"/><path class="cls-1" d="M51.08,52.28h-.16c-.07,0-.18-.07-.33-.42-.24-.58-.84-2.16-.94-2.37s-.06-.13-.09-.13-.06,0-.11.15l-.94,2.43c-.08.19-.15.32-.32.35h.75c-.12,0-.15,0-.15-.12a.8.8,0,0,1,.06-.23l.21-.56h.85l.3.81a.06.06,0,0,1,0,.08h.86Zm-1.25-1.13h-.7l.35-1h0l.34,1Z"/><path class="cls-1" d="M56.34,52.13A1.49,1.49,0,0,0,56.7,51V49.74c0-.12,0-.2.14-.22h-.63c.12,0,.15.09.16.22s0,.24,0,.82V51a1.36,1.36,0,0,1-.22,1,.71.71,0,0,1-.51.21.72.72,0,0,1-.48-.16c-.18-.16-.29-.39-.29-.95V49.78c0-.12,0-.2.14-.22h-.78c.13,0,.15.09.16.22s0,.24,0,.82v.57a1.26,1.26,0,0,0,.34,1,1.17,1.17,0,0,0,.84.27A1.09,1.09,0,0,0,56.34,52.13Z"/><path class="cls-1" d="M15.1,44.13c-.08,0-1.54-.56-3.53-1.42a66.94,66.94,0,0,1,6.46-7c.35-.31-.22-.77-.37-.65A53.65,53.65,0,0,0,11,42.49l-.42-.19-1.26-.58c2.35-2.51,6-6.48,6.22-6.79s0-.64-.18-.54l-.92.45.06.09c.23-.13.25.24,0,.51s-3.33,3.86-5.46,6.15C7.88,41,6.72,40.45,5.68,40a6.22,6.22,0,0,0-2.54-.55c-.86,0-3.17.41-3.14,2.73,0,2.89,3.27,3.12,3.71,3.11a5.83,5.83,0,0,0,4-1.86l1-1.07,1.75.89a4,4,0,0,0-.76,1.48c0,.33.13.5.22.5s.67-.46.69-.64a1.35,1.35,0,0,1,.18-.83l.17-.26c.82.42,1.44.75,1.7.86a3.12,3.12,0,0,0,2.36,0C15.17,44.3,15.28,44.22,15.1,44.13Zm-7.7-.89a5.59,5.59,0,0,1-3.57,1.42c-1.57,0-3.53-1-3.56-2.77S2,40,2.5,40a7.11,7.11,0,0,1,2.8.76c1,.45,2.12,1,3.15,1.48-.45.47-.81.85-1,1Z"/><path class="cls-1" d="M17.5,45.36a4.48,4.48,0,0,0,3.86-3.93A1.43,1.43,0,0,0,20,39.9h-.18a2.44,2.44,0,0,0-2.29,1.36l.08.07a2.08,2.08,0,0,1,1.7-1c.3,0,1.15.13,1.18,1.65A2.78,2.78,0,0,1,18,44.77,1.63,1.63,0,0,1,16.33,43a2.53,2.53,0,0,1,1.53-2.35v-.1a3.42,3.42,0,0,0-2.27,2.93,1.81,1.81,0,0,0,1.69,1.92Z"/><path class="cls-1" d="M41.25,35.32c-1.25,0-2.72,1-4.07,2.53s-2.64,3.81-2.6,5.59a2.84,2.84,0,0,0,.08.59,8,8,0,0,1-3.44,1A2,2,0,0,1,29,42.9h0c2.34-.38,3.92-1.61,3.9-2.43,0-.48-.59-.72-1.35-.69-1.06,0-3.38.93-3.58,3h-.67a6.48,6.48,0,0,1-2.15-.36c2.61-3.25,5.76-6.86,6-7.16a.86.86,0,0,0,.25-.71,1.21,1.21,0,0,0-.12-.37s-.07-.16-.24,0-1.2,1.48-2.6,3.19-2.75,3.49-3.81,4.88a4.11,4.11,0,0,1-1.4-.89,1.72,1.72,0,0,1-.17-.53v-.15a.59.59,0,0,0-.61-.06c-.29.1-.25.28-.16.48a9.33,9.33,0,0,1,.34,3.69c-.06.37,0,.39.07.48s.19.18.35,0c.55-.74,1.21-1.6,1.93-2.5a9.62,9.62,0,0,0,2.59.32H28v.1c0,.82.47,2.38,3.29,2.25a8.73,8.73,0,0,0,3.51-1.06,1.57,1.57,0,0,0,1.61,1c2.07,0,4-2.33,4.49-3.12l-.1-.07c-.58.67-2.27,2.89-4.44,2.93a1.06,1.06,0,0,1-1.1-1,20.08,20.08,0,0,0,4.37-3.46A7.86,7.86,0,0,0,42,36.13C41.93,35.75,41.83,35.29,41.25,35.32Zm-18,8.76-.1.09a16,16,0,0,0,0-2.13,6.28,6.28,0,0,0,1.14.53c-.51.74-.93,1.29-1.05,1.51Zm8.23-4c.31,0,.56.11.57.52s-.32,1.71-3.09,2.13A3.19,3.19,0,0,1,31.52,40ZM38.3,41.3a15.69,15.69,0,0,1-3.15,2.48,7.37,7.37,0,0,1,1.49-4c1.87-2.68,3.86-4.08,4.5-4.1a.39.39,0,0,1,.46.43c0,.38-.51,2.37-3.27,5.14Z"/><path class="cls-1" d="M50.33,35.45v-.11c-1.81.2-5.74,2.66-5.67,6.1a4.08,4.08,0,0,0,4.15,4H49a8.54,8.54,0,0,0,5.77-3.08,6.61,6.61,0,0,0,1.8-4.59,3,3,0,0,0-3-3h-.14c-.86,0-3.1.51-4.89,3.59l.15.07a5.13,5.13,0,0,1,4.36-2.81,2.61,2.61,0,0,1,2.64,2.85c0,1.68-1.73,6.07-6.11,6.15A3.58,3.58,0,0,1,46,41.08v0A6,6,0,0,1,50.33,35.45Z"/><path class="cls-1" d="M64.49,40c0-.17-.06-.48-.68-.47A7.65,7.65,0,0,0,60,40.66a2.93,2.93,0,0,0-.55-.6C61,38,63.27,35.15,63.46,34.82s0-.37,0-.44-.18-.06-.32.08a3.13,3.13,0,0,1-.66.32c-.15,0-.06.17.07.17s.13.24-.13.61C60.7,38,57,42.9,55,45c-.21.22-.14.28-.13.31s.16,0,.23,0,.14-.07.35-.31a13.38,13.38,0,0,1,4.47-3.68,9.78,9.78,0,0,1,.63,3.11c0,.37.23.69.47.68a.73.73,0,0,0,.6-.79,8.48,8.48,0,0,0-1.24-3.2,9,9,0,0,1,3-.64C64.3,40.53,64.5,40.28,64.49,40Zm-6.66,2.24h0c.08-.13.68-.9,1.47-1.9a1.54,1.54,0,0,1,.39.58A18.36,18.36,0,0,0,57.83,42.22Z"/><path class="cls-1" d="M86.67,43.66a4.79,4.79,0,0,1-2.47,1.52c-.36,0-.73,0-.75-.78a12.77,12.77,0,0,1,1.31-2.65.2.2,0,0,0,0-.28l0,0a1.08,1.08,0,0,0-.31-.11c-.07,0-.17,0-.27.21A12.17,12.17,0,0,1,83,43.37a2.44,2.44,0,0,1-1.9,1.25c-.78,0-.93-.6-1-1.3a3.22,3.22,0,0,1,2.66-2.91c.73,0,.89.41.92.64s0,.15.08.15a1.17,1.17,0,0,0,.6-.67c0-.12-.14-.69-1-.67a4.5,4.5,0,0,0-2.9,1.69c-.32.38-.56.75-.7.89-1.3,1.35-2.62,2.26-3.33,2.25-.37,0-.75,0-.77-1,0-1.32,1.6-2.72,1.7-2.83s0-.11-.15-.06a14.11,14.11,0,0,1-1.68.26c-.23,0-.36,0-.38-.2h0a2.06,2.06,0,0,0,.44-.92c0-.22-.11-.39-.23-.39-.4,0-1.26,1.17-1,1.73h0c-.91,1.23-3,3.61-4.71,3.64a.69.69,0,0,1-.8-.76c0-1,2-2.76,2.47-3.5a.31.31,0,0,0,0-.32.9.9,0,0,0-.23-.14c-.07,0-.18-.08-.37.15-2.66,3-3.91,4.19-4.79,4.44-.36.1-1,0-.85-.57.2-1,2.35-2.59,2.33-3.66,0-.58-.32-.65-.7-.64a5.28,5.28,0,0,0-2,1l.06.07a4.93,4.93,0,0,1,1.38-.7c.18,0,.29.09.3.31,0,1.06-2.38,2.4-2.35,3.8a1,1,0,0,0,1,1A4.44,4.44,0,0,0,67.81,44h0c-.13.82.46,1.42,1.43,1.4,1.91,0,4.3-2.57,5.27-3.82h0a.79.79,0,0,0,.42.23,2.92,2.92,0,0,0,.78.07h0a4.76,4.76,0,0,0-1,2.27c0,.93.63,1.21.94,1.21,1.54,0,2.72-1.24,3.7-2.13v.06c-.31.7-.09,2.11,1,2.09a3.68,3.68,0,0,0,2.22-1.15c.09-.08.09,0,.09.1,0,.27,0,1.15,1.22,1.13A4.49,4.49,0,0,0,86.7,43.7Z"/><path class="cls-2" d="M32.33,12.06c0,.27-.19.84-.19,1a1.67,1.67,0,0,0,.23.56,2.9,2.9,0,0,0-.36.83,4.33,4.33,0,0,0,.45,1.26c.2.26.18,1.49.88,1.57,4.58.51,11.77-13.08,9-17.09-.29-.4-2.69,0-2.87.19s-.55.6-.55.88-.64,0-.64,0l-.73.79s-.55-.18-.78,0-.68,1.21-.91,1.39-.5.14-.59.33.09.47,0,.84-.55.42-.37,1.26,1.68,1.68,2.42,2,.78.75.64.93-.41.09-.59,0c-.46-.24-2.59-1.59-3.32-1.26-.45.2-.55.7-.77.88s-.59.24-.73.51.09.57,0,.89a7.38,7.38,0,0,0-.5,1.49C32,11.66,32.37,11.78,32.33,12.06Z"/><path class="cls-3" d="M54.77,17.18c.69-.08.67-1.3.87-1.57a4.29,4.29,0,0,0,.45-1.26,3,3,0,0,0-.38-.83,1.62,1.62,0,0,0,.23-.56c0-.19-.15-.74-.19-1s.36-.38.36-.66a7.48,7.48,0,0,0-.51-1.49c-.15-.32.08-.6-.06-.87s-.5-.32-.73-.51-.33-.68-.78-.88c-.73-.32-2.86,1-3.32,1.29-.18.09-.45.19-.59,0s-.1-.56.63-.94S53,6.67,53.14,5.83s-.28-.89-.38-1.26.09-.65,0-.84-.37-.14-.59-.32S51.48,2.2,51.25,2s-.78,0-.78,0l-.74-.79s-.64.29-.64,0-.37-.7-.55-.89S46-.23,45.68.18C42.89,4.21,50.19,17.73,54.77,17.18Z"/><path class="cls-4" d="M35.05,20.29c-.29.64.71,1.33.85,1.62a4.59,4.59,0,0,0,.7,1.16,2.72,2.72,0,0,0,.87.06,1.64,1.64,0,0,0,.38.46,9.13,9.13,0,0,0,1,.3c.26.09.14.5.39.63a6.72,6.72,0,0,0,1.49.24c.34,0,.47.36.77.36s.5-.29.77-.41.72,0,1.09-.28c.62-.5.44-3.34.45-3.86,0-.2,0-.49.27-.53s.51.18.5,1,0,2.87.65,3.42.87.17,1.23.25.51.38.71.39.28-.26.54-.38,1.34,0,1.6-.17.35-.69.35-.69l1-.28s0-.7.29-.56.83-.29,1.07-.37,1.55-2,1.34-2.49C51.22,15.82,37.11,15.66,35.05,20.29Z"/><path class="cls-1" d="M20.57,57.66l-.29-.18a4.48,4.48,0,0,1-.23.62h0A1.5,1.5,0,0,1,20.57,57.66Z"/><path class="cls-1" d="M20.83,59.66a.38.38,0,0,0,.16-.05.12.12,0,0,0,.11-.09V57.2s0-.05.09-.08.08-.06.08-.09a.11.11,0,0,0,0-.06L21,56.74l-.23.22H19.27a3.26,3.26,0,0,0,.33-.24,1.26,1.26,0,0,1,.27-.17c.06,0,.09,0,.09-.05s0,0-.07-.05l-.3-.14a2.86,2.86,0,0,1-.47.66h-.43l-.37-.19v2.91h0a.41.41,0,0,0,.16,0,.11.11,0,0,0,.1-.09V57.13h2.25Z"/><path class="cls-1" d="M19.25,58.16s.07,0,.09-.09a.58.58,0,0,0,0-.14.23.23,0,0,0-.11-.18,1.45,1.45,0,0,0-.33-.15v.07a1.27,1.27,0,0,1,.32.48Z"/><path class="cls-1" d="M20.74,58.38l-.24-.3-.18.16h-.49v-.71l.06-.07c.06-.07.06,0,.06-.06s0,0,0,0l-.34-.12v1h-.88l.16.16h.63a2.55,2.55,0,0,1-.78.92h0a2.61,2.61,0,0,0,.85-.64v.64h.15c.06,0,.1,0,.1-.06v-.64a1.12,1.12,0,0,1,.38.24,1,1,0,0,1,.25.28.13.13,0,0,0,.12.12s.11-.07.11-.2a.37.37,0,0,0-.2-.33,2.07,2.07,0,0,0-.66-.21v-.15Z"/><path class="cls-1" d="M16.83,57.55a.92.92,0,0,1,.48.73c0,.07,0,.1.08.1a.14.14,0,0,0,.12-.09.39.39,0,0,0,.06-.2c0-.28-.24-.48-.72-.59Z"/><path class="cls-1" d="M17.65,57.34s.07,0,.1-.1a.55.55,0,0,0,0-.23.3.3,0,0,0-.1-.24,1.07,1.07,0,0,0-.24-.15,2.37,2.37,0,0,0-.44-.13h0a1,1,0,0,1,.57.72C17.56,57.31,17.59,57.34,17.65,57.34Z"/><path class="cls-1" d="M19.89,60.17h1.7l-.37-.36L21,60H19.75a1.56,1.56,0,0,1,.08-.38H20l-.08-.06-.33-.16a2.42,2.42,0,0,1-.19.63H17.83l.18.17H19.3a2.67,2.67,0,0,1-1.62,1.17v.05a2.66,2.66,0,0,0,2-1.23,3,3,0,0,0,1.57,1.21.5.5,0,0,1,.4-.27v-.08A2.43,2.43,0,0,1,19.89,60.17Z"/><path class="cls-1" d="M17.51,60.06a2.4,2.4,0,0,1,.06-.59l.59-2.3h0c-.15.42-.32.87-.51,1.38a8.17,8.17,0,0,1-.32.8s-.1,0-.22,0H16.8v.11h.33a.28.28,0,0,1,.11.19,1.54,1.54,0,0,1,0,.34,2.15,2.15,0,0,1,0,.49,1.58,1.58,0,0,0,0,.3.31.31,0,0,0,0,.18l.09.11.13.11a.24.24,0,0,0,.15,0c.07,0,.1,0,.1-.09l-.11-.51A3,3,0,0,1,17.51,60.06Z"/><path class="cls-1" d="M30.9,56.87l-.21-.16-.2.24H28.33l.14.18h2.11v3.65c0,.12,0,.18-.1.18l-.7-.08V61q.62.14.64.42c0,.05,0,.08.06.08a.71.71,0,0,0,.22-.13.47.47,0,0,0,.22-.29V57.19l.15-.11h0Z"/><path class="cls-1" d="M27.06,56.49l-.07.07a2.46,2.46,0,0,1,.63.86.17.17,0,0,0,.16.18c.07,0,.09,0,.14-.1a.33.33,0,0,0,.07-.2C28,57.06,27.68,56.79,27.06,56.49Z"/><path class="cls-1" d="M26.83,61.4h.06a.32.32,0,0,0,.15,0c.06,0,.08-.07.08-.11V57.83l.17-.1h0l-.47-.21Z"/><path class="cls-1" d="M39.34,59.86a3.66,3.66,0,0,1-.66-1.76h2.15a5.55,5.55,0,0,0-.43-.48,1.5,1.5,0,0,0-.21.18L40,58h-1.6a2.58,2.58,0,0,1,.06-.64,4,4,0,0,0,0-.47v-.13l.09-.05a.08.08,0,0,0,.06-.08,4.38,4.38,0,0,0-.59-.21V58H36l.19.18h1.89a3.82,3.82,0,0,1-.61,2.09,4.45,4.45,0,0,1-1.45,1.17v.07a4.16,4.16,0,0,0,1.56-1,3.56,3.56,0,0,0,.83-2.35h.08a3.87,3.87,0,0,0,.6,2,3.13,3.13,0,0,0,1.28,1.13.68.68,0,0,1,.65-.27h0A3,3,0,0,1,39.34,59.86Z"/><path class="cls-1" d="M48.3,56.66h.22l-.41-.23a10.07,10.07,0,0,1-2.44,2.79v.09a4.38,4.38,0,0,0,1.42-1v2.35a.63.63,0,0,0,.1.35.45.45,0,0,0,.32.18H49.7l.22-.06a.56.56,0,0,0,.26-.18.31.31,0,0,0,.09-.15s0,0-.06,0-.09-.05-.13-.13a.54.54,0,0,1-.06-.28v-.22A2,2,0,0,0,50,60h-.1l-.12.65a.44.44,0,0,1-.12.26.3.3,0,0,1-.19.09h-1.9a.18.18,0,0,1-.11,0,.25.25,0,0,1-.08-.12V58.62h1.49a2.8,2.8,0,0,1-.08.86,1.49,1.49,0,0,1-.08.4.1.1,0,0,1-.08.05L48,59.7h0c.32.17.48.32.48.44v.06h0a.67.67,0,0,0,.49-.32,6.52,6.52,0,0,0,.19-1.32l.19-.12h0l-.31-.27-.21.24h-1.4l-.34-.21a12.05,12.05,0,0,0,1.06-1.35,6.46,6.46,0,0,0,2.1,2,.49.49,0,0,1,.38-.14h.16v-.06A6.43,6.43,0,0,1,48.3,56.66Z"/><path class="cls-1" d="M60.42,57.1,60,56.69l-.27.27h-3l.17.17H58v.72h-.48l-.38-.14V61.4h0a.37.37,0,0,0,.18-.06.13.13,0,0,0,.12-.11v-.37H59.6v.49h0a.35.35,0,0,0,.17-.06.22.22,0,0,0,.12-.11v-3l.12-.09c.07,0,.1-.08.1-.11h0l-.37-.32-.22.22H59v-.72Zm-2.2,0h.46v.72h-.47Zm-.86.85h.54a1.8,1.8,0,0,1-.54,1.55Zm2.21,2.74H57.36V60h2.21Zm0-.86H57.36v-.17A2,2,0,0,0,58.2,58h.48v1.27a.13.13,0,0,0,.08.11.44.44,0,0,0,.26.06h.55Zm0-1.88v1.2h-.33Q59,59.15,59,59V58Z"/><path class="cls-1" d="M56.26,59l-.24.56c0,.1-.16.14-.36.14h-.11q.39.12.39.27v.5a3.53,3.53,0,0,0,0,.5.18.18,0,0,0,.06.14.22.22,0,0,0,.15.06h.12a.12.12,0,0,0,.08-.13v-.45a4.65,4.65,0,0,1,0-.57,1.31,1.31,0,0,1,.07-.38,1.87,1.87,0,0,1,.17-.53l.27-.82c.11-.34.21-.63.28-.88H57Z"/><path class="cls-1" d="M56,56.77l-.31-.11h0a3.59,3.59,0,0,1,.39.39,1,1,0,0,1,.12.26.15.15,0,0,0,.14.16.16.16,0,0,0,.13-.08.28.28,0,0,0,.06-.19.34.34,0,0,0-.13-.28A1.35,1.35,0,0,0,56,56.77Z"/><path class="cls-1" d="M55.83,58.52a.11.11,0,0,0,.12.1.17.17,0,0,0,.13-.09.34.34,0,0,0,.07-.19.43.43,0,0,0-.26-.37,2.81,2.81,0,0,0-.58-.25h0A1.76,1.76,0,0,1,55.83,58.52Z"/><path class="cls-1" d="M69.27,57.11H67.83a.23.23,0,0,0,.14-.23c0-.2-.24-.37-.72-.52h0a1.16,1.16,0,0,1,.37.72h-1.5l-.39-.2v1.86a6.67,6.67,0,0,1-.11,1.3A3.11,3.11,0,0,1,65,61.21h0a3.31,3.31,0,0,0,.52-.6A2.88,2.88,0,0,0,66,58.94V57.19h3.84l-.36-.4Z"/><path class="cls-1" d="M69.61,58.46l-.33-.4-.28.26H67.94v-.66s0-.05.09-.09.09-.05.09-.07h0l-.47-.24V59.4H67l-.36-.21v2.19h0a.38.38,0,0,0,.17-.06c.07,0,.1-.09.11-.12v-.35h2v.43h0a.28.28,0,0,0,.17-.08.2.2,0,0,0,.1-.14v-1.4a.1.1,0,0,1,.07-.09c.07,0,.08-.06.08-.08h0l-.3-.25-.23.21h-1v-1ZM69,59.55v1.19H67V59.55Z"/></g></g></svg>