<svg xmlns="http://www.w3.org/2000/svg" viewBox="0 0 60.93 62.71"><defs><style>.cls-1{fill:#1c1c1b;}.cls-2{fill:#007a4d;}</style></defs><title>资源 3</title><g id="图层_2" data-name="图层 2"><g id="Logos"><path class="cls-1" d="M0,41.2H.54v5.54H0V47a6.24,6.24,0,0,0,3.28-.58,1.29,1.29,0,0,0,.77-1.07A1.74,1.74,0,0,0,3.21,44a4.41,4.41,0,0,0-.66-.34c.61-.29,1.38-.71,1.38-1.49a1.32,1.32,0,0,0-.75-1.13,3,3,0,0,0-1.32-.17A18,18,0,0,0,0,41v.24Zm1.44,0a1.47,1.47,0,0,1,1.19.35,1.42,1.42,0,0,1,.39.89c0,.71-.85,1.22-1.17,1.38a.21.21,0,0,0-.18.2c0,.11.09.13.14.15l.28.09a1.51,1.51,0,0,1,1.06,1.29.88.88,0,0,1-.51.77,3.08,3.08,0,0,1-1.26.31c0-3,0-3.74.07-5.44ZM5.15,47A17.59,17.59,0,0,1,6,45.42l.43-.73c.34-.59.36-.59.7-.6H8.3a3.93,3.93,0,0,0,.53,0A2.38,2.38,0,0,0,9.21,44c.31.64.83,1.64,1.15,2.29a3.17,3.17,0,0,1,.33.81,3.61,3.61,0,0,1,.92-.21c-.27-.6-.37-.8-1.29-2.61-1-2-1.49-3.1-1.5-3.16a.65.65,0,0,1-.06-.24,7.17,7.17,0,0,1-.75.07,17,17,0,0,1-1.57,2.81c-.25.39-.49.76-.75,1.14l-.61.89A14.33,14.33,0,0,0,4.31,47h.84Zm3.09-5.23c.28.65.38.91.83,1.9a2.25,2.25,0,0,1-.91.12H7.34c-.25,0-.23,0-.23-.1a1.39,1.39,0,0,1,.12-.27,17.66,17.66,0,0,1,1-1.63ZM13,46.92c0-.9,0-1.84.08-2.76V42.07a5.9,5.9,0,0,0,1,1.08c.83.85,1.68,1.69,2.52,2.53s.9.89,1.37,1.39c.29-.2.4-.28.7-.46a.92.92,0,0,1-.12-.37c-.06-.44-.07-1.52-.07-1.86V40.79a7.41,7.41,0,0,1-.78.2c0,.82.05,1.1.05,2.63v.8a10.23,10.23,0,0,0,.06,1.31c-.53-.56-.61-.64-1.3-1.31-.49-.46-1.69-1.66-2-2a11.82,11.82,0,0,1-1.41-1.66,5.08,5.08,0,0,1-.86.1,17.61,17.61,0,0,1,.1,2c0,.78-.12,3.58-.14,3.89v.41l.75-.22Zm9.84-2.69a18.12,18.12,0,0,0,2-2.25c.4-.51.59-.79.83-1.15h0a3.44,3.44,0,0,0-.73.05,4.1,4.1,0,0,1-.58,1,14,14,0,0,1-1,1.27,5.79,5.79,0,0,1-.71.64,19.58,19.58,0,0,1-1.49-1.71A18.37,18.37,0,0,1,20,40.6,4.94,4.94,0,0,1,19,41a6.49,6.49,0,0,0,.73.94l1.1,1.34c.43.51.64.73,1,1.13v2.71l1-.05V44.27ZM25,47a18.14,18.14,0,0,1,.89-1.59l.43-.73c.34-.59.36-.59.7-.6h1.14a3.92,3.92,0,0,0,.52,0,2.37,2.37,0,0,0,.38-.09c.31.64.83,1.64,1.15,2.29a3.22,3.22,0,0,1,.34.81,3.6,3.6,0,0,1,.92-.21c-.27-.6-.37-.8-1.29-2.61-1-2-1.49-3.1-1.5-3.16a.66.66,0,0,1-.06-.24,7.16,7.16,0,0,1-.75.07,17.06,17.06,0,0,1-1.57,2.81c-.25.39-.49.76-.75,1.14l-.61.89A13.47,13.47,0,0,0,24.19,47H25Zm3.09-5.23c.27.65.38.91.83,1.9a2.25,2.25,0,0,1-.91.12h-.82c-.25,0-.23,0-.23-.1a1.32,1.32,0,0,1,.12-.27,17.81,17.81,0,0,1,1-1.63Zm4.74,5.14c0-.9,0-1.84.08-2.76V42.07a5.9,5.9,0,0,0,1,1.08c.83.85,1.68,1.69,2.52,2.53s.9.89,1.37,1.39c.29-.2.4-.28.7-.46a.93.93,0,0,1-.12-.37c-.06-.44-.07-1.52-.07-1.86V40.79a7.44,7.44,0,0,1-.78.2c0,.82.05,1.1.05,2.63v.8a10.13,10.13,0,0,0,.06,1.31c-.53-.56-.61-.64-1.3-1.31-.49-.46-1.69-1.66-2-2a11.8,11.8,0,0,1-1.41-1.66,5.09,5.09,0,0,1-.86.1,17.47,17.47,0,0,1,.09,2c0,.78-.12,3.58-.14,3.89v.41l.76-.22Zm8.43-5.76a4,4,0,0,0,1,.12H43.5V47a7.21,7.21,0,0,1,1,0V41.27a11.18,11.18,0,0,0,1.84-.06l.34-.51h0a11.44,11.44,0,0,1-2.63.17H42.48a4.44,4.44,0,0,1-.83-.12l-.28.4Zm5.54,0h.49v1.36c0,.69,0,1.64-.05,2.39A20.44,20.44,0,0,1,47.12,47l1-.07V42.77a13.71,13.71,0,0,1,.12-1.62,1.69,1.69,0,0,1,1.32.43A1.82,1.82,0,0,1,50,42.87a1.53,1.53,0,0,1-.46.83,2.36,2.36,0,0,1-1.33.64A22.74,22.74,0,0,0,49.93,46c.45.4.9.79,1.37,1.17l.79-.55a18.53,18.53,0,0,1-2.84-2.4,2.69,2.69,0,0,0,1-.68A2.15,2.15,0,0,0,51,42.09a.87.87,0,0,0-.28-.65,2.74,2.74,0,0,0-1.91-.6h-.94l-1.09.07v.23Zm9.45,5.24-.1-.09c-.38.24-.6.24-1.44.25H53.61l.1-2.47h1.06a5.46,5.46,0,0,1,.89.05l.55-.65-.07-.07a3.36,3.36,0,0,1-1.27.2H53.71V41.35h1.7l.53-.39v-.12a5.94,5.94,0,0,1-1.52.13h-1l-.82-.05A6.24,6.24,0,0,1,52.75,42v1.17a21.5,21.5,0,0,1-.1,2.59c-.05.58-.08.82-.16,1.32A9.33,9.33,0,0,1,54,47h1.07a1.94,1.94,0,0,1,.41.08l.63-.65Zm4.66,0-.1-.09c-.38.24-.6.24-1.44.25H58.27l.1-2.47h1.06a5.48,5.48,0,0,1,.89.05l.55-.65-.07-.07a3.36,3.36,0,0,1-1.26.17H58.38V41.32h1.71l.53-.39v-.12a5.94,5.94,0,0,1-1.52.13h-1l-.82-.05A6.14,6.14,0,0,1,57.43,42v1.17a21.5,21.5,0,0,1-.1,2.59c-.05.58-.08.82-.16,1.32a9.34,9.34,0,0,1,1.56-.1h1.06a1.94,1.94,0,0,1,.41.08l.63-.65Z"/><path class="cls-2" d="M43.26,11a3.73,3.73,0,0,0,.68-2.94,2.9,2.9,0,0,0-3.07,1.5c-.62,1.06,0,3.12,0,3.14A6.54,6.54,0,0,0,43.25,11Zm-.57-8.12a2.82,2.82,0,0,0-1.6-.08c-.68.24-1.26,1.34-1.28,1.34a3.63,3.63,0,0,0,1.7,0,2.61,2.61,0,0,0,1.17-1.3ZM39.81,1.79A5.1,5.1,0,0,0,37,2.4c-.89.72-1.42,3-1.42,3a11.67,11.67,0,0,0,3-.9c.84-.53,1.22-2.68,1.22-2.68ZM33.7,7A22.64,22.64,0,0,1,36,.43L34,.15a40.72,40.72,0,0,0-1.77,4.19c-.29-.48-.9-1.06-1.46-1.75A22.94,22.94,0,0,0,29.09.33L26.3.2a65.85,65.85,0,0,1,3.91,5.43,10.71,10.71,0,0,1,.93,1.61c-.2,1.05-.35,2.06-.48,2.7-.49,2.52-.85,4.36-1.13,6.3a31.11,31.11,0,0,0-3.51-1c-2.38-.63-3.73-.94-6.15-1.4l-.09,2a18,18,0,0,1,3.36.56,9.53,9.53,0,0,1,2.14.94,77.58,77.58,0,0,0-2.14,9.5c-.5,2.87-.72,6.21-.72,6.21L25.1,34.2s.22-4.5.56-7.36a28,28,0,0,1,.84-5.5,24,24,0,0,1,1.28-3.24s1.14.55,1.61.82c-.15,2.81-.43,5.66-.56,9.51-.08,2.32.09,6.11.09,6.11a17,17,0,0,0,2.6.39c.77,0,2.71-.16,2.71-.16a82.3,82.3,0,0,1-1.36-11.89,14,14,0,0,1,1.59-.74c.53-.19.84-.15,1.4-.37,0,.72.12,4.17.14,6.21a50.9,50.9,0,0,0,.87,6.64l3.36-1.15s-.09-1.7-.09-2.79a27.67,27.67,0,0,1,.37-5.5,32.79,32.79,0,0,1,1.39-5,15.18,15.18,0,0,0,1.68-.37V17.92a32.81,32.81,0,0,0-5.49.72A29.71,29.71,0,0,0,32.73,20,68.73,68.73,0,0,1,33.67,7Zm4.1,17c0-1,.06-2.52.12-3.08.51-.15,1.08-.28,1.65-.4-.15.57-.55,2.25-.75,3.3-.42,2.12-.28,3.81-.65,5.86A31.94,31.94,0,0,1,37.8,24ZM32,2.8s.83-.91.74-1.59A2.63,2.63,0,0,0,31.92,0s-.81.7-.84,1.3S32,2.79,32,2.79Zm-5.34-.32a4.53,4.53,0,0,0-.36,4.45c.62,1.52,3.09,2.85,3.09,2.85a10.77,10.77,0,0,0-.24-4.16,6,6,0,0,0-2.49-3.14Zm-.95,5.91a8.9,8.9,0,0,0-1.17-3.45A4.53,4.53,0,0,0,21.48,3a3.54,3.54,0,0,0,.66,3.61A5.26,5.26,0,0,0,25.73,8.39Zm-.58-3.77a3.71,3.71,0,0,0,.34-1.91A2.11,2.11,0,0,0,24,1.12a2.14,2.14,0,0,0-.23,2.15A3.77,3.77,0,0,0,25.15,4.62ZM22.22,7.45a3.19,3.19,0,0,0-2.09-1.13,3,3,0,0,0,.73,2.6,5.38,5.38,0,0,0,2.29,1.2A5.8,5.8,0,0,0,22.22,7.45Zm2.24,1.78c-.43,1.51-.6,2.45.66,4a7.42,7.42,0,0,0,3.7,2s.22-3.45-1-4.75a3.39,3.39,0,0,0-3.37-1.25Zm-.11,4.39a6.94,6.94,0,0,0-1.8-2.87A3.83,3.83,0,0,0,19.62,10a3.37,3.37,0,0,0,1.14,2.68C21.76,13.69,24.35,13.62,24.35,13.62Zm-5,5.95a3.14,3.14,0,0,0,2.83.8,3,3,0,0,0,2.42-2.45,4.2,4.2,0,0,0-2.74-.7c-1.42.23-2.5,2.36-2.5,2.36Zm21.31-5.32a7.15,7.15,0,0,0-1.16,3,6.57,6.57,0,0,0,3.22-1A3.78,3.78,0,0,0,44.12,13c-1.42-.17-2-.29-3.46,1.23Zm-5.58-.45a6.15,6.15,0,0,0-1.13,4.62,9.55,9.55,0,0,0,4.85-2.61A4.39,4.39,0,0,0,40,12.08a4.85,4.85,0,0,0-4.94,1.71Zm.68-6.52c-1.24,1.52-1.15,4.9-1.15,4.9s3.34-.79,4.56-2.38a5.51,5.51,0,0,0,1.22-4.6A5.21,5.21,0,0,0,35.76,7.28Z"/><path class="cls-1" d="M19.87,58a.35.35,0,0,1,0,.17,2.13,2.13,0,0,1-.39.69h-.24c-.2-.06-.29,0-.26.09a2.17,2.17,0,0,1,.11,1,5.39,5.39,0,0,1-.07.72c0,.2.08.3.11.3a1,1,0,0,0,.15-.65V59h.35a10.7,10.7,0,0,1,1.32-.11c.06,0,.08,0,.06.11v1a2.12,2.12,0,0,1-.06.59.34.34,0,0,0,0,.09.22.22,0,0,0,.15.19q.22,0,.22-1.17,0-.54.15-.65T21,58.69h-.07a7.42,7.42,0,0,1-1.3.28,3.44,3.44,0,0,0,.43-.39,3,3,0,0,1,.28-.26q.17-.15-.26-.3h0c-.17-.06-.23,0-.17.09Zm-1.41,1.15q.3-.2,0-.48c-.36-.17-.53-.18-.52,0a.9.9,0,0,0,.52.5Zm1.58.59a5.08,5.08,0,0,1-.58.09c-.07,0-.09,0-.06.06a.73.73,0,0,0,.22,0H20a3.21,3.21,0,0,1-.56.67c-.09.07-.08.09,0,.06A1.12,1.12,0,0,0,20,60a2,2,0,0,1,0,.56.13.13,0,0,0,.09.11h.07a3.11,3.11,0,0,0,0-.74,3.09,3.09,0,0,1,.54-.07c.09,0,.12,0,.09-.09s-.09-.07-.2-.07a1.92,1.92,0,0,0-.43.09,3,3,0,0,1,0-.54.41.41,0,0,0,0-.09Q20,59,19.9,59a1.78,1.78,0,0,1,.11.74Zm.46-.61a.76.76,0,0,1-.15.3c0,.06-.05.09,0,.09a.37.37,0,0,0,.15-.07l.17-.11a.13.13,0,0,0,.13-.11.33.33,0,0,0-.24-.19v.09Zm-.78.48q.2-.13,0-.28c-.2-.07-.29-.07-.26,0a.56.56,0,0,0,.26.26ZM18,60.23q.33-.24-.13-.54t-.33.06A.87.87,0,0,0,18,60.23Zm2.69.28q.15-.09,0-.3-.48-.22-.37,0c.14.22.28.33.41.33Zm-2.23-.24a1.15,1.15,0,0,0-.11.17l-.17.35a6.86,6.86,0,0,1-.39.72.48.48,0,0,1-.17.17.15.15,0,0,0-.07.19.83.83,0,0,0,.26.39c.1.07.17,0,.19-.24a1.23,1.23,0,0,0,0-.3,4.27,4.27,0,0,1,.22-.65l.19-.63v-.17Zm1.37.59a1,1,0,0,1,0,.17q-1.06.11-1.41.11-.13.13.24.19H19l.85-.13a1.25,1.25,0,0,1-.43.71,1.73,1.73,0,0,1-.85.48c-.16.09-.08.11.24.07a1.55,1.55,0,0,0,.56-.2,1.67,1.67,0,0,0,.67-.89,6.58,6.58,0,0,0,1,1.15,2.88,2.88,0,0,0,1.08,0h0a4.63,4.63,0,0,1-1-.35,4.81,4.81,0,0,1-.91-.76V61.3h1.93a.55.55,0,0,0-.5-.26l-1,.11h-.41a.15.15,0,0,0,0-.15q-.2-.15-.3-.09a.36.36,0,0,0,0,.15ZM24.17,59c.11.13.22.13.3,0a.34.34,0,0,0-.07-.41.82.82,0,0,0-.5-.19q-.26,0,.26.61Zm.78-.26c-.09.09,0,.16.24.22q1-.22,1-.13a5.09,5.09,0,0,1,.22,1.6,4.86,4.86,0,0,1-.09,1.41,1,1,0,0,1-.37,0h-.2a1,1,0,0,0,.2.2,2.37,2.37,0,0,1,.35.39q.13.2.22.15c.22-.16.3-.65.24-1.48v-.43q-.15-1.8.09-1.8c0-.16-.18-.27-.63-.35a3.29,3.29,0,0,1-1.28.26Zm-1.6.35v.13a4,4,0,0,1,.13,1.43,4.42,4.42,0,0,1-.11.87,1.12,1.12,0,0,0-.07.41c0,.25.11.37.2.37s.18-.19.19-.43,0-.52,0-1a4.79,4.79,0,0,1,.09-1.43q.11-.13-.3-.3h-.15Zm8.17-.91a1.9,1.9,0,0,1-.56,1q-.13.3.82-.48a.87.87,0,0,1,.17-.13.13.13,0,0,0,.11-.11.68.68,0,0,0-.52-.33.12.12,0,0,0,0,.09Zm-2.82.26a2.2,2.2,0,0,1,.19.93,8.33,8.33,0,0,1-.17,2.49.57.57,0,0,0,0,.13c0,.32.06.51.15.56s.27-.91.26-3.12l.26.22a1,1,0,0,0,.17.15q.28,0,0-.43a1,1,0,0,0-.46-.07,1.51,1.51,0,0,1,.07-.56,1.87,1.87,0,0,0,0-.24.49.49,0,0,0-.52-.22.2.2,0,0,0,0,.15Zm1.73.69q.3,0,.09-.48c-.29-.17-.46-.22-.52-.13a1.69,1.69,0,0,0,.43.61Zm.87.13a4.67,4.67,0,0,1-1.08.35.78.78,0,0,0-.35.07v.09a.35.35,0,0,1,.15.2,2.23,2.23,0,0,0,.3.65q.2.48-1.08,1.41c-.09.06-.06.07.09,0a2.22,2.22,0,0,0,1.17-.91,1,1,0,0,1,.13-.15l.11-.15q0-.13-.3-.28l.46-.11q.15.13.11.56a1.7,1.7,0,0,0,0,.24q0,1.15,1,1a1.26,1.26,0,0,0,1-.39.32.32,0,0,0,0-.22,3.58,3.58,0,0,1-.17-.65c0-.07,0-.09-.07-.07s0,.07,0,.17a.66.66,0,0,1-.53.77h-.16q-.8.13-.76-.54a2.54,2.54,0,0,1,.11-.65.35.35,0,0,0,0-.11c0-.06-.12-.12-.37-.17l.26-.06h.17c.09,0,.13,0,.13-.07s0-.1-.13-.17a1.49,1.49,0,0,1,.41-.5s.07-.05.07-.07a1,1,0,0,0-.5-.35h-.11Zm-.74.46a2,2,0,0,1,.76-.15,1.25,1.25,0,0,1-.17.63l-.72.24-.13-.65.26-.06ZM28,60.38l-.07.17q0,.61.26.39a1,1,0,0,0,.2-.67q-.06-.69-.2-.41a2.55,2.55,0,0,1-.19.52ZM34.07,58a.66.66,0,0,1,.15.37,8.4,8.4,0,0,1,0,1.19q-.37.13-.93.28c-.14.07-.08.12.2.13a2.17,2.17,0,0,0,.67-.13,5.14,5.14,0,0,1-1,1.65c-.07.09-.1.14-.09.17s.07,0,.15-.09a3.73,3.73,0,0,0,1-1.22,8.62,8.62,0,0,1-.17,1.8.59.59,0,0,0,0,.13c.06.2.12.32.2.35s.12-.09.13-.37,0-.84,0-1.78c.25.25.41.36.48.35s.1-.15,0-.28a.58.58,0,0,0-.52-.15v-.61a1,1,0,0,0,.53-.21c.06-.1,0-.16-.13-.17a.45.45,0,0,0-.3.09,7,7,0,0,1,.13-1.26,1,1,0,0,0,0-.15A.56.56,0,0,0,34,58v.09Zm1.8.06q.35.52.52.54.28-.2,0-.48-.65-.35-.54-.07Zm1.26.59a5.52,5.52,0,0,1-1.65.37c-.12-.13-.21-.18-.28-.15a.7.7,0,0,1-.13.48.23.23,0,0,1,0,.09c0,.17,0,.28.11.33s.16-.14.3-.52h0c.53-.1,1.08-.2,1.65-.28a1.23,1.23,0,0,1-.07.35c-.07.21,0,.22,0,.15a3.9,3.9,0,0,1,.61-.3.18.18,0,0,0,.19-.13,1.07,1.07,0,0,0-.67-.37.12.12,0,0,0-.09,0Zm-.69,1,.09.09c.3.35.5.47.59.37s0-.25-.13-.39q-.61-.3-.54-.07Zm-.89,0h0a1.23,1.23,0,0,1-.41.71q-.15.17.17,0a2,2,0,0,0,.41-.39,1.43,1.43,0,0,1,.22-.17h0c-.07-.13-.22-.18-.43-.15Zm.48.37h0a2,2,0,0,1-.13.39,4.16,4.16,0,0,1-1.21,1.28q-.33.19,0,.11a3,3,0,0,0,.61-.3,2.46,2.46,0,0,1,.2.89c0,.17.06.25.13.24s.09-.14.09-.33H37c.1,0,.15,0,.15-.07s0-.1-.13-.17a.81.81,0,0,1,.24-.33c.06-.06.09-.1.09-.13a1.3,1.3,0,0,0-.59-.39h-.09a3.41,3.41,0,0,1-1,.2h-.2a7,7,0,0,0,.82-1q1.15,1,1.3,1.08a4,4,0,0,0,.89-.09c.06,0,.08,0,.07-.07s0,0-.11,0a4,4,0,0,1-2.06-1h0c-.1-.16-.22-.22-.35-.17Zm.65,2-1,.15-.07-.63a4.54,4.54,0,0,1,1.13-.13q.13.11,0,.61ZM41,58.24l.33.37c.12.1.21.08.28-.07a.3.3,0,0,0-.09-.37q-.74-.35-.61,0l.09.11Zm.59.69a10.46,10.46,0,0,1-1.37.22h-.07c-.23-.09-.36-.11-.39-.07s0,0,0,.07a.74.74,0,0,1,.09.46,4,4,0,0,1-1.19,2.95q-.11.13-.09.15a.48.48,0,0,0,.27-.09,3.83,3.83,0,0,0,1.41-3.25,13.72,13.72,0,0,0,2.21-.22c.23,0,.33-.08.28-.15a.64.64,0,0,0-.46-.13,3.94,3.94,0,0,0-.67.11Zm-.39.69a2.2,2.2,0,0,1,.15.91l-.8.13c-.19,0-.17.09.06.15a2.6,2.6,0,0,0,.74,0v1l-.54.07L39.78,62c-.1,0-.14,0-.11.07a.6.6,0,0,0,.3.15l.43-.06A10.53,10.53,0,0,1,41.64,62a11,11,0,0,1,1.54,0q.3,0,.2-.15a.67.67,0,0,0-.46-.24,1.66,1.66,0,0,0-.61,0l-.65.09v-1a4.68,4.68,0,0,0,.74-.13c.13-.06.18-.11.15-.17a.38.38,0,0,0-.33-.09H42l-.35.07a1.94,1.94,0,0,1,.06-.59.33.33,0,0,0,0-.19c-.23-.17-.42-.23-.56-.17s0,.05,0,.11Z"/><path class="cls-1" d="M18.36,54.48a4.4,4.4,0,0,1,.1-1.12c0-.15.09-.94.12-1.27a3.05,3.05,0,0,0,0-.53c.18.39.22.45.49.95l.49.92c.28.5.31.55.46.87h.33c.2-.34.23-.38.44-.72s.49-.78.83-1.37a4,4,0,0,0,.33-.65V52l.16,1.82v.64l.53-.06-.24-2.79v-.83H22a7.54,7.54,0,0,1-.54,1.13,19.66,19.66,0,0,1-1.1,1.78c-.23-.34-.28-.44-.47-.75l-1.07-2-.09-.18-.48.1A4.22,4.22,0,0,1,18.12,52a7.9,7.9,0,0,1-.09.82c0,.28-.17,1.33-.19,1.56l.49.08Zm6.08,0a10.72,10.72,0,0,1,.53-.95l.26-.44c.21-.35.22-.35.42-.36h1l.23-.11c.18.38.5,1,.69,1.36a1.9,1.9,0,0,1,.2.48,2.23,2.23,0,0,1,.55-.13c-.16-.36-.22-.48-.77-1.56s-.89-1.85-.9-1.89a.38.38,0,0,1,0-.14h-.45a10.07,10.07,0,0,1-.94,1.68l-.45.68-.36.53a8.11,8.11,0,0,0-.46.74h.5Zm1.85-3.12c.16.39.23.54.5,1.13a1.35,1.35,0,0,1-.54.07h-.49c-.1,0-.14,0-.14-.06a.82.82,0,0,1,.07-.16,10.52,10.52,0,0,1,.6-1Zm6.48,2.34a1.73,1.73,0,0,1-1.19.45,1.38,1.38,0,0,1-1.47-1.49,1.82,1.82,0,0,1,.47-1.26,1.71,1.71,0,0,1,1-.41,1.41,1.41,0,0,1,.61.17,1.68,1.68,0,0,1,.37.26l.32-.3a.82.82,0,0,0-.28-.22,1.55,1.55,0,0,0-.65-.15,1.5,1.5,0,0,0-.38.06c-.41.11-.53.15-.92.28s-.45.16-.59.3a2,2,0,0,0,.14,2.81,1.86,1.86,0,0,0,1,.31,2.68,2.68,0,0,0,1.07-.28,2.72,2.72,0,0,0,.61-.42l-.09-.11Zm1.64.78a10.66,10.66,0,0,1,.53-.95l.26-.44c.2-.35.22-.35.42-.36h1l.26-.11c.18.38.5,1,.69,1.36a1.93,1.93,0,0,1,.2.48,2.22,2.22,0,0,1,.55-.13c-.16-.36-.22-.48-.77-1.56s-.89-1.85-.9-1.89a.37.37,0,0,1,0-.14h-.45a10.15,10.15,0,0,1-.94,1.68l-.45.68-.36.53c-.22.33-.31.48-.46.74h.5Zm1.85-3.12c.16.39.23.54.5,1.13a1.34,1.34,0,0,1-.54.07h-.49c-.1,0-.14,0-.14-.06a.87.87,0,0,1,.07-.16,10.76,10.76,0,0,1,.6-1Zm3.64-.58-.58.15a13.3,13.3,0,0,0,.26,2,2.07,2.07,0,0,0,.83,1.34,1.31,1.31,0,0,0,.67.2,1.67,1.67,0,0,0,.79-.23,1.77,1.77,0,0,0,.6-.62,2.82,2.82,0,0,0,.28-.7c.08-.27.14-.54.2-.81s.1-.53.15-.8l.1-.47a1.6,1.6,0,0,1-.54-.06,13.08,13.08,0,0,1-.6,2.85,1.15,1.15,0,0,1-.26.41.75.75,0,0,1-.32.06,1.36,1.36,0,0,1-1.2-.76,5.59,5.59,0,0,1-.34-1.7,8.18,8.18,0,0,1,0-.91Z"/></g></g></svg>