<svg xmlns="http://www.w3.org/2000/svg" viewBox="0 0 75.48 56.55"><defs><style>.cls-1{fill:#8b6e4a;}.cls-2{fill:#fff;}.cls-3{fill:#783cbd;}.cls-4{fill:#007934;}.cls-5{fill:#0075c9;}.cls-6{fill:#c2531a;}</style></defs><title>资源 6</title><g id="图层_2" data-name="图层 2"><g id="Logos"><path class="cls-1" d="M23.87,44.77a4,4,0,0,0-.56,0,3.5,3.5,0,0,0-.57,0h0a.29.29,0,0,0,.21-.29V42.61H20.26v1.87a.28.28,0,0,0,.2.29h0a4,4,0,0,0-.56,0,3.57,3.57,0,0,0-.57,0h0a.29.29,0,0,0,.21-.29V40.61a.29.29,0,0,0-.21-.28h0a3.66,3.66,0,0,0,.57,0h.56a.28.28,0,0,0-.2.28v1.74H23V40.61a.29.29,0,0,0-.21-.28h0a3.58,3.58,0,0,0,.57,0h.56a.29.29,0,0,0-.22.28v3.87A.29.29,0,0,0,23.87,44.77Z"/><path class="cls-1" d="M30.45,44.87a2.37,2.37,0,1,1,.1,0h-.1m0-4.45a2.12,2.12,0,1,0,1.73,2.09,1.86,1.86,0,0,0-1.61-2.08h-.12"/><path class="cls-1" d="M40.39,41a2.71,2.71,0,0,0-1.6-.46v3.93a.3.3,0,0,0,.21.29h0a4.09,4.09,0,0,0-.56,0,4.16,4.16,0,0,0-.57,0h0a.32.32,0,0,0,.21-.29V40.52a2.82,2.82,0,0,0-1.62.47h0c0-.1.21-.6.21-.66h3.58c0,.06.18.55.21.65Z"/><path class="cls-1" d="M47.15,44.74h-2.5a4.16,4.16,0,0,0-.56,0h0a.3.3,0,0,0,.21-.29V40.58a.28.28,0,0,0-.21-.28h0a4.53,4.53,0,0,0,.56,0h2.26a4.3,4.3,0,0,0,.21.65h0a2.61,2.61,0,0,0-2.07-.47v1.84c1.34,0,1.51-.09,1.58-.36h0a4.11,4.11,0,0,0,0,.45,4.22,4.22,0,0,0,0,.45h0c-.08-.29-.24-.35-1.58-.35h0v2a4.08,4.08,0,0,0,2.37-.45h0a6.12,6.12,0,0,0-.27.63"/><path class="cls-1" d="M54.22,44.74h-2.5a4.09,4.09,0,0,0-.56,0h0a.3.3,0,0,0,.21-.29V40.58a.28.28,0,0,0-.21-.28h0a3.62,3.62,0,0,0,.57,0h.56a.29.29,0,0,0-.21.28v3.94a4.1,4.1,0,0,0,2.37-.45h0a5.58,5.58,0,0,0-.28.63"/><path class="cls-1" d="M26.37,49.32l-.14.14a4.73,4.73,0,0,1,1.24,1.68l.55-.8a3.38,3.38,0,0,0-1.65-1m-.13,2.19-.1.11a5.93,5.93,0,0,1,1.24,1.52l.59-.65a2.69,2.69,0,0,0-1.73-1m2-2V50h4v4.26c0,.78-.53,1.69-2.07,1.69a2.72,2.72,0,0,1,.7.62A2.23,2.23,0,0,0,33,54.32V49.94h.57V49.5ZM31.41,51H28.72v3.27h2.69Zm-.8,2.93H29.52V51.36h1.09Zm-2.77-.63a5.62,5.62,0,0,1-1.48,2.24l.6,1a4.6,4.6,0,0,0,1-3.19Z"/><path class="cls-1" d="M40.78,49.32l-.13.14a4.66,4.66,0,0,1,1.23,1.68l.56-.8a3.45,3.45,0,0,0-1.66-1m-.13,2.19-.1.11a5.7,5.7,0,0,1,1.23,1.52l.6-.65a2.67,2.67,0,0,0-1.73-1m7.2-1.58v-.45H42.52v.45h1.63v1H42.77v5.38h4.78V50.93H46.21v-1Zm-2.88,0h.46v1H45Zm-1.39,1.49h.57A5.17,5.17,0,0,1,43.56,54Zm3.19,4.48H43.58v-.8h3.19Zm0-1.24H43.58v-.3A3.92,3.92,0,0,0,45,51.41h.46v2.43h1.34Zm0-1.3h-.54V51.42h.54Zm-4.57-.09a5.59,5.59,0,0,1-1.47,2.24l.6,1a4.6,4.6,0,0,0,1-3.19Z"/><path class="cls-1" d="M14.42,51.17l.54-.54a8.24,8.24,0,0,0-1.12-.93,3.44,3.44,0,0,0,.14-.41H13a7,7,0,0,1-1.32,2.86l.11.11a5.46,5.46,0,0,0,.64-.52H13v.73H11.83v.45H13v2.29c-.5.14-.94.25-1.13.28l.38.92a15.85,15.85,0,0,0,2.69-1.77l-.1-.1a6.37,6.37,0,0,1-1,.43v-.48a3.42,3.42,0,0,0,1-1.24l-.64-.16a2.79,2.79,0,0,1-.39,1V52.91h.94v-.45h-.94v-.73h.84v-.45H12.85a7,7,0,0,0,.9-1.35,6.33,6.33,0,0,1,.68,1.24M12,53.26h-.1A4.67,4.67,0,0,1,12.37,55l.58-.4a3,3,0,0,0-1-1.41m5.38.93A2.74,2.74,0,0,0,18.71,53l-.82-.34a2.79,2.79,0,0,1-.67,1.28h0a4.07,4.07,0,0,1-.7-1.46h1.8V49.4H15v6.24l.4.87c.33-.28,1.33-1.15,1.61-1.46l-.1-.1c-.33.15-.75.3-1.11.43V52.59h.33a4.78,4.78,0,0,0,2.45,3.72c0-.28.36-.62.6-.79a4.17,4.17,0,0,1-1.88-1.3m-1.55-4.28h1.7v.85h-1.7Zm0,1.3h1.7v.89h-1.7Z"/><path class="cls-1" d="M59.6,50.95h-.8v2.48H57v2.93h4.66V53.43h-2V52.38H62v-.45H59.63Zm1.23,5H57.77v-2h3.06Zm-1.44-5.69.18-.28a2.93,2.93,0,0,0-1.42-.88l-.11.12a5.81,5.81,0,0,1,.84,1H55.79v2.56a5.45,5.45,0,0,1-1,3.51l.11.11a4.49,4.49,0,0,0,1.67-3.63V50.64h5.58v-.45Z"/><path class="cls-2" d="M36.58,14.12"/><path class="cls-3" d="M36.67,14.16a.11.11,0,0,0,.11-.11c-.21-2.61-3-4.19-6-3.35h0a.13.13,0,0,0-.06.1.11.11,0,0,0,.1.12h0a6.26,6.26,0,0,1,5.71,3.17h0a.1.1,0,0,0,.12.07Z"/><path class="cls-3" d="M37.3,14.11h0A6.25,6.25,0,0,1,43,10.94a.11.11,0,0,0,.11-.11h0a.12.12,0,0,0-.07-.1h0c-3-.85-5.75.74-6,3.35a.11.11,0,0,0,.11.11.12.12,0,0,0,.09,0h0Z"/><path class="cls-4" d="M29.28,14.07h0a.11.11,0,0,0,0,.21,7.45,7.45,0,0,1,7.52,2.88H37a7.44,7.44,0,0,1,7.51-2.88.11.11,0,0,0,0-.21h0c-2.55-1.25-6.61-.68-7.61,2.43h0c-1-3.11-5.06-3.68-7.61-2.43Z"/><path class="cls-5" d="M47.44,18.64h.06a.11.11,0,0,0,.07-.2h0C42.92,14.85,38.12,17,37,19.83a.1.1,0,0,1-.08.06.11.11,0,0,1-.08-.06c-1.09-2.79-5.9-5-10.54-1.39h0a.1.1,0,0,0,0,.08.11.11,0,0,0,.11.11h.06c5.16-2.07,8.82-.1,10.41,2H37C38.62,18.56,42.29,16.64,47.44,18.64Z"/><path class="cls-2" d="M36.84,20.64"/><path class="cls-2" d="M37,20.64"/><path class="cls-6" d="M32.62,7.64a.11.11,0,0,0,0,.22,5.81,5.81,0,0,1,3.53,3.33h0a.12.12,0,0,0,.11.07.11.11,0,0,0,.11-.11,3.51,3.51,0,0,0-3.5-3.52Z"/><path class="cls-6" d="M37.6,11.26a.12.12,0,0,0,.11-.07h0a5.83,5.83,0,0,1,3.55-3.34.11.11,0,0,0,.12-.1h0a.12.12,0,0,0-.12-.11,3.51,3.51,0,0,0-3.76,3.24q0,.14,0,.29A.11.11,0,0,0,37.6,11.26Z"/><path class="cls-1" d="M22,19.56c7.9-.27,7-14,13.73-14.4A.17.17,0,0,0,35.9,5h0a.17.17,0,0,0-.17-.17h0C27.66,4.36,28.12,17.44,22,19.23a.17.17,0,0,0-.17.17h0A.17.17,0,0,0,22,19.56Z"/><path class="cls-1" d="M38.15,5.15c6.73.39,5.84,14.13,13.74,14.4a.17.17,0,1,0,0-.33h0C45.75,17.43,46.23,4.35,38.15,4.81A.16.16,0,0,0,38,5h0A.17.17,0,0,0,38.15,5.15Z"/><path class="cls-1" d="M36.83,8.56a.12.12,0,0,0,.1.07.1.1,0,0,0,.1-.07h0a6,6,0,0,0,.39-2.44,58,58,0,0,0-.38-6,.12.12,0,0,0-.23,0h0a59.57,59.57,0,0,0-.37,6,6.11,6.11,0,0,0,.38,2.44Z"/><polygon class="cls-1" points="70.41 23.91 71.07 23.91 71.07 25.8 71.65 25.8 71.65 23.91 72.31 23.91 72.31 23.46 70.41 23.46 70.41 23.91"/><polygon class="cls-1" points="74.67 23.46 74.12 24.91 73.57 23.46 72.75 23.46 72.75 25.8 73.31 25.8 73.31 24.14 73.31 24.14 73.91 25.8 74.34 25.8 74.92 24.14 74.94 24.14 74.94 25.8 75.48 25.8 75.48 23.46 74.67 23.46"/><path class="cls-1" d="M49.1,34.45h0c-1.89-.65-5.15-8.22-6.29-11h0a.12.12,0,0,0-.22,0h0c-1.09,3-4,10.24-5.92,11h0a.11.11,0,0,0,0,.22h2.48a.11.11,0,0,0,.11-.11.1.1,0,0,0-.06-.09h0c-.49-.33-.21-.88.07-1.43L40,31.63h4.58l.79,1.48a1,1,0,0,1-.26,1.34h0a.11.11,0,0,0,0,.22h3.91a.11.11,0,0,0,.11-.11A.1.1,0,0,0,49.1,34.45Zm-8.7-3.58c.77-1.52,1.54-3.16,1.86-4a39,39,0,0,0,1.94,4Z"/><path class="cls-1" d="M14.59,34.64h2.48a.11.11,0,0,0,.06-.2h0c-.49-.33-.21-.88.09-1.43l.71-1.41h4.58l.8,1.48a1,1,0,0,1-.26,1.34h0a.1.1,0,0,0-.09.11h0a.11.11,0,0,0,.11.11H27a.11.11,0,0,0,0-.22h0c-1.89-.65-5.15-8.22-6.3-11h0a.11.11,0,0,0-.11-.07.09.09,0,0,0-.1.07h0c-1.09,3-4,10.24-5.93,11h0a.11.11,0,0,0,0,.22Zm5.56-7.81a40.26,40.26,0,0,0,2,4H18.3A40.74,40.74,0,0,0,20.15,26.83Z"/><path class="cls-1" d="M13.57,33.52a14.69,14.69,0,0,1-.21-3.67c.12-.49.14-.92,1-1.14a.12.12,0,0,0,.08-.11.11.11,0,0,0-.11-.11H10a.12.12,0,0,0-.12.11.13.13,0,0,0,.09.11,1.8,1.8,0,0,1,1.52,1.47c.14.81.06,3.14-.34,3.54a4.27,4.27,0,0,1-2.92.8c-3,0-6-2.2-6-6.76,0-4.85,3.35-6.41,5.58-6.41a5.49,5.49,0,0,1,5.52,3.89.12.12,0,0,0,.24,0,14.19,14.19,0,0,0,0-1.81c-.08-1.25-2.38-2.79-5.83-2.79A7.28,7.28,0,0,0,0,27.48q0,.25,0,.5c0,3.24,2.54,7.21,8,7.21C11.71,35.23,13.64,33.84,13.57,33.52Z"/><path class="cls-1" d="M36.55,32.26a.14.14,0,0,0-.09.05c-1,1.64-2.88,1.59-4.24,1.59a1.38,1.38,0,0,1-1.38-1.14c-.08-.78-.06-6.88,0-7.74a1.43,1.43,0,0,1,1-1.33.11.11,0,0,0,.11-.11h0a.11.11,0,0,0-.11-.11h-3.9a.11.11,0,0,0-.11.11.12.12,0,0,0,.07.11h0a1.64,1.64,0,0,1,1.19,1.46c.08.53.09,6.61,0,7.75a1.58,1.58,0,0,1-1.23,1.55h0a.11.11,0,0,0,0,.22h7.83c.29-.08.87-1.87.93-2.27h0a.11.11,0,0,0-.09-.13Z"/><path class="cls-1" d="M69.28,34.44c-1-.46-1.24-.79-1.33-1.56a20.12,20.12,0,0,1,0-5c.59-3.16,2.39-6.6,5.8-6.9h0a.11.11,0,0,0,0-.21c-3-.68-5.74,2.5-6.61,5.57-1.24-4-4.67-6.28-7.46-5.52a.12.12,0,0,0,0,.22c2.81.1,5.31,3.09,5.87,6.85a17,17,0,0,1,.11,4.95c-.12.91-.61,1.21-1.49,1.61h0a.11.11,0,0,0,0,.21h5a.11.11,0,0,0,.11-.11C69.4,34.47,69.28,34.44,69.28,34.44Z"/><path class="cls-1" d="M53.41,34.55a.13.13,0,0,0-.11-.11.79.79,0,0,1-.51-1l0-.09C53,33.07,54,31.67,55.1,30.1c.92,1.38,1.73,2.59,1.83,2.76.62,1,0,1.44-.2,1.58a.13.13,0,0,0-.08.11.12.12,0,0,0,.12.12H61.4a.12.12,0,0,0,.08-.11.13.13,0,0,0-.09-.11A7.42,7.42,0,0,1,59.29,33a34.28,34.28,0,0,1-3.19-4.27C57.34,27.1,58.55,25.52,59,25a4.13,4.13,0,0,1,2-1.35h0a.11.11,0,0,0,0-.21H57.35a.11.11,0,0,0,0,.21h0c.41.17.9.61,0,2-.28.44-.89,1.31-1.7,2.4-.62-1-1.11-1.75-1.27-2-.66-1.14-.86-2-.24-2.35a.13.13,0,0,0,.09-.11.12.12,0,0,0-.12-.12H50a.12.12,0,0,0-.11.11.13.13,0,0,0,.08.1h0a5.17,5.17,0,0,1,2.33,2.13l2.38,3.59c-.75,1-1.59,2.12-2.44,3.2a5.48,5.48,0,0,1-2.49,1.83h0a.11.11,0,0,0-.07.09.12.12,0,0,0,.1.12h3.58a.11.11,0,0,0,.1-.12Z"/></g></g></svg>