<svg xmlns="http://www.w3.org/2000/svg" viewBox="0 0 84.03 53.75"><defs><style>.cls-1{fill:#1c1c1b;}</style></defs><title>资源 4</title><g id="图层_2" data-name="图层 2"><g id="Logos"><path class="cls-1" d="M26,53.2V51.69h.38l.2,1.11a3.05,3.05,0,0,0,.64.13A.89.89,0,0,0,28,52V48.35l-.93-.18v-.32h2.64v.31l-1,.19V51.9a1.53,1.53,0,0,1-1.55,1.49,3.79,3.79,0,0,1-1.24-.2"/><polygon class="cls-1" points="33.61 53.4 31.95 48.33 31.38 48.19 31.38 47.87 33.65 47.87 33.65 48.18 32.86 48.36 34.01 52.31 34.05 52.31 35.65 47.87 36.31 47.87 37.72 52.32 37.76 52.32 39.11 48.35 38.39 48.19 38.39 47.87 40.35 47.87 40.35 48.18 39.7 48.35 37.76 53.4 37.29 53.4 35.82 48.95 35.76 48.95 34.1 53.4 33.61 53.4"/><path class="cls-1" d="M10.08,49.73,9.72,50a2.62,2.62,0,0,0-1.07-1l.3-.31a2.7,2.7,0,0,1,1.13,1m-.91,3.81-.45-.2a4.93,4.93,0,0,0,.95-2.73l.44.14a5.38,5.38,0,0,1-.94,2.79m1.27-5.22-.35.33a2.5,2.5,0,0,0-1.08-1l.31-.31a2.93,2.93,0,0,1,1.12,1m4.78,3.72h-2a2.42,2.42,0,0,0,1.88,1.16l.37.06-.29.43a2.86,2.86,0,0,1-2.42-1.64,3.16,3.16,0,0,1-2.58,1.65l-.29-.47a2.84,2.84,0,0,0,2.34-1.19h-2v-.45h2.27a1.82,1.82,0,0,0,.12-.53l.41.13-.06.4h2.26Zm-4.66-.71V47.62H12a1.6,1.6,0,0,0,.52-.67l.43.17a2.3,2.3,0,0,1-.36.5h2.18v3.26a.4.4,0,0,1-.17.32.54.54,0,0,1-.32.14h-.51l-.14-.41a2.15,2.15,0,0,0,.49,0,.15.15,0,0,0,.12-.06.2.2,0,0,0,0-.13V48H11v3.29ZM12.49,50h0a2.51,2.51,0,0,1-1,1.08l-.33-.35a1.9,1.9,0,0,0,.94-.87h-.81v-.42h.6a1.9,1.9,0,0,0-.33-.42l.37-.13a1.65,1.65,0,0,1,.34.55h.21v-.67l-1,.07-.22-.42a8.41,8.41,0,0,0,2.53-.32l.32.34a6.73,6.73,0,0,1-1.22.26v.74h.33a1.51,1.51,0,0,0,.3-.71l.39.15a2.29,2.29,0,0,1-.25.57h.48v.42H13v.31l.23-.21a2.23,2.23,0,0,1,1,.56l-.3.3a2.32,2.32,0,0,0-.92-.57v.66h-.44Z"/><path class="cls-1" d="M18.49,53.75H18V47.47H20.5v2.69h-2Zm1.56-5.85H18.49v.66h1.56Zm0,1.08H18.49v.75h1.56Zm2.13,4.17h.62a.46.46,0,0,0,.28-.06.26.26,0,0,0,.07-.21V50.14h-2V47.45h2.47v5.63a.5.5,0,0,1-.14.35.48.48,0,0,1-.36.15h-.75Zm1-5.26H21.62v.66h1.56Zm0,1.08H21.62v.75h1.56Z"/><path class="cls-1" d="M41.87,47.74h1.64V47.1H44v.64h1v.41H44v.47h-.46v-.5H41.86ZM46,52.07l.4-.2a2.28,2.28,0,0,1,.74.94L46.8,53a1.7,1.7,0,0,0-.15-.34l-3.32.2-.18-.4q.77,0,1.73-.06V51.8h-2v1.94h-.47V51.8H42v-.41h.44v-.33h.47v.33h2v-.46H42.84V48.81h4.59v2.1H45.32v.47h2.55V53.1a.56.56,0,0,1-.18.35.62.62,0,0,1-.45.15h-.73l-.14-.42h.85a.16.16,0,0,0,.11-.09.36.36,0,0,0,0-.18V51.76H45.24v.6l1-.07a1.29,1.29,0,0,0-.32-.25m-1.19-2.86H43.22v.44h1.6Zm0,.85H43.22v.45h1.6Zm1.36-1.92h-1V47.7h1v-.64h.45v.65h1.68v.41H46.63v.5h-.41Zm.71,1.07H45.2v.44h1.6Zm0,.85H45.2v.45h1.6Z"/><path class="cls-1" d="M57.15,53l-.2.4a2.24,2.24,0,0,1-1.7-1.32l-.45.15a3,3,0,0,1,.11.8.74.74,0,0,1-.17.54.91.91,0,0,1-.64.17,4.57,4.57,0,0,1-.58-.05l-.22-.46a4.51,4.51,0,0,0,.84.12c.16,0,.26,0,.29-.1a1.14,1.14,0,0,0,0-.42,1,1,0,0,0,0-.24,10.12,10.12,0,0,1-3.33.84L50.86,53a8.76,8.76,0,0,0,3.47-.85,2,2,0,0,0-.16-.31,7.92,7.92,0,0,1-2.91.67L51,52.13a6.74,6.74,0,0,0,2.89-.57,1.29,1.29,0,0,0-.32-.2,12.38,12.38,0,0,1-2.3.38L51,51.35A10,10,0,0,0,53.47,51H51.74v-.38h4.32V51H54.58l-.52.24a1.63,1.63,0,0,1,.55.64,2.36,2.36,0,0,0,1.21-.66l.31.32a4.13,4.13,0,0,1-.54.37,1.79,1.79,0,0,0,1.52,1.13m-5.78-2.73v.52H50.9v-.92h6v.93h-.43v-.52ZM51,47.72h2.8a1.39,1.39,0,0,0-.56-.41l.4-.26a1.32,1.32,0,0,1,.62.67h2.54v.43H51Zm.9.72h4v1.11h-4Zm3.58.34H52.32v.42h3.14Z"/><path class="cls-1" d="M59.83,53.51l-.4-.22a5.21,5.21,0,0,0,1.18-2.56l.38.17a5.45,5.45,0,0,1-1.16,2.62M61,49.92l-.35.31a2.42,2.42,0,0,0-1.17-1l.28-.31a2.74,2.74,0,0,1,1.24,1m.24-1.64-.33.31a2.39,2.39,0,0,0-1.11-.86l.29-.31a2.64,2.64,0,0,1,1.15.86m4.28,5.41H65V53.2H62v.49h-.45V48.76h1.21v-.89H61.09v-.44H66v.43h-1.7v.9H65.5ZM65,50.92h-.55a.57.57,0,0,1-.48-.21.67.67,0,0,1-.17-.4v-1.1h-.62a3,3,0,0,1-.72,2.23l-.39-.29a2.44,2.44,0,0,0,.66-1.74v-.2H62v2.41h3.08ZM62,52.76H65V52.1H62Zm1.21-4h.67v-.9h-.63Zm1.35,1.7H65V49.2H64.3v1q.06.21.22.21"/><path class="cls-1" d="M74.87,47.87v.44H69.76v2.81a3.33,3.33,0,0,1-1,2.5,2.11,2.11,0,0,0-.38-.33,2.27,2.27,0,0,0,.69-1,3.28,3.28,0,0,0,.21-1V47.83H72a1.69,1.69,0,0,0-.91-.64l.34-.27a1.83,1.83,0,0,1,1.06.74,1.28,1.28,0,0,0-.22.17ZM73.53,53.2H70.88v.42h-.46V51h1.32V48.62h.48v.84h2.4v.44h-2.4V51H74v2.69h-.47Zm0-1.74H70.88v1.3h2.65Z"/><path class="cls-1" d="M.05,35V33H.54L.8,34.46a3.92,3.92,0,0,0,.81.17,1.14,1.14,0,0,0,1-1.26V28.79l-1.18-.23v-.41H4.8v.39l-1.21.24v4.53a2,2,0,0,1-2,1.9A4.85,4.85,0,0,1,0,35"/><polygon class="cls-1" points="8.75 35.21 6.64 28.73 5.91 28.55 5.91 28.15 8.8 28.15 8.8 28.54 7.79 28.78 9.27 33.81 9.31 33.81 11.35 28.15 12.19 28.15 14 33.84 14.04 33.84 15.78 28.76 14.86 28.55 14.86 28.15 17.35 28.15 17.35 28.54 16.53 28.76 14.04 35.21 13.45 35.21 11.57 29.52 11.5 29.52 9.37 35.21 8.75 35.21"/><polygon class="cls-1" points="28.15 34.72 29.18 34.51 28.75 29.5 28.7 29.5 26.55 35.21 25.95 35.21 23.86 29.4 23.82 29.4 23.37 34.44 24.41 34.71 24.41 35.11 21.58 35.11 21.58 34.72 22.66 34.49 23.22 28.81 22.17 28.56 22.17 28.15 24.47 28.15 26.41 33.81 26.47 33.81 28.48 28.15 30.72 28.15 30.72 28.54 29.65 28.81 30.22 34.49 31.32 34.71 31.32 35.11 28.15 35.11 28.15 34.72"/><path class="cls-1" d="M36.93,34.75l.82-.2-.62-2.07H34.85l-.74,2,1,.25v.37H32.52v-.36l.88-.24L36,28.13h.73l2.22,6.39.84.2v.37H37Zm-1.86-2.83H37l-.81-2.76H36.1Z"/><path class="cls-1" d="M44.22,31.95h-1v2.52l1.21.23v.41H41.07v-.39l1.18-.24v-5.7l-1.18-.23v-.41h3.26c1.37,0,2.34.62,2.34,1.92a1.68,1.68,0,0,1-1.39,1.71l1.66,2.63.87.34v.37H46.15Zm-1-3.23v2.69h.56c1.07,0,1.91-.38,1.91-1.29s-.61-1.39-1.72-1.4Z"/><path class="cls-1" d="M52.3,31.95h-1v2.52l1.21.23v.41H49.12v-.39l1.18-.24v-5.7l-1.18-.23v-.41h3.26c1.37,0,2.34.62,2.34,1.92a1.68,1.68,0,0,1-1.39,1.71L55,34.4l.87.34v.37H54.22Zm-1-3.23v2.69h.56c1.08,0,1.91-.38,1.91-1.29s-.61-1.39-1.72-1.4Z"/><polygon class="cls-1" points="57.33 34.72 58.51 34.48 58.51 28.78 57.33 28.56 57.33 28.15 60.68 28.15 60.68 28.54 59.48 28.78 59.48 34.48 60.68 34.71 60.68 35.11 57.33 35.11 57.33 34.72"/><path class="cls-1" d="M65.22,35.21a3.2,3.2,0,0,1-3.41-3.38A3.53,3.53,0,0,1,65.07,28h.34a3.16,3.16,0,0,1,3.38,3.32,3.61,3.61,0,0,1-3.36,3.84h-.21m.11-6.67c-1.51,0-2.44,1.22-2.44,3s.85,3.12,2.37,3.12,2.45-1.46,2.45-3.11-.91-3-2.38-3"/><polygon class="cls-1" points="71.16 34.72 72.34 34.48 72.34 28.71 70.78 28.71 70.2 30.13 69.86 30.13 69.86 28.15 75.83 28.15 75.83 30.13 75.48 30.13 74.83 28.71 73.32 28.71 73.32 34.48 74.53 34.71 74.53 35.11 71.16 35.11 71.16 34.72"/><polygon class="cls-1" points="78.15 34.72 79.33 34.48 79.33 28.71 77.77 28.71 77.19 30.13 76.85 30.13 76.85 28.15 82.82 28.15 82.82 30.13 82.47 30.13 81.82 28.71 80.31 28.71 80.31 34.48 81.52 34.71 81.52 35.11 78.15 35.11 78.15 34.72"/><path class="cls-1" d="M83.09,33.31a.93.93,0,1,1-.92.94h0a.92.92,0,0,1,.91-.93h0m0,1.73a.8.8,0,1,0-.75-.85s0,0,0,0a.76.76,0,0,0,.72.8h0m-.36-1.34h.41c.25,0,.37.1.37.31a.28.28,0,0,1-.26.3h0l.31.48h-.18l-.29-.47H82.9v.47h-.17Zm.17.48h.17c.15,0,.28,0,.28-.18s-.12-.17-.24-.17h-.22Z"/><polygon class="cls-1" points="33.33 43.19 34.01 43.04 33.73 39.72 33.69 39.72 32.27 43.51 31.87 43.51 30.48 39.66 30.45 39.66 30.16 43.01 30.85 43.18 30.85 43.45 28.97 43.45 28.97 43.19 29.68 43.04 30.06 39.26 29.36 39.1 29.36 38.83 30.89 38.83 32.17 42.59 32.21 42.59 33.54 38.83 35.03 38.83 35.03 39.09 34.32 39.26 34.7 43.04 35.43 43.18 35.43 43.45 33.33 43.45 33.33 43.19"/><path class="cls-1" d="M38.52,43.21l.55-.13-.41-1.37H37.15L36.66,43l.63.17v.25H35.57v-.24l.59-.16,1.71-4.22h.48l1.47,4.24.56.13v.25H38.52Zm-1.24-1.88h1.26L38,39.5h0Z"/><path class="cls-1" d="M44.08,40.24l-.27-.9a1.5,1.5,0,0,0-.82-.22,1.77,1.77,0,0,0-1.81,2,1.83,1.83,0,0,0,2,2.06,1.66,1.66,0,0,0,1.09-.56h.14v.55a2.89,2.89,0,0,1-1.34.3c-1.52,0-2.59-.74-2.59-2.35a2.41,2.41,0,0,1,2.41-2.41H43a3,3,0,0,1,1.36.26V40.2Z"/><path class="cls-1" d="M47.68,43.21l.55-.13-.41-1.37H46.31L45.82,43l.63.17v.25H44.72v-.24l.59-.16L47,38.84h.48L49,43.08l.56.13v.25H47.67Zm-1.24-1.88H47.7l-.54-1.83h0Z"/><path class="cls-1" d="M49.92,41.81V39.24l-.72-.15v-.27h2.16v.26l-.79.16v2.53a1.23,1.23,0,0,0,1.09,1.35h.19c.76,0,1.27-.47,1.27-1.51V39.27l-.69-.17v-.27h1.79v.26l-.62.17v2.36a1.71,1.71,0,0,1-1.54,1.86h-.22c-.89,0-1.89-.36-1.89-1.7"/><path class="cls-1" d="M59.16.28a7,7,0,0,1-2.88,1.3,13.51,13.51,0,0,1-4.45.51C44.41,1.4,43,.81,41.11,3.94a6.21,6.21,0,0,1-1,1.74,4.71,4.71,0,0,0-.71-1.4s.16-.1.12-.12c-.23-.17-.23-.35-.39-.43h0c.16.07.44.16.4,0A3.31,3.31,0,0,1,39,3.17l.32.07a2.16,2.16,0,0,1-.25-.54l.25.07-.26-.53c.1-.19-.28-1-.31-1.2a1.54,1.54,0,0,0-.52-1c-.14-.14-.32.14-.35.14-.32.3-.38.25-.5.24s-.09.16-.18.26l-.06.06c-.09,0-.07,0-.13-.08A.58.58,0,0,1,36.8.9s-.07,0-.07-.13c-.32.28-.25.26-.36.27a6.68,6.68,0,0,0-3.63,0s-.58.2-.72.61a2.22,2.22,0,0,0-1.62.81,1.37,1.37,0,0,0-.18,1.16.36.36,0,0,0,.11.15h.07a.27.27,0,0,1,.08-.32.7.7,0,0,1,.58-.09,2.77,2.77,0,0,0,.87,0,1,1,0,0,1,1,.38,3.43,3.43,0,0,0,1.3,1c.11,0,.25.17.22.54,0,0-.11,0-.16.17a5,5,0,0,1-1.17,1.38s-.94.37-.61.39a.26.26,0,0,1,.26.18,1.31,1.31,0,0,0-.54.22c-.53.34-.66.65-.57.63.33-.09.79-.07.61.06s-.7.39-.84.83a.72.72,0,0,1,.37.19,2.59,2.59,0,0,0-.56.88c-.1.19.39.49.39.49a2.37,2.37,0,0,1-.65.91c0,.13.59-.09.59-.09a2.3,2.3,0,0,0-.3.67.39.39,0,0,0,0,.28.53.53,0,0,0,.25-.06c-.08.18-.1.27-.07.36h.15a1.1,1.1,0,0,0,0,.5s.18-.16.22-.15c.08.18-.09.72-.08.72.31,0,0,.69.11.91a.47.47,0,0,0,.34-.18c.08-.09-.17.71-.16.86s.14-.07.19-.06a6.93,6.93,0,0,1-.1,1.25c0,.08-.14.38-.11.42s.29,0,.23.09.08.61.08.61a.49.49,0,0,1,0,.23c-.06.17-.12.5,0,.42s.13,0,.23-.09a1.9,1.9,0,0,1-.08.93c.34,0,.34,0,.33.1a3.2,3.2,0,0,1-.14.55.14.14,0,0,1,.23.14,1.23,1.23,0,0,0,0,.61.22.22,0,0,0,.19-.12,3.42,3.42,0,0,0,0,.58c0,.12,0,.31-.15.31.06.1.21,0,.31-.05s0,.19,0,.26c-.46.16-.66.54-1,.43a1.14,1.14,0,0,0-.6,0,1.3,1.3,0,0,0-.32.14.92.92,0,0,0-.29.13,1.18,1.18,0,0,0-.35.66c0,.14,0,.19.06.19s.16-.36.45-.43.14,0,.2.05a.8.8,0,0,0,.62.1,3.91,3.91,0,0,1,.87-.12,1.34,1.34,0,0,1-.31.27.78.78,0,0,0-.71.59,1.28,1.28,0,0,0-.23.65c0,.11,0,.22.08.22s.12-.3.26-.37a2.58,2.58,0,0,0,.92-.25c.37-.25.27-.37.71-.72.2-.16.53-.65.85-.49s.65.28.6.58c-.07.11,0,.2,0,.34s-.11.37-.07.4.42-.27.5-.4.17-.45.1-.55c.06-.81-.3-1.07-.3-1.07s.19-.17.09-.15a.54.54,0,0,1-.25-.06c.14-.21.2-.62.26-.61s.39.44.3.14a1.88,1.88,0,0,1-.12-.63h0c0-.06.08,0,.12,0s.26.57.24,0a4.49,4.49,0,0,0-.23-1.16.69.69,0,0,0,.28.13,1.87,1.87,0,0,0-.19-.86s.42.6.14-.4a1.29,1.29,0,0,0,0-.48s-.13.12,0-.54a3.52,3.52,0,0,0,.4.28.84.84,0,0,0,.55,0,1.81,1.81,0,0,0,.59.15c.1.06.17,0,.27,0s.21.08.32,0-1,1.12.64,3.14c.58.7,1.85,1,1.94,1.15a7.86,7.86,0,0,0-2-.06c-1.41-.11-1.62,0-1.94.62a.36.36,0,0,0-.21.33c-.07.12-.1.56,0,.46s.16-.13.24-.22c.07.11.16.1.22.18s0,.34.09.35.09-.1.12-.17h0a.53.53,0,0,1,.29.19c0,.07,0,.17.09.2l.1-.09a10.16,10.16,0,0,0,2.35-.08,12.68,12.68,0,0,1,1.66,0A3.85,3.85,0,0,0,43,23.48a8.82,8.82,0,0,0,2.52,0,3.69,3.69,0,0,0,1.54-.4c.13-.09.55-.28.63-.43A3.7,3.7,0,0,0,49.19,21a6.2,6.2,0,0,0,.61-2.41A4.42,4.42,0,0,0,49.51,17c-.55-1.67-.41-2.16-.25-2.54a1.58,1.58,0,0,1,.53-.53c.15.17.28.07.47.15a2.32,2.32,0,0,1,.41.33,1.3,1.3,0,0,0,.82.27,1.42,1.42,0,0,0,.39,0l.08-.18a.57.57,0,0,0,.41.2.86.86,0,0,0-.07-.28c.12,0,.28.17.39.22a.13.13,0,0,0,.16,0s0-.12,0-.16h0a.48.48,0,0,0,.24,0,.1.1,0,0,0,.08-.08.54.54,0,0,0,.39-.11c-.21-.28-.45-.29-.67-.42.09-.07.17-.16.27-.25h-.13l-.2-.07c-.11,0-.21-.12-.32-.17l-.15-.08v-.05c-.16-.25-.21-.31-.38-.35s-.41-.16-.52-.19a2.92,2.92,0,0,0-1.07-.07,5.21,5.21,0,0,0-1.09.58c-.37.23-.35.28-.38.3-.61.37-1,1.7-.69,3.36.19.79.12.51.22,1a3.66,3.66,0,0,1-1.84,3.72h0a4.21,4.21,0,0,0,.48-1.06A4.49,4.49,0,0,0,47.29,18a4,4,0,0,0-.61-1.5c.11.06.11,0,.26,0a5.33,5.33,0,0,1-1-1.4s.14,0,.15-.08l-1-.92a.48.48,0,0,0,.32,0c.06,0-.77-.4-1-.82-.15-.24,0-.35.07-.33a1.38,1.38,0,0,0,1.14.08c-.12-.28-.6-.61-.55-.59a2.14,2.14,0,0,0,.51.11,1,1,0,0,0,.72,0c-.09-.17-.64-.44-.75-.61a1.63,1.63,0,0,0,1,.15s-.06-.22-.09-.31c.27.1.78.28,1,.06a8.56,8.56,0,0,1-1.29-1.5c-.15-.29.76.83,1.55.94.17-.12,0-.44-.08-.61s.73.29.73.29a1.69,1.69,0,0,0-.27-.81,2.65,2.65,0,0,0,1.2.18c.16-.1-.21-.59-.21-.59a4.68,4.68,0,0,0,.89.33c.18,0,.16-.11.16-.11a3.55,3.55,0,0,0-.2-.71c-.16-.35-1.53-2.28,0-.72.17.15.79.81,1,.79s-.2-.74-.2-.74a2.21,2.21,0,0,0,.93.35c.19,0,0-.59-.19-.73a3,3,0,0,0-.92-.76A7.27,7.27,0,0,1,52,7.91c.32.15-.27-.62-.27-.62a4.42,4.42,0,0,0,1.63-.34c.07-.12-.4-.4-.4-.4h.21s1,.05,1-.18c0,0-2.42-1.08-2.32-1,1.79.17,2.54.45,3.41.42.63,0,.79-.26.79-.26-.14-.32-1.53-.64-1.53-.64h.71a2.45,2.45,0,0,0,2-.76c0-.17-.63-.34-.63-.34s.86-.07,1-.5c.9-.49.85-.76.85-.76h-.5a12.88,12.88,0,0,1-1.53.31c-.86.12-1.09-.07-1.09-.07,2.73-.34,3.17-1,3.27-1.29C59.34.88,59,.37,59,.37M31.22,11.2h0"/></g></g></svg>