<svg id="Logos" xmlns="http://www.w3.org/2000/svg" viewBox="0 0 76.52 33.17"><defs><style>.cls-1{fill:#a09f97;}.cls-2{fill:#3b3935;}.cls-3{fill:#cc007b;fill-rule:evenodd;}</style></defs><title>矢量智能对象11</title><path class="cls-1" d="M426.1,308.49H425a.15.15,0,0,1-.14-.14v-3.19A.15.15,0,0,1,425,305H426a.87.87,0,0,1,.94.91.7.7,0,0,1-.5.7.86.86,0,0,1,.65.86A.91.91,0,0,1,426.1,308.49Zm-.25-2.91h-.36v.82h.34a.4.4,0,0,0,.43-.41A.37.37,0,0,0,425.86,305.58Zm0,1.35h-.39v1H426a.44.44,0,0,0,.43-.49A.48.48,0,0,0,425.89,306.93Z" transform="translate(-424.51 -278.2)"/><path class="cls-1" d="M430.18,308.49h-.44a.21.21,0,0,1-.22-.16c-.15-.45-.32-1.32-.8-1.32h-.13v1.34a.15.15,0,0,1-.14.14H428a.15.15,0,0,1-.14-.14v-3.19A.15.15,0,0,1,428,305H429c.89,0,1.07.55,1.07.91a.8.8,0,0,1-.68.84.78.78,0,0,1,.46.41c.12.26.37.88.45,1.1S430.32,308.49,430.18,308.49Zm-1.24-2.87h-.36v.88h.31a.44.44,0,0,0,.45-.47A.39.39,0,0,0,428.95,305.62Z" transform="translate(-424.51 -278.2)"/><path class="cls-1" d="M432.05,308.52c-.83,0-1.26-.61-1.26-1.75s.41-1.78,1.26-1.78,1.24.6,1.24,1.78S432.89,308.52,432.05,308.52Zm0-3c-.47,0-.54.54-.54,1.23s.08,1.22.54,1.22.55-.48.55-1.22S432.51,305.53,432,305.53Z" transform="translate(-424.51 -278.2)"/><path class="cls-1" d="M436.39,308.49h-.46a.17.17,0,0,1-.18-.13l-.16-.64h-1l-.15.64a.18.18,0,0,1-.18.13h-.42c-.1,0-.14-.09-.12-.18l.89-3.16a.19.19,0,0,1,.18-.13h.59a.19.19,0,0,1,.18.13l1,3.16C436.53,308.4,436.49,308.49,436.39,308.49Zm-1.24-2.57c0-.15-.06-.4-.08-.54a4.3,4.3,0,0,1-.08.54l-.27,1.2h.7Z" transform="translate(-424.51 -278.2)"/><path class="cls-1" d="M438.28,308.49h-1a.15.15,0,0,1-.14-.14v-3.18a.15.15,0,0,1,.14-.14h.92c.49,0,1.24.18,1.24,1.73C439.48,307.76,439.24,308.49,438.28,308.49Zm-.15-2.91h-.26v2.32h.23c.5,0,.67-.29.67-1.16S438.62,305.58,438.13,305.58Z" transform="translate(-424.51 -278.2)"/><path class="cls-1" d="M443.43,308.36a.18.18,0,0,1-.18.13h-.65a.18.18,0,0,1-.18-.13l-.39-2.3c0-.13,0-.5-.06-.65,0,.14,0,.52-.05.65l-.38,2.3a.18.18,0,0,1-.18.13h-.66a.18.18,0,0,1-.18-.13L440,305.2c0-.09,0-.18.12-.18h.46a.17.17,0,0,1,.18.15l.23,2.15c0,.17,0,.51.05.72,0-.22.05-.52.09-.72l.37-2.16a.16.16,0,0,1,.18-.15h.58a.17.17,0,0,1,.18.15l.39,2.15c0,.22.07.47.09.73,0-.2,0-.56.06-.71l.21-2.17a.16.16,0,0,1,.17-.15h.39c.1,0,.13.09.12.18Z" transform="translate(-424.51 -278.2)"/><path class="cls-1" d="M446.93,308.49h-.46a.17.17,0,0,1-.18-.13l-.16-.64h-1l-.15.64a.18.18,0,0,1-.18.13h-.42c-.1,0-.14-.09-.12-.18l.89-3.16a.19.19,0,0,1,.18-.13h.59a.19.19,0,0,1,.18.13l1,3.16C447.07,308.4,447,308.49,446.93,308.49Zm-1.24-2.57c0-.15-.06-.4-.08-.54a4.22,4.22,0,0,1-.08.54l-.27,1.2h.7Z" transform="translate(-424.51 -278.2)"/><path class="cls-1" d="M448.69,307.11v1.23a.15.15,0,0,1-.14.14h-.4a.15.15,0,0,1-.14-.14v-1.2l-.91-1.93c-.05-.1,0-.18.1-.18h.49a.21.21,0,0,1,.2.12l.39,1.08a2.5,2.5,0,0,1,.1.51,2.45,2.45,0,0,1,.1-.51l.4-1.08a.21.21,0,0,1,.2-.12h.43c.11,0,.14.08.1.18Z" transform="translate(-424.51 -278.2)"/><path class="cls-1" d="M454.86,308.49h-.3a.1.1,0,0,1-.11-.1l-.12-2.32c0-.12,0-.54,0-.7a7.06,7.06,0,0,1-.11.7l-.52,2c0,.07-.06.11-.12.11h-.33a.12.12,0,0,1-.12-.11l-.52-2c-.05-.21-.08-.53-.11-.7,0,.15,0,.57,0,.7l-.13,2.32a.1.1,0,0,1-.1.1H452a.1.1,0,0,1-.09-.11l.27-3.22a.12.12,0,0,1,.13-.11h.43a.12.12,0,0,1,.12.09l.53,2.09a4.67,4.67,0,0,1,.08.59,4,4,0,0,1,.07-.59l.52-2.09a.13.13,0,0,1,.13-.09h.42a.12.12,0,0,1,.12.11l.25,3.23C454.95,308.45,454.92,308.49,454.86,308.49Z" transform="translate(-424.51 -278.2)"/><path class="cls-1" d="M458.28,308.49H458a.16.16,0,0,1-.15-.11l-.22-.81h-1.12l-.21.81a.15.15,0,0,1-.14.11h-.29a.09.09,0,0,1-.08-.13l.93-3.2a.15.15,0,0,1,.14-.11h.39a.16.16,0,0,1,.15.11l1,3.2A.09.09,0,0,1,458.28,308.49Zm-1.17-2.74a4.13,4.13,0,0,1-.08-.44,4.43,4.43,0,0,1-.08.45l-.37,1.41h.9Z" transform="translate(-424.51 -278.2)"/><path class="cls-1" d="M461.07,308.38a1.37,1.37,0,0,1-.64.14c-.83,0-1.32-.63-1.32-1.77s.54-1.72,1.35-1.72a1.19,1.19,0,0,1,.6.13.12.12,0,0,1,0,.16l-.09.18a.1.1,0,0,1-.14,0,.84.84,0,0,0-.39-.09c-.55,0-.87.38-.87,1.3s.36,1.32.86,1.32a1.09,1.09,0,0,0,.41-.09.1.1,0,0,1,.14,0l.1.22A.11.11,0,0,1,461.07,308.38Z" transform="translate(-424.51 -278.2)"/><path class="cls-1" d="M464.34,308.49H464a.16.16,0,0,1-.15-.11l-.22-.81h-1.12l-.21.81a.15.15,0,0,1-.14.11h-.29a.09.09,0,0,1-.08-.13l.93-3.2a.15.15,0,0,1,.14-.11h.39a.16.16,0,0,1,.15.11l1,3.2A.09.09,0,0,1,464.34,308.49Zm-1.17-2.74a4.17,4.17,0,0,1-.08-.44,4.49,4.49,0,0,1-.08.45l-.37,1.41h.9Z" transform="translate(-424.51 -278.2)"/><path class="cls-1" d="M466.25,308.51a1,1,0,0,1-1.09-1.07v-2.28a.11.11,0,0,1,.12-.11h.24a.1.1,0,0,1,.11.11v2.21c0,.47.15.75.61.75s.63-.14.63-.7v-2.25a.1.1,0,0,1,.11-.11h.24a.11.11,0,0,1,.11.11v2.28A1,1,0,0,1,466.25,308.51Z" transform="translate(-424.51 -278.2)"/><circle class="cls-2" cx="1.41" cy="15.39" r="0.94"/><circle class="cls-2" cx="1.41" cy="12.68" r="0.94"/><polygon class="cls-2" points="1.95 16.81 0 20.78 1.17 23.31 2.27 17.28 1.95 16.81"/><path class="cls-2" d="M431.94,298.63h2.95c.32,0,.31-.13.41-.28L434,297.29h.75v-5.85l.44-.53L434,290l-.76.75h-2l.74-.83-1.89-.35c0,.46,0,.72,0,1.18h-1l-1.5-.66v7.22h1.57v-.7a6.47,6.47,0,0,0,1.29-.71V297h1.25v-2.2c.23.8.53,2.07.54,2.19l.91-.84a2.17,2.17,0,0,0-1.46-1.74v0h1.55v2.89h.37l-.54.87h-1.59a6.68,6.68,0,0,0,.13-.66l-1.89-.32a5.42,5.42,0,0,1-.1,1H426.5v.47h3c-.36,1.3-1.32,2.15-3.14,2.89l0,.16c2.84-.6,4.32-1.51,4.9-3h.08c.06,1.56,1.12,2.48,2.84,3.07l1-1.69C433.08,299.8,432,298.91,431.94,298.63Zm-2.81-2.69V294.4h1.16Zm1.29-2h-1.29v-1.37l1.29-.12Zm-1.29-1.69v-1h2.36A10.69,10.69,0,0,1,429.13,292.24Zm4.08,1.44-.5-.26-.63.51h-.34l1.47-1.16Zm0-1-1-.42-.56,1.06v-1l1.55-.35Zm0-1-.81-.47h.81Z" transform="translate(-424.51 -278.2)"/><circle class="cls-2" cx="5.26" cy="15.02" r="0.53"/><path class="cls-2" d="M448.14,291.06l.47-.48-1.28-1-.85.85h-1.35l-1.61-.78V296h3v4c0,.12-.06.19-.21.19h-.88l.86,1.55h.45c1.56,0,1.45-1.77,1.45-1.77Zm-1.67,4.39h-1.33v-2.17h1.33Zm0-2.63h-1.33v-2h1.33Z" transform="translate(-424.51 -278.2)"/><path class="cls-2" d="M441.15,290.4h-1.33l-1.65-.78v12h1.66V296h3v-4.89l.47-.48-1.28-1Zm0,5.06h-1.29v-2.17h1.29Zm0-2.63h-1.29v-2h1.29Z" transform="translate(-424.51 -278.2)"/><path class="cls-2" d="M461.71,290.92l.4-.67H451v.67h4.58l-.15,2.6h-1.09l-2.08-.82v8.83h2.07v-.78h4.29v.78h2.06v-7.16l.56-.53-1.53-1.28-1.16,1-.06,0h-2.41c.65-1.06,1.19-1.66,1.83-2.6Zm-3.1,9.16h-4.29v-2.88h4.29Zm0-5.9v2.35h-4.29v-2.36Z" transform="translate(-424.51 -278.2)"/><path class="cls-2" d="M475.26,291.41l-1.89-1.16-.82,1.17h-2.39v-1.57l-2.06-.27v1.84h-3.16v.47h3.16v1.8h-3.57v.52H470c-.3.29-.78.75-1.1,1l-1.77-.29v1.63c-1,.79-2.07,1.48-3.22,2.22l.25.18a21.15,21.15,0,0,0,3-1.31v1.73c0,1.65,1,2.19,2.86,2.19h3.12l1.56-2.47-.32-.13c-.54.87-1.16,1.1-2.45,1.2h-2a.68.68,0,0,1-.77-.73v-.54l5.25-1.92L473,295.59l-3.83,2.75v-1.72a25.46,25.46,0,0,0,3.14-2.42h2.49l.28-.52h-2.3C473.77,292.79,474.12,292.46,475.26,291.41Zm-4.73,2.27h-.38v-1.8h1.95Z" transform="translate(-424.51 -278.2)"/><circle class="cls-2" cx="56.83" cy="15.73" r="0.75"/><circle class="cls-2" cx="56.83" cy="13.84" r="0.75"/><polygon class="cls-2" points="56.79 21.95 57.54 17.15 57 16.8 55.76 20.41 56.79 21.95"/><path class="cls-2" d="M488.18,293.59l.35-.49h-2l1.37-1.41-2-.56-.2,2h-1.15l.68-1.54-2-.33L482,297.82l.37.33.42-.86v2.81h1.69v-.43h3.65l.4-.47h-1.29v-1.54H488l.35-.51h-1.18v-1.53H488l.35-.5h-1.18v-1.54Zm-2.64,5.62h-1.08v-1.59h1.08Zm0-2.06h-1.08v-1.54h1.08Zm0-2h-1.08v-1.56h1.08Z" transform="translate(-424.51 -278.2)"/><polygon class="cls-2" points="55.54 22.48 55.54 12.72 63.62 12.72 64.09 12.11 55.71 12.11 53.65 11.56 53.65 23.52 55.54 23.52 55.54 23.09 63.54 23.09 64.16 22.48 55.54 22.48"/><path class="cls-3" d="M500.93,294.55a.36.36,0,0,1,0-.47.72.72,0,0,0,.05-.66c0-.13-.11-.3-.06-.4a.44.44,0,0,0,0-.36c0-.12,0-.25-.07-.37s0-.12,0-.18c0-.22-.1-.43-.15-.65,0,0,0-.05,0-.07a.45.45,0,0,0-.06-.49.77.77,0,0,1-.2-.38,2.77,2.77,0,0,0,0-.37,1.76,1.76,0,0,0-.31-.75,1,1,0,0,1-.26-.59.63.63,0,0,0-.22-.46.45.45,0,0,1-.1-.34.3.3,0,0,0-.15-.36.38.38,0,0,1-.2-.47.48.48,0,0,0,0-.28c-.11-.25-.24-.48-.37-.72,0-.05-.1-.08-.14-.13a5.32,5.32,0,0,0-.43-.5c-.13-.11-.15-.33-.35-.36l0,0-.24-.37c-.12-.16-.23-.33-.36-.49s-.12-.16-.19-.17-.22-.14-.26-.27-.08-.22-.12-.33a.29.29,0,0,0-.21-.22l-.12-.05.08-.11-.34-.1.08-.12-.06.05c-.06-.08-.11-.17-.17-.25s-.2-.31-.42-.31c0,0-.06-.06-.09-.08s-.09-.11-.13-.11a.7.7,0,0,1-.4-.19,4.25,4.25,0,0,1-.65-.45,1.49,1.49,0,0,0-.21-.18l-.09,0c-.1,0-.2-.07-.3-.12s-.12-.11,0-.16c-.14-.17-.13,0-.19.07a.77.77,0,0,1-.15-.08c-.14-.12-.26-.26-.47-.26s-.17-.09-.23-.16-.2-.23-.3-.35l0,.18-.26-.13c-.11,0-.22-.08-.33-.14s-.1-.12,0-.17a.15.15,0,0,0,.06-.12.13.13,0,0,0-.09-.09c-.29,0-.5-.25-.76-.34-.09,0-.17-.08-.26-.12l-.17-.06-.19,0a1.08,1.08,0,0,0-.17-.05c-.17,0-.31-.13-.5-.1a1.1,1.1,0,0,1-.44-.1c-.08,0-.16-.09-.24-.11-.29-.06-.59-.09-.87-.17a3.1,3.1,0,0,0-.92-.17,3.56,3.56,0,0,1-.42-.06,1.38,1.38,0,0,0-.24,0l.14.2-.48,0s0-.05-.07-.08-.07-.11-.12-.13-.29-.13-.44-.19-.08,0-.09,0c-.2.19-.45,0-.66.1,0,0-.09,0-.13,0l-.48-.14v0l.2.19,0,.06-.63-.13a.67.67,0,0,0-.19,0h0l.15.07a.45.45,0,0,1-.5,0,.19.19,0,0,1,.06-.07,5.36,5.36,0,0,0-.72.1s-.09,0-.12,0a.71.71,0,0,0-.44,0c-.23.07-.49-.09-.72.07,0,0-.06,0-.1,0a1.26,1.26,0,0,0-.59.11.24.24,0,0,1-.18,0,.53.53,0,0,0-.57.11.18.18,0,0,1-.15,0,.25.25,0,0,0-.32.1.39.39,0,0,1-.38.2.31.31,0,0,0-.14,0l-.39.14-.24.05-.49.14a1.48,1.48,0,0,0-.62.26.41.41,0,0,1-.13.06l-.68.28c-.09,0-.17.13-.27.16s-.17.15-.32.14-.58.31-.64.51a.19.19,0,0,1-.09.1l-.39.17s-.06.07-.09.1l-.14.12c-.06,0-.14.06-.18.11-.21.25-.41.51-.63.75a2.12,2.12,0,0,1-.35.25l-.07.06-.11.08s-.11,0-.14.06-.24.31-.36.47a1.12,1.12,0,0,0-.21.16.45.45,0,0,0-.11.24c0,.14,0,.23-.19.27l0-.15-.22-.06-.49.4c.18.34.12.56-.22.69.06.2-.09.27-.26.35l.26.22c.09.07.12.13,0,.22l-.39.4a.09.09,0,0,0,0,.06c0,.16,0,.33,0,.46s.16.07.18.12,0,.19,0,.23-.06.13,0,.2.1.21-.06.28a.69.69,0,0,1,.16.12c.09.12.16.26.23.39s.13.19.18.3.65,0,.67,0,.11.15.16.23a.65.65,0,0,1,.23,0l.18,0a1.62,1.62,0,0,0,.28,0l0-.17h.15l.13,0,.06-.15c.08,0,.18,0,.22,0s.2-.07.3-.06.23,0,.22.17,0,0,.08.05h0l0-.05c.1-.09.16-.12.23,0s.05,0,.08,0l.14.05a.08.08,0,0,1,.06,0l.24.08a.19.19,0,0,0,.15,0,.3.3,0,0,1,.44-.05c-.1-.25.07-.32.15-.43.17.13.25-.12.4-.09s.05,0,.08.05a.22.22,0,0,0,.33-.13s.06,0,.09-.06a.37.37,0,0,1,0,.12.41.41,0,0,1-.05.12c.25-.14.39-.42.71-.43l0-.16-.51,0,.32-.23,0,0c0-.06,0-.13.06-.16a.17.17,0,0,0,.07-.2.46.46,0,0,1,0-.16l.38-.1-.07.22,0,0,.36-.24c.13-.08.22-.2.41-.18a.63.63,0,0,0,.55-.18.84.84,0,0,1,.23-.12l0,.14.4-.13c.08-.11.16-.28.23-.28s.2-.08.29-.13c.3-.15.59-.3.89-.44a1.92,1.92,0,0,1,.35-.09v0l-.13.1.07.25h.5c.19,0,.26,0,.28-.2l-.27-.12.28-.19-.25,0a.56.56,0,0,0,0-.07c0-.07,0-.19,0-.21a.31.31,0,0,0-.22,0c-.15.07-.29.16-.44.22a2.93,2.93,0,0,1-.39.1l0-.06a2.25,2.25,0,0,0,.47-.34c.09-.09.28-.08.43-.09a.78.78,0,0,0,.64-.22.36.36,0,0,1,.27-.1c.31,0,.61.08.92.13,0,0,0,0,.09.08a1.09,1.09,0,0,1-.22,0h-.54a.36.36,0,0,0-.17.06s0,.06,0,.1a.34.34,0,0,0,.1,0l.28,0s.1,0,.11,0a.12.12,0,0,1,0,.11c-.09.06-.19.11-.28.17l-.17.12.26,0s0,0,.08-.07c.09.25.26.1.38.08a.26.26,0,0,0,.15-.2c0-.19.07-.18.19-.1a.44.44,0,0,0,.57,0l-.4-.3,0-.07.44.14-.16.07.43.17-.06.16.22,0s.1,0,.11,0,.28,0,.38,0,.14,0,.21,0a.72.72,0,0,0,.51.06c.11-.11.2-.09.31,0a.66.66,0,0,0,.73.07l-.63-.28c.23-.07.22-.06.47.05s.39.27.66.12l-.16-.09,1.14.11c0,.26.11.37.34.3.13.23-.13.12-.19.21.26.11.56.09.72.36l.13-.12c-.32-.54-.32-.54-.67-.67.07,0,.12-.07.15-.06l.47.23-.07.2.13-.1.1.12h0c0-.09,0-.18,0-.3.14.06.31,0,.23.22a4.53,4.53,0,0,0,.35.3c.11.07.23.12.34.19s.29.09.35.27a.65.65,0,0,0,.35.36l.3.13-.13.07.33.29c.13,0,.31-.09.38.13,0,0,0,0,.06,0a3,3,0,0,1,1.51,1.32s.08.07.12.11l0,0-.09-.19.28.12v0l-.11,0,0,0,.23.21,0-.13s.08,0,.1,0a3.44,3.44,0,0,0,.43.68.77.77,0,0,1,.13.64c0,.22.11.31.28.43l0-.46h.06s.06.09.06.13c0,.2,0,.41,0,.63l-.12,0,.12.16s.07.06.07.09c0,.19.12.25.24.33s0,.1.05.15a2.43,2.43,0,0,0,.05.28,1.19,1.19,0,0,0,.12.21c.06,0,.13.07.14.12a2.33,2.33,0,0,1,0,.39.55.55,0,0,0,.29.46l-.08-.69.08,0a2.58,2.58,0,0,1,.1.31,3.51,3.51,0,0,1,0,.37.43.43,0,0,0,.17.37c.11.06.11.13.08.24a.94.94,0,0,0,0,.26h.06l.08-.21c.09.18.17.33.23.49s0,.18,0,.18a.42.42,0,0,1-.21,0s0,0-.06-.08c-.08.12-.08.42,0,.47s.12.25.28.06a1.21,1.21,0,0,1-.13.32,1.92,1.92,0,0,0,0,.52c.17,0,.12.2.14.31a.5.5,0,0,1-.24.56,3.59,3.59,0,0,0-.31.25.86.86,0,0,1,.18.05.33.33,0,0,1,.14.13c.06.14.1.3.15.46a.15.15,0,0,0-.07,0,1,1,0,0,0-.1.14l.15,0a.38.38,0,0,1,.16,0c.15.13,0,.22-.08.3l.08.13-.11.14-.09.14a1,1,0,0,0,0-.37c0-.09-.17-.15-.24-.21l-.22.06.17.29c.08.13,0,.33.24.39,0,0,0,.09,0,.13a2.34,2.34,0,0,1-.14.26l-.14-.16,0,0a1.18,1.18,0,0,1,.07.13.9.9,0,0,1,.08.27,2.59,2.59,0,0,1-.05.39h0l-.19.13s-.08,0-.1,0a.09.09,0,0,0,0,.08s.07.06.08.05.16,0,.19.1c-.28.2-.3.27-.16.44l-.31.71.1.08-.06.14a1,1,0,0,0-.1.23.6.6,0,0,0,0,.18l0,.12c0,.1-.07.21-.11.31l0,.08,0,.06-.16.18-.1.05-.14.08s.06.06.06.1v0l-.2.3-.2.3,0,0a0,0,0,0,0,0,0,3.31,3.31,0,0,1-.31.37,3,3,0,0,0-.43.72c-.09.11-.2.25-.31.41l0,0a.27.27,0,0,0,0-.06l-.25.21h.12v0a5.25,5.25,0,0,1-1.06.9s0,.27-.16.19c-.21.14-.18.09-.39.22s0,.15-.14.21l-.81.4c-.42.21-.65.49-1.07.7-.14.07-.43.12-.58.17-.35.13-.84.28-1.17.44s-.45,0-.58.21c0,0,0-.21,0-.21s-.26.24-.39.24a2.29,2.29,0,0,0-.92.08,1.34,1.34,0,0,1-.58.21c-.07,0-.11,0-.19,0s-.07,0-.07,0l.25-.07s.23-.12.18-.17l-.46,0a1.69,1.69,0,0,0-.38,0,3.14,3.14,0,0,1-.64,0,8.3,8.3,0,0,1-1.22-.2c-.07,0-.16,0-.19.09a.11.11,0,0,1-.2,0,.46.46,0,0,1,0-.16l-.59-.07-.6-.11c0-.09,0-.09-.16-.08a1.86,1.86,0,0,1-.4-.07l-.09.06s0-.06,0-.07-.14-.06-.19,0-.17,0-.24,0l0,0-.05,0h-.06a.77.77,0,0,1-.24-.17s-.08,0-.13,0-.13,0-.21,0l.06-.11a.71.71,0,0,1-.18,0s0-.06,0-.08a.86.86,0,0,1-.3,0l-.06,0-.21-.13h0l-.87-.54s-.05,0-.07,0-.18,0-.23-.13-.12-.05-.12-.05-.13.09-.21.07l0,0,.09-.15a.7.7,0,0,1-.24,0s0-.11,0-.17a1.83,1.83,0,0,1-.27-.06l-.38-.34v0s-.06-.06-.1-.08l-.16-.11-.09-.09s0,0-.05,0h0l-.1-.07h0l0-.08s-.1-.06-.1-.06h0a.28.28,0,0,0-.13-.12h-.1a.15.15,0,0,1-.11-.08s0-.06,0-.08l-.07,0c0-.07-.08-.16-.14-.17a.51.51,0,0,1-.28-.24l0,0s0-.06-.07-.08l-.33-.32c-.05,0-.11,0-.1-.11a.2.2,0,0,0-.13-.15c-.12,0-.12-.1-.16-.17s0-.15-.1-.18-.18-.24-.28-.4c0,.06-.09.1-.08.14a.36.36,0,0,0,.19.29,1,1,0,0,1,.14.11l-.05,0c0,.06,0,.13,0,.17s0,.2.19.18.13.1.18.16,0,.08-.08.13l0,0c.09-.06.13,0,.19.06s.21.26.31.39l.31.36,0,0,0,0,0,.06h0l.07.19,0,0,0,0a1.94,1.94,0,0,1-.28-.36.52.52,0,0,0-.23-.21l.06.22c-.05,0-.09,0-.13.06l-.11-.1a.14.14,0,0,1,0-.07s0-.09,0-.11a.38.38,0,0,0-.19-.09.2.2,0,0,1-.11,0,.11.11,0,0,0,0,0l0,0,0-.08.21-.05-.47-.28h0l.06-.2-.18-.06v0l-.18-.08s0,0,0,0-.08-.2-.12-.31c-.14.07-.18,0-.19-.13a.72.72,0,0,0,0-.22.13.13,0,0,0-.09-.07.12.12,0,0,0-.09.07,1.94,1.94,0,0,0,0,.34c0,.1,0,.19.06.29s0,.13,0,.19,0,.13,0,.2a.86.86,0,0,1,0,.11c.34,0,.2.31.4.4l-.18,0a1.77,1.77,0,0,0,.25.16,3.1,3.1,0,0,1,.28.24s.06.05.05.07,0,.12.09.16a.11.11,0,0,1,0,.09s-.06,0-.09.05h-.1l.16.38c.23-.09.28,0,.25.25l.32.06a.21.21,0,0,1,.07.07c-.11.12,0,.24,0,.36a.22.22,0,0,0,.33.17,1,1,0,0,1-.18-.1c-.14-.12-.11-.21.06-.24a.36.36,0,0,0,.29.28c.06,0,.1.1.15.14s.26.16.3.32c0,0,0,0,.06,0,.19,0,.27.11.27.3a.39.39,0,0,1,.14,0s.12.06.13.1a.48.48,0,0,0,.48.31,2.62,2.62,0,0,1,.33,0,.18.18,0,0,0,.11,0,.35.35,0,0,1,.28-.1l.35.19-.06,0s0,.09.06.1a1.54,1.54,0,0,0,.24,0l0,.08-.05,0s-.08,0-.15,0l0,.07c0,.06.06.13,0,.16l0,0h-.09l-.06,0-.19-.2s-.07.1-.11.1h-.59l0,.26h.07a.23.23,0,0,1,.28.18.28.28,0,0,0,.32.15l.08.09s.1.11.15.1h0c-.05.12-.11.13-.3.08s-.22-.09-.16-.23l-.33-.12.09-.14-.14,0s-.06,0-.09,0-.17,0-.16-.08a.29.29,0,0,0-.25-.33.61.61,0,0,1-.38-.32.34.34,0,0,0-.17-.16,2.73,2.73,0,0,0-.4-.08c.08.08.1.23.28.27s.3.11.28.32l.05,0,.22.26a1.16,1.16,0,0,0,.44.33,3.19,3.19,0,0,1,.4.25.14.14,0,0,1,0,.07.58.58,0,0,0,.43.32c.14,0,.24.08.3.22a.15.15,0,0,0,.12.07.41.41,0,0,1,.45.08.74.74,0,0,0,.14.1c.09.05.16,0,.19-.07l-.23-.12a.59.59,0,0,0-.4-.16s-.1,0-.14-.06a1.08,1.08,0,0,0-.14-.09c-.13,0-.17-.12-.1-.25s0-.1,0-.14a.46.46,0,0,1,.31.14l.25.2c-.07,0-.09,0-.16,0s0,.08,0,.09l.51.2s0,0,0,0l-.19-.13c.23,0,.27,0,.34.12s.1.07.17.12a.23.23,0,0,0,.14,0,.83.83,0,0,1,.19,0,2.65,2.65,0,0,1,.28.07l.12,0v0c-.06,0-.13-.06-.22,0,.11.13.14.2.31.22a4.37,4.37,0,0,1,.49.11,2.3,2.3,0,0,0,.55.17l0,0,.43,0-.13-.07h.18c.06,0,.09.09.14.12a.25.25,0,0,0,.29,0s.07,0,.14,0,.15-.12.21,0l.05,0s0,0,0,0v.05s.07.11.11.11.16,0,.19.07a.33.33,0,0,1,.1-.1,1.59,1.59,0,0,0,.3.06v0l.05,0a.49.49,0,0,0,.17,0v-.06h0l.08,0c0,.15.06.16.23.1l-.05.15a1.68,1.68,0,0,0,.38-.21c.08-.09.11,0,.19.05a.16.16,0,0,1,.07.06l-.15,0c0,.16,0,.17.12.15h.13l.38,0v-.07l-.07,0c.08,0,.21-.25.3-.31l.08,0,.35-.07h.1v0l-.09-.08.08,0a1,1,0,0,0,.24,0h.06a.84.84,0,0,0,.25,0,.46.46,0,0,0,.36-.08h0a1.29,1.29,0,0,0,.26-.06l.05,0a.62.62,0,0,1,.23.14l-.11.14.24.12v0c-.21,0-.39.17-.61.08l0-.05.26-.15a5.66,5.66,0,0,0-.78,0,.13.13,0,0,0-.1,0c-.06.11-.16.09-.25.08h-.11l.15.18c-.33.15-.37.15-.52,0l.14,0,.09,0s0-.07-.06-.08a.69.69,0,0,0-.22,0,.57.57,0,0,0-.16.06l.12.16,0,0-.15.13a1.8,1.8,0,0,0,.35.06c.23,0,.46,0,.69-.06l.45,0c.14,0,.28,0,.42,0l.75-.12.39-.07c.14,0,.28-.1.42-.13s.48-.08.71-.15a2.54,2.54,0,0,1,.66-.17l.06,0,.68-.23a1.85,1.85,0,0,0,.47-.2.79.79,0,0,1,.59-.21c0-.19.13-.19.24-.24l.23-.13a.27.27,0,0,1,.12,0c.23,0,.31-.18.46-.33l-.3-.09v-.05c.26-.15.43-.45.81-.46l-.11.23-.13,0,0,0,.12.08-.11,0c.19.11.23,0,.31-.1a3.7,3.7,0,0,0,.57-.47c.11-.12.21-.21.37-.19a.52.52,0,0,1,.32-.4c.13,0,.29-.05.25-.26,0,0,0,0,0-.06l.19-.14a.34.34,0,0,1,.13,0h.13l0-.13c.08-.08.14-.14.2-.2a.43.43,0,0,1,.17-.1c.08,0,.1,0,.11-.12s.09-.12.15-.17a.32.32,0,0,1,.14-.06c.05,0,.13,0,.15,0a.32.32,0,0,1,0,.18.22.22,0,0,1,0,.13c-.1.12,0,.37-.25.38a.39.39,0,0,0,0,.07.5.5,0,0,1-.12.47s0,.06,0,.09a.21.21,0,0,1-.33.12c0-.09,0-.22.17-.23s0-.07,0-.1a2.06,2.06,0,0,0,0-.22s-.08.05-.09.09,0,.16-.06.24a.12.12,0,0,1-.22,0,.76.76,0,0,1-.06-.12c-.06.09-.1.13-.11.18s-.06.2-.22.11a.18.18,0,0,0-.13,0,.12.12,0,0,0,0,.11c0,.09.06.17.09.26s0,.07,0,.09a.72.72,0,0,1-.23.21s-.15-.07-.21-.13-.13-.07-.18,0-.06.06-.09.09l-.1.1.11.1c.06,0,.16.08.18.13a.63.63,0,0,1,0,.29s-.07.11-.09.1a.37.37,0,0,1-.16-.09s0-.08,0-.09l-.33-.17-.24.23c-.13-.14-.21-.12-.28,0s0,.06,0,.06c-.25.06-.35.27-.49.45a.22.22,0,0,0,0,.16s.08.07.09.07a.51.51,0,0,0,.11-.12s0-.11.09-.14l.5-.3,0-.16.24.15.17-.12c.06.2.21.06.31.09l-.07.2.21-.06.09-.06c.14-.06.29-.1.34-.26a.07.07,0,0,1,0,0,.47.47,0,0,0,.26-.19c.23-.26.49-.5.74-.74s.23-.18.34-.27,0-.07.06-.1.11-.27.3-.25a.54.54,0,0,1,.36-.48c-.06-.11,0-.16.1-.18s.2-.12.25-.24a1.63,1.63,0,0,1,.19-.36,4.08,4.08,0,0,1,.31-.31,2.32,2.32,0,0,0,.16-.22l.14,0c0-.07,0-.14,0-.19s.26-.35.39-.52a1.32,1.32,0,0,0,.17-.22c.11-.24.21-.5.32-.74a.3.3,0,0,1,.07-.09,1.82,1.82,0,0,0,.36-.36c.16-.3.27-.62.41-.92a5.14,5.14,0,0,1,.26-.55c0-.08.16-.11.1-.23s0-.06.08-.08a.57.57,0,0,1,.14,0c-.1-.18,0-.32.05-.46a3.11,3.11,0,0,0,.15-.41c.06-.2.08-.42.14-.62s.21-.63.31-.94a.73.73,0,0,0,0-.13,5.7,5.7,0,0,0,.13-1c0-.22.09-.41.09-.61a1.35,1.35,0,0,1,.18-.69.37.37,0,0,0,0-.21c0-.22-.15-.44,0-.67a.14.14,0,0,0,0-.06c0-.14-.06-.3.11-.41,0,0,0,0,0,0s0-.23,0-.35A.22.22,0,0,0,500.93,294.55Zm-27.71-9.39,0,0a.28.28,0,0,1-.17.1.26.26,0,0,1-.11.06,3.4,3.4,0,0,1-.23.46h0a.63.63,0,0,1-.21.05.18.18,0,0,1-.15-.07.45.45,0,0,1-.08-.23v0l0,0,0,0a.33.33,0,0,1,.14-.07.21.21,0,0,0,.14-.08,1,1,0,0,0,.07-.18,1.31,1.31,0,0,1,.07-.17h0a.64.64,0,0,1,.2,0,.28.28,0,0,1,.24.1.13.13,0,0,1,0,.06l0,0Zm.6-.83a1.2,1.2,0,0,1-.15.24l0,.05a.19.19,0,0,1-.12.06.18.18,0,0,0-.1,0l0,0,0,0a2.14,2.14,0,0,1-.16-.3c0-.16.21-.29.31-.32h.09a.15.15,0,0,1,.14.06l0,0A.11.11,0,0,1,473.83,284.33Zm1.25-1.16a.62.62,0,0,1-.42.24h0a.28.28,0,0,1-.13,0l-.11-.06,0,0,0,0,.13-.12a1.92,1.92,0,0,1,.29-.25h0a.44.44,0,0,1,.25.18A.12.12,0,0,1,475.08,283.17Zm1.46-1.45s-.06-.05-.14-.12a2.43,2.43,0,0,1,.35-.17s.12.1.13.16S476.67,281.74,476.54,281.72Zm1.48-.82.41-.28c.05.33.05.33-.19.3,0,.24,0,.25-.22.17l.13-.1Zm-.39,5c-.25,0-.4.11-.56.26H477l.14-.36a3.16,3.16,0,0,1,.32-.08.42.42,0,0,1,.19,0,.1.1,0,0,1,.05.08S477.65,285.93,477.63,285.92Zm.23-4.89.09,0s0,.1,0,.14a.15.15,0,0,1-.13.07s-.07-.07-.1-.11Zm0,4.43a.15.15,0,0,1-.11,0s0-.09,0-.09a4.93,4.93,0,0,0,.72-.11v.06Zm1-.23.12.12h-.26c.13-.23.2-.28.78-.49l0,.07,0,.07C479.36,285.24,479.1,285.18,478.84,285.23Zm1-.05a.32.32,0,0,1,0-.07l.23-.08,0,.07Zm.54-5.69c-.16.07-.19-.05-.25-.14l.4-.12.09,0-.24.14S480.36,279.48,480.35,279.49Zm.5.22-.49.06c0-.23.2-.12.28-.19s.14,0,.21,0S480.85,279.67,480.85,279.7Zm.42,0-.21-.15s.11-.06.13-.05a.92.92,0,0,1,.15.15Zm0-.45a.73.73,0,0,1-.16-.19l.7-.1a.18.18,0,0,1,.13.1c0,.13.11.14.22.11a1.3,1.3,0,0,1,.21,0v.06l-.06,0c-.25,0-.5.08-.75.1A.6.6,0,0,1,481.29,279.25Zm2.51.39a.63.63,0,0,1-.17,0l-.49,0a.36.36,0,0,1-.2,0c-.2-.14-.41-.05-.61-.06s-.49,0-.76,0a.29.29,0,0,1,.27-.23,1.64,1.64,0,0,0,.25-.06l.15,0c.19,0,.4.07.58,0,0,0,.08,0,.11,0s.11.06.16.05a1.42,1.42,0,0,1,.7.13s.09.05.09.08S483.84,279.62,483.8,279.63Zm.38-.4.24,0C484.34,279.38,484.34,279.38,484.18,279.24Zm.8,5.11s0-.05,0-.06.05,0,.08,0l.28,0,.07.16A.47.47,0,0,1,485,284.35Zm1.62-4.17a1.57,1.57,0,0,1-.24,0l-.76-.12a2.43,2.43,0,0,1-.36-.12c-.07,0-.14-.09-.19-.08-.21,0-.37-.09-.55-.14a.3.3,0,0,1-.15-.16s0-.09.06-.12.2.16.26.15a.25.25,0,0,1,.26.09.23.23,0,0,0,.14,0h.17c.21,0,.37.16.6.14a1.54,1.54,0,0,1,.79.26Zm-1.65-.91.37.05C485,279.44,485,279.43,485,279.27Zm2.77,1.24c-.08.06-.14,0-.22,0a.5.5,0,0,0-.24-.12.46.46,0,0,1-.48-.39c.08,0,.16,0,.2.05a.24.24,0,0,0,.36,0c.18-.11.32,0,.35.17a.16.16,0,0,0,0,.09C487.8,280.4,487.8,280.45,487.72,280.51Zm.63.33c-.14,0-.11-.12-.11-.2s.07-.05.15-.11l.17.23A.62.62,0,0,1,488.35,280.84Zm1.16-.42a.49.49,0,0,0-.49-.17.16.16,0,0,1-.12,0c-.19-.19-.47-.13-.7-.21l-.49-.17.15,0-.32-.2,0,0h.29v-.05l-.12-.05c-.14,0-.28-.07-.41-.11s-.15,0-.15.1l.16,0a.46.46,0,0,1-.44,0s0-.11,0-.2h-.18l.08.3-.45-.12c0-.15,0-.15-.18-.1l.11.07,0,0-.36-.13c0,.12-.05.15-.17.08a1.09,1.09,0,0,0-.21-.07v0l.31,0v0a.34.34,0,0,0-.13,0c-.21,0-.42-.13-.63,0,0,0-.07,0-.1,0l-.2-.06-.56-.07c-.11,0-.17,0-.11.13a.26.26,0,0,1,0,.06l-.6,0v0l.28-.06c-.07,0-.11-.07-.15-.07a2.2,2.2,0,0,0-.59,0c-.18.06-.33.12-.49,0h0c-.13,0-.26,0-.39,0s-.1-.06-.15-.09a.8.8,0,0,1,.16-.07,1.22,1.22,0,0,1,.17,0l.82-.09,0,0a1.46,1.46,0,0,0,.28,0,.79.79,0,0,1,.54.06c.09.06.26,0,.4,0v0l-.15-.07.17,0,2.21.13a13.64,13.64,0,0,1,3.66.89,10.42,10.42,0,0,1,2.67,1.48l.09,0-.07.05-.16-.11-.11-.07-.5-.25c-.23-.12-.44-.26-.67-.38s-.4-.18-.6-.27l-.23-.07c-.22-.1-.43-.22-.66-.31s-.57-.2-.86-.29l-.29-.08-.53-.19a1.39,1.39,0,0,0-.29,0l.11.16c-.06,0-.13,0-.15,0a.21.21,0,0,0,0,.15,2.05,2.05,0,0,0,.34.08s.06,0,.1-.05l-.08-.07-.14-.09c.26-.12.34-.1.57.14l-.19.12.31.13a2.12,2.12,0,0,0,.27.17,5.12,5.12,0,0,0,.52.13l.18,0a.62.62,0,0,0-.12-.13.71.71,0,0,1-.08-.13c.06,0,.13,0,.18,0s.28.15.42.23,0,0,0,.05l-.28.05.06.17A.49.49,0,0,1,489.51,280.42Zm3.57,1.19,0,.09-.23-.09,0-.07Zm-1.9-.94a.15.15,0,0,1-.13,0l-.48-.29v0s.12,0,.12,0,.2.09.31.13a.47.47,0,0,1,.16.09S491.19,280.66,491.18,280.67Zm-1.63-.74c-.35.05-.45,0-.48-.17A.59.59,0,0,1,489.55,279.94Zm.65,1.52.33.17C490.26,281.68,490.21,281.65,490.2,281.45Zm1.37,5a3.85,3.85,0,0,1-.29-.36l-.05.11h0s0-.09,0-.14a.48.48,0,0,1,.18,0c.18.11.35.23.53.35C491.79,286.53,491.7,286.54,491.57,286.41Zm.24-4-.21-.09-.49-.25a.79.79,0,0,1-.15-.15.7.7,0,0,1,.21-.07c.06,0,.17,0,.19.08.09.2.33.18.47.29l.12.11Zm.16-.82a.32.32,0,0,1-.19-.07L491,281a.19.19,0,0,0-.12,0,.39.39,0,0,1-.34-.15.27.27,0,0,0-.15-.08c-.18,0-.2-.1-.19-.25a.86.86,0,0,0,.22.05.87.87,0,0,1,.56.23c.2.15.36.34.65.3,0,0,.1.06.14.09l.14.12s.1.1.1.15A.16.16,0,0,1,492,281.62Zm.41,5.23-.18-.18,0,0,.19.17Zm.38-4.76c-.15-.11-.29-.23-.43-.35s.08-.15.11-.14a.61.61,0,0,1,.26.12,1.55,1.55,0,0,1,.22.26s.05.08,0,.1-.07,0-.09,0A.41.41,0,0,1,492.75,282.08Zm.49,5.38-.24-.26.07-.06.24.27Zm.29-3.83a1.81,1.81,0,0,1-.23-.2l-.37-.3v0a.54.54,0,0,1,.16,0c.18.09.31.27.55.29,0,0,.08.16.12.24A.59.59,0,0,1,493.54,283.63Zm.58-1.17a.17.17,0,0,1-.13,0,1,1,0,0,1-.16-.13l-.1-.1s0,0,.07-.05a.54.54,0,0,1,.35.19A.13.13,0,0,1,494.12,282.47ZM475.4,305.27h0v0a.2.2,0,0,0,0,.07.41.41,0,0,1-.15-.1A.2.2,0,0,0,475.4,305.27Zm0,.16.31.27-.12.08,0,0a.69.69,0,0,0-.21-.25Zm.68,1.76-.33-.31s-.06-.06-.09-.05-.14-.12-.2-.19,0-.09.07-.09.19,0,.19,0c0,.24.24.33.36.5C476,307.11,476,307.13,476,307.2Zm8.18,3.41v0h.15l0,.06.06,0Zm1.39,0c.08-.17.12-.17.46,0A.48.48,0,0,1,485.6,310.58Zm1.81-.2c-.09,0-.19-.07-.26,0s-.07,0-.11-.06l.23-.07.23-.07a.73.73,0,0,1,.16,0v.1A1.48,1.48,0,0,1,487.41,310.38Zm1.21-.71a.31.31,0,0,1-.12.13l-.17.09s-.1.06-.13,0c-.25-.11-.44,0-.66.12a.7.7,0,0,1-.52.07.62.62,0,0,0-.2,0l0-.1,0,0s.09,0,.12,0,.16-.1.24-.13a.66.66,0,0,1,.29-.08h0a.13.13,0,0,0,.09,0h0l.36-.15.07,0v-.05l.27-.11.1,0a.11.11,0,0,0,.12,0A.14.14,0,0,1,488.62,309.67Zm.38,0s-.09-.06-.11-.11,0-.08.08-.11a2.29,2.29,0,0,1,.31-.17.38.38,0,0,1,.19,0s0,.1,0,.11a3,3,0,0,1-.32.25A.7.7,0,0,1,489,309.71Zm.3.14v-.09l.22,0v.08Zm1.32-.42-.37.06,0-.08c.11-.06.22-.13.34-.18s.09,0,.1.08S490.65,309.43,490.62,309.43Zm.15-.21c.1-.17.12-.17.27-.06Zm1.1-1s-.06,0-.05,0,0-.07.06-.08.2,0,.25-.16.06,0,.08,0,0,0,.07.07Zm4.35-2.36c-.06-.05-.11-.08-.12-.11a.19.19,0,0,1,.22-.19c.05,0,.09.09.14.14Zm.7-.57a1.87,1.87,0,0,1-.19.21,1.61,1.61,0,0,1-.1-.26.48.48,0,0,1,0-.16,1.51,1.51,0,0,1,.25.08S496.94,305.31,496.92,305.34Zm1.92-15.57a.45.45,0,0,0-.17-.37c-.08-.05-.11-.2-.16-.3s-.06-.21-.2-.22-.09,0-.14-.07l0,0,.27,0,.16.11a.25.25,0,0,1,.09.12.4.4,0,0,0,.23.27,1.51,1.51,0,0,1,.18.18c.08.07,0,.14,0,.22a.15.15,0,0,0,0,.09c.05.16-.07.19-.17.21S498.86,289.89,498.84,289.77Zm1,8.74a.71.71,0,0,0-.06.46c0,.15-.08.33-.14.49s-.07,0-.11,0a.58.58,0,0,1,0-.13c0-.07,0-.15,0-.22a.33.33,0,0,1,0-.13,1.44,1.44,0,0,0,.19-.88c0-.24.13-.38.11-.58h0s.05.07,0,.09C499.85,297.94,500,298.23,499.83,298.52Zm.28-1.28a.61.61,0,0,0-.11.12l-.17.16a.33.33,0,0,1,.13-.46c-.16-.18-.18-.28-.09-.43l.28.22A.24.24,0,0,1,500.11,297.24Zm-.22-1.33c.16.14.17.26,0,.4C499.8,296.17,499.79,296,499.88,295.91Zm.42-.34s-.06.06-.08.05c-.19-.07-.23.08-.29.24l-.23-.33c.17,0,.16,0,.13-.18a2.6,2.6,0,0,1,0-.57.83.83,0,0,0,0-.17c0-.16-.08-.31-.1-.47a2.37,2.37,0,0,1,0-.37c-.07-.07-.19-.18-.06-.35,0,0,0-.06,0-.09a.51.51,0,0,1,0-.15,3.65,3.65,0,0,1,0-.65s0-.07,0-.1a1.93,1.93,0,0,0,0-.22.57.57,0,0,0-.08-.2c-.06-.07-.08-.13,0-.19a.11.11,0,0,0,0-.19c-.18-.15-.13-.38-.23-.56s0-.07,0-.11a2.15,2.15,0,0,1-.19-.34s.06-.12.09-.19h.06a2.37,2.37,0,0,1-.18-.22.47.47,0,0,1,0-.15h.24c.14,0,.19.08.17.19a.31.31,0,0,0,.17.37.13.13,0,0,1,.06.08c0,.28,0,.57.05.85a.41.41,0,0,0,0,.13,1.92,1.92,0,0,1,.11.8s0,.05,0,.06c.17.18.09.43.11.63a3.4,3.4,0,0,1,.11.65,1.44,1.44,0,0,1-.06.24s.1.09.11.16a2.45,2.45,0,0,1,0,.4c0,.07,0,.14,0,.22s0,.08,0,.09,0,.21-.06.33l.23,0A.19.19,0,0,1,500.3,295.56Z" transform="translate(-424.51 -278.2)"/><path class="cls-3" d="M481.57,310.86l-.46-.15a.23.23,0,0,1-.12-.11.22.22,0,0,0-.26-.14.23.23,0,0,0-.09.29h0l.09,0a.79.79,0,0,0,.18.13,2.44,2.44,0,0,0,.25,0l.34.08s.06,0,.1-.05S481.59,310.86,481.57,310.86Z" transform="translate(-424.51 -278.2)"/><path class="cls-3" d="M486.88,311s-.08.09-.1.08a.85.85,0,0,1-.34-.18.22.22,0,0,0-.29-.06.93.93,0,0,0-.19.13s.08.06.09,0,.27,0,.38.08.12.09.16.15.09.11.16,0,.08-.11.11-.11c.21,0,.16-.14.18-.24l0,0Z" transform="translate(-424.51 -278.2)"/><path class="cls-3" d="M488.77,310.41s0,.11,0,.17a1.06,1.06,0,0,0,.07.19c.09-.05.15-.11.22-.12s.18-.09.2-.19a1.62,1.62,0,0,0-.27-.08A.34.34,0,0,0,488.77,310.41Z" transform="translate(-424.51 -278.2)"/><path class="cls-3" d="M490.57,309.87l0,.35.57-.37A.4.4,0,0,0,490.57,309.87Z" transform="translate(-424.51 -278.2)"/><path class="cls-3" d="M483.74,311.12s-.05.06-.08.08l-.1,0s0,.05,0,.05a.25.25,0,0,0,.12,0l.36-.15.22-.12-.36,0C483.81,311,483.75,311,483.74,311.12Z" transform="translate(-424.51 -278.2)"/><path class="cls-3" d="M482.19,310.89c-.06-.16-.15-.13-.26-.06.06.21.22.26.41.32l0-.15C482.29,311,482.21,310.93,482.19,310.89Z" transform="translate(-424.51 -278.2)"/><path class="cls-3" d="M485.51,311c-.17-.06-.19.1-.29.16h.63l-.19-.21C485.6,310.93,485.55,311,485.51,311Z" transform="translate(-424.51 -278.2)"/><path class="cls-3" d="M482.88,311l-.16.14v.05l.45.07c-.05-.09-.1-.14-.11-.19S482.91,310.94,482.88,311Z" transform="translate(-424.51 -278.2)"/><path class="cls-3" d="M491.77,309.28c-.06,0-.12.09-.17.14a.21.21,0,0,0-.07.1.2.2,0,0,0,0,.12s.07,0,.09,0l.24-.25S491.81,309.27,491.77,309.28Z" transform="translate(-424.51 -278.2)"/><path class="cls-3" d="M484.81,311l-.18,0a.41.41,0,0,0-.12,0,.11.11,0,0,0,0,.09.23.23,0,0,0,.14,0l.35-.08C485,311,484.94,310.93,484.81,311Z" transform="translate(-424.51 -278.2)"/><path class="cls-3" d="M475.24,307.19c0,.12,0,.27.21.28C475.48,307.2,475.44,307.14,475.24,307.19Z" transform="translate(-424.51 -278.2)"/><path class="cls-3" d="M479.23,309.91a1.78,1.78,0,0,0-.28-.1l0,.07a1.79,1.79,0,0,0,.21.17s.09,0,.14,0S479.26,309.93,479.23,309.91Z" transform="translate(-424.51 -278.2)"/><path class="cls-3" d="M474.87,306.92V307l.29.18c0-.07,0-.15,0-.16A1.93,1.93,0,0,0,474.87,306.92Z" transform="translate(-424.51 -278.2)"/><path class="cls-3" d="M487.26,310.81l.12.21.1-.06-.14-.2Z" transform="translate(-424.51 -278.2)"/><path class="cls-3" d="M491.25,309.59l0,.25c.11-.1.11-.12,0-.26Z" transform="translate(-424.51 -278.2)"/><path class="cls-3" d="M496.91,305.92v-.08l-.05,0C496.79,305.93,497.06,306,496.91,305.92Z" transform="translate(-424.51 -278.2)"/></svg>