<?xml version="1.0" encoding="utf-8"?>
<!-- Generator: Adobe Illustrator 21.1.0, SVG Export Plug-In . SVG Version: 6.00 Build 0)  -->
<svg version="1.1" id="图层_1" xmlns="http://www.w3.org/2000/svg" xmlns:xlink="http://www.w3.org/1999/xlink" x="0px" y="0px"
	 viewBox="0 0 220 166" style="enable-background:new 0 0 220 166;" xml:space="preserve">
<style type="text/css">
	.st0{fill:#A37C3C;}
	.st1{fill:#6D3E8F;}
	.st2{fill:#007C34;}
	.st3{fill:#0080B5;}
	.st4{fill:#CB3A0B;}
</style>
<g>
	<path class="st0" d="M67.1,130.7"/>
	<path class="st0" d="M107.4,60.4L107.4,60.4L107.4,60.4z"/>
	<path class="st0" d="M108,60.4L108,60.4L108,60.4z"/>
	<g>
		<path class="st0" d="M106.6,41.5L106.6,41.5L106.6,41.5z"/>
		<g>
			<path class="st1" d="M106.9,41.6c0.2,0,0.3-0.1,0.3-0.4c-0.6-7.6-8.7-12.2-17.4-9.8c0,0.1,0,0.1,0,0.1l0,0
				c-0.1,0-0.2,0.1-0.2,0.3c0,0.2,0.2,0.3,0.3,0.3c8.2-0.8,14.7,5.4,16.7,9.3c0,0,0,0,0,0l0,0l0,0C106.7,41.5,106.8,41.6,106.9,41.6
				z"/>
			<path class="st1" d="M108.7,41.4C108.7,41.4,108.7,41.4,108.7,41.4c2-3.9,8.5-10.1,16.7-9.3c0.2,0,0.3-0.2,0.3-0.3
				c0-0.1-0.1-0.2-0.2-0.3c0,0,0,0,0-0.1c-8.7-2.5-16.8,2.2-17.4,9.8c0,0.2,0.1,0.4,0.3,0.4C108.6,41.6,108.6,41.5,108.7,41.4
				L108.7,41.4L108.7,41.4z"/>
		</g>
		<path class="st2" d="M85.3,41.3L85.3,41.3c-0.1,0.1-0.2,0.2-0.2,0.3c0,0.2,0.2,0.3,0.3,0.3c10.3-1.9,17.4,2.8,21.9,8.5
			c0,0,0.1,0,0.2,0.1c0,0,0.1,0,0.1,0l0,0l0,0c0,0,0.1,0,0.1,0c0.1-0.1,0.2-0.1,0.2-0.1c4.5-5.7,11.6-10.4,21.9-8.5
			c0.2,0,0.3-0.1,0.3-0.3c0-0.2-0.1-0.2-0.2-0.3l0,0c0,0,0,0,0,0c-7.4-3.7-19.2-2-22.2,7.1c0,0-0.1,0.1-0.1,0.1
			c-0.1,0-0.1,0-0.1-0.1C104.6,39.3,92.8,37.6,85.3,41.3C85.3,41.3,85.3,41.3,85.3,41.3z"/>
		<path class="st3" d="M138.3,54.7L138.3,54.7c0,0,0.1,0.1,0.1,0.1c0.2,0,0.3-0.2,0.3-0.3c0-0.1,0-0.2-0.1-0.2v0
			c-13.5-10.5-27.5-4.1-30.7,4.1c-0.1,0.1-0.2,0.2-0.3,0.2c-0.1,0-0.1-0.1-0.3-0.2c-3.1-8.2-17.1-14.5-30.7-4.1v0
			c-0.1,0-0.1,0.1-0.1,0.2c0,0.2,0.2,0.3,0.3,0.3c0.1,0,0.1,0,0.2-0.1c15-6,25.7-0.3,30.3,5.7l0,0c0,0,0.1,0.1,0.1,0.1c0,0,0,0,0,0
			c0,0,0.1,0,0.1,0c0,0,0.1,0,0.1,0h0c0,0,0.1-0.1,0.1-0.1l0,0C112.6,54.4,123.3,48.7,138.3,54.7z"/>
		<g>
			<path class="st4" d="M95.1,22.5c-0.2,0-0.3,0.1-0.3,0.3c0,0.2,0.1,0.3,0.3,0.3c4.7,1,8.6,5.8,10.3,9.7l0,0l0,0l0,0
				c0.1,0.1,0.2,0.2,0.3,0.2c0.2,0,0.3-0.1,0.3-0.3C106.5,28.4,102.6,22.5,95.1,22.5z"/>
			<path class="st4" d="M109.6,33.1c0.1,0,0.2-0.1,0.3-0.2l0,0l0,0l0,0c1.6-3.9,5.7-8.7,10.3-9.7c0.2,0,0.3-0.2,0.3-0.3
				c0-0.2-0.2-0.3-0.3-0.3c-7.5,0-11.4,5.9-11,10.3C109.3,33,109.4,33.1,109.6,33.1z"/>
		</g>
		<g>
			<path class="st0" d="M64.1,57.4c23-0.8,20.4-40.9,40.1-42c0.2,0,0.5-0.2,0.5-0.5c0-0.2-0.2-0.4-0.5-0.4
				C80.6,13,82,51.2,64.1,56.3c-0.3,0-0.5,0.2-0.5,0.5C63.6,57.1,63.8,57.4,64.1,57.4z"/>
			<path class="st0" d="M111.2,15.3c19.6,1.2,17,41.2,40,42c0.3,0,0.5-0.3,0.5-0.5c0-0.3-0.2-0.5-0.5-0.5
				c-17.9-5.2-16.5-43.3-40-41.9c-0.3,0-0.5,0.2-0.5,0.4C110.7,15.1,110.9,15.3,111.2,15.3z"/>
			<path class="st0" d="M107.4,25.3c0,0.1,0.1,0.2,0.3,0.2c0.1,0,0.3-0.1,0.3-0.2l0,0c0.7-1.3,1.1-4,1.1-7.1c0-7.5-1-17-1.1-17.6
				c0-0.2-0.2-0.3-0.4-0.3c-0.1,0-0.3,0.1-0.3,0.3c-0.1,0.6-1.1,10.1-1.1,17.6C106.2,21.3,106.7,23.9,107.4,25.3L107.4,25.3z"/>
		</g>
	</g>
	<g>
		<polygon class="st0" points="205.2,70 207.1,70 207.1,75.5 208.9,75.5 208.9,70 210.7,70 210.7,68.7 205.2,68.7 		"/>
		<polygon class="st0" points="217.6,68.7 216,73 214.4,68.7 212.1,68.7 212.1,75.5 213.7,75.5 213.7,70.7 213.7,70.7 215.4,75.5 
			216.7,75.5 218.4,70.7 218.5,70.7 218.5,75.5 220,75.5 220,68.7 		"/>
		<path class="st0" d="M143.1,100.7L143.1,100.7c-5.5-1.9-15-23.9-18.4-32.1l0,0c0-0.1-0.2-0.2-0.3-0.2c-0.1,0-0.2,0.1-0.3,0.2l0,0
			c-3.2,8.7-11.8,29.8-17.2,32.1v0c-0.2,0-0.3,0.2-0.3,0.3c0,0.2,0.2,0.3,0.4,0.3h7.2c0.2,0,0.3-0.2,0.3-0.3c0-0.1-0.1-0.2-0.2-0.3
			c0,0,0,0,0,0c-1.4-1-0.6-2.6,0.2-4.2c0.6-1.2,1.3-2.6,2.1-4.1H130c1.1,2.1,2,3.8,2.3,4.3c0.8,1.7,0.4,3.3-0.7,3.9l0,0
			c-0.2,0-0.3,0.2-0.3,0.3c0,0.2,0.2,0.3,0.3,0.3H143c0.2,0,0.3-0.2,0.3-0.3C143.3,100.9,143.3,100.8,143.1,100.7z M117.7,90.3
			c2.2-4.4,4.5-9.2,5.4-11.7c0.8,2.5,3.4,7.5,5.7,11.7H117.7z"/>
		<path class="st0" d="M42.6,101.4h7.2c0.2,0,0.3-0.2,0.3-0.3c0-0.1-0.1-0.2-0.2-0.3c0,0,0,0,0,0c-1.4-1-0.6-2.6,0.2-4.2
			c0.6-1.2,1.3-2.6,2.1-4.1h13.4c1.2,2.1,2.1,3.8,2.3,4.3c0.9,1.7,0.4,3.3-0.7,3.9l0,0c-0.2,0-0.3,0.2-0.3,0.3
			c0,0.2,0.1,0.3,0.3,0.3h11.4c0.2,0,0.3-0.2,0.3-0.3c0-0.1-0.1-0.3-0.2-0.3l0,0c-5.5-1.9-15-23.9-18.4-32.1l0,0
			c0-0.1-0.1-0.2-0.3-0.2c-0.2,0-0.3,0.1-0.3,0.2l0,0c-3.2,8.7-11.8,29.8-17.3,32.1v0c-0.1,0-0.3,0.2-0.3,0.3
			C42.2,101.2,42.3,101.4,42.6,101.4z M58.8,78.5c0.8,2.5,3.5,7.5,5.6,11.7H53.3C55.5,85.9,57.8,81.1,58.8,78.5z"/>
		<path class="st0" d="M39.5,98.1c-0.7-2.6-0.9-9.3-0.6-10.7c0.4-1.4,0.4-2.7,2.9-3.3c0,0,0.2-0.1,0.2-0.3c0-0.2-0.1-0.3-0.3-0.3
			c0,0-12.7,0-12.7,0c-0.2,0-0.3,0.2-0.3,0.3C28.7,84,29,84,29,84c2.3,0.6,4,1.9,4.4,4.3c0.4,2.4,0.2,9.1-1,10.4
			c-1.2,1.2-4,2.3-8.5,2.3c-8.7,0-17.4-6.4-17.4-19.7c0-14.1,9.8-18.7,16.3-18.7c6,0,12.8,2.3,16.1,11.4c0,0.1,0.1,0.3,0.3,0.3
			c0.2,0,0.3-0.1,0.3-0.3c0-0.5,0.2-2.4,0-5.3c-0.3-3.6-7-8-17-8C8.4,60.6,0,70.5,0,82c0,9.5,7.4,21,23.2,21
			C34.1,103,39.8,99,39.5,98.1z"/>
		<path class="st0" d="M106.5,94.4c-0.2,0-0.2,0.2-0.2,0.2c-2.9,4.8-8.4,4.6-12.4,4.6c-1.5,0-3.8-1-4-3.3c-0.2-2.2-0.2-20,0-22.5
			c0.2-2.5,1.7-3.4,2.8-3.9c0.2,0,0.3-0.2,0.3-0.3c0-0.2-0.1-0.4-0.3-0.4H81.3c-0.2,0-0.3,0.2-0.3,0.4c0,0.1,0.1,0.3,0.2,0.3l0,0
			c2.3,0.5,3.2,2.7,3.5,4.3c0.2,1.5,0.3,19.2,0.1,22.6c-0.1,3.3-2.5,4.2-3.5,4.5l0,0c-0.1,0-0.3,0.2-0.3,0.3c0,0.2,0.2,0.3,0.3,0.3
			h22.8c0.8-0.3,2.5-5.5,2.7-6.6c0,0,0,0,0-0.1C106.9,94.5,106.7,94.4,106.5,94.4z"/>
		<path class="st0" d="M201.9,100.7c-2.8-1.4-3.6-2.3-3.9-4.6c-0.3-3.5-0.8-8.5,0-14.5c1.7-9.2,7-19.2,16.9-20.1l0,0
			c0.2,0,0.3-0.2,0.3-0.4c0-0.1-0.1-0.2-0.2-0.3c-8.6-2-16.7,7.3-19.3,16.2c-3.6-11.8-13.6-18.3-21.7-16c-0.1,0-0.2,0.1-0.2,0.3
			c0,0.2,0.2,0.3,0.3,0.3c8.2,0.3,15.5,9,17.1,20c0.9,6.3,0.9,10.4,0.4,14.4c-0.4,2.6-1.8,3.5-4.3,4.7l0,0c-0.1,0-0.2,0.2-0.2,0.3
			c0,0.2,0.2,0.3,0.3,0.3h14.5c0,0,0,0,0,0c0.2,0,0.3-0.2,0.3-0.3C202.3,100.8,201.9,100.7,201.9,100.7z"/>
		<path class="st0" d="M155.7,101c0-0.2-0.2-0.3-0.3-0.3c-0.5-0.2-2.3-1.3-1.4-3.1c0.4-0.9,3.3-4.9,6.7-9.5c2.7,4,5,7.5,5.3,8
			c1.8,2.8,0,4.2-0.6,4.6c-0.1,0-0.3,0.2-0.3,0.3c0,0.2,0.2,0.3,0.3,0.3h13.4c0,0,0,0,0.1,0c0.1,0,0.2-0.2,0.2-0.3
			c0-0.1-0.1-0.3-0.3-0.3c-1.6-0.8-4.2-2.2-6.1-4.1c-2.4-2.4-6.2-7.8-9.3-12.4c3.6-4.9,7.2-9.5,8.5-10.8c2.5-2.6,4.2-3.5,5.8-3.9
			c0,0,0.1,0,0.1,0l0,0h0c0.1-0.1,0.2-0.2,0.2-0.3c0-0.2-0.2-0.4-0.3-0.4l0,0h0c0,0,0,0,0,0l0,0h-10.4l0,0c0,0,0,0,0,0l0,0l0,0
			c-0.2,0-0.3,0.2-0.3,0.4c0,0.1,0.1,0.2,0.2,0.3v0c0,0,0,0,0,0l0,0c1.2,0.5,2.6,1.8,0,5.7c-0.8,1.3-2.6,3.8-4.9,7
			c-1.9-2.8-3.3-5.1-3.7-5.9c-1.9-3.3-2.5-5.9-0.7-6.9c0.1-0.1,0.2-0.2,0.2-0.3c0-0.2-0.1-0.4-0.4-0.4l0,0h-12c0,0,0,0,0,0l0,0l0,0
			l0,0c-0.2,0-0.4,0.2-0.4,0.4c0,0.1,0.1,0.2,0.2,0.3l0,0l0,0c0,0,0,0,0,0c2.2,0.8,4.5,2.8,6.8,6.2c0.6,0.9,3.8,5.7,6.9,10.5
			c-2.2,2.9-4.6,6.2-7.2,9.3c-2.5,3.1-5.4,4.7-7.2,5.3l0,0c0,0,0,0-0.1,0c0,0,0,0,0,0c-0.1,0-0.1,0.1-0.1,0.3c0,0.1,0.1,0.3,0.2,0.3
			v0h10.4C155.5,101.4,155.7,101.2,155.7,101z"/>
	</g>
	<g>
		<path class="st0" d="M110.1,118.4c1.9,0,4.1,0.5,5.1,3.3c0,0.1,0.1,0.1,0.1,0.1c0.1,0,0.1-0.1,0.1-0.1c0-0.2,0.1-0.8,0-1.7
			c-0.1-1.2-2.3-2.6-5.5-2.6c-4.4,0-7.2,3.2-7.2,6.9c0,3,2.4,6.5,7.4,6.5c3.5,0,5.2-1.4,5.2-1.8v-2c0-0.1,0-0.1-0.1-0.1
			c-0.1,0-0.1,0.1-0.1,0.1c-0.8,2.4-3.4,2.9-4.8,2.9c-2.5,0-5.4-1.9-5.4-5.8C105.1,120.2,108.3,118.4,110.1,118.4z"/>
		<path class="st0" d="M164.8,117.8c0-0.1-0.1-0.2-0.1-0.2h-3.1c0,0-0.2,0-0.2,0.1c0,0.1,0.1,0.1,0.2,0.1c0.5,0.2,0.8,0.4,0.9,1.4
			c0.1,1,0,5.7,0,6.6c0,1.3-1.3,3.7-4,3.7c-2.9,0-4-2.2-4-3.7c0-0.9-0.1-5.6,0-6.6c0.1-1,0.4-1.2,0.8-1.3c0,0,0.2-0.1,0.2-0.2
			c0-0.1-0.1-0.2-0.1-0.2c-0.1,0-4,0-4,0c-0.1,0-0.2,0-0.2,0.1c0,0.1,0.1,0.2,0.1,0.1c0.9,0.2,0.9,0.9,1,1.5c0.1,0.6,0,4.6,0,5.9
			c0,3.3,2.5,5.5,5.9,5.5c3,0,5.5-2.4,5.5-5.6c0-1.3,0-5.2,0.1-5.9c0.1-0.6,0.1-1.3,0.9-1.5C164.6,118,164.8,117.9,164.8,117.8z"/>
		<path class="st0" d="M87.7,130.5L87.7,130.5c0,0-0.1,0-0.1,0.1c0,0.1,0.1,0.1,0.1,0.1h4.5c0.1,0,0.1,0,0.1-0.1
			c0-0.1-0.1-0.1-0.1-0.1l0,0c-2.2-0.8-6-9.6-7.3-12.9l0,0c0,0-0.1,0-0.1,0c-0.1,0-0.1,0-0.1,0l0,0c-1.3,3.5-4.7,12-6.9,12.9l0,0
			c0,0-0.1,0-0.1,0.1c0,0.1,0,0.1,0.1,0.1h2.9c0,0,0.1,0,0.1-0.1c0-0.1,0-0.1-0.1-0.1v0c-0.5-0.4-0.2-1,0.1-1.7
			c0.3-0.5,0.5-1,0.9-1.6h5.3c0.5,0.8,0.8,1.5,0.9,1.7C88.3,129.6,88.2,130.2,87.7,130.5z M82.2,126.3c0.9-1.8,1.8-3.7,2.1-4.7
			c0.3,1,1.4,3,2.3,4.7H82.2z"/>
		<path class="st0" d="M140.6,130.5L140.6,130.5c-2.2-0.8-6-9.6-7.3-12.9l0,0c0,0-0.1,0-0.1,0c-0.1,0-0.1,0-0.1,0l0,0
			c-1.3,3.5-4.7,12-6.9,12.9l0,0c-0.1,0-0.1,0-0.1,0.1c0,0.1,0.1,0.1,0.1,0.1h2.9c0.1,0,0.1,0,0.1-0.1c0-0.1,0-0.1-0.1-0.1v0
			c-0.6-0.4-0.2-1,0.1-1.7c0.2-0.5,0.5-1,0.9-1.6h5.3c0.5,0.8,0.8,1.5,0.9,1.7c0.3,0.7,0.2,1.3-0.3,1.6l0,0c-0.1,0-0.1,0-0.1,0.1
			c0,0.1,0.1,0.1,0.1,0.1h4.6c0.1,0,0.1,0,0.1-0.1C140.7,130.5,140.6,130.5,140.6,130.5z M130.5,126.3c0.9-1.8,1.8-3.7,2.2-4.7
			c0.3,1,1.4,3,2.2,4.7H130.5z"/>
		<path class="st0" d="M67.2,130.5L67.2,130.5c-0.9-0.2-0.9-1.5-1.1-2.1c0-0.6-0.4-7.2-0.4-8.5c0-1,0.4-1.8,0.8-1.9
			c0,0,0.1-0.1,0.1-0.2c0-0.1,0-0.1-0.1-0.1h-2.7l-4.6,10l-5-10h-2.5c-0.1,0-0.2,0.1-0.2,0.1c0,0.1,0.1,0.2,0.1,0.2
			c0.4,0.1,0.9,0.8,0.9,2.1c0.1,1.3-0.3,7.3-0.4,7.9c-0.1,0.6-0.2,2.2-1.1,2.4c0,0-0.1,0-0.1,0.1c0,0.1,0.1,0.1,0.1,0.1h2.8
			c0,0,0.1,0,0.1-0.1c0-0.1-0.1-0.1-0.1-0.1c-0.5-0.2-0.6-0.7-0.6-1.7c0-1,0.3-6.7,0.4-7.6c0.5,1.3,4.9,9.5,4.9,9.5
			c0,0,0,0.2,0.1,0.2c0.1,0,0.1-0.2,0.1-0.2l4.8-10.3c0.1,0.9,0.5,7.4,0.4,8.4c-0.1,1-0.1,1.5-0.6,1.7c-0.1,0-0.1,0-0.1,0.1
			c0,0.1,0,0.1,0.1,0.1h3.8l0,0h0c0.1,0,0.1,0,0.1-0.1C67.3,130.5,67.3,130.5,67.2,130.5z"/>
	</g>
	<g>
		<path class="st0" d="M38.1,147c-1.3-2-4.8-3-4.8-3l-0.4,0.4c1.6,1.6,3.1,3.3,3.6,4.9L38.1,147z M36.2,155.2l1.8-1.9
			c-1.4-2.3-5-2.8-5-2.8l-0.3,0.3C34.5,152.4,35.7,154.2,36.2,155.2z M158.9,144l-0.4,0.4c1.6,1.6,3.1,3.3,3.6,4.9l1.6-2.3
			C162.4,145.1,158.9,144,158.9,144z M158.5,150.4l-0.3,0.3c1.9,1.6,3,3.4,3.6,4.4l1.7-1.9C162.2,151,158.5,150.4,158.5,150.4z
			 M41.3,147.4l-0.5,0.1c0.7,0.8,1.5,2.2,1.9,3.4l1.6-1.3C43.1,147.9,41.3,147.4,41.3,147.4z M124,149.4l1.6-1.6
			c-1.2-1.3-2.8-2.4-3.2-2.7c0.2-0.4,0.3-0.8,0.4-1.2h-2.9c-0.7,3.2-1.8,5.5-3.9,8.3l0.3,0.3c0.7-0.4,1.3-0.9,1.8-1.5h1.6v2.1h-3.3
			v1.3h3.3v6.7c-1.5,0.4-2.7,0.7-3.3,0.8l1.1,2.6c3.4-1.8,6.8-4.1,7.9-5.1l-0.3-0.3c-0.8,0.4-1.9,0.8-3.1,1.2v-1.4
			c2.3-1.8,3-3.6,3-3.6l-1.9-0.5c-0.1,0.9-0.5,1.9-1.2,3v-3.5h2.8v-1.3h-2.8v-2.1h2.4v-1.3h-5.1c1.1-1.4,2-2.7,2.6-3.9
			C122.8,146.9,123.8,148.8,124,149.4z M116.9,155.6l-0.3,0c1,2.1,1.2,3.5,1.4,5.2l1.7-1.2C119,157.1,116.9,155.6,116.9,155.6z
			 M40.5,147h10.1v8.5c-1.5-2.5-3.6-3-3.6-3l-0.5,0.1c1.5,1.8,2.1,3.1,2.3,4.1l1.8-1.1v1.6h2v-11.6h-7.6c0.9-0.3,1.9-0.8,2.5-1.9
			h-3.3c-0.4,1.3-1.3,1.8-1.4,1.9h-4.3v11.6h2V147z M46.5,156.1v-3.9h3.6V151h-3.6V151c1.4-0.3,2.9-1.5,3.4-3.5H48
			c-0.2,1.1-0.9,2.5-1.5,2.8v-2.8h-2v3.6h-3.7v1.2h3.7v3.9H46.5z M75.4,164.7h2.3v-11.2h6.1v-9.4h-8.4V164.7z M77.8,145.5h3.7v2.5
			h-3.7V145.5z M77.8,149.2h3.7v3h-3.7V149.2z M164.2,144.5v1.3h11.5v12.4c0,2.3-1.5,5-6,5c0.8,0.5,1.6,1.2,2,1.8
			c2.6,0,6.3-2.2,6.3-6.4v-12.8h1.7v-1.3H164.2z M173.5,148.8h-7.8v9.6h7.8V148.8z M171.1,157.4h-3.2v-7.5h3.2V157.4z M40.6,156.5
			l0.3,0.3c3.1-0.7,3.5-4.1,3.5-4.1h-1.9C42.4,152.7,42.3,155.3,40.6,156.5z M36.6,155.6c0,0.5-2,5.2-4,6.5l1.8,2.8
			c3.3-4.1,2.5-8.5,2.5-9.3H36.6z M163,155.6c0,0.5-2.3,5.2-4.3,6.5l1.8,2.8c3.3-4.1,2.8-8.5,2.8-9.3H163z M53.6,159.2v-1.3h-7
			c0.2-0.5,0.3-0.9,0.3-1.2h-3c0,0.4-0.1,0.8-0.2,1.2h-6.2v1.3h5.7c-1.1,2.2-3.3,4.1-6,5.5l0.2,0.2c4.6-0.5,7.2-3.1,8.4-5.3
			c1.4,3.9,5.6,5.1,6.8,5.5c0.4-0.6,1.1-1.5,1.9-2.4c-2.7,0-6.5-2-8-3.5H53.6z M86.1,153.5h6.2v6.5c0,2.3-0.5,3.2-3.8,3.2
			c0.8,0.5,1.6,1.2,2,1.8c2.6,0,4.1-1,4.1-4.3c0-3.2,0-16.5,0-16.5h-8.5V153.5z M88.5,145.4h3.9v2.7h-3.9V145.4z M88.5,149.3h3.9
			v2.9h-3.9V149.3z M132.6,158.3c1.2-0.4,3.5-2,4-3.3l-2.4-1c-0.4,1.8-1.4,3.1-2,3.7c0,0.1-0.1,0.1-0.1,0.1
			c-1.2-1.5-1.8-3.1-2.1-4.3h5.2v-9h-9.6v17.9l1.2,2.6c1-0.8,3.8-3.3,4.7-4.3l-0.3-0.3c-1,0.4-2.2,0.9-3.3,1.2v-8.1h1.2
			c0.5,3.3,1.9,8.1,7.1,10.9c0-0.9,1-1.8,1.7-2.3C135.6,161.2,133.8,159.8,132.6,158.3z M128.1,145.8h5v2.4h-5V145.8z M128.1,152.2
			v-2.6h5v2.6H128.1z"/>
	</g>
</g>
</svg>
