<?xml version="1.0" encoding="utf-8"?>
<!-- Generator: Adobe Illustrator 21.1.0, SVG Export Plug-In . SVG Version: 6.00 Build 0)  -->
<svg version="1.1" id="图层_1" xmlns="http://www.w3.org/2000/svg" xmlns:xlink="http://www.w3.org/1999/xlink" x="0px" y="0px"
	 viewBox="0 0 210 132" style="enable-background:new 0 0 210 132;" xml:space="preserve">
<style type="text/css">
	.st0{fill:#000808;}
</style>
<g>
	<path class="st0" d="M97.8,58.9c0-0.2,0.7-0.9,0.8-0.9c0.1,0,0.7,0.7,0.7,0.9c0,0.1-0.7,0.8-0.7,0.8C98.5,59.7,97.8,59,97.8,58.9
		L97.8,58.9z M110.7,58.9c0-0.2,0.7-0.9,0.8-0.9c0.1,0,0.7,0.7,0.7,0.9c0,0.1-0.7,0.8-0.7,0.8C111.3,59.7,110.7,59,110.7,58.9
		L110.7,58.9z M104.2,58.9c0-0.2,0.7-0.9,0.8-0.9c0.1,0,0.7,0.7,0.7,0.9c0,0.1-0.7,0.8-0.7,0.8C104.9,59.7,104.2,59,104.2,58.9
		L104.2,58.9z M97,60.2h3.2c0.2,0,0.4-0.2,0.4-0.4V58c0-0.2-0.2-0.4-0.4-0.4c-0.7,0-2.2,0.1-3.2,0.2c-0.2,0-0.3,0.1-0.3,0.3v1.8
		C96.6,60.1,96.8,60.2,97,60.2L97,60.2z M94.8,59.1c0-0.2,0.5-0.7,0.6-0.7c0.1,0,0.6,0.5,0.6,0.7c0,0.1-0.5,0.7-0.6,0.7
		C95.3,59.7,94.8,59.1,94.8,59.1L94.8,59.1z M101.2,58.9c0-0.2,0.5-0.7,0.6-0.7c0.1,0,0.6,0.5,0.6,0.7c0,0.1-0.5,0.7-0.6,0.7
		C101.7,59.6,101.2,59,101.2,58.9L101.2,58.9z M106.6,60.3c0.2,0,0.4-0.2,0.4-0.4v-2c0-0.2-0.2-0.4-0.4-0.4h-3.2
		c-0.2,0-0.4,0.2-0.4,0.4v2c0,0.2,0.2,0.4,0.4,0.4H106.6L106.6,60.3z M113.1,60.2c0.2,0,0.3-0.1,0.3-0.3v-1.8c0-0.2-0.2-0.3-0.3-0.3
		c-1-0.1-2.6-0.2-3.2-0.2c-0.3,0-0.4,0.2-0.4,0.4v1.8c0,0.2,0.2,0.4,0.4,0.4H113.1L113.1,60.2z M115.2,59.1c0,0.1-0.5,0.7-0.6,0.7
		c-0.1,0-0.6-0.6-0.6-0.7c0-0.2,0.5-0.7,0.6-0.7C114.7,58.4,115.2,58.9,115.2,59.1L115.2,59.1z M108.8,58.9c0,0.1-0.5,0.7-0.6,0.7
		c-0.1,0-0.6-0.6-0.6-0.7c0-0.2,0.5-0.7,0.6-0.7C108.3,58.2,108.8,58.7,108.8,58.9L108.8,58.9z M100.4,20.4L100.4,20.4
		c0.5,1.6,2.3,1.7,2.7,3.6L103,24c-0.9-1.3-2.2-1.5-2.7-2.2C100.1,21.5,100.1,21.1,100.4,20.4L100.4,20.4z M103.4,41.6
		c0,2.6-2.2,3.7-4.4,3.7c2.9-3.2,0.7-7.7,3.5-10.7C102.3,37.3,103.4,39.8,103.4,41.6L103.4,41.6z M117.2,48.7c3.1,0,4.7-1.6,4.7-4
		c0-0.8-0.2-1.4-0.2-1.4c-0.8,0.7-1.8,0.8-2.4,0.8c-1.2,0-2.9-0.7-2.9-2.7c0-2.6,2.7-3.9,2.7-6.8c0-0.8-0.3-1.2-0.3-1.2
		c1.2-1.7,1.7-3.2,1.7-4.5c0-2.3-1.2-3.8-1.2-3.8l1.3,0.7c-0.6-2.2-1.8-3.7-1.8-3.7s0.7,0.3,1,0.2c-0.7-0.3-1.7-1.6-1.7-3.8
		c0-2.2-0.5-3.5-4.8-4.2c-0.5-1-1.7-2.1-2.2-2.4c-1,0.5-2.5,1.1-3,1.5c0,0-1.2,0.1-1.7,0.1c-0.7,0-1.3-0.2-1.7-0.2c-1,0-1.7,1-1.7,1
		s-2.2,0.1-3.8,0.4c-0.8,0.2-1.3,0.8-1.9,2.2l-4.1,2.2c-0.7,0.4-1.2,0.7-1.2,1.3c0,0.3,0.2,0.9,0.7,1.7c0.4,2.5,0.8,2.9,1.4,2.9
		c0.2,0,0.5-0.1,0.5-0.1c0.2,0.2,0.6,0.8,0.7,1.1c-0.7,0.3-1.5-0.4-2.5-0.4c-0.6,0-1.5,0.3-1.5,1.3c0,0.3,0.2,0.4,0.3,0.4
		c0.2,0,0.5-0.1,1.1-0.1c0.7,0,1.3,0.7,2.5,0.7c0.4,0,0.7-0.1,0.8,0c-0.6,0.4-0.9,0.7-0.7,1.2c0.2,1.1,1.2,2.3,1.7,2.3
		c0.4,0,1.2-0.2,1.2-0.2l-0.5,0.4c-3.3,2.8-2.6,6-2.6,9.1c0,2.4-0.7,3.9-2.6,3.9c-1.2,0-3-0.7-4.3-2.4c-0.2,0.5-0.2,1.2-0.2,1.9
		c0,2.9,2.7,4.8,5.3,4.8c2.3,0,4-0.7,5.6-2c4.7-0.1,6.2-3.2,6.2-3.2c2.2,3.2,6.4,3,7.1,3C113.5,48.1,115.7,48.7,117.2,48.7
		L117.2,48.7z M117.6,31.1c0,3.5-4.5,3.9-4.5,7.3c0,1.3,0.4,2.2,0.2,3.1c0,0,0.9-1,1-1.7c0,2.6,1.3,5.6,4.7,5.6
		c0.5,0,1.2-0.1,1.9-0.5c0,0-0.2,2.4-2.9,2.4c-3.5,0-6.6-2.9-6.6-8.3c0-1,0.2-2.2,0.7-3c0,0-1.7,0.9-1.8,3.8c0,0-0.7-1-0.7-2.2
		C109.6,33.3,114.7,34.8,117.6,31.1L117.6,31.1z M113.7,15.4c3.1,0.7,2.7,2.7,3.2,4.1c-1.3-1.7-3.1-2.7-3.1-2.7
		C114,16,113.7,15.4,113.7,15.4L113.7,15.4z M95.1,23.7c0.2-0.1,0.7-0.2,0.7-0.2c0.2,0.3,0.2,0.9,0.1,1.4
		C95.1,24.9,94.9,24.2,95.1,23.7L95.1,23.7z M96.8,26.2c-0.3,0.5-0.6,1.2-1.6,1.2c-1,0-1.8-0.7-2.5-0.7c-0.3,0-0.5,0.1-0.7,0.1
		c-0.2,0-0.2-0.1-0.2-0.2c0-0.2,0.3-0.5,0.8-0.5c0.5,0,0.9,0.2,1.7,0.4c1.1,0.3,1.7-0.6,2.2-0.9c0.5-0.4,0.9-0.5,1.3-0.5
		c0.8,0,1.4,0.4,1.4,0.4c-0.4,0-1.3,0.4-2,0.8C97,26.2,96.9,26.1,96.8,26.2L96.8,26.2z M97.7,27.2c-0.3,0.3-0.7,0.3-0.8,0.3
		c-0.2-0.4,0-1,0-1C97.2,26.6,97.7,26.8,97.7,27.2L97.7,27.2z M92.4,45.5c3.9,0,3.8-4.5,3.8-6c0-6.7,2-8.4,6.6-10.5
		c3.5-1.7,6.6-2.3,6.6-5.6c0-1.2-0.3-2.4-1.7-2.4c0,0,0.5,0.5,0.5,1.3c0,0.3-0.1,0.7-0.2,1.1c0-0.3-0.1-0.7-0.3-1.1
		c-0.4,0.7-0.3,1.7-0.6,2.1c0,0-0.2,0.4-1.3,1c0,0-0.2,0.2,0.4,0.2c0,0,1.4,0,1.9-0.6c-0.4,1.2-0.9,1.6-1.7,1.6
		c-0.4,0-1.1-0.1-1.7-0.1c-1,0-3.3,0.5-4.2,2.1c-0.7,1.1-2.6,2.1-3.2,2.1c-0.6,0-1.4-1.3-1.4-1.9c0-0.7,1.2-0.2,2.1-1.2
		c1.5-1.5,2.1-1.8,3.7-1.8c0,0,0.9,0,0.1-0.8l-2.6-2.4c-0.3-0.3-0.6-0.5-0.9-0.5c-0.2,0-0.5,0.1-1.2,0.7c-1.5,0.2-2.1,0.4-2.5,0.7
		c-0.2,0.2-0.4,0.3-0.6,0.3c-0.2,0-0.6-1.3-0.6-1.6c0-0.7,0.7-1.1,0.7-1.5c0-0.2-0.2-0.3-0.2-0.3l-1.1,0.5c0,0-0.6-0.7,0.1-1
		c0,0,1.7-0.9,4.8-2.4c0.2,0.9,0.4,1.1,1.2,1l-0.3,0.1l-0.2,0.2c0.2,0.1,0.7,0,1.2-0.2c0.4-0.2,0.9-0.2,1-0.2
		c0.1-0.1,0.3-0.3,0.3-0.4c-0.2,0-0.7,0.1-1,0.2c0.5-0.3,0.7-0.6,0.7-0.7c0-0.1-0.1-0.2-0.1-0.2c-0.2,0-0.4,0.2-0.7,0.1
		c-0.2-0.1-0.3-0.2-0.3-0.5c0-0.2,0.2-0.3,0.7-0.3c0.2,0,0.4,0,0.4,0c0-0.3-0.8-0.5-1.2-0.5c-0.4,0-1,0.2-1.5,0.4c0,0,0.1-0.7,0.8-1
		c0.4-0.2,2.6-0.4,4.6-0.4c3,0,5.2,2.6,5.6,2.6c0.2,0,0.3-0.2,0.1-0.3c-1.1-0.7-1.7-1.3-1.7-2.1c0-0.2,0-1.8,3.4-2.4
		c1.5,1.2,2,2.2,2,3c0,1.4-1.6,1.6-1.7,2.2c3.9,0.2,6.8,5.4,6.8,8c0,4.7-4.4,6.6-7.1,7.1c4-3,5.5-6,5.5-8.1c0-3.4-3.1-5.4-3.8-5.8
		c1.7,1.9,2.2,3.9,2.2,5.4c0,2.9-1.8,4.3-1.8,4.3c0.3-0.7,0.4-1.2,0.4-1.7c0-0.4-0.1-0.7-0.1-0.7c-1.6,3.7-5.2,6.3-5.5,9.5
		c-0.2-0.7-0.3-1.5-0.3-2.2c0-2.7,1.7-4.3,1.7-4.3c-3.2,2.2-4,4.8-4,6.8c0,2,0.8,3.5,0.8,3.5c-0.2-0.7-0.1-2,0.1-3
		c0.3,2.8,1.7,6.3,5.6,8.6c-6.8,0-9.6-8.1-6.8-13.3c-4.7,1.2-5.3,6.1-5.4,9c-0.3-1.5-0.4-2.7-0.4-3.6c0-5.1,4.2-6.4,7.4-7.8
		c4.7-2.1,6.6-3.7,6.6-6.7c0-3.2-3.7-5.1-6.5-4.6l1,1c0.2,0.2,0.4,0.3,0.4,0.3c2.9,1.5,3.3,3.2,3.3,4.2c0,2.7-3,4.1-5.1,5
		c-7,3-8.2,4.3-8.2,8.6c0,3.2,0.9,8.1-2.4,8.6c0.2,0.4,1.4,0.6,1.4,0.6c-1,0.8-2.1,1.1-3.3,1.1c-1.2,0-3.5-0.3-4.2-2.8
		C90.1,45,91,45.5,92.4,45.5L92.4,45.5z M110.6,16.9l0.2,0.2c0,0,1.5-0.7,1.5-1.7c0,0,0-0.6-0.3-0.9c-0.2,0-0.2,0.3-0.2,0.5
		c0,0.3-0.2,0.6-0.7,0.6c-0.3,0-0.9-0.3-0.9-0.9c0-0.6,0.2-0.8,0.2-1c0,0,0-0.1-0.1-0.1c-1.3,0.5-1.4,1.1-1.4,1.5
		C109,15.5,109.3,16.1,110.6,16.9L110.6,16.9z M94.6,20.3c0.1,0.2,0.3,0.3,0.5,0.3c0.3-0.3,0.7-0.7,0.7-1.2
		C95.3,19.5,94.6,19.7,94.6,20.3L94.6,20.3z M121.6,47.9l-0.2-0.1c-0.3,0.5-1.5,1.6-3.2,1.6l-0.1,0.2c0.7,0.7,0.6,2.4-0.3,2.4
		c-0.6,0-0.8-0.5-0.9-0.9l-0.2-0.1c-0.2,0.2-0.9,0.7-1.1,0.8c0,0.5,0.1,1.2,0.2,1.6h0.2c0.2-0.3,0.5-0.4,0.7-0.4
		c0.4,0,0.7,0.3,0.7,0.8c0,0.8-0.6,1.6-1.7,1.6c-1.2,0-2.3-0.6-2.3-1.9c0-0.7,0.3-1.4,1.2-1.8v-0.2c-0.7-0.5-1.2-1.3-1.4-1.7h-0.2
		c-0.2,0.3-1.1,1.1-1.8,1.2v0.2c0.7,0.7,0.7,1.3,0.7,1.7c0,1.1-0.9,1.7-2.8,1.7c-1.4,0-2.8-0.4-2.8-1.8c0-0.7,0.5-1.2,1.1-1.2
		c0.4,0,0.9,0.2,1.2,0.7h0.2c0.3-0.4,0.5-0.7,1.1-1.2V51c-0.2-0.2-0.7-0.7-1.1-1.2h-0.2c-0.6,0.7-1,0.7-1.5,0.7
		c-0.3,0-0.8-0.2-0.8-0.7c0-0.7,0.9-1.1,1.7-1.3v-0.2c-1.2-0.5-2.4-1.8-2.7-2.7h-0.2c-0.2,0.8-1.4,2.2-2.7,2.7v0.2
		c0.7,0.2,1.7,0.6,1.7,1.3c0,0.6-0.5,0.7-0.8,0.7c-0.5,0-0.9-0.1-1.5-0.7h-0.2c-0.4,0.6-0.8,1.1-1.1,1.2v0.2
		c0.6,0.5,0.7,0.7,1.1,1.2h0.2c0.3-0.5,0.8-0.7,1.2-0.7c0.6,0,1.1,0.4,1.1,1.2c0,1.4-1.4,1.8-2.8,1.8c-1.9,0-2.8-0.7-2.8-1.7
		c0-0.4,0.1-1.1,0.7-1.7V51c-0.7-0.2-1.6-0.9-1.8-1.2h-0.2c-0.2,0.4-0.7,1.2-1.4,1.7v0.2c0.9,0.4,1.2,1.2,1.2,1.8
		c0,1.3-1.1,1.9-2.3,1.9c-1.2,0-1.7-0.7-1.7-1.6c0-0.5,0.3-0.8,0.7-0.8c0.2,0,0.5,0.1,0.7,0.4h0.2c0.1-0.4,0.2-1.1,0.2-1.6
		c-0.2-0.2-0.8-0.7-1.1-0.8l-0.2,0.1C93.2,51.5,93,52,92.4,52c-0.9,0-1.1-1.7-0.3-2.4L92,49.4c-1.7,0-2.9-1.1-3.2-1.6l-0.2,0.1
		l3.5,8c0,0-0.7,0.3-0.6,0.9c0.3,1.2,1.3,2.7,1.3,4.5c0,0.7-0.1,0.8-0.1,1.2c0,0.3,0.2,0.5,0.6,0.5h23.6c0.3,0,0.6-0.2,0.6-0.5
		c0-0.3-0.1-0.4-0.1-1.2c0-1.8,1-3.3,1.3-4.5c0.2-0.6-0.6-0.9-0.6-0.9L121.6,47.9L121.6,47.9z M105,61C98.5,61,94.2,61,94.2,61
		l-0.9-3.5c0,0,5.9-0.8,11.7-0.8c5.8,0,11.7,0.8,11.7,0.8l-0.9,3.5C115.8,61,111.5,61,105,61L105,61z"/>
	<g>
		<path class="st0" d="M207.6,89.6l-7-8H196v0.6c1.4,0,1.6,0.2,1.6,1.4v6.7c0,2.4-0.5,2.6-1.7,2.6v0.6h4.3v-0.6
			c-1.4,0-1.8-0.3-1.8-1.7v-7.9l9.3,10.5h0.7v-10c0-1.5,0.8-1.6,1.6-1.6v-0.6h-4.3v0.6c1.1,0,1.9,0.2,1.9,1.6V89.6L207.6,89.6z"/>
		<path class="st0" d="M188.3,81.3c-3.2,0-6.5,2.1-6.5,6.3c0,4.2,3.3,6.3,6.5,6.3s6.5-2.1,6.5-6.3C194.8,83.3,191.5,81.3,188.3,81.3
			L188.3,81.3z M188.3,93.3c-2.2,0-3.2-2-3.2-5.7c0-3.7,1-5.7,3.2-5.7c2.2,0,3.2,2,3.2,5.7C191.5,91.3,190.5,93.3,188.3,93.3
			L188.3,93.3z"/>
		<path class="st0" d="M172.8,91.9c0,0.9-0.3,1-1.5,1v0.6h6v-0.6c-1.2,0-1.5-0.1-1.5-1v-9.2c0-0.4,0.2-0.6,0.6-0.6
			c1,0,2.8,0.9,3.8,2.8l0.5-0.2l-0.7-3.5h-0.5c-0.3,0.2-0.8,0.3-1.2,0.3h-7.9c-0.2,0-0.4,0-0.6-0.1c-0.2-0.1-0.4-0.1-0.6-0.2h-0.5
			l-0.7,3.5l0.5,0.2c1-1.9,2.7-2.8,3.8-2.8c0.4,0,0.6,0.2,0.6,0.6V91.9L172.8,91.9z"/>
		<path class="st0" d="M158.5,91.9c0,0.9-0.3,1-1.5,1v0.6h11.3l0.9-3.5h-0.6c-1.6,2.4-2.7,2.9-5.6,2.9c-1.3,0-1.6-0.2-1.6-0.8v-8.9
			c0-0.9,0.3-1,1.5-1v-0.6h-6v0.6c1.2,0,1.5,0.1,1.5,1V91.9L158.5,91.9z"/>
		<path class="st0" d="M153.9,91.7l-2-3.1c-0.5-0.8-0.9-1-1.6-1.1v0c1.9-0.1,3.1-1.1,3.1-2.6c0-1.5-1.3-3.3-5.2-3.3h-6v0.6
			c1.2,0,1.5,0.1,1.5,1v8.8c0,0.9-0.3,1-1.5,1v0.6h6v-0.6c-1.2,0-1.5-0.1-1.5-1v-4.2c1.3,0,1.7,0.2,2,0.8l2.8,5h4.1v-0.6
			C155,92.9,154.6,92.8,153.9,91.7L153.9,91.7z M147.8,87.2h-1v-5h0.7c2.5,0,3.1,1.4,3.1,2.5C150.5,86.5,149.2,87.2,147.8,87.2
			L147.8,87.2z"/>
		<path class="st0" d="M139,91.6l-5-9.7c-0.2-0.4-0.3-0.5-0.4-0.5c-0.2,0-0.6,1-2,1.9c0.2,0.1,0.4,0.3,0.4,0.5c0,0.1,0,0.3-0.2,0.6
			l-3,6.3c-0.8,1.6-1.2,2.2-2.4,2.2v0.6h4.3v-0.6c-1.2,0-1.6-0.3-1.6-0.8c0-0.3,0.1-0.7,0.7-1.6h5.4c0.7,1.1,0.9,1.7,0.9,1.9
			c0,0.4-0.4,0.5-1.6,0.5v0.6h6.5v-0.6C139.8,92.9,139.5,92.6,139,91.6L139,91.6z M130,89.7l2.4-5l2.5,5H130L130,89.7z"/>
		<path class="st0" d="M124.2,89.4c-1,2.2-2.6,3.8-4.6,3.8c-1.8,0-3.8-1.4-3.8-5.7c0-3.9,1.6-5.7,3.9-5.7c2.2,0,3.5,1.5,4.5,3.2h0.5
			v-3.7h-0.4c-0.2,0.3-0.6,0.5-0.9,0.5c-0.7,0-2.2-0.6-3.9-0.6c-4.2,0-6.9,2.8-6.9,6.5c0,3.3,2.7,6.1,6.6,6.1c2.2,0,3.7-0.8,4.3-0.8
			c0.4,0,0.7,0.3,0.9,0.8h0.4v-4.4H124.2L124.2,89.4z"/>
		<path class="st0" d="M87.4,93.5h10.4l1.3-3.6h-0.5c-1.7,2.3-2.8,3-4.5,3h-2.9l7.5-11v-0.3H88.4l-1.1,3.3h0.4
			c1.4-1.8,2.8-2.7,4.4-2.7h2.7l-7.5,10.9V93.5L87.4,93.5z"/>
		<path class="st0" d="M78.2,91.9c0,0.9-0.3,1-1.5,1v0.6h6v-0.6c-1.2,0-1.5-0.1-1.5-1v-9.2c0-0.4,0.2-0.6,0.6-0.6
			c1,0,2.8,0.9,3.8,2.8l0.5-0.2l-0.7-3.5h-0.5c-0.3,0.2-0.8,0.3-1.2,0.3h-7.9c-0.2,0-0.4,0-0.6-0.1c-0.2-0.1-0.4-0.1-0.6-0.2h-0.5
			l-0.7,3.5l0.5,0.2c1-1.9,2.7-2.8,3.8-2.8c0.4,0,0.6,0.2,0.6,0.6V91.9L78.2,91.9z"/>
		<path class="st0" d="M67.4,91.9c0,0.9-0.3,1-1.5,1v0.6h6v-0.6c-1.2,0-1.5-0.1-1.5-1v-8.8c0-0.9,0.3-1,1.5-1v-0.6h-6v0.6
			c1.2,0,1.5,0.1,1.5,1V91.9L67.4,91.9z"/>
		<path class="st0" d="M62.5,91.7l-2-3.1c-0.5-0.8-0.9-1-1.6-1.1v0c1.9-0.1,3.1-1.1,3.1-2.6c0-1.5-1.3-3.3-5.2-3.3h-6v0.6
			c1.2,0,1.5,0.1,1.5,1v8.8c0,0.9-0.3,1-1.5,1v0.6h6v-0.6c-1.2,0-1.5-0.1-1.5-1v-4.2c1.3,0,1.7,0.2,2,0.8l2.8,5h4.1v-0.6
			C63.6,92.9,63.3,92.8,62.5,91.7L62.5,91.7z M56.5,87.2h-1v-5h0.7c2.5,0,3.1,1.4,3.1,2.5C59.1,86.5,57.9,87.2,56.5,87.2L56.5,87.2z
			"/>
		<path class="st0" d="M32,91.9c0,0.9-0.3,1-1.5,1v0.6h11l0.9-3.5h-0.6c-1.3,2.2-2.7,2.9-5.1,2.9c-1.6,0-1.8-0.2-1.8-0.7v-4.5h0.8
			c2.2,0,3.1,0.6,3.5,2.3h0.5v-5.3h-0.5c-0.5,1.8-1.3,2.4-3.5,2.4h-0.8v-4c0-0.7,0.2-0.8,1.1-0.8c2.7,0,4,0.7,5.7,2.6h0.5L41,81.6
			H30.5v0.6c1.2,0,1.5,0.1,1.5,1V91.9L32,91.9z"/>
		<path class="st0" d="M24.1,91.9c0,0.9-0.3,1-1.5,1v0.6h6v-0.6c-1.2,0-1.5-0.1-1.5-1v-8.8c0-0.9,0.3-1,1.5-1v-0.6h-6v0.6
			c1.2,0,1.5,0.1,1.5,1v3.6H18v-3.6c0-0.9,0.3-1,1.5-1v-0.6h-6v0.6c1.2,0,1.5,0.1,1.5,1v8.8c0,0.9-0.3,1-1.5,1v0.6h6v-0.6
			c-1.2,0-1.5-0.1-1.5-1v-4.3h6.1V91.9L24.1,91.9z"/>
		<path class="st0" d="M4.6,91.9c0,0.9-0.3,1-1.5,1v0.6h6v-0.6c-1.2,0-1.5-0.1-1.5-1v-9.2c0-0.4,0.2-0.6,0.6-0.6
			c1,0,2.8,0.9,3.8,2.8l0.5-0.2l-0.7-3.5h-0.5c-0.3,0.2-0.8,0.3-1.2,0.3H2.1c-0.2,0-0.4,0-0.6-0.1c-0.2-0.1-0.4-0.1-0.6-0.2H0.4
			l-0.7,3.5l0.5,0.2c1-1.9,2.7-2.8,3.8-2.8c0.4,0,0.6,0.2,0.6,0.6V91.9L4.6,91.9z"/>
		<polygon class="st0" points="102.9,88.4 106.9,88.4 108.5,86 104.6,86 102.9,88.4 		"/>
	</g>
	<g>
		<path class="st0" d="M92.1,118.7v-5.3l-2.2,5.3h-0.4l-2.2-5.3v5.3h-0.9v-6.5h1.3l2.1,5l2.1-5H93v6.5H92.1z"/>
		<path class="st0" d="M98.6,112.2l2.8,6.5h-1l-0.6-1.4h-3.3l-0.6,1.4h-1l2.8-6.5H98.6z M98,113.2l-1.4,3.3h2.8L98,113.2z"/>
		<path class="st0" d="M102.5,115.5c0-2,1.5-3.4,3.5-3.4c1.2,0,2,0.5,2.6,1.3l-0.7,0.4c-0.4-0.6-1.1-0.9-1.8-0.9
			c-1.4,0-2.5,1.1-2.5,2.6c0,1.5,1.1,2.6,2.5,2.6c0.8,0,1.5-0.4,1.8-0.9l0.8,0.4c-0.6,0.8-1.4,1.3-2.6,1.3
			C104,118.9,102.5,117.5,102.5,115.5z"/>
		<path class="st0" d="M113.5,112.2l2.8,6.5h-1l-0.6-1.4h-3.3l-0.6,1.4h-1l2.8-6.5H113.5z M113,113.2l-1.4,3.3h2.8L113,113.2z"/>
		<path class="st0" d="M117.8,116.2v-4h0.9v3.9c0,1.2,0.7,1.9,1.9,1.9c1.2,0,1.9-0.7,1.9-1.9v-3.9h0.9v4c0,1.6-0.9,2.7-2.8,2.7
			C118.8,118.9,117.8,117.8,117.8,116.2z"/>
	</g>
</g>
</svg>
