<?xml version="1.0" encoding="utf-8"?>
<!-- Generator: Adobe Illustrator 21.1.0, SVG Export Plug-In . SVG Version: 6.00 Build 0)  -->
<svg version="1.1" id="图层_1" xmlns="http://www.w3.org/2000/svg" xmlns:xlink="http://www.w3.org/1999/xlink" x="0px" y="0px"
	 viewBox="0 0 210 132" style="enable-background:new 0 0 210 132;" xml:space="preserve">
<style type="text/css">
	.st0{fill:#9F9E96;}
	.st1{fill:#3B3935;}
	.st2{fill:#CC007B;}
</style>
<g>
	<g>
		<g>
			<path class="st0" d="M31.9,90.9h-2.3c-0.1,0-0.3-0.1-0.3-0.3v-6.4c0-0.1,0.1-0.3,0.3-0.3h2.1c1.2,0,1.9,0.8,1.9,1.8
				c0,0.7-0.3,1.1-1,1.4c0.8,0.2,1.3,0.9,1.3,1.7C34,90.2,33.3,90.9,31.9,90.9z M31.4,85.1h-0.7v1.6h0.7c0.7,0,1-0.4,1-0.8
				C32.3,85.4,32,85.1,31.4,85.1z M31.5,87.7h-0.7v1.9h0.9c0.5,0,0.9-0.4,0.9-1C32.5,88.2,32.2,87.7,31.5,87.7z"/>
			<path class="st0" d="M40.1,90.9h-0.9c-0.2,0-0.4-0.1-0.4-0.3c-0.3-0.9-0.7-2.6-1.6-2.6h-0.3v2.6c0,0.1-0.1,0.3-0.3,0.3h-0.8
				c-0.1,0-0.3-0.1-0.3-0.3v-6.4c0-0.1,0.1-0.3,0.3-0.3h1.8c1.8,0,2.1,1.1,2.1,1.8c0,0.9-0.5,1.5-1.3,1.7c0.4,0.1,0.7,0.4,1,0.8
				c0.2,0.5,0.7,1.8,0.9,2.2C40.4,90.7,40.4,90.9,40.1,90.9z M37.6,85.2h-0.7v1.8h0.6c0.6,0,0.9-0.4,0.9-1
				C38.4,85.6,38.2,85.2,37.6,85.2z"/>
			<path class="st0" d="M43.8,91c-1.7,0-2.5-1.2-2.5-3.5s0.8-3.5,2.5-3.5c1.6,0,2.5,1.2,2.5,3.5C46.3,89.7,45.5,91,43.8,91z
				 M43.8,84.9c-1,0-1.1,1.1-1.1,2.4c0,1.5,0.1,2.4,1.1,2.4s1.1-1,1.1-2.4C44.9,86,44.7,84.9,43.8,84.9z"/>
			<path class="st0" d="M52.4,90.9h-0.9c-0.1,0-0.3-0.1-0.4-0.2l-0.3-1.2h-2l-0.3,1.2c-0.1,0.1-0.1,0.2-0.4,0.2h-0.9
				c-0.2,0-0.3-0.1-0.2-0.4l1.8-6.3c0.1-0.1,0.2-0.2,0.4-0.2h1.2c0.1,0,0.3,0.1,0.4,0.2l1.9,6.3C52.7,90.7,52.7,90.9,52.4,90.9z
				 M50,85.7c-0.1-0.3-0.1-0.8-0.1-1.1c0,0.3-0.1,0.7-0.1,1.1l-0.6,2.4h1.4L50,85.7z"/>
			<path class="st0" d="M56.3,90.9h-1.9c-0.1,0-0.3-0.1-0.3-0.3v-6.3c0-0.1,0.1-0.3,0.3-0.3h1.8c1,0,2.5,0.4,2.5,3.5
				C58.6,89.4,58.2,90.9,56.3,90.9z M56,85.1h-0.5v4.6h0.4c1,0,1.3-0.6,1.3-2.4C57.2,85.9,56.9,85.1,56,85.1z"/>
			<path class="st0" d="M66.6,90.6c0,0.1-0.2,0.2-0.4,0.2h-1.3c-0.1,0-0.3-0.1-0.4-0.2L63.7,86c-0.1-0.3-0.1-1-0.1-1.3
				c0,0.3-0.1,1-0.1,1.3l-0.7,4.6c0,0.1-0.2,0.2-0.4,0.2H61c-0.1,0-0.4-0.1-0.4-0.2l-1-6.3c0-0.1,0-0.4,0.2-0.4h1
				c0.2,0,0.4,0.1,0.4,0.3l0.4,4.3c0.1,0.4,0.1,1,0.1,1.5c0.1-0.4,0.1-1,0.1-1.5l0.7-4.3c0-0.2,0.1-0.3,0.4-0.3h1.2
				c0.2,0,0.4,0.1,0.4,0.3l0.8,4.3c0.1,0.4,0.1,1,0.1,1.5c0-0.4,0.1-1.1,0.1-1.4l0.4-4.3c0-0.2,0.1-0.3,0.4-0.3h0.8
				c0.2,0,0.3,0.1,0.2,0.4L66.6,90.6z"/>
			<path class="st0" d="M73.5,90.9h-0.9c-0.1,0-0.3-0.1-0.4-0.2L72,89.4h-2l-0.3,1.2c-0.1,0.1-0.1,0.2-0.4,0.2h-0.9
				c-0.2,0-0.3-0.1-0.2-0.4l1.8-6.3c0.1-0.1,0.2-0.2,0.4-0.2h1.2c0.1,0,0.3,0.1,0.4,0.2l1.9,6.3C73.8,90.7,73.7,90.9,73.5,90.9z
				 M71,85.7c-0.1-0.3-0.1-0.8-0.1-1.1c0,0.3-0.1,0.7-0.1,1.1l-0.5,2.4h1.4L71,85.7z"/>
			<path class="st0" d="M77,88.1v2.4c0,0.1-0.1,0.3-0.3,0.3h-0.8c-0.1,0-0.3-0.1-0.3-0.3v-2.4l-1.8-3.8c-0.1-0.2-0.1-0.4,0.2-0.4h1
				c0.2,0,0.4,0.1,0.4,0.2l0.8,2.1c0.1,0.3,0.1,0.7,0.2,1c0-0.3,0.1-0.7,0.2-1l0.8-2.1c0.1-0.1,0.2-0.2,0.4-0.2h0.7
				c0.2,0,0.3,0.1,0.2,0.4L77,88.1z"/>
			<path class="st0" d="M89.3,90.9h-0.6c-0.1,0-0.2-0.1-0.2-0.2L88.3,86c0-0.2,0-1.1,0-1.4c-0.1,0.3-0.1,1-0.2,1.4l-1,3.9
				c-0.1,0.1-0.1,0.2-0.2,0.2h-0.7c-0.1,0-0.2-0.1-0.2-0.2l-1-3.9c-0.1-0.4-0.1-1-0.2-1.4c0,0.3,0,1.2,0,1.4l-0.2,4.6
				c0,0.1-0.1,0.2-0.2,0.2h-0.6c-0.1,0-0.2-0.1-0.2-0.2l0.5-6.4c0-0.1,0.1-0.2,0.2-0.2h0.9c0.1,0,0.2,0.1,0.2,0.1l1,4.2
				c0.1,0.3,0.1,0.8,0.1,1.2c0-0.4,0.1-0.9,0.1-1.2l1-4.2c0-0.1,0.1-0.1,0.2-0.1h0.9c0.1,0,0.2,0.1,0.2,0.2l0.5,6.5
				C89.5,90.7,89.5,90.9,89.3,90.9z"/>
			<path class="st0" d="M96.2,90.9h-0.7c-0.1,0-0.3-0.1-0.3-0.2l-0.4-1.6h-2.2l-0.4,1.6c0,0.1-0.1,0.2-0.3,0.2h-0.6
				c-0.1,0-0.2-0.1-0.1-0.2l1.8-6.4c0.1-0.1,0.1-0.2,0.3-0.2H94c0.1,0,0.2,0.1,0.3,0.2l2,6.4C96.4,90.7,96.3,90.9,96.2,90.9z
				 M93.8,85.4c-0.1-0.3-0.1-0.6-0.1-0.9c0,0.3-0.1,0.6-0.1,0.9l-0.7,2.8h1.8L93.8,85.4z"/>
			<path class="st0" d="M101.8,90.7c-0.3,0.1-0.7,0.3-1.2,0.3c-1.7,0-2.6-1.2-2.6-3.5c0-2.1,1.1-3.5,2.7-3.5c0.4,0,0.8,0.1,1.2,0.3
				c0.1,0.1,0.1,0.2,0.1,0.3l-0.1,0.4c-0.1,0.1-0.1,0.1-0.3,0.1c-0.2-0.1-0.4-0.1-0.8-0.1c-1.1,0-1.8,0.7-1.8,2.6
				c0,1.9,0.7,2.6,1.7,2.6c0.3,0,0.7-0.1,0.8-0.1c0.1-0.1,0.2,0,0.3,0.1l0.2,0.4C101.9,90.5,101.8,90.6,101.8,90.7z"/>
			<path class="st0" d="M108.2,90.9h-0.6c-0.1,0-0.3-0.1-0.3-0.2l-0.4-1.6h-2.2l-0.4,1.6c0,0.1-0.1,0.2-0.3,0.2h-0.6
				c-0.1,0-0.2-0.1-0.1-0.2l1.8-6.4c0.1-0.1,0.1-0.2,0.3-0.2h0.8c0.1,0,0.2,0.1,0.3,0.2l2,6.4C108.4,90.7,108.4,90.9,108.2,90.9z
				 M105.9,85.4c-0.1-0.3-0.1-0.6-0.1-0.9c0,0.3-0.1,0.6-0.1,0.9l-0.7,2.8h1.8L105.9,85.4z"/>
			<path class="st0" d="M112,90.9c-1.5,0-2.2-0.8-2.2-2.1v-4.6c0-0.1,0.1-0.2,0.2-0.2h0.5c0.1,0,0.2,0.1,0.2,0.2v4.4
				c0,1,0.3,1.5,1.2,1.5c0.7,0,1.2-0.3,1.2-1.4v-4.5c0-0.1,0.1-0.2,0.2-0.2h0.5c0.1,0,0.2,0.1,0.2,0.2v4.6
				C114.3,90.2,113.5,90.9,112,90.9z"/>
		</g>
		<g>
			<g>
				<circle class="st1" cx="31.6" cy="61.1" r="1.9"/>
				<circle class="st1" cx="31.6" cy="55.8" r="1.9"/>
				<polygon class="st1" points="32.7,64 28.8,71.9 31.1,76.9 33.3,64.9 				"/>
				<path class="st1" d="M43.6,71.2h5.9c0.7,0,0.7-0.3,0.8-0.6l-2.5-2.1h1.5V56.8l0.9-1L47.7,54l-1.5,1.5l0,0h-4l1.5-1.7L40,53.1
					c-0.1,0.9,0,1.5-0.1,2.4h-2.1l-3-1.3v14.4H38v-1.4c0.8-0.4,1.7-0.7,2.6-1.4V68H43v-4.4c0.4,1.6,1.1,4.1,1.1,4.3l1.8-1.7
					c0-0.7-1-2.9-2.9-3.5v-0.1h3.1v5.8h0.7l-1.1,1.8h-3.2c0.1-0.4,0.2-0.9,0.3-1.3l-3.7-0.7c-0.1,0.9-0.1,1.1-0.2,2h-6.2v1h6
					c-0.7,2.6-2.6,4.3-6.2,5.7l0.1,0.3c5.7-1.2,8.6-3,9.8-6.1h0.1c0.1,3.1,2.2,4.9,5.7,6.1l2-3.4C45.9,73.5,43.8,71.8,43.6,71.2z
					 M38,65.8v-3.1h2.4L38,65.8z M40.5,61.8H38v-2.7c0,0,2.1-0.1,2.6-0.2V61.8z M38,58.4v-2h4.7C41.3,57.2,39.7,57.9,38,58.4z
					 M46.1,61.3l-1-0.5l-1.2,1h-0.7l2.9-2.4V61.3z M46.1,59.2l-2-0.8L43,60.5v-2.1l3.1-0.7V59.2z M46.1,57.4l-1.6-1h1.6V57.4z"/>
				<circle class="st1" cx="39.3" cy="60.4" r="1"/>
			</g>
			<g>
				<path class="st1" d="M76,56.1l1-1L74.3,53l-1.7,1.7l0,0h-2.7l-3.2-1.5v12.7h5.9v7.9c0,0.2-0.1,0.4-0.4,0.4h-1.8l1.7,3.1h0.9
					c3.1,0,2.9-3.5,2.9-3.5V56.1H76z M72.6,64.9h-2.6v-4.3h2.6V64.9z M72.6,59.6h-2.6v-3.9h2.6V59.6z"/>
				<path class="st1" d="M62,54.7h-2.6L56,53.2v24h3.3V65.9h6v-9.8l1-1l-2.6-2.1L62,54.7z M61.9,64.9h-2.6v-4.3h2.6V64.9z
					 M61.9,59.6h-2.6v-3.9h2.6V59.6z"/>
			</g>
			<path class="st1" d="M103,55.8l0.8-1.3H81.6v1.3h9.1L90.4,61h-2.2l-4.1-1.6V77h4.1v-1.5h8.6V77h4.1V62.7l1.1-1l-3-2.6L96.7,61
				h-0.1l0,0h-4.8c1.3-2.1,2.4-3.3,3.7-5.2H103z M96.8,74.1h-8.6v-5.7h8.6V74.1z M96.8,62.3V67h-8.6v-4.7H96.8z"/>
			<path class="st1" d="M130.1,56.8l-3.7-2.4l-1.6,2.4h-4.8v-3.2l-4.1-0.5v3.7h-6.3v1h6.3v3.6h-7.1v1h11c-0.6,0.6-1.5,1.5-2.2,2.1
				l-3.5-0.6v3.2c-2.1,1.5-4.1,2.9-6.5,4.4l0.5,0.4c1.5-0.5,3.2-1.2,6-2.6v3.4c0,3.3,2,4.3,5.7,4.3h6.2l3.2-4.9l-0.7-0.2
				c-1.1,1.8-2.4,2.2-4.9,2.4h-3.9c-1.1,0-1.5-0.7-1.5-1.5v-1.1l10.5-3.8l-2.9-2.8l-7.6,5.5v-3.5c2.4-1.5,4.6-3.4,6.2-4.9h4.9l0,0
				l0.6-1h-4.6C127.1,59.5,127.8,58.8,130.1,56.8z M120.6,61.3h-0.7v-3.6h3.9L120.6,61.3z"/>
			<g>
				<circle class="st1" cx="142.2" cy="61.8" r="1.5"/>
				<circle class="st1" cx="142.2" cy="58" r="1.5"/>
				<polygon class="st1" points="142.1,74.2 143.7,64.7 142.5,63.9 140,71.1 				"/>
				<path class="st1" d="M155.8,61.1l0.7-1h-4l2.7-2.8l-4-1.1l-0.4,4h-2.3l1.4-3.1l-4-0.7l-2.5,13.1l0.7,0.7l0.8-1.7v5.6h3.4v-0.9
					h7.3l0.8-1h-2.6v-3.1h1.6l0.7-1h-2.4v-3.1h1.6l0.7-1h-2.4v-3.1L155.8,61.1L155.8,61.1z M150.6,72.4h-2.1v-3.2h2.1V72.4z
					 M150.6,68.3h-2.1v-3.1h2.1V68.3z M150.6,64.2h-2.1v-3.1h2.1V64.2z"/>
				<polygon class="st1" points="139.6,75.3 139.6,55.8 155.8,55.8 156.7,54.6 140,54.6 135.9,53.5 135.9,77.4 139.6,77.4 
					139.6,76.5 155.6,76.5 156.8,75.3 				"/>
			</g>
		</g>
		<g>
			<g>
				<g>
					<path class="st2" d="M181.3,63c-0.3-0.3-0.1-0.7,0-1c0.3-0.4,0.2-0.9,0.1-1.3c-0.1-0.3-0.2-0.6-0.1-0.8c0.1-0.3,0.1-0.5,0-0.7
						s0.1-0.5-0.1-0.7c-0.1-0.1,0-0.2,0-0.4c-0.1-0.4-0.2-0.9-0.3-1.3c0-0.1,0-0.1,0.1-0.1c0.1-0.3,0.1-0.7-0.1-1
						c-0.1-0.2-0.4-0.5-0.4-0.7s0-0.5-0.1-0.7c-0.1-0.6-0.3-1-0.6-1.5c-0.2-0.4-0.5-0.7-0.5-1.2c0-0.4-0.1-0.7-0.4-1
						c-0.1-0.1-0.2-0.4-0.2-0.7c0.1-0.4,0-0.6-0.3-0.7c-0.4-0.2-0.5-0.5-0.4-1c0.1-0.1,0.1-0.4,0.1-0.6c-0.2-0.5-0.4-1-0.7-1.5
						c-0.1-0.1-0.2-0.1-0.3-0.3c-0.3-0.4-0.5-0.7-0.9-1c-0.2-0.2-0.3-0.7-0.7-0.7c0,0,0,0,0-0.1c-0.1-0.2-0.3-0.5-0.5-0.7
						c-0.2-0.3-0.4-0.7-0.7-1c-0.1-0.1-0.2-0.3-0.4-0.4c-0.4-0.1-0.4-0.3-0.5-0.5c-0.1-0.2-0.1-0.4-0.2-0.7
						c-0.1-0.2-0.2-0.4-0.4-0.4c-0.1,0-0.1-0.1-0.2-0.1c0.1-0.1,0.1-0.1,0.1-0.2c-0.2-0.1-0.4-0.1-0.7-0.2c0.1-0.1,0.1-0.1,0.1-0.2
						c-0.1,0-0.1,0.1-0.1,0.1c-0.1-0.1-0.2-0.4-0.4-0.5c-0.2-0.3-0.4-0.6-0.8-0.6c-0.1,0-0.1-0.1-0.1-0.1c-0.1-0.1-0.1-0.2-0.3-0.2
						c-0.3,0-0.6-0.1-0.8-0.4c-0.4-0.3-1-0.5-1.3-0.9c-0.1-0.1-0.3-0.2-0.4-0.4c-0.1-0.1-0.1-0.1-0.1-0.1c-0.2-0.1-0.4-0.1-0.6-0.2
						c-0.1-0.1-0.2-0.2,0-0.3c-0.3-0.4-0.3,0.1-0.4,0.1c-0.1-0.1-0.2-0.1-0.3-0.1c-0.3-0.2-0.5-0.5-1-0.5c-0.1,0-0.4-0.1-0.4-0.3
						c-0.2-0.2-0.4-0.4-0.6-0.7c0,0.1,0,0.2-0.1,0.4c-0.2-0.1-0.4-0.2-0.5-0.3c-0.2-0.1-0.4-0.1-0.7-0.3c-0.2-0.1-0.2-0.2,0-0.4
						c0.1,0,0.1-0.1,0.1-0.2c0-0.1-0.1-0.1-0.1-0.2c-0.6-0.1-1-0.5-1.5-0.7c-0.1-0.1-0.4-0.1-0.5-0.2c-0.1-0.1-0.2-0.1-0.4-0.1
						c-0.1,0-0.2-0.1-0.4-0.1c-0.1,0-0.2-0.1-0.4-0.1c-0.4,0-0.6-0.3-1-0.2c-0.3,0.1-0.6-0.1-0.9-0.2c-0.1-0.1-0.3-0.1-0.5-0.2
						c-0.6-0.1-1.2-0.2-1.8-0.4c-0.6-0.1-1.2-0.4-1.8-0.4c-0.3,0-0.6-0.1-0.8-0.1c-0.1,0-0.3,0-0.5,0.1c0.1,0.1,0.1,0.2,0.3,0.4
						c-0.4,0-0.7,0-1-0.1c-0.1,0-0.1-0.1-0.1-0.1c-0.1-0.1-0.1-0.2-0.2-0.3c-0.3-0.1-0.6-0.2-0.9-0.4c-0.1,0-0.1-0.1-0.1,0
						c-0.4,0.4-0.9,0.1-1.3,0.2c-0.1,0-0.1-0.1-0.3-0.1c-0.3-0.1-0.7-0.2-1-0.3v0.1c0.1,0.1,0.3,0.2,0.4,0.4c0,0.1-0.1,0.1-0.1,0.1
						c-0.4-0.1-0.8-0.1-1.2-0.3c-0.1,0-0.2,0-0.4,0h-0.1c0.1,0,0.2,0.1,0.3,0.1c-0.4,0.2-0.6,0.2-1,0c0-0.1,0.1-0.1,0.1-0.1
						c-0.5,0-1,0.1-1.4,0.2c-0.1,0-0.1,0.1-0.2,0.1c-0.3-0.1-0.6-0.1-0.9,0c-0.4,0.1-1-0.2-1.4,0.1c-0.1,0-0.1,0-0.2,0
						c-0.4,0-0.8,0.1-1.2,0.2c-0.1,0.1-0.3,0.1-0.4,0c-0.4-0.2-0.8,0-1.1,0.2c-0.1,0.1-0.2,0.1-0.3,0c-0.2-0.1-0.4,0-0.7,0.2
						c-0.1,0.2-0.4,0.4-0.7,0.4c-0.1,0-0.2,0-0.3,0c-0.3,0.1-0.5,0.2-0.7,0.3c-0.1,0.1-0.3,0.1-0.5,0.1c-0.3,0.1-0.7,0.1-1,0.3
						c-0.4,0.1-0.9,0.2-1.2,0.5c-0.1,0.1-0.1,0.1-0.2,0.1c-0.4,0.2-0.9,0.4-1.3,0.6c-0.2,0.1-0.4,0.2-0.5,0.3
						c-0.2,0.1-0.4,0.3-0.7,0.3c-0.4,0-1.2,0.6-1.2,1c0,0.1-0.1,0.1-0.1,0.2c-0.2,0.1-0.5,0.2-0.8,0.4c-0.1,0.1-0.1,0.1-0.2,0.2
						c-0.1,0.1-0.2,0.1-0.3,0.2c-0.1,0.1-0.3,0.1-0.4,0.2c-0.4,0.5-0.8,1-1.2,1.5c-0.2,0.2-0.4,0.4-0.7,0.5c-0.1,0-0.1,0.1-0.1,0.1
						c-0.1,0.1-0.1,0.1-0.2,0.1c-0.1,0.1-0.2,0.1-0.3,0.1c-0.2,0.3-0.4,0.7-0.7,1c-0.1,0.1-0.3,0.2-0.4,0.3
						c-0.1,0.1-0.2,0.3-0.2,0.4c0,0.3-0.1,0.4-0.4,0.5c0-0.1-0.1-0.2-0.1-0.3c-0.1-0.1-0.4-0.1-0.4-0.1c-0.4,0.3-0.7,0.5-1,0.8
						c0.4,0.7,0.2,1.1-0.4,1.4c0.1,0.4-0.1,0.5-0.5,0.7c0.2,0.1,0.4,0.3,0.5,0.4c0.1,0.1,0.2,0.2,0.1,0.4c-0.3,0.2-0.5,0.5-0.8,0.8
						c0,0-0.1,0.1-0.1,0.1c0,0.3,0.1,0.7,0.1,1c0.1,0.1,0.3,0.1,0.4,0.2c0.1,0.1,0.1,0.4,0,0.4c-0.1,0.1-0.1,0.3,0,0.4
						c0.2,0.2,0.2,0.4-0.1,0.6c0.1,0.1,0.2,0.1,0.3,0.2c0.1,0.2,0.3,0.5,0.4,0.7c0.1,0.2,0.2,0.4,0.4,0.6c0.1,0.1,1.3,0,1.3,0.1
						c0.1,0.1,0.2,0.3,0.3,0.4c0.1,0,0.3-0.1,0.4-0.1l0.4-0.1c0.1,0.1,0.4,0.1,0.6,0.1c-0.1-0.1-0.1-0.2-0.1-0.3c0.1,0,0.2,0,0.3,0
						c0.1,0,0.1,0,0.3,0.1c0.1-0.1,0.1-0.2,0.1-0.3c0.1,0,0.4,0,0.4-0.1c0.2-0.2,0.4-0.1,0.6-0.1s0.4,0,0.4,0.4c0,0,0.1,0.1,0.1,0.1
						l0,0c0-0.1,0.1-0.1,0.1-0.1c0.2-0.1,0.3-0.2,0.4,0.1c0,0.1,0.1,0.1,0.1,0.1c0.1,0,0.2,0.1,0.3,0.1c0.1,0,0.1,0,0.1,0.1
						c0.1,0.1,0.3,0.1,0.4,0.1c0.1,0,0.2,0,0.3-0.1c0.2-0.2,0.4-0.4,0.9-0.1c-0.2-0.5,0.1-0.7,0.3-0.9c0.4,0.3,0.5-0.2,0.8-0.1
						c0.1,0,0.1,0.1,0.1,0.1c0.3,0.1,0.5,0,0.7-0.3c0-0.1,0.1-0.1,0.2-0.1c0,0.1,0.1,0.1,0.1,0.2c0,0.1-0.1,0.1-0.1,0.2
						c0.5-0.3,0.8-0.8,1.4-0.9c0-0.1-0.1-0.2-0.1-0.3c-0.3,0-0.7,0-1-0.1c0.3-0.2,0.4-0.3,0.7-0.4c0,0-0.1,0-0.1-0.1
						c0.1-0.1,0.1-0.2,0.1-0.3c0.1-0.1,0.2-0.2,0.1-0.4c0-0.1,0-0.2,0-0.3c0.2-0.1,0.5-0.1,0.7-0.2c-0.1,0.2-0.1,0.3-0.1,0.4
						l0.1,0.1c0.2-0.1,0.4-0.3,0.7-0.5c0.2-0.1,0.4-0.4,0.8-0.4c0.4,0.1,0.8-0.1,1.1-0.4c0.1-0.1,0.3-0.1,0.4-0.2
						c0,0.1-0.1,0.1-0.1,0.3c0.3-0.1,0.6-0.2,0.8-0.3c0.1-0.2,0.3-0.6,0.4-0.6c0.3,0,0.4-0.1,0.6-0.2c0.6-0.3,1.2-0.6,1.8-0.9
						c0.2-0.1,0.4-0.1,0.7-0.1v0.1c-0.1,0.1-0.2,0.1-0.3,0.2c0.1,0.2,0.1,0.4,0.1,0.5c0.3,0,0.7,0,1,0c0.4,0,0.5-0.1,0.6-0.4
						c-0.1-0.1-0.3-0.1-0.5-0.2c0.2-0.1,0.4-0.2,0.6-0.4c-0.2,0-0.4-0.1-0.5-0.1c0-0.1,0-0.1,0-0.1c0-0.1,0-0.4-0.1-0.4
						c-0.1-0.1-0.3,0-0.4,0.1c-0.3,0.1-0.6,0.3-0.9,0.4c-0.2,0.1-0.5,0.1-0.7,0.2c0-0.1,0-0.1-0.1-0.1c0.4-0.2,0.7-0.4,1-0.7
						c0.1-0.1,0.6-0.1,0.9-0.2c0.4,0,1,0,1.2-0.4c0.1-0.1,0.4-0.2,0.5-0.2c0.6,0.1,1.2,0.1,1.8,0.3c0.1,0,0.1,0.1,0.1,0.1
						c-0.1,0.1-0.3,0.1-0.4,0.1c-0.4,0-0.7,0-1.1,0c-0.1,0-0.2,0.1-0.4,0.1c-0.1,0-0.1,0.1-0.1,0.2c0.1,0,0.1,0.1,0.2,0.1
						c0.2,0,0.4-0.1,0.6-0.1c0.1,0,0.2,0,0.2,0.1c0,0.1,0,0.2-0.1,0.2c-0.1,0.1-0.4,0.2-0.6,0.4c-0.1,0.1-0.2,0.1-0.4,0.2
						c0.1,0,0.4,0.1,0.5,0.1c0.1,0,0.1-0.1,0.1-0.1c0.1,0.5,0.5,0.2,0.7,0.1c0.1,0,0.3-0.2,0.3-0.4c0-0.4,0.1-0.4,0.4-0.2
						c0.4,0.3,0.7,0.3,1.2,0c-0.3-0.2-0.5-0.4-0.8-0.6c0-0.1,0.1-0.1,0.1-0.1c0.3,0.1,0.5,0.1,0.9,0.3c-0.1,0.1-0.2,0.1-0.3,0.1
						c0.3,0.1,0.6,0.2,0.9,0.4c-0.1,0.1-0.1,0.1-0.1,0.3c0.2,0,0.3-0.1,0.4-0.1c0.1,0,0.2-0.1,0.2-0.1c0.3,0.3,0.5,0.1,0.7-0.1
						c0.2-0.1,0.3-0.1,0.4,0.1c0.1,0.1,0.9,0.2,1,0.1c0.2-0.2,0.4-0.1,0.7,0c0.4,0.4,1,0.4,1.5,0.1c-0.4-0.2-0.9-0.4-1.2-0.5
						c0.4-0.1,0.4-0.1,1,0.1c0.4,0.1,0.8,0.5,1.3,0.2c-0.1-0.1-0.3-0.1-0.3-0.1c0.7,0.1,1.5,0.1,2.3,0.2c-0.1,0.5,0.2,0.7,0.7,0.6
						c0.2,0.4-0.3,0.2-0.4,0.4c0.5,0.2,1.1,0.2,1.5,0.7c0.1-0.1,0.1-0.1,0.3-0.2c-0.7-1.1-0.7-1.1-1.3-1.3c0.1-0.1,0.2-0.1,0.3-0.1
						c0.3,0.1,0.7,0.3,1,0.4c-0.1,0.1-0.1,0.2-0.1,0.4c0.1-0.1,0.2-0.1,0.2-0.2c0.1,0.1,0.1,0.1,0.2,0.2h0.1c0-0.1,0-0.4,0-0.6
						c0.3,0.1,0.7,0.1,0.4,0.4c0.2,0.2,0.4,0.4,0.7,0.6c0.2,0.1,0.4,0.2,0.7,0.4c0.3,0.1,0.6,0.1,0.7,0.5c0.1,0.3,0.4,0.6,0.7,0.7
						c0.1,0.1,0.4,0.1,0.6,0.2c-0.1,0.1-0.1,0.1-0.3,0.1c0.2,0.2,0.4,0.4,0.7,0.6c0.3,0,0.6-0.1,0.7,0.3c0,0,0.1,0.1,0.1,0.1
						c1.2,0.6,2.4,1.4,3,2.6c0.1,0.1,0.1,0.1,0.2,0.2l0.1-0.1c-0.1-0.1-0.1-0.2-0.1-0.4c0.2,0.1,0.4,0.1,0.6,0.2v0.1
						c-0.1,0-0.1,0-0.2-0.1v0.1c0.1,0.1,0.3,0.2,0.4,0.4c0-0.1,0-0.1-0.1-0.3c0.1,0,0.1,0.1,0.2,0.1c0.3,0.4,0.4,1,0.9,1.3
						c0.4,0.3,0.3,0.9,0.2,1.3c-0.1,0.4,0.2,0.6,0.6,0.9c0-0.4,0.1-0.7,0.1-1c0.1,0,0.1,0,0.1,0c0.1,0.1,0.1,0.1,0.1,0.3
						c0,0.4-0.1,0.8-0.1,1.2c0,0-0.1,0-0.2,0.1c0.1,0.1,0.1,0.2,0.2,0.3c0.1,0.1,0.1,0.1,0.1,0.1c-0.1,0.4,0.2,0.5,0.4,0.7
						c0.1,0.1,0.1,0.2,0.1,0.3c0.1,0.2,0.1,0.4,0.1,0.6c0.1,0.1,0.1,0.3,0.2,0.4c0.1,0.1,0.3,0.1,0.3,0.2c0.1,0.2,0.1,0.5,0.1,0.8
						c0,0.4,0.2,0.7,0.6,1c-0.1-0.5-0.1-1-0.1-1.4c0.1,0,0.1,0,0.1,0c0.1,0.2,0.1,0.4,0.2,0.6c0.1,0.2,0.1,0.5,0.1,0.7
						c0,0.3,0.1,0.6,0.4,0.7c0.2,0.1,0.2,0.3,0.1,0.4c0,0.1,0,0.4,0,0.5c0.1,0,0.1,0,0.1,0c0.1-0.1,0.1-0.2,0.1-0.4
						c0.1,0.4,0.4,0.7,0.4,1c0.1,0.1-0.1,0.4-0.1,0.4c-0.1,0-0.3-0.1-0.4-0.1c-0.1,0-0.1-0.1-0.1-0.1c-0.1,0.2-0.1,0.8,0,1
						c0.1,0.1,0.2,0.5,0.6,0.1c-0.1,0.2-0.1,0.4-0.3,0.7c-0.1,0.1-0.1,1-0.1,1c0.4,0.1,0.2,0.4,0.3,0.6c0.1,0.5-0.1,0.9-0.4,1.1
						c-0.2,0.1-0.4,0.3-0.6,0.5c0.1,0.1,0.3,0.1,0.4,0.1c0.1,0.1,0.2,0.1,0.3,0.2c0.1,0.3,0.2,0.6,0.3,0.9c0,0-0.1,0-0.1,0.1
						c-0.1,0.1-0.1,0.2-0.2,0.3c0.1,0,0.2,0.1,0.3,0.1c0.1,0,0.2,0,0.3,0.1c0.3,0.3,0.1,0.4-0.1,0.6c0.1,0.1,0.1,0.1,0.1,0.2
						c-0.1,0.1-0.1,0.2-0.2,0.3c-0.1,0.1-0.1,0.1-0.1,0.3c0-0.3,0.1-0.6,0-0.7c-0.1-0.2-0.4-0.3-0.5-0.4c-0.1,0.1-0.4,0.1-0.4,0.1
						c0.1,0.2,0.2,0.4,0.4,0.6s0.1,0.7,0.4,0.8c0.1,0,0.1,0.2,0.1,0.3c-0.1,0.1-0.1,0.4-0.3,0.5c-0.1-0.1-0.2-0.2-0.3-0.3l-0.1,0.1
						c0.1,0.1,0.1,0.1,0.1,0.3s0.1,0.4,0.1,0.5c0,0.3-0.1,0.5-0.1,0.8h0.1c-0.1,0.1-0.3,0.2-0.4,0.3c-0.1,0-0.1-0.1-0.2-0.1
						c-0.1,0-0.1,0.1-0.1,0.1c0,0.1,0.1,0.1,0.1,0.1c0.2-0.1,0.3,0,0.4,0.2c-0.6,0.4-0.6,0.5-0.3,0.9c-0.2,0.5-0.4,1-0.6,1.4
						c0.1,0.1,0.1,0.1,0.2,0.1c-0.1,0.1-0.1,0.1-0.1,0.3s-0.1,0.3-0.2,0.4c0,0.1,0,0.3,0,0.4s-0.1,0.1-0.1,0.2
						c-0.1,0.2-0.1,0.4-0.2,0.6c-0.1,0.1-0.1,0.1-0.1,0.1s-0.1,0.1-0.1,0.1c-0.1,0.1-0.2,0.2-0.3,0.4c-0.1,0-0.1,0.1-0.2,0.1
						c-0.1,0.1-0.1,0.1-0.3,0.1c0.1,0.1,0.1,0.1,0.1,0.2c0,0,0,0,0,0.1c-0.1,0.2-0.3,0.4-0.4,0.6c-0.1,0.2-0.3,0.4-0.4,0.6
						c0,0,0,0-0.1,0.1v0.1c-0.2,0.2-0.4,0.5-0.6,0.7c-0.4,0.4-0.6,1-0.9,1.5c-0.1,0.2-0.4,0.5-0.6,0.8l-0.1,0.1c0,0,0-0.1,0-0.1
						c-0.1,0.1-0.3,0.3-0.5,0.4c0.1,0,0.1,0,0.2,0v0.1l0,0c-0.7,0.7-1.9,1.8-2.1,1.8c0,0-0.1,0.5-0.3,0.4c-0.4,0.3-0.4,0.1-0.8,0.4
						c-0.2,0.1,0,0.3-0.3,0.4c-0.4,0.1-1.2,0.6-1.6,0.8c-0.8,0.4-1.3,1-2.1,1.4c-0.3,0.1-0.9,0.2-1.2,0.4c-0.7,0.2-1.7,0.6-2.4,0.9
						c-0.4,0.1-0.9,0-1.2,0.4v-0.4c-0.3,0-0.5,0.4-0.8,0.5c-0.7,0.1-1.2-0.1-1.8,0.1c-0.4,0.2-0.7,0.4-1.2,0.4
						c-0.1,0-0.2,0.1-0.4,0.1l-0.1-0.1c0.1-0.1,0.4-0.1,0.5-0.1c-0.1-0.1,0.4-0.2,0.4-0.4c-0.1,0-0.9,0.1-0.9,0.1
						c-0.3,0-0.5,0-0.7,0.1c-0.4,0.1-0.8,0-1.2,0c-0.8,0-1.6-0.2-2.4-0.4c-0.1,0-0.3,0-0.4,0.1c-0.1,0.1-0.3,0.2-0.4,0.1
						c-0.1-0.1-0.1-0.1-0.1-0.3c-0.4-0.1-0.7-0.1-1.2-0.1s-0.8-0.1-1.2-0.2c0.1-0.1,0-0.1-0.3-0.1c-0.3,0-0.5-0.1-0.8-0.1
						c0,0-0.1,0.1-0.2,0.1c0-0.1-0.1-0.1-0.1-0.1c-0.1-0.1-0.3-0.1-0.4-0.1c-0.2,0.1-0.4,0-0.5-0.1c0,0-0.1,0-0.1-0.1
						c-0.1-0.1-0.1-0.1-0.1-0.1h-0.1h-0.1c-0.1-0.1-0.4-0.3-0.5-0.4s-0.1,0-0.2-0.1c-0.1,0.2-0.3,0-0.4,0.1c0.1-0.1,0.1-0.1,0.1-0.2
						c-0.1,0-0.3,0.1-0.4,0.1c-0.1,0-0.1-0.1-0.1-0.1c-0.2,0-0.4,0-0.6-0.1c-0.1,0-0.1-0.1-0.1-0.1c-0.1-0.1-0.3-0.1-0.4-0.3l0,0
						c-0.6-0.4-1.2-0.7-1.8-1.1c-0.1,0-0.1-0.1-0.1-0.1c-0.3,0.1-0.4-0.1-0.4-0.2c0-0.1-0.2-0.1-0.2-0.1c-0.1,0.2-0.2,0.1-0.4,0.1
						l-0.1-0.1c0.1-0.1,0.1-0.2,0.1-0.3c-0.2,0-0.4,0.1-0.4,0.1s-0.1-0.2-0.1-0.3c-0.1-0.1-0.4-0.1-0.5-0.1
						c-0.2-0.2-0.5-0.4-0.7-0.7v-0.1c0,0-0.1-0.1-0.2-0.1c-0.1-0.1-0.2-0.1-0.3-0.2c-0.1-0.1-0.1-0.1-0.2-0.1l-0.1-0.1h-0.1
						c-0.1-0.1-0.1-0.1-0.2-0.1l0,0c0-0.1-0.1-0.1-0.1-0.1s-0.2-0.1-0.2-0.1l0,0c-0.1-0.1-0.1-0.2-0.2-0.2l0,0c-0.1,0-0.1,0-0.2,0
						c-0.1,0-0.1-0.1-0.2-0.1c0-0.1,0-0.1,0-0.1c-0.1,0-0.1,0-0.1-0.1c-0.1-0.1-0.1-0.3-0.3-0.4c-0.3-0.1-0.4-0.2-0.6-0.4
						c0,0,0-0.1,0.1-0.1c0,0-0.1-0.1-0.1-0.1c-0.2-0.2-0.4-0.4-0.7-0.7c-0.1,0-0.2,0-0.2-0.2c0-0.1-0.1-0.3-0.2-0.3
						c-0.2,0-0.2-0.2-0.3-0.4c-0.1-0.1-0.1-0.3-0.2-0.4c-0.3-0.1-0.4-0.4-0.6-0.8c-0.1,0.1-0.1,0.2-0.1,0.3c0,0.2,0.1,0.4,0.4,0.6
						c0.1,0.1,0.2,0.1,0.3,0.2h-0.1c0,0.1-0.1,0.2-0.1,0.4c0.1,0.1,0,0.4,0.4,0.4c0.1,0,0.3,0.2,0.4,0.3c0,0-0.1,0.1-0.1,0.2
						l0.1,0.1c0.1-0.1,0.3,0,0.4,0.1c0.2,0.3,0.4,0.5,0.7,0.8c0.2,0.2,0.4,0.5,0.7,0.7l0.1,0.1v0.1c0,0,0.1,0.1,0.1,0.1l0,0
						c0.1,0.1,0.1,0.3,0.1,0.4l-0.1,0.1l0,0c-0.2-0.2-0.4-0.4-0.6-0.7c-0.1-0.2-0.2-0.3-0.4-0.4c0.1,0.1,0.1,0.3,0.1,0.4
						c-0.1-0.1-0.1,0-0.3,0.1c-0.1-0.1-0.1-0.1-0.2-0.2c0-0.1,0.1-0.1,0.1-0.1c0,0,0-0.1-0.1-0.2c-0.1-0.1-0.2-0.1-0.4-0.1
						c-0.1,0-0.1,0-0.2-0.1c0-0.1,0-0.1-0.1-0.1l-0.1-0.1c0-0.1-0.1-0.1-0.1-0.1c0.1,0,0.2-0.1,0.4-0.1c-0.4-0.2-0.7-0.4-1-0.6l0,0
						c0-0.1,0.1-0.2,0.1-0.4c-0.1-0.1-0.2-0.1-0.4-0.1c0,0,0,0,0-0.1c-0.1-0.1-0.2-0.1-0.4-0.1v-0.1c0.1-0.3-0.1-0.4-0.2-0.6
						c-0.3,0.1-0.4,0-0.4-0.3c0-0.1-0.1-0.3-0.1-0.4c0-0.1-0.1-0.1-0.2-0.1c-0.1,0-0.1,0.1-0.1,0.1c0,0.2,0,0.4,0,0.7
						s0.1,0.4,0.1,0.6c0,0.1,0.1,0.2,0.1,0.4c0,0.1,0,0.3,0.1,0.4c0,0.1,0,0.1,0,0.2c0.7-0.1,0.4,0.6,0.8,0.8c-0.1,0-0.3,0-0.4,0
						c0.1,0.1,0.4,0.2,0.5,0.3c0.2,0.1,0.4,0.3,0.6,0.5c0.1,0.1,0.1,0.1,0.1,0.1c-0.1,0.1,0.1,0.2,0.1,0.3c0.1,0,0.1,0.1,0.1,0.2
						c0,0.1-0.1,0.1-0.1,0.1c-0.1,0-0.1,0-0.2,0c0.1,0.3,0.2,0.5,0.3,0.7c0.4-0.2,0.6,0,0.5,0.5c0.2,0.1,0.4,0.1,0.7,0.1
						c0.1,0,0.1,0.1,0.1,0.1c-0.2,0.2,0.1,0.4,0.1,0.7c0,0.3,0.4,0.5,0.7,0.4c-0.1-0.1-0.3-0.1-0.4-0.2c-0.3-0.2-0.2-0.4,0.1-0.4
						c0.1,0.3,0.2,0.5,0.6,0.6c0.1,0,0.2,0.2,0.3,0.3c0.2,0.1,0.5,0.3,0.6,0.7c0,0,0.1,0.1,0.1,0.1c0.4,0,0.5,0.2,0.5,0.6
						c0.1,0,0.2,0,0.3,0c0.1,0.1,0.2,0.1,0.2,0.2c0.1,0.4,0.6,0.7,1,0.6c0.2-0.1,0.4,0,0.7,0c0.1,0,0.1,0,0.2-0.1
						c0.1-0.1,0.4-0.2,0.6-0.2l0.7,0.4c-0.1,0-0.1,0-0.1,0c0,0.1,0.1,0.1,0.1,0.2c0.1,0.1,0.4,0.1,0.5,0.1c0,0.1,0.1,0.1,0.1,0.1
						l-0.1-0.1c-0.1-0.1-0.1-0.1-0.3-0.1c0.1,0.1,0.1,0.1,0.1,0.1c0,0.1,0.1,0.3,0.1,0.3l-0.1,0.1c-0.1,0-0.1,0-0.2,0
						s-0.1-0.1-0.1-0.1c-0.1-0.1-0.3-0.3-0.4-0.4c-0.1,0.1-0.1,0.2-0.2,0.2c-0.4,0-0.8,0-1.2,0c0,0.1,0.1,0.4,0.1,0.5
						c0.1,0,0.1,0,0.1,0c0.3-0.1,0.4,0.1,0.6,0.4c0.1,0.2,0.4,0.4,0.7,0.3c0.1,0.1,0.1,0.1,0.1,0.1c0.1,0.1,0.2,0.2,0.3,0.2l0,0
						c-0.1,0.2-0.2,0.2-0.6,0.1c-0.3-0.1-0.4-0.1-0.3-0.4c-0.2-0.1-0.4-0.1-0.7-0.2c0.1-0.1,0.1-0.2,0.1-0.3c-0.1,0-0.2-0.1-0.3-0.1
						s-0.1,0.1-0.1,0.1c-0.2,0.1-0.3,0.1-0.3-0.1c0-0.4-0.1-0.6-0.5-0.7c-0.4-0.1-0.6-0.3-0.7-0.7c-0.1-0.1-0.2-0.3-0.4-0.3
						c-0.2-0.1-0.5-0.1-0.8-0.1c0.1,0.1,0.2,0.4,0.6,0.5c0.3,0.1,0.6,0.2,0.6,0.7c0,0,0.1,0,0.1-0.1c0.1,0.1,0.3,0.4,0.4,0.5
						c0.2,0.3,0.5,0.5,0.9,0.7c0.3,0.1,0.5,0.3,0.8,0.5c0.1,0,0.1,0.1,0.1,0.1c0.1,0.4,0.5,0.5,0.9,0.7c0.3,0.1,0.4,0.1,0.6,0.4
						c0,0.1,0.1,0.1,0.2,0.1c0.4-0.1,0.7-0.1,0.9,0.1c0.1,0.1,0.2,0.1,0.3,0.2c0.2,0.1,0.3,0.1,0.4-0.1c-0.1-0.1-0.3-0.1-0.4-0.2
						c-0.2-0.1-0.4-0.4-0.8-0.3c-0.1,0-0.2-0.1-0.3-0.1s-0.2-0.1-0.3-0.1c-0.3-0.1-0.4-0.2-0.2-0.5c0.1-0.1,0.1-0.2,0.1-0.3
						c0.3,0,0.4,0.1,0.6,0.3c0.1,0.1,0.4,0.3,0.5,0.4c-0.1,0-0.2-0.1-0.3-0.1l0.1,0.1c0.4,0.1,0.7,0.3,1,0.4l-0.1-0.1
						c-0.1-0.1-0.2-0.1-0.4-0.3c0.4-0.1,0.5,0,0.7,0.2c0.1,0.1,0.2,0.1,0.4,0.2c0.1,0.1,0.1,0.1,0.3,0.1c0.1,0,0.3-0.1,0.4-0.1
						c0.2,0,0.4,0.1,0.6,0.1c0.1,0,0.1,0,0.2,0.1v0.1c-0.1,0-0.2-0.1-0.4-0.1c0.2,0.2,0.3,0.4,0.6,0.4c0.3,0,0.7,0.1,1,0.2
						c0.4,0.1,0.7,0.3,1.1,0.4l-0.1,0.1c0.3,0,0.6,0.1,0.9,0.1c-0.1-0.1-0.2-0.1-0.3-0.1c0.1,0,0.2,0,0.4,0c0.1,0,0.2,0.2,0.3,0.2
						c0.1,0.1,0.4,0.1,0.6,0c0.1,0,0.1,0,0.3,0c0.2-0.1,0.3-0.2,0.4,0c0,0,0.1,0,0.1,0.1c-0.1,0,0,0-0.1,0.1c0,0.1,0,0.1,0,0.1
						c0.1,0,0.1,0.2,0.2,0.2c0.1,0.1,0.3,0.1,0.4,0.1c0.1-0.1,0.1-0.1,0.2-0.2c0.2,0.1,0.4,0.1,0.6,0.1c0,0,0,0,0,0.1
						c0.1,0,0.1,0,0.1-0.1c0.1,0,0.2,0,0.4-0.1c0,0,0-0.1,0-0.1l0,0c0.1,0,0.1-0.1,0.1-0.1c0.1,0.3,0.1,0.3,0.4,0.2
						c0,0.1-0.1,0.1-0.1,0.3c0.3-0.1,0.6-0.3,0.7-0.4c0.1-0.1,0.2,0.1,0.4,0.1c0.1,0,0.1,0.1,0.1,0.1c-0.1,0-0.2-0.1-0.3-0.1
						c0,0.3,0,0.4,0.2,0.3c0.1,0,0.1,0,0.3,0c0.2,0,0.5,0,0.7-0.1c0-0.1,0-0.1,0-0.1c-0.1,0-0.1,0-0.1,0c0.1,0,0.4-0.5,0.6-0.6
						c0,0,0.1,0,0.1-0.1c0.2-0.1,0.4-0.1,0.7-0.1c0,0,0.1,0,0.2,0v-0.1c-0.1-0.1-0.1-0.1-0.2-0.1c0.1,0,0.1,0,0.1,0
						c0.1,0,0.3,0,0.5-0.1c0.1,0,0.1,0,0.1,0c0.1,0,0.4,0.1,0.5,0.1c0.2,0.1,0.5,0,0.7-0.1h0.1c0.1,0,0.4-0.1,0.5-0.1
						c0,0,0.1,0,0.1-0.1c0.1,0.1,0.3,0.1,0.4,0.3c-0.1,0.1-0.1,0.1-0.2,0.3c0.1,0.1,0.3,0.1,0.4,0.2v0.1c-0.4-0.1-0.8,0.4-1.2,0.1
						v-0.1c0.1-0.1,0.4-0.2,0.5-0.3c-0.5-0.1-1-0.1-1.5-0.1c-0.1,0-0.1,0-0.2,0.1c-0.1,0.2-0.3,0.1-0.5,0.1c-0.1,0-0.1,0-0.2,0
						c0.1,0.1,0.2,0.2,0.3,0.4c-0.7,0.3-0.7,0.3-1-0.1c0.1,0,0.2-0.1,0.3-0.1c0.1,0,0.1-0.1,0.1-0.1c-0.1-0.1-0.1-0.1-0.1-0.1
						c-0.1-0.1-0.3-0.1-0.4-0.1c-0.1,0-0.2,0.1-0.3,0.1c0.1,0.1,0.1,0.2,0.2,0.3c0,0,0.1,0,0.1,0.1c-0.1,0.1-0.1,0.1-0.3,0.3
						c0.3,0.1,0.5,0.1,0.7,0.1c0.4,0,1-0.1,1.4-0.1c0.3,0,0.6-0.1,0.9-0.1c0.3,0,0.6,0,0.8-0.1c0.5-0.1,1-0.1,1.5-0.2
						c0.3-0.1,0.5-0.1,0.8-0.1c0.3-0.1,0.6-0.2,0.8-0.3c0.4-0.1,1-0.1,1.4-0.3c0.4-0.1,0.9-0.3,1.3-0.4c0.1,0,0.1,0,0.1-0.1
						c0.4-0.1,0.9-0.3,1.4-0.4c0.3-0.1,0.7-0.2,1-0.4c0.4-0.3,0.7-0.4,1.2-0.4c-0.1-0.4,0.2-0.4,0.4-0.5c0.1-0.1,0.3-0.1,0.4-0.2
						c0.1-0.1,0.1-0.1,0.2-0.1c0.4,0,0.7-0.4,0.9-0.7c-0.2-0.1-0.4-0.1-0.6-0.2v-0.1c0.5-0.3,0.9-0.9,1.6-0.9
						c-0.1,0.2-0.1,0.3-0.2,0.4c-0.1,0-0.1-0.1-0.2-0.1c0,0,0,0.1-0.1,0.1c0.1,0.1,0.1,0.1,0.2,0.1c-0.1,0-0.1,0.1-0.2,0.1
						c0.4,0.2,0.4-0.1,0.7-0.2c0.4-0.3,0.8-0.6,1.1-1c0.2-0.2,0.4-0.4,0.7-0.4c0-0.3,0.4-0.7,0.7-0.8c0.2-0.1,0.6-0.1,0.5-0.5
						c0,0,0.1-0.1,0.1-0.1c0.1-0.1,0.2-0.2,0.4-0.3c0.1-0.1,0.1-0.1,0.2-0.1s0.1,0,0.3,0c-0.1-0.1-0.1-0.2-0.1-0.2
						c0.1-0.1,0.3-0.3,0.4-0.4s0.2-0.1,0.4-0.2c0.1,0,0.2-0.1,0.2-0.2s0.1-0.2,0.3-0.4c0.1-0.1,0.1-0.1,0.3-0.1c0.1,0,0.3-0.1,0.3,0
						c0.1,0.1,0.1,0.2,0.1,0.4c0,0.1-0.1,0.2-0.1,0.2c-0.2,0.2,0,0.7-0.5,0.7c0,0.1,0,0.1,0,0.1c0.1,0.3,0,0.7-0.2,1
						c-0.1,0.1-0.1,0.1-0.1,0.2c-0.1,0.3-0.4,0.4-0.7,0.2c0.1-0.1,0-0.4,0.4-0.4c0,0,0.1-0.1,0.1-0.2c0-0.1-0.1-0.3-0.1-0.4
						c-0.1,0.1-0.1,0.1-0.1,0.1c-0.1,0.1-0.1,0.3-0.1,0.4c-0.1,0.2-0.3,0.2-0.4,0.1c-0.1-0.1-0.1-0.1-0.1-0.2
						c-0.1,0.2-0.2,0.3-0.2,0.4c-0.1,0.4-0.1,0.4-0.4,0.2c-0.1-0.1-0.2-0.1-0.3,0c-0.1,0-0.1,0.1-0.1,0.2c0.1,0.1,0.1,0.4,0.2,0.5
						c0,0.1,0,0.1,0,0.1c-0.1,0.1-0.3,0.4-0.4,0.4c-0.1,0-0.3-0.1-0.4-0.3c-0.1-0.1-0.2-0.1-0.4,0.1c-0.1,0.1-0.1,0.1-0.1,0.1
						c-0.1,0.1-0.1,0.1-0.2,0.2c0.1,0.1,0.1,0.1,0.2,0.2c0.1,0.1,0.3,0.1,0.4,0.3c0.1,0.1,0,0.4-0.1,0.6c0,0.1-0.1,0.2-0.2,0.2
						c-0.1,0-0.2-0.1-0.3-0.2c-0.1-0.1-0.1-0.1-0.1-0.2c-0.2-0.1-0.4-0.2-0.7-0.4c-0.1,0.1-0.3,0.3-0.5,0.4
						c-0.2-0.3-0.4-0.2-0.6,0.1c0,0.1-0.1,0.1-0.1,0.1c-0.5,0.1-0.7,0.5-1,0.9c-0.1,0.1-0.1,0.2-0.1,0.3s0.1,0.1,0.1,0.1
						c0.1-0.1,0.1-0.1,0.2-0.2c0.1-0.1,0.1-0.2,0.1-0.3c0.3-0.2,0.7-0.4,1-0.6c0-0.1-0.1-0.1-0.1-0.3c0.2,0.1,0.4,0.2,0.5,0.3
						c0.1-0.1,0.2-0.1,0.4-0.2c0.1,0.4,0.4,0.1,0.7,0.2c-0.1,0.1-0.1,0.2-0.1,0.4c0.2-0.1,0.3-0.1,0.4-0.1c0.1,0,0.1-0.1,0.1-0.1
						c0.3-0.1,0.6-0.2,0.7-0.5l0.1-0.1c0.2-0.1,0.4-0.2,0.5-0.4c0.4-0.5,1-1,1.5-1.5c0.2-0.2,0.4-0.4,0.7-0.5
						c0.1-0.1,0.1-0.1,0.1-0.2c0.1-0.2,0.2-0.5,0.6-0.5c-0.1-0.4,0.3-0.7,0.7-1c-0.1-0.2,0-0.3,0.2-0.4c0.3-0.1,0.4-0.2,0.5-0.5
						c0.1-0.2,0.2-0.5,0.4-0.7c0.1-0.2,0.4-0.4,0.6-0.6c0.1-0.1,0.1-0.2,0.3-0.4c0.1,0,0.1-0.1,0.3-0.1c0-0.1,0-0.3,0.1-0.4
						c0.2-0.4,0.5-0.7,0.8-1c0.1-0.1,0.3-0.3,0.4-0.4c0.2-0.5,0.4-1,0.7-1.5c0-0.1,0.1-0.1,0.1-0.1c0.2-0.2,0.6-0.4,0.7-0.7
						c0.3-0.6,0.5-1.2,0.8-1.8c0.1-0.4,0.3-0.7,0.5-1.1c0.1-0.1,0.3-0.2,0.2-0.4c0,0,0.1-0.1,0.1-0.1c0.1-0.1,0.1-0.1,0.3-0.1
						c-0.2-0.4,0-0.7,0.1-0.9c0.1-0.3,0.2-0.5,0.3-0.8c0.1-0.4,0.1-0.8,0.3-1.2c0.2-0.7,0.4-1.2,0.6-1.9c0-0.1,0.1-0.1,0.1-0.2
						c0.1-0.7,0.3-1.2,0.3-1.9c0-0.4,0.1-0.8,0.2-1.2c0-0.5,0.1-1,0.4-1.4c0.1-0.1,0.1-0.3,0.1-0.4c-0.1-0.4-0.3-0.9,0-1.3
						c0,0,0-0.1,0-0.1c0-0.3-0.1-0.6,0.2-0.8v-0.1c0-0.2,0-0.4,0-0.7C181.4,63.3,181.4,63.1,181.3,63z M126,44.3
						C126,44.3,125.9,44.4,126,44.3c-0.1,0.1-0.1,0.2-0.4,0.2c-0.1,0.1-0.1,0.1-0.2,0.1c-0.1,0.3-0.3,0.7-0.4,1l0,0l0,0
						c-0.1,0.1-0.3,0.1-0.4,0.1c-0.1,0-0.2-0.1-0.3-0.1c-0.1-0.1-0.1-0.2-0.1-0.4V45l0.1-0.1l0.1-0.1c0.1-0.1,0.2-0.1,0.3-0.1
						c0.1,0,0.2-0.1,0.3-0.1c0.1-0.1,0.1-0.2,0.1-0.4c0.1-0.1,0.1-0.2,0.1-0.4l0,0l0,0c0.1-0.1,0.3-0.1,0.4-0.1
						c0.2,0,0.4,0.1,0.4,0.2c0.1,0,0.1,0.1,0.1,0.1L126,44.3L126,44.3z M127.2,42.6c-0.1,0.1-0.1,0.4-0.3,0.5l-0.1,0.1
						c-0.1,0.1-0.1,0.1-0.2,0.1c-0.1,0-0.1,0.1-0.2,0.1l-0.1,0.1l-0.1-0.1c-0.1-0.1-0.3-0.5-0.3-0.6c-0.1-0.3,0.4-0.6,0.6-0.7
						c0.1,0,0.1,0,0.1,0c0.1,0,0.2,0.1,0.3,0.1l0.1,0.1C127.2,42.5,127.3,42.5,127.2,42.6z M129.7,40.3c-0.1,0.2-0.5,0.4-0.8,0.5
						l0,0c-0.1,0-0.1-0.1-0.3-0.1c-0.1,0-0.1-0.1-0.2-0.1l-0.1-0.1l0.1-0.1c0.1-0.1,0.1-0.1,0.2-0.2c0.2-0.2,0.4-0.4,0.6-0.5
						c0,0,0,0,0.1,0c0.1,0,0.4,0.2,0.5,0.4C129.8,40.2,129.8,40.3,129.7,40.3z M132.6,37.5c-0.1,0-0.1-0.1-0.3-0.2
						c0.3-0.1,0.5-0.3,0.7-0.4c0.1,0,0.2,0.2,0.3,0.3C133.3,37.3,132.8,37.5,132.6,37.5z M135.6,35.8c0.3-0.2,0.6-0.4,0.8-0.6
						c0.1,0.7,0.1,0.7-0.4,0.6c-0.1,0.4-0.1,0.5-0.4,0.4c0.1-0.1,0.1-0.1,0.3-0.2C135.7,35.9,135.6,35.8,135.6,35.8z M134.8,45.8
						c-0.5-0.1-0.8,0.2-1.1,0.5c0,0-0.1,0-0.1,0c0.1-0.2,0.2-0.4,0.3-0.7c0.2-0.1,0.4-0.1,0.7-0.1c0.1,0,0.2,0,0.4,0.1
						c0.1,0,0.1,0.1,0.1,0.1C134.9,45.8,134.8,45.8,134.8,45.8z M135.2,36.1c0.1,0,0.1-0.1,0.1-0.1c0,0.1,0.1,0.2,0.1,0.3
						s-0.1,0.1-0.2,0.1c-0.1,0-0.1-0.1-0.2-0.2C135.1,36.1,135.1,36.1,135.2,36.1z M135.3,44.9c-0.1,0-0.1,0-0.2-0.1v-0.1
						c0.5,0,1-0.1,1.4-0.2c0,0.1,0,0.1,0,0.1C136.2,44.7,135.7,44.8,135.3,44.9z M137.2,44.4c0.1,0.1,0.1,0.1,0.2,0.2
						c-0.2,0-0.4,0-0.5,0c0.2-0.4,0.4-0.6,1.5-1c0,0.1,0,0.1,0.1,0.1c0,0.1,0.1,0.1,0.1,0.1C138.2,44.4,137.7,44.4,137.2,44.4z
						 M139.2,44.3c0-0.1,0-0.1,0-0.1c0.1-0.1,0.3-0.1,0.4-0.1c0,0,0,0.1,0.1,0.1C139.5,44.2,139.3,44.3,139.2,44.3z M140.2,33
						c-0.3,0.1-0.4-0.1-0.5-0.3c0.3-0.1,0.5-0.1,0.8-0.2c0,0,0.1,0,0.1,0.1c-0.2,0.1-0.4,0.2-0.5,0.3C140.2,32.8,140.3,33,140.2,33z
						 M141.2,33.4c-0.3,0.1-0.7,0.1-1,0.1c0-0.4,0.4-0.2,0.6-0.4c0.1-0.1,0.3,0.1,0.4,0.1C141.2,33.3,141.2,33.3,141.2,33.4z
						 M142,33.4c-0.1-0.1-0.3-0.2-0.4-0.3c0.1,0,0.2-0.1,0.2-0.1C142,33.1,142,33.3,142,33.4C142.1,33.3,142.1,33.3,142,33.4z
						 M142.1,32.5c-0.1-0.1-0.2-0.2-0.3-0.4c0.4-0.1,1-0.1,1.4-0.2c0.1,0,0.2,0.1,0.3,0.2c0.1,0.2,0.2,0.3,0.4,0.2
						c0.1,0,0.3,0,0.4,0c0,0.1,0,0.1,0,0.1c-0.1,0-0.1,0.1-0.1,0.1c-0.5,0.1-1,0.1-1.5,0.2C142.5,32.7,142.3,32.6,142.1,32.5z
						 M147.1,33.3c-0.1,0.1-0.2,0.1-0.4,0.1c-0.3,0-0.7,0.1-1,0.1c-0.1,0-0.3,0-0.4-0.1c-0.4-0.3-0.8-0.1-1.2-0.1
						c-0.5,0-1,0.1-1.5,0.1c0.1-0.3,0.3-0.4,0.5-0.4c0.1,0,0.4-0.1,0.5-0.1c0.1,0,0.2-0.1,0.3-0.1c0.4-0.1,0.8,0.1,1.2-0.1
						c0.1,0,0.1,0,0.2,0.1c0.1,0,0.2,0.1,0.3,0.1c0.5-0.1,1,0.1,1.4,0.3c0.1,0,0.1,0.1,0.1,0.1C147.3,33.1,147.2,33.3,147.1,33.3z
						 M147.8,32.5c0.2-0.1,0.4-0.1,0.5-0.1C148.2,32.8,148.2,32.8,147.8,32.5z M149.5,42.7c0,0-0.1-0.1,0-0.1
						c0.1-0.1,0.1-0.1,0.1-0.1c0.2,0,0.4,0.1,0.6,0.1c0.1,0.1,0.1,0.2,0.1,0.3C150.1,43,149.6,42.8,149.5,42.7z M152.7,34.4
						c-0.1,0-0.3,0-0.4,0c-0.5-0.1-1-0.1-1.5-0.2c-0.2-0.1-0.5-0.1-0.7-0.2c-0.1-0.1-0.3-0.1-0.4-0.1c-0.4,0.1-0.7-0.2-1.1-0.3
						c-0.1,0-0.2-0.2-0.3-0.3c0-0.1,0.1-0.1,0.1-0.2c0.2,0.1,0.4,0.3,0.5,0.3c0.2-0.1,0.4,0,0.5,0.1c0.1,0.1,0.1,0.1,0.3,0.1
						c0.1,0,0.2,0,0.4,0c0.4,0,0.7,0.3,1.2,0.3c0.4,0,0.7,0.1,1,0.2C152.5,34.1,152.6,34.2,152.7,34.4
						C152.8,34.2,152.8,34.3,152.7,34.4z M149.4,32.5c0.2,0.1,0.5,0.1,0.7,0.1C149.5,32.9,149.5,32.8,149.4,32.5z M154.9,35
						c-0.1,0.1-0.3,0.1-0.4-0.1c-0.1-0.1-0.3-0.2-0.4-0.2c-0.5,0-0.8-0.2-1-0.7c0.1,0.1,0.3,0,0.4,0.1c0.2,0.2,0.4,0.3,0.7,0.1
						c0.4-0.2,0.7-0.1,0.7,0.4c0,0.1,0.1,0.1,0.1,0.1C155.1,34.8,155.1,34.9,154.9,35z M156.2,35.7c-0.3,0-0.2-0.2-0.2-0.4
						c0-0.1,0.1-0.1,0.3-0.2c0.1,0.2,0.2,0.3,0.4,0.4C156.4,35.6,156.3,35.7,156.2,35.7z M158.5,34.8c-0.3-0.3-0.6-0.4-1-0.4
						c-0.1,0-0.2,0-0.2,0c-0.4-0.4-1-0.3-1.4-0.4c-0.3-0.1-0.6-0.2-1-0.3c0.1-0.1,0.2-0.1,0.3-0.1c-0.2-0.1-0.4-0.3-0.7-0.4
						c0,0,0-0.1,0.1-0.1c0.2,0,0.4,0,0.6,0v-0.1c-0.1-0.1-0.1-0.1-0.2-0.1c-0.3-0.1-0.6-0.1-0.8-0.2c-0.3-0.1-0.3-0.1-0.3,0.2
						c0.1,0,0.2,0,0.3,0.1c-0.1,0.1-0.7,0.1-0.9,0c-0.1-0.1,0-0.2,0.1-0.4c-0.1,0-0.2,0-0.4,0c0.1,0.2,0.1,0.4,0.1,0.6
						c-0.3-0.1-0.6-0.1-0.9-0.2c0-0.3,0-0.3-0.4-0.2c0.1,0.1,0.1,0.1,0.2,0.1c0,0,0,0.1-0.1,0.1c-0.2-0.1-0.4-0.1-0.7-0.3
						c0,0.2-0.1,0.3-0.4,0.1c-0.1-0.1-0.3-0.1-0.4-0.1c0,0,0,0,0-0.1c0.2,0,0.4,0,0.6-0.1v-0.1c-0.1,0-0.1-0.1-0.2-0.1
						c-0.4,0.1-0.8-0.2-1.2,0c-0.1,0-0.1,0-0.2-0.1c-0.1-0.1-0.3-0.1-0.4-0.1c-0.4-0.1-0.7-0.1-1.1-0.1c-0.2,0-0.4,0-0.2,0.2
						c0,0.1,0.1,0.1,0.1,0.1c-0.4,0-0.8,0-1.2-0.1v-0.1c0.1-0.1,0.3-0.1,0.6-0.1c-0.1-0.1-0.2-0.1-0.3-0.1c-0.4,0-0.8-0.1-1.2,0.1
						c-0.4,0.1-0.7,0.2-1-0.1h-0.1c-0.2,0-0.5,0-0.7,0c-0.1,0-0.2-0.1-0.3-0.1c0.1-0.1,0.2-0.1,0.3-0.1c0.1,0,0.2,0,0.4,0
						c0.5-0.1,1.1-0.1,1.6-0.1l0.1,0.1c0.2,0,0.4,0.1,0.6,0.1c0.4,0,0.7-0.1,1.1,0.1c0.2,0.1,0.5,0,0.8,0v-0.1
						c-0.1,0-0.1-0.1-0.3-0.1c0.1,0,0.3-0.1,0.4,0c1.5,0.1,2.9,0.1,4.4,0.3c2.6,0.1,4.9,1,7.3,1.8c2,0.7,3.7,1.8,5.4,2.9
						c0.1,0.1,0.1,0.1,0.1,0.1c-0.1,0.1-0.1,0.1-0.1,0.1c-0.1-0.1-0.2-0.1-0.3-0.2c-0.1-0.1-0.1-0.1-0.2-0.1c-0.3-0.1-0.7-0.3-1-0.5
						c-0.4-0.2-0.9-0.5-1.3-0.7c-0.4-0.2-0.8-0.4-1.2-0.5c-0.1-0.1-0.3-0.1-0.4-0.1c-0.4-0.2-0.9-0.4-1.3-0.6
						c-0.6-0.2-1.2-0.4-1.7-0.6c-0.2-0.1-0.4-0.1-0.6-0.1c-0.4-0.1-0.7-0.3-1-0.4c-0.1-0.1-0.4,0-0.6,0c0.1,0.1,0.1,0.2,0.2,0.3
						c-0.1,0-0.3,0-0.3,0.1c-0.1,0.1-0.1,0.3-0.1,0.3c0.2,0.1,0.4,0.1,0.7,0.1c0.1,0,0.1-0.1,0.2-0.1c-0.1-0.1-0.1-0.1-0.1-0.1
						s-0.1-0.1-0.3-0.1c0.5-0.2,0.7-0.2,1.1,0.3c-0.1,0.1-0.2,0.1-0.4,0.2c0.2,0.1,0.4,0.1,0.6,0.3c0.2,0.1,0.4,0.3,0.5,0.4
						c0.4,0.1,0.7,0.1,1,0.3c0.1,0,0.2,0,0.4,0.1c-0.1-0.1-0.1-0.2-0.2-0.3c-0.1-0.1-0.1-0.1-0.1-0.3c0.1,0,0.3-0.1,0.4,0
						c0.3,0.1,0.6,0.3,0.8,0.4c0,0,0,0.1,0.1,0.1c-0.2,0-0.4,0.1-0.6,0.1C160,35,160,35,160,35.2C159.2,35.3,158.9,35.3,158.5,34.8z
						 M165.6,37.2c0,0.1-0.1,0.1-0.1,0.1c-0.1-0.1-0.3-0.1-0.4-0.1c0-0.1,0.1-0.1,0.1-0.1C165.3,37.1,165.5,37.2,165.6,37.2z
						 M161.8,35.3c-0.1,0.1-0.2,0.1-0.2,0c-0.3-0.1-0.7-0.4-1-0.6v-0.1c0.1,0,0.2,0,0.2,0c0.1,0.3,0.4,0.2,0.6,0.2
						c0.1,0,0.2,0.1,0.3,0.1C161.9,35.2,161.9,35.3,161.8,35.3z M158.6,33.9c-0.7,0.1-0.9,0-1-0.4C158,33.5,158.3,33.6,158.6,33.9z
						 M159.9,36.9c0.2,0.1,0.4,0.2,0.7,0.4C160,37.4,159.9,37.3,159.9,36.9z M162.6,46.8c-0.2-0.2-0.4-0.4-0.6-0.7
						c-0.1,0.1-0.1,0.1-0.1,0.2c-0.1,0-0.1,0-0.1,0c0-0.1,0-0.2,0-0.3c0.1,0,0.3,0,0.4,0.1c0.4,0.2,0.7,0.4,1,0.7
						C163.1,47,162.8,47.1,162.6,46.8z M163.1,38.9c-0.1-0.1-0.3-0.1-0.4-0.1c-0.3-0.1-0.7-0.3-1-0.5c-0.1-0.1-0.2-0.2-0.3-0.3
						c0.1-0.1,0.3-0.1,0.4-0.1s0.4,0.1,0.4,0.1c0.1,0.4,0.7,0.4,1,0.6c0.1,0.1,0.1,0.1,0.2,0.2C163.3,38.8,163.1,38.8,163.1,38.9z
						 M163.4,37.2c-0.1,0-0.3-0.1-0.4-0.1c-0.5-0.3-1-0.7-1.5-1c-0.1-0.1-0.1-0.1-0.2,0c-0.3,0.1-0.5-0.1-0.7-0.3
						c-0.1-0.1-0.2-0.1-0.3-0.1c-0.4,0-0.4-0.2-0.4-0.5c0.1,0.1,0.3,0.1,0.4,0.1c0.4,0,0.8,0.2,1.1,0.4c0.4,0.3,0.7,0.7,1.3,0.6
						c0.1,0,0.2,0.1,0.3,0.1c0.1,0.1,0.2,0.1,0.3,0.2c0.1,0.1,0.2,0.2,0.2,0.3C163.6,37.1,163.5,37.2,163.4,37.2z M164.2,47.7
						c-0.1-0.1-0.2-0.2-0.4-0.4c0.1-0.1,0.1-0.1,0.1-0.1C164.1,47.4,164.2,47.5,164.2,47.7L164.2,47.7z M165,38.2
						c-0.3-0.2-0.6-0.4-0.9-0.7c0,0,0.1-0.3,0.2-0.3c0.2,0.1,0.4,0.1,0.5,0.2c0.1,0.1,0.3,0.4,0.4,0.5c0.1,0.1,0.1,0.1,0.1,0.2
						c0,0.1-0.1,0.1-0.1,0.1C165.1,38.2,165,38.2,165,38.2z M166,48.9c-0.1-0.1-0.3-0.4-0.5-0.5c0.1-0.1,0.1-0.1,0.1-0.1
						c0.1,0.1,0.3,0.4,0.4,0.5C166.1,48.9,166,48.9,166,48.9z M166.6,41.3c-0.1-0.1-0.3-0.3-0.4-0.4c-0.2-0.2-0.5-0.4-0.7-0.6v-0.1
						c0.1,0,0.2,0,0.3,0.1c0.4,0.1,0.6,0.5,1.1,0.6c0.1,0,0.1,0.3,0.2,0.5C166.8,41.3,166.7,41.3,166.6,41.3z M167.7,38.9
						c-0.1,0-0.2,0-0.3-0.1c-0.1-0.1-0.2-0.1-0.3-0.3c-0.1-0.1-0.1-0.1-0.2-0.2c0.1-0.1,0.1-0.1,0.1-0.1c0.1,0,0.7,0.2,0.7,0.4
						C167.8,38.8,167.8,38.9,167.7,38.9z M130.3,84.4L130.3,84.4L130.3,84.4c0,0.1,0,0.1,0.1,0.2c-0.1-0.1-0.2-0.1-0.3-0.2
						C130.1,84.5,130.2,84.5,130.3,84.4z M130.3,84.8c0.1,0.1,0.4,0.3,0.7,0.5c-0.1,0.1-0.1,0.1-0.2,0.1l-0.1-0.1
						C130.6,85.2,130.4,85,130.3,84.8C130.2,84.9,130.2,84.8,130.3,84.8z M131.6,88.3c-0.3-0.2-0.4-0.4-0.7-0.6
						c-0.1-0.1-0.1-0.1-0.1-0.1c-0.3,0.1-0.3-0.2-0.4-0.4c0,0,0.1-0.2,0.1-0.2c0.1,0,0.4,0,0.4,0.1c0.1,0.5,0.5,0.7,0.7,1
						C131.6,88.1,131.6,88.2,131.6,88.3z M147.9,95.1L147.9,95.1c0.1-0.1,0.1-0.1,0.2-0.1h0.1c0,0.1-0.1,0.1-0.1,0.1
						c0.1,0,0.1,0,0.1,0.1C148.1,95.2,148.1,95.2,147.9,95.1z M150.7,95.1c0.1-0.4,0.2-0.4,1-0.1C151.3,95.1,151,95.2,150.7,95.1z
						 M154.3,94.6c-0.1,0-0.4-0.1-0.5,0.1c0,0-0.1,0-0.2-0.1c0.1-0.1,0.3-0.1,0.4-0.1c0.1-0.1,0.3-0.1,0.4-0.1c0.1,0,0.2,0,0.3,0
						c0,0.1,0,0.1,0,0.2C154.7,94.6,154.5,94.6,154.3,94.6z M156.7,93.2c0,0.1-0.1,0.1-0.2,0.2c-0.1,0.1-0.2,0.1-0.3,0.1
						c-0.1,0.1-0.2,0.1-0.3,0.1c-0.5-0.2-0.9,0.1-1.3,0.2c-0.3,0.1-0.7,0.3-1,0.1c-0.1-0.1-0.3,0-0.4,0c0-0.1,0-0.1,0.1-0.2
						c0,0,0.1,0,0.1,0.1c0,0,0.1,0,0.2,0c0.1-0.1,0.3-0.2,0.5-0.3c0.2-0.1,0.4-0.1,0.6-0.1l0,0c0.1,0,0.1,0.1,0.2,0l0,0l0,0
						c0.2-0.1,0.5-0.2,0.7-0.3c0.1,0,0.1,0,0.1,0.1v-0.1c0.1-0.1,0.4-0.1,0.5-0.2c0.1,0,0.1,0,0.2,0.1c0.1,0.1,0.1,0.1,0.2,0
						C156.7,93.1,156.7,93.2,156.7,93.2z M157.5,93.3c-0.1-0.1-0.1-0.1-0.2-0.2c0-0.1,0.1-0.1,0.1-0.2c0.2-0.1,0.4-0.2,0.6-0.4
						c0.1-0.1,0.2-0.1,0.4,0l0.1,0.2c-0.2,0.1-0.4,0.4-0.7,0.5C157.8,93.2,157.7,93.2,157.5,93.3z M158.1,93.6c0-0.1,0-0.1,0-0.1
						c0.1,0,0.3,0,0.4-0.1c0,0.1,0,0.1,0,0.1C158.3,93.5,158.2,93.5,158.1,93.6z M160.7,92.7c-0.2,0.1-0.5,0.1-0.7,0.1
						c0-0.1,0-0.1-0.1-0.1c0.2-0.1,0.4-0.3,0.7-0.4c0.1,0,0.1,0.1,0.2,0.1C160.8,92.6,160.8,92.7,160.7,92.7z M161,92.4
						c0.2-0.3,0.2-0.4,0.5-0.1C161.4,92.2,161.2,92.3,161,92.4z M163.2,90.5C163.2,90.5,163.1,90.4,163.2,90.5
						c-0.1-0.1,0-0.2,0.1-0.2c0.2-0.1,0.4-0.1,0.5-0.3l0.1-0.1c0.1,0,0.1,0.1,0.1,0.1C163.7,90.1,163.5,90.3,163.2,90.5z
						 M171.9,85.7c-0.1-0.1-0.2-0.1-0.2-0.2c0-0.2,0.2-0.4,0.4-0.4c0.1,0,0.2,0.1,0.3,0.3C172.2,85.5,172.1,85.6,171.9,85.7z
						 M173.3,84.6c-0.1,0.1-0.2,0.3-0.4,0.4c-0.1-0.2-0.1-0.4-0.2-0.5c0-0.1,0.1-0.2,0.1-0.3c0.1,0.1,0.4,0.1,0.5,0.1
						C173.3,84.4,173.3,84.5,173.3,84.6z M177.1,53.5c-0.1-0.2-0.1-0.6-0.4-0.7c-0.1-0.1-0.2-0.4-0.3-0.6c-0.1-0.2-0.1-0.4-0.4-0.4
						c-0.1,0-0.1-0.1-0.3-0.1l0.1-0.1c0.1,0,0.4,0,0.5-0.1c0.1,0.1,0.2,0.1,0.3,0.2c0.1,0.1,0.1,0.1,0.2,0.2
						c0.1,0.3,0.2,0.4,0.4,0.5c0.1,0.1,0.2,0.2,0.4,0.4c0.1,0.1,0.1,0.3,0,0.4c0,0.1,0,0.1,0,0.2c0.1,0.3-0.1,0.4-0.4,0.4
						C177.2,53.9,177.2,53.8,177.1,53.5z M179.1,71c-0.1,0.2-0.2,0.6-0.1,1c0.1,0.3-0.1,0.7-0.3,1c0,0.1-0.1,0.1-0.2,0.1
						c0-0.1-0.1-0.1-0.1-0.2c0-0.1,0-0.3,0-0.4c0-0.1,0-0.2,0-0.3c0.3-0.5,0.4-1.2,0.4-1.8c-0.1-0.5,0.3-0.7,0.2-1.2h0.1
						c0,0.1,0.1,0.1,0.1,0.1C179.1,69.8,179.4,70.4,179.1,71z M179.7,68.4c-0.1,0.1-0.1,0.1-0.2,0.2s-0.2,0.2-0.4,0.3
						c-0.2-0.4,0-0.7,0.2-0.9c-0.3-0.4-0.4-0.6-0.1-0.9c0.1,0.1,0.4,0.3,0.5,0.4C180,67.8,179.9,68.3,179.7,68.4z M179.2,65.8
						c0.3,0.3,0.4,0.5,0.1,0.8C179.1,66.3,179,65.9,179.2,65.8z M180,65.1c0,0.1-0.1,0.1-0.1,0.1c-0.4-0.1-0.4,0.1-0.6,0.5
						c-0.1-0.2-0.3-0.4-0.4-0.7c0.4,0,0.3-0.1,0.2-0.4c-0.1-0.4,0-0.7,0-1.2c0-0.1,0-0.2-0.1-0.3c-0.1-0.3-0.1-0.6-0.2-1
						c0-0.2,0-0.4,0-0.7c-0.1-0.1-0.4-0.4-0.1-0.7v-0.1c0-0.1-0.1-0.2-0.1-0.3c0-0.4-0.1-0.9-0.1-1.3c0-0.1,0-0.1-0.1-0.2
						c0-0.1,0-0.3-0.1-0.4s-0.1-0.3-0.1-0.4c-0.1-0.1-0.1-0.3,0-0.4c0.1-0.1,0.1-0.3,0-0.4c-0.4-0.3-0.3-0.7-0.4-1.1
						c-0.1-0.1-0.1-0.1-0.1-0.2c-0.1-0.2-0.3-0.4-0.4-0.7c0-0.1,0.1-0.2,0.2-0.4c0.1,0,0.1,0,0.1,0c-0.1-0.1-0.2-0.3-0.4-0.4
						c-0.1-0.1-0.1-0.2-0.1-0.3c0.1,0,0.1,0,0.3,0c0.1,0,0.1,0,0.2,0c0.3,0,0.4,0.1,0.4,0.4c-0.1,0.4,0,0.6,0.4,0.7
						c0.1,0,0.1,0.1,0.1,0.1c0.1,0.6,0.1,1.1,0.1,1.7c0,0.1,0.1,0.1,0.1,0.3c0.2,0.5,0.2,1,0.2,1.6c0,0.1,0,0.1,0,0.1
						c0.4,0.4,0.1,0.9,0.2,1.2c0.1,0.4,0.2,0.9,0.2,1.3c0,0.1-0.1,0.3-0.1,0.4c0.1,0.1,0.2,0.2,0.2,0.3c0,0.3,0,0.5,0,0.8
						c0,0.1,0,0.3,0,0.4c0,0.1,0,0.1,0,0.1c-0.3,0.1-0.1,0.4-0.1,0.7c0.1,0,0.3,0.1,0.4,0.1C180,64.6,180.2,64.9,180,65.1z"/>
					<path class="st2" d="M142.6,95.6c-0.3-0.1-0.6-0.2-0.9-0.3c-0.1,0-0.2-0.1-0.2-0.2c-0.1-0.2-0.4-0.4-0.5-0.3
						c-0.2,0.1-0.3,0.4-0.1,0.6c0,0,0,0,0.1,0s0.1-0.1,0.2-0.1c0.1,0.1,0.2,0.2,0.4,0.2c0.1,0.1,0.4,0.1,0.5,0.1
						c0.2,0.1,0.4,0.1,0.7,0.1c0.1,0,0.1-0.1,0.2-0.1C142.7,95.7,142.7,95.6,142.6,95.6z"/>
					<path class="st2" d="M153.3,96c-0.1,0.1-0.1,0.1-0.2,0.1c-0.2-0.1-0.5-0.1-0.7-0.4c-0.2-0.2-0.4-0.2-0.6-0.1
						c-0.1,0.1-0.2,0.1-0.4,0.2c0.1,0.1,0.1,0.1,0.1,0.1c0.3-0.2,0.5-0.1,0.7,0.1c0.1,0.1,0.2,0.1,0.3,0.3c0.1,0.2,0.2,0.2,0.3,0.1
						c0.1-0.1,0.1-0.2,0.2-0.2c0.4,0,0.3-0.3,0.4-0.5l-0.1-0.1C153.4,95.8,153.4,95.9,153.3,96z"/>
					<path class="st2" d="M157,94.7c-0.1,0-0.1,0.2,0,0.4c0,0.1,0.1,0.2,0.1,0.4c0.1-0.1,0.3-0.2,0.4-0.2c0.3,0,0.4-0.2,0.4-0.4
						c-0.2-0.1-0.4-0.1-0.5-0.1C157.3,94.6,157.1,94.6,157,94.7z"/>
					<path class="st2" d="M160.6,93.6c0,0.2-0.1,0.4-0.1,0.7c0.4-0.3,0.7-0.5,1.1-0.7C161.3,93.3,160.9,93.4,160.6,93.6z"/>
					<path class="st2" d="M147,96.1c0,0.1-0.1,0.1-0.1,0.1c-0.1,0.1-0.1,0.1-0.2,0.1v0.1c0.1,0,0.1,0,0.2,0c0.2-0.1,0.5-0.2,0.7-0.3
						c0.1-0.1,0.3-0.1,0.4-0.2c-0.3,0-0.5-0.1-0.7-0.1C147.1,95.9,147,95.9,147,96.1z"/>
					<path class="st2" d="M143.9,95.7c-0.1-0.3-0.3-0.3-0.5-0.1c0.1,0.4,0.4,0.5,0.8,0.7c0-0.1,0-0.2,0.1-0.3
						C144.1,95.8,143.9,95.7,143.9,95.7z"/>
					<path class="st2" d="M150.5,95.8c-0.4-0.1-0.4,0.2-0.6,0.3c0.4,0,0.9,0,1.2,0c-0.1-0.1-0.3-0.3-0.4-0.4
						C150.7,95.7,150.6,95.8,150.5,95.8z"/>
					<path class="st2" d="M145.3,95.8c-0.1,0.1-0.2,0.1-0.3,0.3v0.1c0.3,0.1,0.6,0.1,0.9,0.1c-0.1-0.1-0.2-0.3-0.2-0.4
						C145.6,96.1,145.3,95.7,145.3,95.8z"/>
					<path class="st2" d="M163,92.4c-0.1,0-0.2,0.1-0.4,0.3c-0.1,0.1-0.1,0.1-0.1,0.2s0.1,0.1,0.1,0.2c0,0,0.1,0,0.1-0.1
						c0.1-0.1,0.3-0.3,0.4-0.5C163.2,92.6,163.1,92.4,163,92.4z"/>
					<path class="st2" d="M149.2,95.8c-0.1,0.1-0.2,0.1-0.4,0.1c-0.1,0-0.1,0-0.2,0.1c0,0,0,0.1,0,0.2c0.1,0.1,0.2,0.1,0.3,0.1
						c0.2,0,0.4-0.1,0.7-0.1C149.5,95.9,149.4,95.7,149.2,95.8z"/>
					<path class="st2" d="M130,88.2c0.1,0.2,0.1,0.5,0.4,0.6C130.5,88.3,130.4,88.2,130,88.2z"/>
					<path class="st2" d="M138,93.7c-0.1-0.1-0.4-0.1-0.5-0.2c0,0.1-0.1,0.1-0.1,0.1c0.1,0.1,0.3,0.2,0.4,0.4c0.1,0.1,0.2,0,0.3,0
						C138.1,93.9,138.1,93.8,138,93.7z"/>
					<path class="st2" d="M129.2,87.7L129.2,87.7c0.1,0.1,0.4,0.3,0.6,0.4c0-0.1,0-0.3-0.1-0.3C129.6,87.8,129.5,87.8,129.2,87.7z"
						/>
					<path class="st2" d="M154,95.5c0.1,0.1,0.1,0.3,0.2,0.4c0.1-0.1,0.1-0.1,0.2-0.1c-0.1-0.1-0.1-0.3-0.3-0.4
						C154.1,95.4,154.1,95.4,154,95.5z"/>
					<path class="st2" d="M161.9,93.1c0,0.1,0.1,0.3,0.1,0.5C162.2,93.4,162.2,93.4,161.9,93.1C162,93.1,162,93.1,161.9,93.1z"/>
					<path class="st2" d="M173.3,85.7c0-0.1,0-0.1,0-0.1V85.7C173,85.7,173.6,85.8,173.3,85.7z"/>
				</g>
			</g>
		</g>
	</g>
</g>
</svg>
