<?xml version="1.0" encoding="utf-8"?>
<!DOCTYPE svg PUBLIC "-//W3C//DTD SVG 1.1//EN" "http://www.w3.org/Graphics/SVG/1.1/DTD/svg11.dtd">
<svg version="1.1" xmlns="http://www.w3.org/2000/svg" xmlns:xlink="http://www.w3.org/1999/xlink" x="0px" y="0px"
	 width="52px" height="35px" viewBox="0 0 52 35" enable-background="new 0 0 52 35" xml:space="preserve">
<path fill="#FFFFFF" d="M25.541,24.006c0.106,0,0.192-0.086,0.192-0.192c0-0.004,0-0.007,0-0.012
	c-0.349-4.403-5.049-7.091-10.074-5.665c0,0.028,0,0.028,0,0.028l0,0c-0.066,0.021-0.112,0.077-0.117,0.146
	c0.002,0.102,0.08,0.186,0.181,0.197c4.74-0.454,8.503,3.141,9.679,5.375l0,0l0,0l0,0C25.426,23.943,25.478,23.989,25.541,24.006z"
	/>
<path fill="#FFFFFF" d="M26.646,23.906L26.646,23.906c1.163-2.228,4.915-5.816,9.655-5.374c0.107-0.004,0.192-0.092,0.192-0.198
	c-0.004-0.066-0.048-0.124-0.111-0.145c0,0,0,0,0-0.029c-5.031-1.426-9.736,1.262-10.085,5.665c-0.007,0.104,0.07,0.194,0.175,0.203
	c0.087,0,0.11-0.046,0.174-0.087l0,0V23.906z"/>
<path fill="#FFFFFF" d="M13.041,23.831L13.041,23.831c-0.066,0.041-0.104,0.115-0.099,0.192c0.002,0.096,0.083,0.172,0.179,0.169
	c0.006,0,0.013,0,0.02-0.001c5.968-1.116,10.086,1.623,12.709,4.904c0.036,0.012,0.066,0.031,0.093,0.058
	c0.021,0.005,0.043,0.005,0.064,0l0,0c0,0,0.052,0,0.075,0c0.032-0.025,0.067-0.045,0.104-0.058
	c2.606-3.281,6.73-6.021,12.692-4.904c0.096,0.01,0.182-0.06,0.191-0.155c0-0.005,0.001-0.009,0.001-0.013
	c0.003-0.08-0.041-0.155-0.11-0.192l0,0c-4.281-2.129-11.151-1.163-12.861,4.124c0,0-0.063,0.047-0.081,0.047
	c-0.031-0.003-0.06-0.02-0.076-0.047c-1.698-5.276-8.562-6.253-12.86-4.124H13.041z"/>
<path fill="#FFFFFF" d="M43.781,31.613L43.781,31.613c0,0,0.047,0.029,0.076,0.029c0.103,0.004,0.188-0.077,0.191-0.18
	c0-0.001,0-0.001,0-0.001c0-0.058,0-0.127-0.069-0.133l0,0c-7.864-6.072-15.979-2.386-17.84,2.354
	c-0.032,0.054-0.085,0.092-0.146,0.105c-0.041,0-0.087-0.053-0.157-0.105c-1.821-4.74-9.947-8.434-17.811-2.354l0,0
	c-0.064,0-0.087,0.075-0.087,0.133c0.011,0.098,0.089,0.174,0.187,0.181c0.036-0.004,0.071-0.014,0.104-0.029
	c8.725-3.489,14.919-0.162,17.596,3.321l0,0c0,0,0.041,0.053,0.075,0.059l0,0c0.024,0.01,0.052,0.01,0.076,0
	c0.027,0.006,0.055,0.006,0.082,0l0,0c0.027-0.016,0.053-0.036,0.076-0.059l0,0C28.867,31.451,35.068,28.136,43.781,31.613z"/>
<path fill="#FFFFFF" d="M18.712,12.918c-0.106,0-0.192,0.086-0.192,0.192c0,0.002,0,0.004,0,0.006c0,0.107,0.085,0.195,0.192,0.198
	c2.71,0.582,5.02,3.374,6.002,5.643l0,0c0.026,0.07,0.094,0.116,0.168,0.116c0.104,0,0.192-0.077,0.204-0.181
	C25.349,16.321,23.063,12.918,18.712,12.918z"/>
<path fill="#FFFFFF" d="M27.134,19.079c0.076-0.001,0.145-0.047,0.175-0.117l0,0c0.954-2.269,3.287-5.037,5.997-5.642
	c0.11,0,0.2-0.088,0.204-0.198c0-0.109-0.089-0.198-0.198-0.198c-0.002,0-0.004,0-0.006,0c-4.345,0-6.631,3.397-6.369,5.974
	c0.002,0.103,0.089,0.184,0.191,0.181C27.13,19.079,27.132,19.079,27.134,19.079z"/>
<path fill="#FFFFFF" d="M0.732,33.144c13.378-0.472,11.86-23.721,23.266-24.401c0.148,0.001,0.268-0.118,0.27-0.266
	c0-0.01,0-0.021-0.001-0.031c-0.002-0.135-0.114-0.242-0.249-0.239c-0.006,0-0.013,0-0.019,0.001
	C10.342,7.422,11.138,29.549,0.732,32.544c-0.161,0.003-0.291,0.132-0.297,0.291C0.438,32.999,0.568,33.134,0.732,33.144z"/>
<path fill="#FFFFFF" d="M28.042,8.742c11.377,0.681,9.888,23.93,23.231,24.401c0.162-0.006,0.291-0.141,0.291-0.303
	c0.003-0.157-0.122-0.288-0.279-0.291c-0.004,0-0.008,0-0.012,0C40.902,29.549,41.717,7.428,28.042,8.213
	c-0.175,0-0.291,0.093-0.291,0.238c-0.014,0.147,0.095,0.277,0.242,0.291C28.01,8.744,28.025,8.744,28.042,8.742z"/>
<path fill="#FFFFFF" d="M25.843,14.524c0,0.064,0.087,0.105,0.163,0.105c0.077,0.001,0.147-0.039,0.187-0.105l0,0
	c0.401-0.768,0.646-2.327,0.646-4.124c0-4.339-0.582-9.888-0.628-10.214C26.203,0.079,26.113-0.003,26.006,0
	c-0.098,0.006-0.175,0.087-0.174,0.186c-0.404,3.39-0.624,6.8-0.658,10.214C25.174,12.191,25.43,13.75,25.843,14.524z"/>
</svg>
