<?xml version="1.0" encoding="utf-8"?>
<!-- Generator: Adobe Illustrator 21.1.0, SVG Export Plug-In . SVG Version: 6.00 Build 0)  -->
<svg version="1.1" id="图层_1" xmlns="http://www.w3.org/2000/svg" xmlns:xlink="http://www.w3.org/1999/xlink" x="0px" y="0px"
	 viewBox="0 0 210 132" style="enable-background:new 0 0 210 132;" xml:space="preserve">
<style type="text/css">
	.st0{fill:#8B6E4A;}
	.st1{fill:#FFFFFF;}
	.st2{fill:#783CBD;}
	.st3{fill:#007934;}
	.st4{fill:#0075C9;}
	.st5{fill:#C2531A;}
</style>
<g>
	<g>
		<g>
			<path class="st0" d="M75.4,103.8c-0.2-0.1-1.1-0.1-1.3-0.1c-0.3,0-1.1,0-1.3,0.1l0-0.1c0.2-0.1,0.5-0.2,0.5-0.7c0-1,0-2,0-4.3H67
				c0,2.3,0,3.3,0.1,4.3c0,0.4,0.3,0.6,0.5,0.7l0,0.1c-0.2-0.1-1.1-0.1-1.3-0.1c-0.3,0-1.1,0-1.3,0.1v-0.1c0.2-0.1,0.5-0.2,0.5-0.7
				c0-1,0-2,0-4.5c0-2.4,0-3.5,0-4.5c0-0.4-0.3-0.6-0.5-0.7v-0.1c0.2,0.1,1.1,0.1,1.3,0.1c0.2,0,1.1,0,1.3-0.1l0,0.1
				c-0.2,0.1-0.5,0.2-0.5,0.7c-0.1,1-0.1,1.9-0.1,4h6.2c0-2.1,0-3.1,0-4c0-0.4-0.3-0.6-0.5-0.7l0-0.1c0.2,0.1,1.1,0.1,1.3,0.1
				c0.2,0,1.1,0,1.3-0.1l0,0.1c-0.2,0.1-0.5,0.2-0.5,0.7c0,1,0,2.1,0,4.5c0,2.4,0,3.5,0,4.5C74.9,103.5,75.2,103.7,75.4,103.8
				L75.4,103.8z"/>
			<path class="st0" d="M90.6,104.1c-3.1,0-5.8-2.1-5.8-5.5c0-3.3,2.7-5.5,5.8-5.5c3.1,0,5.7,2.2,5.7,5.5
				C96.4,101.9,93.7,104.1,90.6,104.1 M90.6,93.8c-2.1,0-4,1.8-4,4.8c0,3,1.9,4.8,4,4.8c2.1,0,4-1.8,4-4.8
				C94.6,95.6,92.8,93.8,90.6,93.8"/>
			<path class="st0" d="M113.7,95c-1.1-0.8-2.5-1.1-3.7-1.1v4.6c0,2.4,0,3.5,0,4.5c0,0.4,0.3,0.6,0.5,0.7l0,0.1
				c-0.2-0.1-1.1-0.1-1.3-0.1c-0.2,0-1.1,0-1.3,0.1l0-0.1c0.2-0.1,0.5-0.2,0.5-0.7c0-1,0-2,0-4.5v-4.6c-1.2,0-2.7,0.3-3.8,1.1
				l-0.1-0.1c0.1-0.2,0.5-1.4,0.5-1.5h8.3c0,0.1,0.4,1.3,0.5,1.5L113.7,95z"/>
			<path class="st0" d="M129.4,103.7h-5.8c-0.2,0-1.1,0-1.3,0.1v-0.1c0.2-0.1,0.5-0.2,0.5-0.7c0.1-1,0.1-2,0.1-4.5
				c0-2.4,0-3.5-0.1-4.5c0-0.4-0.3-0.6-0.5-0.7v-0.1c0.2,0.1,1.1,0.1,1.3,0.1h5.2c0,0.2,0.4,1.2,0.5,1.5l-0.1,0.1
				c-1.2-1.1-2.9-1.3-4.8-1.1c0,1.5,0,2.1,0,4.3c3.1,0,3.5-0.2,3.7-0.8l0.1,0c0,0.4,0,0.6,0,1c0,0.4,0,0.7,0,1l-0.1,0
				c-0.2-0.7-0.6-0.8-3.7-0.8v0c0,2.4,0,3.5,0,4.5c2.2,0,4.2-0.1,5.5-1l0.1,0.1C130,102.5,129.4,103.6,129.4,103.7"/>
			<path class="st0" d="M145.7,103.7h-5.8c-0.2,0-1.1,0-1.3,0.1v-0.1c0.2-0.1,0.5-0.2,0.5-0.7c0-1,0-2,0-4.5c0-2.4,0-3.5,0-4.5
				c0-0.4-0.3-0.6-0.5-0.7v-0.1c0.2,0.1,1.1,0.1,1.3,0.1c0.3,0,1.1,0,1.3-0.1l0,0.1c-0.2,0.1-0.5,0.2-0.5,0.7c0,1,0,2.1,0,4.5
				c0,2.4,0,3.6,0,4.7c2.2,0,4.2-0.1,5.5-1l0.1,0.1C146.3,102.5,145.7,103.6,145.7,103.7"/>
		</g>
		<g>
			<path class="st0" d="M81.2,114.3l-0.3,0.3c1.3,1.3,2.5,2.6,2.9,3.9l1.3-1.9C84,115.1,81.2,114.3,81.2,114.3 M80.9,119.4l-0.2,0.3
				c1.5,1.3,2.4,2.7,2.9,3.5l1.4-1.5C83.8,119.9,80.9,119.4,80.9,119.4 M85.4,114.7v1h9.2v9.9c0,1.8-1.2,3.9-4.8,3.9
				c0.7,0.4,1.3,1,1.6,1.4c2.1,0,5-1.8,5-5.1v-10.2h1.3v-1H85.4z M92.8,118.2h-6.2v7.6h6.2V118.2z M90.9,125h-2.5v-6h2.5V125z
				 M84.5,123.5c0,0.4-1.8,4.2-3.4,5.2l1.4,2.2c2.6-3.2,2.3-6.8,2.3-7.4H84.5z"/>
			<path class="st0" d="M114.6,114.3l-0.3,0.3c1.3,1.3,2.5,2.6,2.9,3.9l1.3-1.9C117.4,115.1,114.6,114.3,114.6,114.3 M114.3,119.4
				l-0.2,0.3c1.5,1.3,2.4,2.7,2.8,3.5l1.4-1.5C117.2,119.9,114.3,119.4,114.3,119.4 M131,115.8v-1h-12.4v1h3.8v2.4h-3.2v12.5h11.1
				v-12.5h-3.1v-2.4H131z M124.3,115.8h1.1v2.4h-1.1V115.8z M121.1,119.2h1.4c-0.1,2.9-0.6,4.6-1.4,5.9V119.2z M128.5,129.6h-7.4
				v-1.8h7.4V129.6z M128.5,126.7h-7.4V126c1.9-1.9,3.2-3.8,3.2-6.8h1.1v5.6h3.1V126.7z M128.5,123.7h-1.3v-4.5h1.3V123.7z
				 M117.9,123.5c0,0.4-1.8,4.2-3.4,5.2l1.4,2.2c2.6-3.2,2.3-6.8,2.3-7.4H117.9z"/>
			<path class="st0" d="M53.5,118.7l1.2-1.2c-1-1-2.2-1.9-2.6-2.2c0.1-0.3,0.3-0.7,0.3-1h-2.3c-0.6,2.5-1.4,4.4-3.1,6.6l0.2,0.3
				c0.5-0.4,1-0.8,1.5-1.2h1.3v1.7h-2.6v1h2.6v5.3c-1.2,0.3-2.2,0.6-2.6,0.6l0.9,2.1c2.7-1.5,5.4-3.3,6.2-4.1l-0.2-0.2
				c-0.6,0.3-1.5,0.7-2.4,1v-1.1c1.8-1.4,2.4-2.9,2.4-2.9l-1.5-0.4c-0.1,0.7-0.4,1.5-0.9,2.4v-2.7h2.2v-1h-2.2V120h1.9v-1h-4
				c0.9-1.1,1.6-2.2,2.1-3.1C52.5,116.6,53.3,118.1,53.5,118.7 M47.8,123.5l-0.2,0c0.8,1.7,0.9,2.7,1.1,4.1l1.3-0.9
				C49.5,124.7,47.8,123.5,47.8,123.5 M60.3,125.6c1-0.3,2.7-1.6,3.2-2.7l-1.9-0.8c-0.3,1.4-1.1,2.5-1.6,3c0,0-0.1,0.1-0.1,0.1
				c-0.9-1.2-1.4-2.4-1.6-3.4h4.2v-7.2h-7.6v14.2l0.9,2c0.8-0.6,3.1-2.7,3.7-3.4l-0.2-0.2c-0.8,0.3-1.7,0.7-2.6,1v-6.5h0.9
				c0.4,2.6,1.5,6.5,5.7,8.6c0-0.7,0.8-1.4,1.4-1.8C62.7,128,61.3,126.8,60.3,125.6 M56.7,115.7h3.9v2h-3.9V115.7z M56.7,118.7h3.9
				v2.1h-3.9V118.7z"/>
			<path class="st0" d="M158.2,118.1h-1.9v5.8h-4.2v6.8h10.8v-6.8h-4.7v-2.4h5.5v-1h-5.5V118.1z M161,129.6h-7.1v-4.7h7.1V129.6z
				 M157.7,116.4l0.4-0.7c-0.9-1.4-3.3-2-3.3-2l-0.3,0.3c0.8,0.8,1.5,1.6,2,2.4h-5.3l0,0h-1.9v5.9c0,4.2-1,6.5-2.3,8.1l0.3,0.3
				c2.3-1.7,3.9-4.9,3.9-8.4v-4.9h13v-1H157.7z"/>
		</g>
		<path class="st1" d="M104.8,32.8L104.8,32.8L104.8,32.8z"/>
		<path class="st2" d="M105,32.9c0.1,0,0.3-0.1,0.3-0.3c-0.5-6.1-6.9-9.7-13.8-7.8c0,0,0,0,0,0l0,0c-0.1,0-0.1,0.1-0.1,0.2
			c0,0.2,0.1,0.3,0.3,0.3c6.5-0.6,11.6,4.3,13.2,7.4c0,0,0,0,0,0c0,0,0,0,0,0l0,0C104.9,32.8,105,32.9,105,32.9z"/>
		<path class="st2" d="M106.5,32.8C106.5,32.7,106.5,32.7,106.5,32.8c1.6-3.1,6.8-8,13.3-7.4c0.1,0,0.3-0.1,0.3-0.3
			c0-0.1-0.1-0.2-0.2-0.2h0c-6.9-2-13.3,1.7-13.8,7.8c0,0.1,0.1,0.3,0.3,0.3C106.4,32.9,106.5,32.8,106.5,32.8L106.5,32.8
			C106.5,32.8,106.5,32.8,106.5,32.8z"/>
		<path class="st3" d="M87.9,32.7L87.9,32.7c-0.1,0-0.2,0.1-0.2,0.2c0,0.1,0.1,0.3,0.3,0.3c8.2-1.6,13.8,2.2,17.4,6.7
			c0,0,0.1,0.1,0.1,0.1c0,0,0.1,0,0.1,0l0,0l0,0c0,0,0.1,0,0.1,0c0,0,0.1-0.1,0.1-0.1c3.6-4.5,9.2-8.2,17.4-6.7
			c0.1,0,0.3-0.1,0.3-0.3c0-0.1,0-0.2-0.1-0.2l0,0l0,0c-5.9-2.9-15.3-1.6-17.6,5.6c0,0-0.1,0.1-0.1,0.1c0,0-0.1,0-0.1-0.1
			C103.2,31.1,93.8,29.8,87.9,32.7L87.9,32.7z"/>
		<path class="st4" d="M130,43.3L130,43.3c0,0,0.1,0,0.1,0c0.2,0,0.3-0.1,0.3-0.3c0-0.1,0-0.1-0.1-0.2v0
			c-10.8-8.3-21.9-3.3-24.4,3.2c0,0.1-0.1,0.1-0.2,0.1c-0.1,0-0.1-0.1-0.2-0.1c-2.5-6.5-13.7-11.5-24.4-3.2v0
			c-0.1,0-0.1,0.1-0.1,0.2c0,0.1,0.1,0.3,0.3,0.3c0.1,0,0.1,0,0.1,0c12-4.8,20.4-0.2,24.1,4.5l0,0c0,0,0.1,0.1,0.1,0.1c0,0,0,0,0,0
			c0,0,0.1,0,0.1,0c0,0,0.1,0,0.1,0l0,0c0,0,0.1-0.1,0.1-0.1l0,0C109.6,43.1,118.1,38.5,130,43.3z"/>
		<path class="st1" d="M105.4,47.9L105.4,47.9L105.4,47.9z"/>
		<path class="st1" d="M105.9,47.9L105.9,47.9L105.9,47.9z"/>
		<path class="st5" d="M95.6,17.7c-0.1,0-0.3,0.1-0.3,0.3c0,0.1,0.1,0.3,0.3,0.3c3.7,0.8,6.9,4.6,8.2,7.8l0,0c0,0,0,0,0,0l0,0
			c0.1,0.1,0.1,0.2,0.3,0.2c0.1,0,0.2-0.1,0.2-0.3C104.8,22.4,101.6,17.7,95.6,17.7z"/>
		<path class="st5" d="M107.2,26.1c0.1,0,0.2-0.1,0.2-0.2l0,0c0,0,0,0,0,0l0,0c1.3-3.1,4.5-6.9,8.2-7.8c0.1,0,0.3-0.1,0.3-0.3
			c0-0.1-0.1-0.3-0.3-0.3c-6,0-9.1,4.7-8.7,8.2C106.9,26,107,26.1,107.2,26.1z"/>
		<path class="st0" d="M71,45.4c18.3-0.6,16.2-32.5,31.8-33.4c0.2,0,0.4-0.2,0.4-0.4c0-0.2-0.2-0.4-0.4-0.4
			C84.2,10.2,85.2,40.5,71,44.6c-0.2,0-0.4,0.2-0.4,0.4C70.6,45.2,70.8,45.4,71,45.4z"/>
		<path class="st0" d="M108.4,12c15.6,0.9,13.5,32.8,31.8,33.4c0.2,0,0.4-0.2,0.4-0.4c0-0.2-0.2-0.4-0.4-0.4
			c-14.2-4.2-13.1-34.5-31.8-33.4c-0.2,0-0.4,0.2-0.4,0.4C108.1,11.8,108.2,12,108.4,12z"/>
		<path class="st0" d="M105.4,19.9c0,0.1,0.1,0.2,0.2,0.2c0.1,0,0.2-0.1,0.2-0.2l0,0c0.6-1.1,0.9-3.2,0.9-5.7c0-5.9-0.8-13.5-0.9-14
			c0-0.1-0.1-0.3-0.3-0.3c-0.1,0-0.3,0.1-0.3,0.3c-0.1,0.5-0.9,8.1-0.9,14C104.5,16.7,104.9,18.8,105.4,19.9L105.4,19.9z"/>
		<polygon class="st0" points="183.2,55.5 184.8,55.5 184.8,59.9 186.1,59.9 186.1,55.5 187.6,55.5 187.6,54.4 183.2,54.4 		"/>
		<polygon class="st0" points="193.1,54.4 191.8,57.8 190.6,54.4 188.7,54.4 188.7,59.9 190,59.9 190,56 190,56 191.3,59.9 
			192.3,59.9 193.7,56 193.7,56 193.7,59.9 195,59.9 195,54.4 		"/>
		<path class="st0" d="M133.8,79.9L133.8,79.9c-4.4-1.5-11.9-19.1-14.6-25.5l0,0c0-0.1-0.1-0.2-0.2-0.2c-0.1,0-0.2,0.1-0.2,0.2l0,0
			c-2.5,6.9-9.4,23.7-13.7,25.5v0c-0.1,0-0.2,0.1-0.2,0.3c0,0.1,0.1,0.3,0.3,0.3h5.7c0.1,0,0.2-0.1,0.2-0.3c0-0.1-0.1-0.2-0.1-0.2
			c0,0,0,0,0,0c-1.1-0.8-0.5-2,0.2-3.3c0.5-1,1.1-2.1,1.7-3.3h10.6c0.9,1.7,1.6,3,1.8,3.4c0.7,1.3,0.3,2.6-0.6,3.1c0,0,0,0,0,0
			c-0.1,0-0.2,0.1-0.2,0.2c0,0.1,0.1,0.3,0.3,0.3h9.1c0.1,0,0.3-0.1,0.3-0.3C134,80,134,79.9,133.8,79.9z M113.7,71.6
			c1.8-3.5,3.6-7.3,4.3-9.4c0.7,2,2.7,6,4.5,9.4H113.7z"/>
		<path class="st0" d="M53.9,80.4h5.7c0.1,0,0.3-0.1,0.3-0.3c0-0.1-0.1-0.2-0.1-0.2c0,0,0,0,0,0c-1.1-0.8-0.5-2,0.2-3.3
			c0.5-1,1-2.1,1.7-3.3h10.6c0.9,1.7,1.6,3,1.9,3.4c0.7,1.3,0.3,2.6-0.6,3.1c0,0,0,0,0,0c-0.1,0-0.2,0.1-0.2,0.2
			c0,0.1,0.1,0.3,0.3,0.3h9c0.1,0,0.3-0.1,0.3-0.3c0-0.1-0.1-0.2-0.2-0.2l0,0C78.3,78.4,70.7,60.9,68,54.4l0,0
			c0-0.1-0.1-0.2-0.3-0.2c-0.1,0-0.2,0.1-0.2,0.2l0,0c-2.5,6.9-9.4,23.7-13.7,25.5v0c-0.1,0-0.2,0.1-0.2,0.3
			C53.6,80.3,53.7,80.4,53.9,80.4z M66.8,62.2c0.7,2,2.7,6,4.5,9.4h-8.8C64.2,68.1,66,64.3,66.8,62.2z"/>
		<path class="st0" d="M51.5,77.8c-0.5-2.1-0.7-7.4-0.5-8.5c0.3-1.1,0.3-2.1,2.3-2.6c0,0,0.2-0.1,0.2-0.3c0-0.1-0.1-0.3-0.3-0.3
			H43.1c-0.1,0-0.3,0.1-0.3,0.3c0,0.2,0.2,0.3,0.2,0.3c1.9,0.5,3.2,1.5,3.5,3.4c0.3,1.9,0.1,7.3-0.8,8.2c-1,1-3.2,1.9-6.8,1.9
			c-6.9,0-13.8-5.1-13.8-15.7c0-11.2,7.8-14.9,12.9-14.9c4.7,0,10.2,1.8,12.8,9c0,0.1,0.1,0.3,0.3,0.3c0.1,0,0.3-0.1,0.3-0.3
			c0-0.4,0.2-1.9,0-4.2c-0.2-2.9-5.6-6.4-13.6-6.4c-11.1,0-17.8,7.9-17.8,17c0,7.5,5.9,16.7,18.5,16.7
			C47.2,81.7,51.7,78.5,51.5,77.8z"/>
		<path class="st0" d="M104.8,74.8c-0.1,0-0.2,0.1-0.2,0.1c-2.3,3.8-6.7,3.7-9.8,3.7c-1.2,0-3-0.8-3.2-2.6c-0.2-1.8-0.1-15.9,0-17.9
			c0.1-2,1.3-2.7,2.2-3.1c0.1,0,0.3-0.1,0.3-0.3c0-0.1-0.1-0.2-0.3-0.2h-9c-0.1,0-0.3,0.1-0.3,0.2c0,0.1,0.1,0.2,0.2,0.3l0,0
			c1.9,0.4,2.6,2.1,2.8,3.4c0.2,1.2,0.2,15.3,0.1,18c-0.1,2.7-2,3.4-2.8,3.6l0,0c-0.1,0-0.2,0.1-0.2,0.2c0,0.1,0.1,0.3,0.3,0.3h18.1
			c0.7-0.2,2-4.3,2.2-5.3c0,0,0,0,0-0.1C105,74.9,104.9,74.8,104.8,74.8z"/>
		<path class="st0" d="M180.6,79.9c-2.2-1.1-2.9-1.8-3.1-3.6c-0.3-2.7-0.6-6.8,0-11.6c1.4-7.3,5.5-15.3,13.4-16l0,0
			c0.1,0,0.3-0.1,0.3-0.3c0-0.1-0.1-0.2-0.2-0.2c-6.9-1.6-13.3,5.8-15.3,12.9c-2.9-9.4-10.8-14.6-17.3-12.8
			c-0.1,0.1-0.1,0.1-0.1,0.3c0,0.1,0.1,0.3,0.2,0.3c6.5,0.2,12.3,7.2,13.6,15.9c0.7,5,0.7,8.2,0.3,11.5c-0.3,2.1-1.4,2.8-3.5,3.7
			l0,0c-0.1,0-0.2,0.1-0.2,0.2c0,0.1,0.1,0.3,0.3,0.3h11.6c0,0,0,0,0,0c0.1,0,0.2-0.1,0.2-0.3C180.9,79.9,180.6,79.9,180.6,79.9z"/>
		<path class="st0" d="M143.8,80.1c0-0.1-0.1-0.2-0.3-0.3c-0.4-0.2-1.9-1-1.1-2.5c0.3-0.7,2.6-3.9,5.3-7.6c2.1,3.2,4,6,4.2,6.4
			c1.4,2.2,0,3.3-0.5,3.7c-0.1,0-0.2,0.1-0.2,0.2c0,0.2,0.1,0.3,0.3,0.3h10.7c0,0,0.1,0,0.1,0c0.1,0,0.2-0.1,0.2-0.3
			c0-0.1-0.1-0.2-0.2-0.2c-1.3-0.6-3.3-1.7-4.9-3.3c-1.9-1.9-4.9-6.2-7.4-9.9c2.9-3.9,5.7-7.5,6.7-8.6c1.9-2.1,3.3-2.8,4.6-3.1
			c0,0,0,0,0,0v0c0,0,0,0,0,0c0.1,0,0.2-0.1,0.2-0.2c0-0.1-0.1-0.2-0.2-0.3l0,0h0l0,0l0,0H153v0c0,0,0,0,0,0l0,0l0,0
			c-0.1,0-0.2,0.1-0.2,0.3c0,0.1,0.1,0.2,0.2,0.2c0,0,0,0,0,0s0,0,0,0c0,0,0,0,0,0c1,0.4,2.1,1.4,0,4.6c-0.7,1-2.1,3-3.9,5.6
			c-1.4-2.2-2.6-4-2.9-4.7c-1.5-2.6-2-4.7-0.6-5.5c0.1,0,0.2-0.1,0.2-0.3c0-0.1-0.1-0.3-0.3-0.3c0,0,0,0,0,0h-9.6c0,0,0,0,0,0l0,0
			l0,0l0,0c-0.2,0-0.3,0.1-0.3,0.3c0,0.1,0.1,0.2,0.2,0.2l0,0l0,0c0,0,0,0,0,0c1.7,0.6,3.6,2.2,5.4,4.9c0.5,0.7,3,4.5,5.5,8.3
			c-1.7,2.3-3.7,4.9-5.7,7.4c-1.9,2.4-4.3,3.8-5.8,4.2h0c0,0,0,0,0,0c0,0,0,0,0,0c-0.1,0-0.2,0.1-0.2,0.2c0,0.1,0.1,0.2,0.2,0.3l0,0
			h8.3C143.7,80.4,143.8,80.3,143.8,80.1z"/>
	</g>
</g>
</svg>
