<?xml version="1.0" encoding="utf-8"?>
<!-- Generator: Adobe Illustrator 21.1.0, SVG Export Plug-In . SVG Version: 6.00 Build 0)  -->
<svg version="1.1" id="图层_1" xmlns="http://www.w3.org/2000/svg" xmlns:xlink="http://www.w3.org/1999/xlink" x="0px" y="0px"
	 viewBox="0 0 210 210" style="enable-background:new 0 0 210 210;" xml:space="preserve">
<style type="text/css">
	.st0{fill:#A37C3C;}
</style>
<g>
	<path class="st0" d="M112.2,0.1L112.2,0.1L104.6,0H70.8v129.7h7.4V7.4H84v122.2h7.4V7.4h5.8v122.2h7.4V7.4h7.6v0
		c14.8,0,26.8,12,26.8,26.8c0,14.8-12,26.8-26.8,26.8v7.3c18.8,0,34.1-15.3,34.1-34.1C146.3,15.3,131,0.1,112.2,0.1z"/>
	<g>
		<g>
			<path class="st0" d="M24.7,155.3l-0.9,0.7c1.3,1.2,2.3,2.4,3,3.7l1-0.7C27,157.7,25.9,156.4,24.7,155.3z"/>
			<path class="st0" d="M26.8,160.1l-0.1-0.2c-0.7-1.3-1.7-2.5-3-3.7l-0.2-0.2l1.2-0.9l0.1,0.1c1.2,1.1,2.3,2.3,3.2,3.7l0.1,0.2
				L26.8,160.1z M24.2,156c1.1,1.1,2,2.2,2.7,3.4l0.6-0.5c-0.8-1.3-1.7-2.3-2.8-3.3L24.2,156z"/>
		</g>
		<g>
			<path class="st0" d="M31.6,151.1h-1.1v1.9h-9.2v1h9.2v6.9c0,0.8-0.3,1.3-1,1.3c-0.8,0-1.6-0.2-2.5-0.5l0.2,1.2
				c0.7,0.2,1.5,0.4,2.3,0.4c1.4,0,2.1-0.8,2.1-2.3v-7h3.8v-1h-3.8V151.1z"/>
			<path class="st0" d="M29.5,163.5c-0.9,0-1.7-0.1-2.4-0.4l-0.1,0l-0.2-1.7l0.3,0.1c0.9,0.3,1.7,0.5,2.4,0.5c0.3,0,0.8-0.1,0.8-1.1
				v-6.7h-9.2v-1.4h9.2v-1.9h1.5v1.9h3.7v1.4h-3.7v6.8C31.8,162.6,31,163.5,29.5,163.5z M27.3,162.7c0.7,0.2,1.4,0.3,2.1,0.3
				c1.3,0,1.9-0.7,1.9-2.1v-7.2h3.7v-0.5h-3.7v-1.9h-0.6v1.9h-9.2v0.5h9.2v7.2c0,1.3-0.8,1.5-1.3,1.5c-0.7,0-1.4-0.1-2.2-0.4
				L27.3,162.7z"/>
		</g>
		<g>
			<path class="st0" d="M13.7,160.2h1.1v-2.4h4.1v1.8H20V143h-6.2V160.2z M14.8,144h4.1v5.8h-4.1V144z M14.8,150.7h4.1v6.1h-4.1
				V150.7z"/>
			<path class="st0" d="M15,160.4h-1.5v-17.6h6.7v17h-1.5V158H15V160.4z M13.9,160h0.6v-2.4h4.6v1.7h0.6v-16.1h-5.8V160z M19.1,157
				h-4.6v-6.5h4.6V157z M15,156.6h3.6V151H15V156.6z M19.1,150h-4.6v-6.2h4.6V150z M15,149.5h3.6v-5.3H15V149.5z"/>
		</g>
		<g>
			<polygon class="st0" points="27.3,148.8 22.2,148.8 22.2,149.8 34.2,149.8 34.2,148.8 28.4,148.8 28.4,145.3 35,145.3 35,144.3 
				28.4,144.3 28.4,140.8 27.3,140.8 27.3,144.3 21.3,144.3 21.3,145.3 27.3,145.3 			"/>
			<path class="st0" d="M34.4,150H21.9v-1.4h5.1v-3h-6v-1.4h6v-3.5h1.5v3.5h6.7v1.4h-6.7v3h5.8V150z M22.4,149.5h11.6V149h-5.8v-4
				h6.7v-0.5h-6.7V141h-0.6v3.5h-6v0.5h6v4h-5.1V149.5z"/>
		</g>
		<g>
			<path class="st0" d="M55.2,159.9v-7.5h-8.9v7.7h1.2v-1.4H54v1.2H55.2z M47.5,157.6v-4.1H54v4.1H47.5z"/>
			<path class="st0" d="M47.7,160.3h-1.6v-8.1h9.4v7.9h-1.6v-1.2h-6.1V160.3z M46.5,159.9h0.7v-1.4h7v1.2H55v-7h-8.5V159.9z
				 M54.2,157.9h-7v-4.6h7V157.9z M47.7,157.4h6.1v-3.6h-6.1V157.4z"/>
		</g>
		<g>
			<path class="st0" d="M59.9,142.1l-1-0.5c-1.2,2.1-2.1,3.4-4,5.1l0.9,0.8C57.7,145.7,58.6,144.3,59.9,142.1z"/>
			<path class="st0" d="M55.7,147.7l-1.2-1.1l0.2-0.2c1.8-1.6,2.8-2.9,4-5l0.1-0.2l1.4,0.7l-0.1,0.2c-1.2,2.2-2.2,3.6-4.2,5.4
				L55.7,147.7z M55.2,146.7l0.5,0.5c1.8-1.7,2.7-2.9,3.8-4.9l-0.6-0.3C57.8,143.9,57,145.1,55.2,146.7z"/>
		</g>
		<g>
			<path class="st0" d="M51.2,140.6H50v8h-8.8v15.1h1.2v-14h16.7v11.5c0,0.7-0.3,1.1-1,1.1c-0.9,0-2-0.2-3.2-0.5l0.1,1.2
				c1.2,0.2,2.2,0.4,3.1,0.4c1.4,0,2.1-0.7,2.1-2v-12.7h-9.1V140.6z"/>
			<path class="st0" d="M42.6,163.9H41v-15.6h8.8v-8h1.6v8h9.1v13c0,1.4-0.8,2.2-2.4,2.2c-0.9,0-2-0.1-3.2-0.4l-0.2,0l-0.1-1.7
				l0.3,0.1c1.2,0.3,2.3,0.5,3.2,0.5c0.5,0,0.7-0.3,0.7-0.9v-11.3H42.6V163.9z M41.4,163.4h0.7v-14h17.2v11.7c0,0.8-0.4,1.3-1.2,1.3
				c-0.8,0-1.8-0.2-3-0.4l0.1,0.7c1.1,0.2,2.1,0.3,2.9,0.3c1.3,0,1.9-0.6,1.9-1.7v-12.5H51v-8h-0.7v8h-8.8V163.4z"/>
		</g>
		<g>
			<path class="st0" d="M46,147.2l1-0.7c-1.2-1.8-2.6-3-4.4-4.5l-0.9,0.7C43.6,144.2,44.9,145.5,46,147.2z"/>
			<path class="st0" d="M46,147.5l-0.1-0.2c-1.1-1.7-2.4-3-4.3-4.5l-0.2-0.2l1.2-0.9l0.1,0.1c1.9,1.5,3.2,2.8,4.5,4.6l0.1,0.2
				L46,147.5z M42.1,142.6c1.8,1.5,2.9,2.6,4,4.3l0.6-0.4c-1.2-1.6-2.4-2.8-4.1-4.2L42.1,142.6z"/>
		</g>
		<g>
			<path class="st0" d="M77.2,159.6v-0.9h11.2v-1h-5.6V155h4.5v-1h-4.5v-2.5h4.5v-1h-4.5v-2.5h5.1v-1H77.3c0.4-0.9,0.8-2.1,1.3-3.5
				l-1.1-0.4c-0.4,1.5-1,3-1.7,4.6c-0.6,1.4-1.4,2.7-2.2,3.9l0.8,0.6c0.6-0.9,1.2-1.8,1.7-2.9v10.1H77.2z M77.2,148.1h4.5v2.5h-4.5
				V148.1z M77.2,151.5h4.5v2.5h-4.5V151.5z M77.2,155h4.5v2.7h-4.5V155z"/>
			<path class="st0" d="M77.5,159.9h-1.5v-9.4c-0.4,0.7-0.9,1.4-1.3,2.1l-0.1,0.2l-1.2-0.9l0.1-0.2c0.8-1.2,1.5-2.5,2.2-3.9
				c0.7-1.6,1.3-3.1,1.7-4.5l0.1-0.2l1.5,0.5l-0.1,0.2c-0.4,1.2-0.8,2.3-1.2,3.2h10.5v1.4H83v2h4.5v1.4H83v2.1h4.5v1.4H83v2.3h5.6
				v1.4H77.5V159.9z M76.4,159.4H77v-0.9h11.2V158h-5.6v-3.2H87v-0.5h-4.5v-3H87v-0.5h-4.5v-2.9h5.1v-0.5H76.9l0.1-0.3
				c0.4-0.9,0.8-2,1.2-3.2l-0.6-0.2c-0.4,1.4-0.9,2.9-1.7,4.4c-0.6,1.3-1.3,2.6-2.1,3.8l0.5,0.4c0.5-0.8,1.1-1.7,1.6-2.6l0.4-0.8
				V159.4z M82,158h-5v-3.2h5V158z M77.5,157.6h4v-2.3h-4V157.6z M82,154.3h-5v-3h5V154.3z M77.5,153.8h4v-2.1h-4V153.8z M82,150.8
				h-5v-2.9h5V150.8z M77.5,150.3h4v-2h-4V150.3z"/>
		</g>
		<g>
			<path class="st0" d="M71.6,159.8l-1.4-1l0.1-0.2c1-1.5,1.5-2.3,2.3-4.7l0.1-0.3l1.3,0.9l-0.1,0.2c-0.7,2.3-1.3,3.6-2.3,4.9
				L71.6,159.8z"/>
		</g>
		<g>
			<polygon class="st0" points="69,142.8 88.7,142.8 88.7,141.7 67.8,141.7 67.8,163.6 69,163.6 69,162.1 88.9,162.1 88.9,161 
				69,161 			"/>
			<path class="st0" d="M69.2,163.9h-1.6v-22.4h21.4v1.5H69.2v17.8h19.9v1.5H69.2V163.9z M68,163.4h0.7v-1.5h19.9v-0.6H68.7v-18.7
				h19.7v-0.6H68V163.4z"/>
		</g>
		<g>
			<path class="st0" d="M82.2,146.4c-0.5-1-0.7-1.2-1.5-2l1.2-1c0.8,0.9,1.1,1.1,1.7,2.1L82.2,146.4z"/>
		</g>
		<g>
			<path class="st0" d="M72.5,151.2c-1-1.1-1.9-1.9-2.5-2.3l0.9-1.1c1,0.7,1.8,1.2,2.6,2.2L72.5,151.2z"/>
		</g>
		<g>
			<path class="st0" d="M73.7,147.2c-1.1-1.1-2-1.7-2.7-2.1l0.9-1.2c1.1,0.6,1.8,1.1,2.7,2L73.7,147.2z"/>
		</g>
		<g>
			<path class="st0" d="M93.8,163.9l-1.2-1.1l0.1-0.2c1.1-1.4,1.9-2.7,2.6-4.6l1.4,0.7c-0.7,1.9-1.5,3.3-2.8,4.9L93.8,163.9z"/>
		</g>
		<g>
			<path class="st0" d="M100.3,142h-5.9v15h5.9V142z M99.2,156h-3.7v-3.7h3.7V156z M99.2,151.3h-3.7v-3.7h3.7V151.3z M99.2,146.6
				h-3.7v-3.7h3.7V146.6z"/>
			<path class="st0" d="M100.5,157.2h-6.3v-15.5h6.3V157.2z M94.7,156.8h5.4v-14.6h-5.4V156.8z M99.5,156.2h-4.2v-4.2h4.2V156.2z
				 M95.8,155.8H99v-3.2h-3.3V155.8z M99.5,151.6h-4.2v-4.2h4.2V151.6z M95.8,151.1H99v-3.3h-3.3V151.1z M99.5,146.9h-4.2v-4.2h4.2
				V146.9z M95.8,146.4H99v-3.3h-3.3V146.4z"/>
		</g>
		<g>
			<path class="st0" d="M113.5,151.3h-4.8v-1.7h6.7v-1H111v-2.1h3.2v-1H111V144h4v-1h-4v-2.4h-1.1v2.4h-3.5v-2.4h-1.1v2.4H102v1h3.4
				v1.6h-2.8v1h2.8v2.1h-4.1v1h6.3v1.7H103v6.5h-1.9v1h1.9v4.9h1.1v-4.9h8.4v2.5c0,0.7-0.2,1-0.5,1c-0.7,0-1.4-0.1-2.3-0.2l0.1,1.1
				c0.8,0.1,1.5,0.1,2.1,0.1c1.1,0,1.6-0.6,1.6-1.8v-2.7h2.1v-1h-2.1V151.3z M107.6,157.8h-3.5v-2.3h3.5V157.8z M107.6,154.5h-3.5
				v-2.2h3.5V154.5z M106.5,144h3.5v1.6h-3.5V144z M106.5,148.7v-2.1h3.5v2.1H106.5z M112.5,157.8h-3.7v-2.3h3.7V157.8z
				 M112.5,154.5h-3.7v-2.2h3.7V154.5z"/>
			<path class="st0" d="M104.3,163.9h-1.5V159h-1.9v-1.4h1.9v-6.5h4.6v-1.2h-6.3v-1.4h4.1v-1.6h-2.8v-1.4h2.8v-1.2h-3.4v-1.4h3.4
				v-2.4h1.5v2.4h3v-2.4h1.5v2.4h4v1.4h-4v1.2h3.2v1.4h-3.2v1.6h4.5v1.4h-6.7v1.2h4.8v6.5h2.1v1.4h-2.1v2.4c0,1.3-0.6,2-1.8,2
				c-0.6,0-1.2,0-1.9-0.1l-0.5,0l-0.1-1.6l0.3,0.1c0.8,0.1,1.6,0.2,2.2,0.2c0.2,0,0.3-0.3,0.3-0.7V159h-7.9V163.9z M103.3,163.4h0.6
				v-4.9h8.8v2.8c0,1-0.4,1.2-0.8,1.2c-0.6,0-1.3-0.1-2-0.2l0.1,0.6l0.1,0c0.7,0,1.3,0.1,1.9,0.1c0.9,0,1.4-0.5,1.4-1.6v-2.9h2.1
				V158h-2.1v-6.5h-4.8v-2.1h6.7v-0.5h-4.5v-2.5h3.2v-0.5h-3.2v-2.1h4v-0.5h-4v-2.4h-0.6v2.4h-3.9v-2.4h-0.6v2.4h-3.4v0.5h3.4v2.1
				h-2.8v0.5h2.8v2.5h-4.1v0.5h6.3v2.1h-4.6v6.5h-1.9v0.5h1.9V163.4z M112.7,158h-4.2v-2.8h4.2V158z M108.9,157.6h3.3v-1.9h-3.3
				V157.6z M107.9,158h-4v-2.8h4V158z M104.3,157.6h3.1v-1.9h-3.1V157.6z M112.7,154.7h-4.2v-2.6h4.2V154.7z M108.9,154.2h3.3v-1.7
				h-3.3V154.2z M107.9,154.7h-4v-2.6h4V154.7z M104.3,154.2h3.1v-1.7h-3.1V154.2z M110.2,148.9h-3.9v-2.5h3.9V148.9z M106.7,148.5
				h3v-1.6h-3V148.5z M110.2,145.9h-3.9v-2.1h3.9V145.9z M106.7,145.4h3v-1.2h-3V145.4z"/>
		</g>
		<g>
			<path class="st0" d="M100.2,163.3l-0.1-0.3c-0.6-1.6-1.2-2.7-2.3-4.2l1.2-0.9c1.1,1.5,1.7,2.6,2.4,4.2l0.1,0.2L100.2,163.3z"/>
		</g>
		<g>
			<path class="st0" d="M137.5,163.5c-1.1,0-2.4-0.2-3.8-0.7l-0.1,0l-0.2-1.6l0.3,0.1c1.5,0.5,2.8,0.7,3.8,0.7c0.5,0,1-0.1,1.2-0.4
				c0.3-0.3,0.6-1,0.9-2.2c0.6-4.3,0.9-8.8,1-13.5h-1.4c-0.5,3.3-1.4,6.3-2.8,9c-1.7,3-3.9,5.6-6.5,7.7l-0.2,0.1l-1.2-1.3l0.2-0.2
				c2.5-1.9,4.5-4.3,6.2-7.1c1.3-2.4,2.3-5.2,2.7-8.3h-1.9c-0.5,1.8-1.4,3.7-2.5,5.9c-1.4,2.5-3.1,4.7-5.1,6.6l-0.2,0.2l-1.1-1.2
				l0.2-0.2c1.8-1.8,3.3-3.7,4.6-6c1.1-2,1.9-3.7,2.4-5.3h-2.1c0,0.1-0.1,0.1-0.1,0.2c-1,1.8-1.8,3-3.1,4.3l-1.1-1.1
				c1.1-1.1,1.7-2.1,2.6-3.6c0.9-1.5,1.6-3.3,2.1-5.2l0.1-0.2l1.5,0.5l-0.1,0.2c-0.3,1.2-0.7,2.3-1.3,3.5h9.6l0,0.2
				c0,6.7-0.4,11.9-1.1,15.6c-0.2,1.2-0.7,2.1-1.3,2.6C139.2,163.2,138.4,163.5,137.5,163.5z"/>
		</g>
		<g>
			<path class="st0" d="M125.9,163.9h-1.5v-8.6c-1.3,0.7-2.5,1.3-3.6,1.8l-0.2,0.1l-0.6-1.5l0.2-0.1c1.5-0.7,2.9-1.4,4.2-2v-6.4
				h-1.9c-0.1,0.3-0.1,0.6-0.2,0.9c-0.4,1.6-0.7,3-1.1,4.1l-0.1,0.3l-1.2-1.2l0-0.1c0.4-1.2,0.7-2.5,1-4c0.3-1.5,0.5-3,0.6-4.3
				l0-0.3l1.6,0.5l0,0.2c-0.1,0.9-0.3,1.8-0.4,2.4h1.7v-5.4h1.5v5.4h2.9v1.4h-2.9v5.6c1.1-0.6,2-1.2,2.9-1.8l0.5,1.3
				c-1.1,0.8-2.2,1.5-3.4,2.2V163.9z"/>
		</g>
		<g>
			<path class="st0" d="M158.9,140.6h-1.4v4.4h-9v11.8h1.4v-1.9h7.6v8.8h1.4v-8.8h7.8v2h1.4v-11.9h-9.2V140.6z M157.5,153.5h-7.6
				v-7.3h7.6V153.5z M166.7,146.2v7.3h-7.8v-7.3H166.7z"/>
			<path class="st0" d="M159.1,163.8h-1.8V155h-7.2v1.9h-1.8v-12.2h9v-4.4h1.8v4.4h9.2V157h-1.8v-2h-7.4V163.8z M157.8,163.3h0.9
				v-8.8h8.3v2h0.9v-11.4h-9.2v-4.3h-0.9v4.3h-9v11.3h0.9v-1.9h8.1V163.3z M166.9,153.8h-8.3V146h8.3V153.8z M159.1,153.3h7.4v-6.9
				h-7.4V153.3z M157.8,153.8h-8.1V146h8.1V153.8z M150.1,153.3h7.2v-6.9h-7.2V153.3z"/>
		</g>
		<g>
			<path class="st0" d="M173.7,157.9l1.1,0.8c1.7-2.8,2.8-5.8,3.5-9.2l-1.2-0.6C176.4,152.1,175.3,155.1,173.7,157.9z"/>
			<path class="st0" d="M174.9,159l-1.5-1l0.1-0.2c1.6-2.7,2.7-5.8,3.4-8.9l0.1-0.3l1.6,0.8l0,0.2c-0.6,3.3-1.8,6.4-3.5,9.2
				L174.9,159z M174,157.8l0.8,0.5c1.6-2.7,2.7-5.6,3.3-8.7l-0.8-0.4C176.6,152.3,175.5,155.2,174,157.8z"/>
		</g>
		<g>
			<path class="st0" d="M188,148.2l0.9-1.1c-1.9-2.5-4-4.6-6.2-6.4l-0.8,0.9C184,143.5,186.1,145.7,188,148.2z"/>
			<path class="st0" d="M188,148.6l-0.2-0.2c-1.9-2.5-4-4.6-6.1-6.4l-0.2-0.1l1.1-1.3l0.2,0.1c2.3,1.8,4.4,4,6.3,6.4l0.1,0.1
				L188,148.6z M182.2,141.7c2.1,1.7,4.1,3.8,5.9,6.1l0.6-0.7c-1.8-2.3-3.7-4.3-5.9-6L182.2,141.7z"/>
		</g>
		<g>
			<path class="st0" d="M192.9,148.9l-1.1,0.7c1.4,2.7,2.6,5.7,3.5,9l1.4-0.6C195.7,154.8,194.4,151.7,192.9,148.9z"/>
			<path class="st0" d="M195.2,159l-0.1-0.2c-0.9-3.3-2.1-6.3-3.5-9l-0.1-0.2l1.4-1l0.1,0.2c1.4,2.7,2.7,5.8,3.8,9.2l0.1,0.2
				L195.2,159z M192.1,149.7c1.3,2.6,2.5,5.5,3.4,8.6l1-0.4c-1-3.2-2.2-6.2-3.6-8.7L192.1,149.7z"/>
		</g>
		<g>
			<path class="st0" d="M190,160.6c-0.3,0.6-0.9,0.9-2,0.9c-3.6,0-5.6-0.1-6-0.4c-0.3,0-0.5-0.4-0.5-1.2v-13.5h-1.2v14.1
				c0,0.8,0.3,1.3,0.8,1.6c0.5,0.4,2.8,0.6,6.8,0.6c1.6,0,2.6-0.4,2.9-1.2c0.4-0.5,0.7-2.5,0.9-5.8l-1.2-0.6
				C190.4,158.4,190.2,160.2,190,160.6z"/>
			<path class="st0" d="M188,162.9c-4,0-6.3-0.2-6.9-0.6c-0.6-0.3-0.9-0.9-0.9-1.7v-14.4h1.7v13.7c0,0.7,0.1,0.9,0.3,1l0.1,0l0,0
				c0.1,0.1,0.8,0.4,5.8,0.4c0.9,0,1.5-0.3,1.7-0.7l0,0c0.1-0.2,0.4-1.4,0.7-5.5l0-0.3l1.6,0.8l0,0.2c-0.2,3.3-0.6,5.3-1,5.9
				C190.7,162.4,189.7,162.9,188,162.9z M180.6,146.7v13.9c0,0.7,0.2,1.1,0.7,1.3l0,0c0.3,0.2,1.6,0.5,6.7,0.5c1,0,2.3-0.2,2.7-1.1
				l0,0c0.2-0.3,0.6-1.4,0.9-5.6l-0.7-0.4c-0.3,4.1-0.5,5-0.7,5.3c-0.3,0.7-1,1-2.1,1c-5.1,0-5.8-0.3-6-0.4
				c-0.6-0.1-0.6-1.1-0.6-1.4v-13.3H180.6z"/>
		</g>
	</g>
	<g>
		<polygon class="st0" points="13,172.7 17.1,172.7 17.1,187.6 18.8,187.6 18.8,172.7 22.9,172.7 22.9,171.1 13,171.1 		"/>
		<polygon class="st0" points="36.3,177.8 27.3,177.8 27.3,171.1 25.6,171.1 25.6,187.6 27.3,187.6 27.3,179.4 36.3,179.4 
			36.3,187.6 37.9,187.6 37.9,171.1 36.3,171.1 		"/>
		<polygon class="st0" points="50.5,186 44,186 44,179.4 50.4,179.4 50.4,177.8 44,177.8 44,172.7 50.5,172.7 50.5,171.1 
			42.3,171.1 42.3,187.6 50.5,187.6 		"/>
		<path class="st0" d="M64.5,180.1H66c1.1,0,2.6-0.1,3.8-1.1c0.9-0.7,1.4-2,1.4-3.4c0-1.4-0.6-2.7-1.5-3.5c-1.1-0.9-2.4-1-3.6-1
			h-3.1v16.5h1.7V180.1z M64.5,172.7h1.3c1,0,1.9,0,2.6,0.6c0.7,0.5,1.1,1.4,1.1,2.3c0,0.9-0.3,1.6-0.9,2.1
			c-0.7,0.6-1.5,0.8-2.6,0.8h-1.5V172.7z"/>
		<path class="st0" d="M82.5,187.6l-5.2-7.5c2.6-0.2,4.3-1.9,4.3-4.5c0-1.6-0.6-2.9-1.7-3.7c-1.2-0.9-2.6-0.9-3.8-0.9h-2.3v16.5h1.7
			v-7.5l5.2,7.5H82.5z M76.3,178.5h-1v-5.8l0.8,0c0.8,0,1.6,0,2.2,0.3c1.1,0.5,1.5,1.6,1.5,2.6c0,0.9-0.4,1.7-1,2.3
			C78.1,178.5,77.3,178.5,76.3,178.5z"/>
		<path class="st0" d="M92.2,187.8c4.6,0,8.6-3.9,8.6-8.5c0-4.6-3.9-8.5-8.6-8.5c-4.6,0-8.6,3.9-8.6,8.5
			C83.6,184,87.5,187.8,92.2,187.8z M92.2,172.5c3.7,0,6.9,3.1,6.9,6.9c0,3.7-3.2,6.9-6.9,6.9c-3.7,0-6.9-3.1-6.9-6.9
			C85.3,175.6,88.5,172.5,92.2,172.5z"/>
		<polygon class="st0" points="118.2,169.8 112.2,184.5 106.3,169.8 102.5,187.6 104.2,187.6 106.8,175.2 112.2,188.7 117.7,175.2 
			120.2,187.6 121.9,187.6 		"/>
		<polygon class="st0" points="132.9,186 126.3,186 126.3,179.4 132.7,179.4 132.7,177.8 126.3,177.8 126.3,172.7 132.9,172.7 
			132.9,171.1 124.6,171.1 124.6,187.6 132.9,187.6 		"/>
		<polygon class="st0" points="138.6,174.5 151.9,188.7 151.9,171.1 150.2,171.1 150.2,184.4 136.9,170.4 136.9,187.6 138.6,187.6 
					"/>
		<path class="st0" d="M154.5,187.6h1.7l2.1-5.2h6.5l2.1,5.2h1.7l-7.1-17.6L154.5,187.6z M164.2,180.8H159l2.6-6.5L164.2,180.8z"/>
		<path class="st0" d="M180.6,173.2c-1.9-1.7-3.8-2.1-6.1-2.1h-3.2v16.5h3.2c2,0,4.2-0.3,6.2-2.2c1.6-1.6,2.5-3.7,2.5-6.1
			C183.3,177,182.3,174.8,180.6,173.2z M173,172.7h1.5c2.2,0,3.6,0.5,4.9,1.6c1.4,1.3,2.2,3.1,2.2,5c0,1.8-0.7,3.5-2,4.8
			c-1.3,1.3-2.8,1.8-5.1,1.8H173V172.7z"/>
		<polygon class="st0" points="194.9,172.7 194.9,171.1 186.6,171.1 186.6,187.6 194.9,187.6 194.9,186 188.3,186 188.3,179.4 
			194.7,179.4 194.7,177.8 188.3,177.8 188.3,172.7 		"/>
		<path class="st0" d="M78,201.1l-3-1.6l-0.1-0.1c-1.3-0.6-2.6-1.2-2.6-2.6c0-1.5,1.2-2.7,2.7-2.7c1.3,0,2.2,0.6,2.9,1.7l0.2,0.3
			l1.2-1l-0.1-0.2c-0.8-1.5-2.4-2.4-4.2-2.4c-2.5,0-4.4,1.8-4.4,4.4c0,1.3,0.6,2.4,1.8,3.1l2.9,1.5l0.3,0.1c1.3,0.6,2.7,1.3,2.7,2.8
			c0,1.9-1.6,3.4-3.6,3.4c-2,0-3-1.4-3.5-2.7l-0.1-0.3l-1.5,0.7l0.1,0.3c0.8,2.2,2.7,3.6,5,3.6c2.9,0,5.3-2.3,5.3-4.9
			C80,203.1,79.3,202,78,201.1z"/>
		<path class="st0" d="M138.2,201.1l-3-1.6l-0.1-0.1c-1.3-0.6-2.6-1.2-2.6-2.6c0-1.5,1.2-2.7,2.7-2.7c1.3,0,2.2,0.6,2.9,1.7l0.2,0.3
			l1.2-1l-0.1-0.2c-0.8-1.5-2.4-2.4-4.2-2.4c-2.5,0-4.4,1.8-4.4,4.4c0,1.3,0.6,2.4,1.8,3.1l2.9,1.5l0.3,0.1c1.3,0.6,2.7,1.3,2.7,2.8
			c0,1.9-1.6,3.4-3.6,3.4c-2,0-3-1.4-3.5-2.7l-0.1-0.3l-1.5,0.7l0.1,0.3c0.8,2.2,2.7,3.6,5,3.6c2.9,0,5.3-2.3,5.3-4.9
			C140.2,203.1,139.6,202,138.2,201.1z"/>
		<polygon class="st0" points="94.2,199.5 85.2,199.5 85.2,192.8 83.5,192.8 83.5,209.3 85.2,209.3 85.2,201.1 94.2,201.1 
			94.2,209.3 95.8,209.3 95.8,192.8 94.2,192.8 		"/>
		<path class="st0" d="M107.8,192.6c-4.6,0-8.6,3.9-8.6,8.5c0,4.6,3.9,8.5,8.6,8.5c4.6,0,8.6-3.9,8.6-8.5
			C116.4,196.4,112.4,192.6,107.8,192.6z M107.8,207.9c-3.7,0-6.9-3.1-6.9-6.9c0-3.7,3.2-6.9,6.9-6.9c3.7,0,6.9,3.1,6.9,6.9
			C114.7,204.8,111.5,207.9,107.8,207.9z"/>
		<path class="st0" d="M126.5,193.8c-1.1-0.9-2.4-1-3.6-1h-3.1v16.5h1.7v-7.5h1.5c1.1,0,2.6-0.1,3.8-1.1c0.9-0.7,1.4-2,1.4-3.4
			C128.1,195.9,127.5,194.6,126.5,193.8z M122.9,200.2h-1.5v-5.8h1.3c1,0,1.9,0,2.6,0.6c0.7,0.5,1.1,1.4,1.1,2.3
			c0,0.9-0.3,1.6-0.9,2.1C124.8,200,123.9,200.2,122.9,200.2z"/>
	</g>
</g>
</svg>
