<?xml version="1.0" encoding="utf-8"?>
<!DOCTYPE svg PUBLIC "-//W3C//DTD SVG 1.1//EN" "http://www.w3.org/Graphics/SVG/1.1/DTD/svg11.dtd">
<svg version="1.1" xmlns="http://www.w3.org/2000/svg" xmlns:xlink="http://www.w3.org/1999/xlink" x="0px" y="0px"
	 width="170px" height="120px" viewBox="0 0 170 120" enable-background="new 0 0 170 120" xml:space="preserve">
<polygon fill="#FFFFFF" points="141.333,51.589 142.454,51.589 142.454,54.756 143.437,54.756 143.437,51.589 144.521,51.589 
	144.521,50.854 141.333,50.854 "/>
<polygon fill="#FFFFFF" points="148.478,50.854 147.554,53.296 146.638,50.854 145.275,50.854 145.275,54.756 146.202,54.756 
	146.202,52.003 146.202,52.003 147.208,54.756 147.909,54.756 148.908,52.003 148.938,52.003 148.938,54.756 149.829,54.756 
	149.829,50.854 "/>
<path fill="#FFFFFF" d="M105.729,69.225L105.729,69.225c-3.161-1.087-8.624-13.727-10.532-18.394l0,0
	c-0.024-0.075-0.094-0.127-0.172-0.132c-0.081,0.005-0.151,0.056-0.178,0.132l0,0c-1.812,4.972-6.742,17.106-9.887,18.394l0,0
	c-0.104,0-0.184,0.086-0.184,0.166c0.011,0.11,0.104,0.19,0.212,0.19h4.133c0.103-0.003,0.187-0.086,0.189-0.19
	c-0.001-0.062-0.036-0.119-0.092-0.149l0,0c-0.828-0.573-0.339-1.465,0.143-2.379c0.369-0.69,0.765-1.488,1.202-2.368h7.68
	c0.634,1.224,1.15,2.172,1.306,2.483c0.477,0.953,0.235,1.891-0.415,2.247l0,0c-0.083,0.009-0.149,0.08-0.148,0.166
	c0,0.104,0.08,0.188,0.185,0.19h6.529c0.094,0,0.173-0.076,0.173-0.172c0-0.006,0-0.013-0.001-0.019
	C105.876,69.307,105.813,69.233,105.729,69.225z M91.162,63.223c1.276-2.528,2.575-5.264,3.122-6.725
	c0.953,2.304,2.041,4.549,3.259,6.725H91.162z"/>
<path fill="#FFFFFF" d="M48.051,69.587h4.121c0.103-0.004,0.185-0.087,0.185-0.19c-0.005-0.06-0.037-0.114-0.086-0.149l0,0
	c-0.828-0.575-0.35-1.466,0.126-2.379c0.369-0.689,0.771-1.49,1.208-2.368h7.645c0.667,1.224,1.184,2.172,1.322,2.483
	c0.488,0.953,0.248,1.891-0.408,2.247l0,0c-0.084,0.009-0.147,0.081-0.144,0.166c-0.003,0.103,0.077,0.187,0.179,0.19
	c0.001,0,0.004,0,0.006,0h6.524c0.1-0.006,0.179-0.089,0.178-0.19c0.001-0.075-0.049-0.143-0.122-0.166l0,0
	c-3.178-1.087-8.622-13.727-10.536-18.395l0,0c-0.012-0.081-0.085-0.138-0.167-0.132c-0.083-0.005-0.159,0.051-0.178,0.132l0,0
	c-1.839,4.973-6.759,17.107-9.916,18.395l0,0c-0.083,0.015-0.146,0.082-0.155,0.166c-0.001,0.106,0.083,0.191,0.187,0.193
	C48.031,69.59,48.04,69.588,48.051,69.587z M57.346,56.498c0.958,2.297,2.035,4.542,3.23,6.725h-6.358
	c1.276-2.528,2.587-5.264,3.133-6.725H57.346z"/>
<path fill="#FFFFFF" d="M46.327,67.69c-0.385-2.026-0.503-4.095-0.351-6.152c0.207-0.832,0.224-1.54,1.655-1.913
	c0.08-0.023,0.133-0.096,0.132-0.178c-0.002-0.104-0.085-0.189-0.19-0.195h-7.289c-0.103,0.008-0.184,0.092-0.189,0.195
	c-0.004,0.094,0.067,0.172,0.161,0.178c1.328,0.339,2.271,1.069,2.518,2.454c0.247,1.386,0.132,5.242-0.575,5.943
	S39.9,69.34,37.331,69.34c-5.019,0-9.985-3.673-9.985-11.301c0-8.117,5.593-10.72,9.324-10.72c3.449,0,7.352,1.334,9.237,6.513
	c0.012,0.093,0.096,0.159,0.189,0.149c0.09,0.006,0.169-0.06,0.179-0.149c0.071-1.015,0.071-2.032,0-3.047
	c-0.15-2.069-4.024-4.598-9.773-4.598c-8.047,0-12.864,5.696-12.864,12.29c0,5.421,4.242,12.031,13.318,12.031
	C43.2,70.501,46.453,68.201,46.327,67.69z"/>
<path fill="#FFFFFF" d="M84.742,65.575c-0.06,0.008-0.11,0.043-0.138,0.097c-1.672,2.73-4.829,2.633-7.117,2.633
	c-0.845,0-2.167-0.575-2.299-1.902c-0.132-1.328-0.087-11.497,0-12.928c0.027-0.999,0.667-1.878,1.609-2.213
	c0.1-0.006,0.178-0.089,0.178-0.19c0.003-0.104-0.074-0.194-0.178-0.207h-6.507c-0.106,0.012-0.188,0.101-0.19,0.207
	c0.007,0.076,0.056,0.141,0.127,0.167l0,0c1.31,0.287,1.85,1.558,1.983,2.449c0.131,0.891,0.167,11.031,0.058,12.956
	c0.024,1.231-0.821,2.311-2.023,2.581l0,0c-0.082,0.014-0.143,0.083-0.144,0.166c0.003,0.104,0.086,0.188,0.19,0.19h13.1
	c0.455-0.144,1.437-3.133,1.541-3.806v-0.034c-0.003-0.095-0.083-0.17-0.178-0.168C84.75,65.574,84.747,65.574,84.742,65.575z"/>
<path fill="#FFFFFF" d="M139.481,69.219c-1.604-0.781-2.075-1.328-2.213-2.615c-0.33-2.772-0.33-5.574,0-8.346
	c0.983-5.289,4.024-11.031,9.709-11.497l0,0c0.107-0.015,0.185-0.11,0.179-0.218c-0.011-0.077-0.065-0.139-0.139-0.161
	c-4.95-1.149-9.604,4.179-11.049,9.301c-2.068-6.743-7.816-10.479-12.461-9.197c-0.069,0.021-0.116,0.083-0.121,0.155
	c0,0.105,0.085,0.19,0.189,0.19c4.69,0.196,8.894,5.173,9.772,11.456c0.473,2.732,0.541,5.519,0.207,8.272
	c-0.207,1.512-1.035,2.018-2.495,2.696l0,0c-0.076,0.02-0.13,0.088-0.133,0.166c0.003,0.104,0.088,0.187,0.19,0.19h8.363
	c0.105,0,0.19-0.085,0.19-0.19C139.666,69.241,139.481,69.219,139.481,69.219z"/>
<path fill="#FFFFFF" d="M112.92,69.396c0-0.092-0.087-0.166-0.202-0.194c-0.293-0.122-1.327-0.731-0.793-1.787
	c0.236-0.495,1.886-2.823,3.823-5.468c1.528,2.3,2.875,4.329,3.047,4.599c1.034,1.615,0,2.419-0.322,2.662
	c-0.078,0.026-0.134,0.095-0.143,0.179c0.001,0.104,0.089,0.188,0.194,0.188h7.69c0.016,0.004,0.03,0.004,0.046,0
	c0.083-0.021,0.139-0.096,0.139-0.179c-0.005-0.088-0.069-0.162-0.156-0.178c-1.29-0.593-2.473-1.395-3.506-2.369
	c-1.386-1.385-3.558-4.472-5.356-7.133c2.079-2.793,4.126-5.438,4.846-6.197c1.407-1.482,2.402-2.022,3.321-2.264h0.041
	c0.063-0.04,0.138-0.121,0.138-0.172c-0.009-0.104-0.077-0.194-0.179-0.225h-6.036c-0.105,0.022-0.184,0.115-0.184,0.225
	c0,0.071,0.052,0.133,0.121,0.149l0,0l0,0l0,0c0.696,0.276,1.517,1.018,0,3.277c-0.472,0.741-1.495,2.196-2.827,4.023
	c-1.07-1.604-1.874-2.915-2.14-3.369c-1.08-1.897-1.425-3.374-0.383-3.937c0.063-0.041,0.13-0.122,0.13-0.173
	c0.006-0.117-0.084-0.218-0.2-0.224c-0.004,0-0.007,0-0.012,0h-6.897c-0.115,0.012-0.203,0.108-0.203,0.224
	c0.016,0.07,0.065,0.127,0.134,0.15l0,0l0,0c1.264,0.437,2.563,1.586,3.914,3.557c0.322,0.523,2.167,3.283,3.983,5.996
	c-1.264,1.689-2.661,3.529-4.104,5.34c-1.068,1.39-2.509,2.453-4.155,3.064l0,0c0,0,0,0-0.034,0l0,0
	c-0.058,0-0.087,0.085-0.087,0.148c-0.008,0.086,0.053,0.164,0.138,0.179l0,0h5.968C112.766,69.526,112.874,69.486,112.92,69.396z"
	/>
<path fill="#FFFFFF" d="M86.811,79.37c1.099,0,2.341,0.265,2.95,1.92c0.002,0.035,0.032,0.063,0.068,0.063
	c0.036,0.004,0.065-0.021,0.068-0.057c0-0.002,0.001-0.004,0.001-0.006c0.017-0.326,0.017-0.651,0-0.978
	c-0.069-0.666-1.305-1.466-3.145-1.466c-2.163-0.112-4.005,1.553-4.116,3.715c-0.004,0.078-0.006,0.156-0.005,0.234
	c0,1.724,1.368,3.719,4.271,3.719c1.988,0,3.007-0.78,3.007-1.058v-1.149c0-0.04-0.034-0.075-0.075-0.075c-0.002,0-0.004,0-0.006,0
	c-0.034,0-0.034,0.068-0.046,0.068c-0.472,1.387-1.931,1.68-2.759,1.68c-1.832-0.12-3.218-1.702-3.098-3.532
	c0.104-1.585,1.315-2.874,2.891-3.078H86.811z"/>
<path fill="#FFFFFF" d="M118.146,79.026c0-0.076-0.036-0.099-0.063-0.099h-1.795c0,0-0.086,0-0.086,0.069
	c0.007,0.044,0.042,0.077,0.086,0.08c0.266,0.109,0.456,0.225,0.508,0.794c0.051,0.568,0,3.258,0,3.765
	c-0.084,1.208-1.089,2.146-2.3,2.144c-1.191,0.076-2.22-0.828-2.295-2.019c-0.004-0.042-0.005-0.083-0.005-0.125
	c0-0.507-0.034-3.19,0-3.765c0.036-0.575,0.229-0.69,0.471-0.759c0,0,0.109-0.059,0.109-0.093c0.001-0.049-0.032-0.089-0.08-0.098
	h-2.3c-0.047-0.007-0.09,0.027-0.096,0.075c-0.001,0.003-0.002,0.007-0.002,0.011c0,0.052,0.081,0.104,0.081,0.063
	c0.488,0.132,0.495,0.534,0.573,0.874c0.083,0.34,0,2.649,0,3.408c0,1.903,1.41,3.14,3.364,3.14
	c1.721,0.009,3.124-1.378,3.135-3.099c0-0.029,0-0.058-0.001-0.088c0-0.74,0-3.006,0.039-3.361c0.041-0.356,0.047-0.742,0.541-0.84
	C118.059,79.123,118.146,79.06,118.146,79.026z"/>
<path fill="#FFFFFF" d="M73.953,86.292L73.953,86.292c0,0-0.069,0-0.069,0.063c0,0.037,0.031,0.069,0.069,0.069
	c0.001,0,0.003,0,0.005,0h2.604c0.057,0,0.086,0,0.086-0.069s-0.029-0.04-0.058-0.063l0,0c-1.258-0.438-3.449-5.513-4.202-7.377l0,0
	c-0.021-0.003-0.042-0.003-0.063,0c-0.025-0.008-0.051-0.008-0.075,0l0,0c-0.736,2.002-2.691,6.853-3.967,7.377l0,0
	c-0.029-0.001-0.052,0.021-0.053,0.049c0,0.005,0,0.009,0.001,0.014c0,0.063,0,0.069,0.063,0.069h1.672
	c0.035,0.003,0.065-0.022,0.069-0.058c0-0.004,0-0.008,0-0.012c0-0.04,0-0.04-0.052-0.04l0,0c-0.311-0.218-0.138-0.576,0.052-0.955
	c0.155-0.281,0.305-0.574,0.494-0.926h3.059c0.275,0.483,0.477,0.874,0.529,0.972C74.299,85.7,74.227,86.083,73.953,86.292z
	 M70.786,83.906c0.5-1.035,1.023-2.122,1.235-2.709c0.384,0.926,0.818,1.831,1.3,2.709H70.786z"/>
<path fill="#FFFFFF" d="M104.269,86.292L104.269,86.292c-1.26-0.438-3.449-5.513-4.196-7.377l0,0c0,0-0.046,0-0.074,0
	c-0.027-0.005-0.055-0.005-0.081,0l0,0c-0.736,2.002-2.684,6.853-3.949,7.377l0,0c-0.052,0-0.068,0-0.068,0.063
	s0.04,0.069,0.074,0.069h1.655c0.035,0,0.076,0,0.076-0.069s0-0.04-0.035-0.04l0,0c-0.334-0.218-0.133-0.576,0.058-0.955
	c0.138-0.281,0.311-0.574,0.487-0.926h3.048c0.27,0.483,0.477,0.874,0.534,0.972c0.184,0.302,0.11,0.691-0.166,0.909l0,0
	c-0.048,0-0.064,0-0.064,0.063c0,0.063,0.035,0.069,0.086,0.069h2.616c0.04,0,0.074,0,0.074-0.069S104.309,86.309,104.269,86.292z
	 M98.464,83.906c0.492-1.035,1.01-2.122,1.241-2.709c0.38,0.926,0.812,1.829,1.288,2.709H98.464z"/>
<path fill="#FFFFFF" d="M62.175,86.292L62.175,86.292c-0.529-0.11-0.529-0.835-0.604-1.196c-0.074-0.362-0.236-4.122-0.236-4.903
	c0-0.575,0.236-1.018,0.466-1.076c0.021-0.025,0.035-0.058,0.04-0.09c0-0.042,0-0.076-0.058-0.076h-1.534l-2.633,5.748l-2.874-5.748
	h-1.484c-0.041-0.006-0.078,0.021-0.085,0.063c0,0.004-0.001,0.009-0.001,0.014c0,0.057,0.064,0.09,0.064,0.09
	c0.224,0.059,0.5,0.455,0.529,1.226c0.029,0.77-0.15,4.201-0.202,4.546c-0.052,0.346-0.104,1.288-0.644,1.397
	c-0.023,0.013-0.04,0.036-0.041,0.063c-0.003,0.034,0.022,0.064,0.057,0.068c0.002,0,0.004,0,0.006,0h1.586
	c0.036,0,0.063-0.028,0.063-0.063c0-0.003,0-0.004,0-0.006c0-0.04-0.04-0.04-0.063-0.063c-0.27-0.109-0.351-0.379-0.351-0.955
	c0-0.574,0.155-3.845,0.224-4.368c0.271,0.73,2.788,5.448,2.788,5.448s0,0.088,0.075,0.088s0.086-0.088,0.086-0.088l2.748-5.901
	c0.046,0.517,0.259,4.253,0.208,4.817c-0.052,0.563-0.087,0.838-0.345,0.952c-0.046,0-0.069,0-0.069,0.064s0,0.067,0.069,0.067h2.19
	c0.052,0,0.069,0,0.069-0.067C62.22,86.273,62.226,86.292,62.175,86.292z"/>
<path fill="#FFFFFF" d="M45.517,95.793c-0.736-1.149-2.777-1.726-2.777-1.726l-0.224,0.23c0.902,0.932,1.805,1.915,2.069,2.829
	L45.517,95.793z M44.418,100.46l1.006-1.109c-0.776-1.311-2.875-1.608-2.875-1.608l-0.184,0.178
	C43.186,98.647,43.879,99.506,44.418,100.46z M114.765,94.067l-0.242,0.23c0.933,0.932,1.8,1.915,2.081,2.829l0.92-1.328
	C116.788,94.644,114.765,94.067,114.765,94.067z M114.541,97.752l-0.148,0.179c0.823,0.727,1.517,1.587,2.051,2.547l0.978-1.109
	c-0.765-1.328-2.887-1.633-2.887-1.633L114.541,97.752z M47.344,95.993l-0.271,0.054c0.492,0.566,0.864,1.229,1.099,1.94
	l0.891-0.734c-0.416-0.607-1.023-1.057-1.724-1.275L47.344,95.993z M94.788,97.172l0.91-0.901c-0.587-0.551-1.205-1.067-1.851-1.547
	c0.085-0.214,0.161-0.434,0.224-0.656h-1.668c-0.377,1.731-1.133,3.356-2.213,4.761l0.185,0.16c0.379-0.243,0.734-0.525,1.058-0.839
	h0.914v1.213h-1.868v0.73h1.868v3.857c-0.84,0.229-1.576,0.407-1.868,0.466l0.615,1.517c1.602-0.816,3.112-1.801,4.506-2.938
	l-0.155-0.184c-0.563,0.283-1.148,0.52-1.752,0.701v-0.822c0.731-0.543,1.322-1.252,1.725-2.07l-1.063-0.269
	c-0.107,0.612-0.335,1.199-0.668,1.725v-1.983h1.582v-0.73h-1.582v-1.213h1.392v-0.753h-2.914c0.589-0.694,1.093-1.455,1.506-2.265
	c0.438,0.638,0.812,1.318,1.114,2.029L94.788,97.172z M90.714,100.679h-0.16c0.455,0.938,0.728,1.955,0.804,2.994l0.967-0.666
	c-0.304-0.92-0.864-1.731-1.615-2.339L90.714,100.679z M46.861,95.747h5.789v4.885c-0.44-0.812-1.171-1.428-2.046-1.724
	l-0.276,0.063c0.624,0.659,1.07,1.467,1.3,2.346l1.023-0.639v0.942h1.149v-6.656h-4.328c0.604-0.162,1.117-0.56,1.425-1.104h-1.891
	c-0.12,0.46-0.415,0.857-0.822,1.104h-2.489v6.641h1.15L46.861,95.747z M50.311,101.006v-2.247h2.069v-0.666h-2.069v-0.035
	c0.982-0.253,1.741-1.038,1.96-2.029h-1.109c-0.085,0.626-0.386,1.204-0.851,1.633v-1.633h-1.15v2.064h-2.138v0.666h2.138v2.208
	L50.311,101.006z M66.899,105.921h1.345v-6.443h3.45v-5.41h-4.817L66.899,105.921z M68.244,94.925h2.133v1.442h-2.133V94.925z
	 M68.244,97.035h2.133v1.724h-2.133V97.035z M117.811,94.333v0.765h6.605v7.127c0,1.318-0.868,2.847-3.45,2.847
	c0.434,0.273,0.821,0.613,1.149,1.004c1.989-0.045,3.584-1.659,3.604-3.648v-7.341h0.966V94.32L117.811,94.333z M123.124,96.834
	h-4.501v5.488h4.501V96.834z M121.767,101.747h-1.829v-4.31h1.822L121.767,101.747z M46.896,101.248l0.162,0.172
	c1.771-0.408,1.977-2.38,1.977-2.38h-1.092c0,0-0.028,1.507-1.035,2.19L46.896,101.248z M44.631,100.707
	c0,0.26-1.149,3.014-2.3,3.73l1.007,1.604c1.173-1.516,1.698-3.433,1.459-5.335H44.631z M117.121,100.707
	c0,0.26-1.31,3.014-2.479,3.73l1.013,1.604c1.191-1.511,1.771-3.417,1.621-5.335H117.121z M54.409,102.736v-0.752h-4.024
	c0.085-0.232,0.148-0.471,0.189-0.715H48.85c-0.019,0.242-0.059,0.48-0.121,0.715h-3.563v0.752h3.259
	c-0.793,1.386-1.998,2.488-3.449,3.155l0.144,0.132c2.021-0.14,3.836-1.29,4.828-3.059c0.822,2.255,3.196,2.95,3.892,3.146
	c0.309-0.494,0.675-0.947,1.092-1.352c-1.535,0-3.742-1.149-4.598-2.023H54.409z M73.056,99.478h3.558v3.729
	c0,1.317-0.293,1.846-2.185,1.846c0.436,0.27,0.824,0.609,1.149,1.007c1.512,0,2.362-0.576,2.362-2.495v-9.497h-4.88L73.056,99.478z
	 M74.395,94.827h2.22v1.54h-2.22V94.827z M74.395,97.127h2.22v1.638h-2.22V97.127z M99.723,102.255
	c0.95-0.379,1.756-1.052,2.299-1.922l-1.368-0.574c-0.176,0.808-0.575,1.551-1.15,2.145c-0.011,0.025-0.025,0.05-0.046,0.067
	c-0.555-0.723-0.957-1.557-1.178-2.441h3.007v-5.175h-5.49v10.255l0.678,1.466c0.575-0.453,2.19-1.919,2.685-2.454l-0.166-0.148
	c-0.616,0.266-1.245,0.499-1.887,0.701v-4.657h0.673c0.282,1.887,1.087,4.657,4.094,6.244c0-0.495,0.575-1.046,0.994-1.334
	c-1.24-0.416-2.339-1.178-3.161-2.196L99.723,102.255z M97.105,95.098h2.846v1.396h-2.846V95.098z M97.105,98.752v-1.481h2.846
	v1.481H97.105z"/>
</svg>
