<svg xmlns="http://www.w3.org/2000/svg" viewBox="0 0 100.52 55.54"><defs><style>.cls-1{fill:#000808;}</style></defs><title>资源 2</title><g id="图层_2" data-name="图层 2"><g id="Logos"><path class="cls-1" d="M46.69,23.77a.91.91,0,0,1,.42-.46s.38.34.38.46a1.78,1.78,0,0,1-.38.42C47,24.19,46.69,23.81,46.69,23.77Zm6.49,0c0-.13.34-.46.42-.46a.88.88,0,0,1,.38.46,1.8,1.8,0,0,1-.38.42C53.52,24.19,53.18,23.81,53.18,23.77Zm-3.26,0c0-.13.34-.46.42-.46a.88.88,0,0,1,.38.46,1.79,1.79,0,0,1-.38.42C50.26,24.19,49.92,23.81,49.92,23.77Zm-3.64.67h1.63a.2.2,0,0,0,.21-.21v-.92a.2.2,0,0,0-.19-.21h0a12.34,12.34,0,0,0-1.63.08.15.15,0,0,0-.17.17v.92a.15.15,0,0,0,.13.17Zm-1.09-.59c0-.08.25-.33.29-.33s.29.25.29.33a1.14,1.14,0,0,1-.29.33A1.13,1.13,0,0,1,45.19,23.85Zm3.22-.08c0-.08.25-.33.29-.33s.29.25.29.33a1.12,1.12,0,0,1-.29.34A1.13,1.13,0,0,1,48.41,23.77Zm2.72.71a.2.2,0,0,0,.21-.21v-1a.2.2,0,0,0-.19-.21H49.54a.2.2,0,0,0-.21.21v1a.2.2,0,0,0,.19.21h1.61Zm3.26,0a.15.15,0,0,0,.17-.17v-.92a.15.15,0,0,0-.13-.17h0c-.5,0-1.3-.08-1.63-.08a.2.2,0,0,0-.21.21v.92a.2.2,0,0,0,.19.21h1.65Zm1.09-.59a1.14,1.14,0,0,1-.29.33,1.13,1.13,0,0,1-.29-.33c0-.08.25-.33.29-.33S55.48,23.81,55.48,23.89Zm-3.22-.08a1.12,1.12,0,0,1-.29.34,1.13,1.13,0,0,1-.29-.34c0-.08.25-.33.29-.33S52.26,23.73,52.26,23.81ZM48,4.36h0c.21.8,1.13.88,1.34,1.8h0c-.46-.67-1.09-.75-1.34-1.09-.13-.17-.13-.38,0-.75Zm1.55,10.71A2,2,0,0,1,47.43,17h-.09c1.46-1.59.33-3.89,1.76-5.4-.13,1.34.46,2.59.46,3.52Zm6.94,3.6c1.55,0,2.34-.8,2.34-2a2,2,0,0,0-.13-.71,2,2,0,0,1-1.21.42A1.37,1.37,0,0,1,56,15.1s0-.07,0-.1c0-1.3,1.38-2,1.38-3.43a.85.85,0,0,0-.17-.59,3.79,3.79,0,0,0,.84-2.31,3.22,3.22,0,0,0-.63-1.93l.67.34a5.29,5.29,0,0,0-.92-1.88s.33.17.5.08a2.12,2.12,0,0,1-.84-1.92c0-1.13-.25-1.76-2.43-2.13A3.56,3.56,0,0,0,53.34,0a12.48,12.48,0,0,0-1.51.75H51a7.44,7.44,0,0,1-.84-.13,1.15,1.15,0,0,0-.84.5,14,14,0,0,0-1.92.21c-.42.08-.67.42-1,1.13l-2,1.21c-.38.21-.63.34-.63.67a1.88,1.88,0,0,0,.38.84c.21,1.25.42,1.46.71,1.46H45a2.35,2.35,0,0,1,.33.54C45,7.35,44.63,7,44.13,7a.7.7,0,0,0-.75.65v0c0,.17.08.21.17.21h.54c.29,0,.67.34,1.26.34h.42c-.29.21-.46.34-.38.63.13.54.63,1.17.88,1.17a2.55,2.55,0,0,0,.59-.13l-.25.21c-1.67,1.42-1.3,3-1.3,4.6,0,1.21-.33,2-1.3,2a3,3,0,0,1-2.18-1.21,3.36,3.36,0,0,0-.13,1,2.57,2.57,0,0,0,2.64,2.21,4.22,4.22,0,0,0,2.84-1,3.41,3.41,0,0,0,3.16-1.6,4.13,4.13,0,0,0,3.56,1.51,3.7,3.7,0,0,0,2.59,1Zm.17-8.87c0,1.76-2.26,2-2.26,3.68,0,.67.21,1.13.08,1.55a2.16,2.16,0,0,0,.5-.88c0,1.3.67,2.8,2.39,2.8a1.84,1.84,0,0,0,1-.28,1.35,1.35,0,0,1-1.47,1.21c-1.76,0-3.35-1.47-3.35-4.18a2.7,2.7,0,0,1,.38-1.51A2.27,2.27,0,0,0,53,14.12,2.26,2.26,0,0,1,52.65,13c0-2.09,2.55-1.34,4-3.22Zm-2-7.91c1.55.33,1.34,1.34,1.63,2.05a6.9,6.9,0,0,0-1.55-1.38A1,1,0,0,0,54.65,1.89ZM45.34,6a2.15,2.15,0,0,1,.38-.08,1.29,1.29,0,0,1,0,.71A.46.46,0,0,1,45.3,6Zm.88,1.26c-.17.25-.29.59-.79.59s-.92-.38-1.26-.38h-.33c-.08,0-.13,0-.13-.08s.17-.25.42-.25a4.8,4.8,0,0,1,.84.21c.54.17.88-.29,1.09-.46a1,1,0,0,1,.67-.25,1.33,1.33,0,0,1,.71.21,2.7,2.7,0,0,0-1,.42c-.13,0-.17-.08-.21,0Zm.46.54a.54.54,0,0,1-.42.17.93.93,0,0,1,0-.5c.17,0,.42.13.42.34ZM44,17c2,0,1.93-2.26,1.93-3,0-3.39,1-4.23,3.35-5.31,1.76-.84,3.35-1.17,3.35-2.85,0-.59-.17-1.21-.84-1.21a1,1,0,0,1,.25.67,1.45,1.45,0,0,1-.13.54.92.92,0,0,0-.17-.54c-.21.34-.17.84-.29,1,0,0-.08.21-.67.5,0,0-.08.08.21.08a1.75,1.75,0,0,0,1-.29c-.21.59-.46.8-.84.8h-.84a2.68,2.68,0,0,0-2.13,1,2.79,2.79,0,0,1-1.63,1c-.29,0-.71-.67-.71-1s.59-.13,1-.59c.75-.75,1-.92,1.84-.92,0,0,.46,0,0-.42l-1.3-1.21A.65.65,0,0,0,46.92,5c-.08,0-.25,0-.63.38A2.87,2.87,0,0,0,45,5.75c-.13.08-.21.17-.29.17s-.29-.67-.29-.79c0-.34.38-.54.38-.75a.19.19,0,0,0-.13-.17l-.54.25s-.29-.33,0-.5c0,0,.84-.46,2.43-1.21.08.46.21.54.59.5H47l-.08.13a1.23,1.23,0,0,0,.63-.08c.21-.08.46-.08.5-.13s.17-.17.17-.21a3.13,3.13,0,0,0-.5.08q.38-.25.38-.38a.15.15,0,0,0,0-.08c-.13,0-.21.08-.33,0a.28.28,0,0,1-.17-.25c0-.08.08-.17.38-.17h.21c0-.17-.42-.25-.59-.25a1.87,1.87,0,0,0-.75.21.69.69,0,0,1,.42-.5,10.92,10.92,0,0,1,2.34-.21c1.51,0,2.64,1.3,2.85,1.3s.17-.08,0-.17c-.54-.38-.88-.67-.88-1,0-.13,0-.92,1.72-1.21.75.63,1,1.09,1,1.51,0,.71-.8.8-.88,1.09,2,.13,3.43,2.72,3.43,4,0,2.34-2.22,3.31-3.6,3.6C55.27,9,56,7.53,56,6.47a3.64,3.64,0,0,0-1.89-2.8,4,4,0,0,1,1.09,2.72,2.82,2.82,0,0,1-.89,2.19,1.91,1.91,0,0,0,.21-.88,1.73,1.73,0,0,0,0-.38c-.8,1.88-2.64,3.18-2.76,4.77A3.45,3.45,0,0,1,51.62,11a3.28,3.28,0,0,1,.72-2.17,4.06,4.06,0,0,0-2,3.43A4,4,0,0,0,50.76,14a4.65,4.65,0,0,1,0-1.51,5.6,5.6,0,0,0,2.84,4.31c-3.43,0-4.85-4.1-3.43-6.69-2.39.63-2.68,3.1-2.72,4.52a8.11,8.11,0,0,1-.21-1.8c0-2.55,2.13-3.22,3.72-3.93,2.38-1,3.38-1.89,3.38-3.39s-1.88-2.59-3.26-2.3l.5.5.21.17c1.47.75,1.67,1.59,1.67,2.09,0,1.34-1.51,2-2.59,2.51-3.53,1.5-4.14,2.17-4.14,4.35,0,1.59.46,4.1-1.21,4.31.13.21.71.29.71.29a2.44,2.44,0,0,1-1.67.54,2,2,0,0,1-2.09-1.42A2.67,2.67,0,0,0,44,17ZM53.14,2.6l.13.08S54,2.34,54,1.8a.74.74,0,0,0-.17-.46c-.08,0-.08.17-.08.25a.3.3,0,0,1-.31.29h0A.49.49,0,0,1,53,1.42a1.61,1.61,0,0,1,.13-.5h0c-.67.25-.71.54-.71.75s.13.59.8,1ZM45.06,4.32a.34.34,0,0,0,.25.17.94.94,0,0,0,.33-.59c-.21,0-.59.13-.59.42Zm13.6,13.93h-.13a2.06,2.06,0,0,1-1.63.8v.08c.38.38.29,1.21-.17,1.21a.49.49,0,0,1-.46-.46h-.08a6.21,6.21,0,0,0-.54.42,4.61,4.61,0,0,0,.08.79h.08a.38.38,0,0,1,.71.21.79.79,0,0,1-.78.8h-.1c-.63,0-1.17-.29-1.17-1a1,1,0,0,1,.63-.92v-.08a2.52,2.52,0,0,1-.76-.92h-.08a2,2,0,0,1-.92.63v.08a1.19,1.19,0,0,1,.38.88c0,.54-.46.88-1.42.88-.71,0-1.42-.21-1.42-.92a.54.54,0,0,1,.49-.59h.05a.74.74,0,0,1,.63.33h.08a3.32,3.32,0,0,1,.54-.59v-.08a3,3,0,0,1-.54-.63H52a.87.87,0,0,1-.75.38.38.38,0,0,1-.42-.38c0-.38.46-.54.84-.67v-.08a2.59,2.59,0,0,1-1.38-1.33h0A2.59,2.59,0,0,1,49,18.42v.08c.38.13.84.29.84.67a.38.38,0,0,1-.38.38h0a.87.87,0,0,1-.75-.38h-.08a3,3,0,0,1-.54.63v.08a3.37,3.37,0,0,1,.54.59h.08a.74.74,0,0,1,.63-.33.54.54,0,0,1,.54.54s0,0,0,.05c0,.71-.71.92-1.42.92-1,0-1.42-.33-1.42-.88a1.19,1.19,0,0,1,.38-.88v-.08a2,2,0,0,1-.92-.63h-.12a2.51,2.51,0,0,1-.71.88v.08a1,1,0,0,1,.63.92c0,.67-.54,1-1.17,1a.79.79,0,0,1-.88-.79.38.38,0,0,1,.71-.21H45a4.68,4.68,0,0,0,.08-.79,6.35,6.35,0,0,0-.54-.42h-.08a.46.46,0,0,1-.46.46c-.46,0-.54-.84-.17-1.21V19a2.06,2.06,0,0,1-1.63-.8h-.13l1.76,4s-.38.17-.29.46a7.25,7.25,0,0,1,.67,2.26v.59c0,.17.13.25.29.25H56.27c.17,0,.29-.08.29-.25v-.59a7.23,7.23,0,0,1,.67-2.26c.08-.29-.29-.46-.29-.46l1.76-4Zm-8.32,6.61H44.9l-.46-1.76a48.57,48.57,0,0,1,5.9-.43,48.56,48.56,0,0,1,5.9.42l-.46,1.76H50.34Z"/><path class="cls-1" d="M99.34,41.44,96,37.67H93.82V38c.68,0,.78.09.78.67v3.18c0,1.14-.23,1.25-.8,1.25v.3h2.06v-.3c-.65,0-.86-.14-.86-.82V38.49l4.44,5h.33V38.67c0-.71.38-.79.75-.79v-.21H98.46V38c.52,0,.91.1.91.78v2.74Z"/><path class="cls-1" d="M90.14,37.47a3,3,0,1,0,3.1,3,3,3,0,0,0-2.9-3Zm0,5.74c-1.06,0-1.55-1-1.55-2.74s.49-2.74,1.55-2.74,1.55,1,1.55,2.74S91.2,43.21,90.14,43.21Z"/><path class="cls-1" d="M82.75,42.57c0,.41-.13.45-.72.45v.3h2.86V43c-.59,0-.72,0-.72-.45V38.19a.26.26,0,0,1,.3-.3,2.39,2.39,0,0,1,1.8,1.33l.22-.08-.34-1.67h-.23a1.19,1.19,0,0,1-.57.15H81.58a.94.94,0,0,1-.3,0,1.52,1.52,0,0,1-.27-.11h-.23l-.34,1.67.22.08a2.39,2.39,0,0,1,1.8-1.33.26.26,0,0,1,.3.3v4.34Z"/><path class="cls-1" d="M75.88,42.57c0,.41-.13.45-.72.45v.3h5.39L81,41.66h-.27A2.55,2.55,0,0,1,78,43c-.63,0-.75-.11-.75-.4V38.37c0-.41.13-.45.72-.45v-.25H75.16V38c.59,0,.72,0,.72.45v4.15Z"/><path class="cls-1" d="M73.7,42.45,72.76,41a.87.87,0,0,0-.74-.51h0c.92-.06,1.47-.53,1.47-1.24s-.64-1.59-2.48-1.59H68.15V38c.59,0,.72,0,.72.45v4.19c0,.41-.13.45-.72.45v.3H71V43c-.59,0-.72,0-.72-.45v-2c.6,0,.81.08,1,.37l1.33,2.38h2V43c-.33,0-.5,0-.84-.58Zm-2.92-2.14h-.5V37.93h.32c1.18,0,1.46.69,1.46,1.2A1.13,1.13,0,0,1,71,40.33h-.22Z"/><path class="cls-1" d="M66.57,42.4l-2.41-4.63c-.1-.18-.14-.23-.19-.23a5.25,5.25,0,0,1-1,.92.3.3,0,0,1,.18.25.57.57,0,0,1-.09.28l-1.44,3c-.37.78-.59,1-1.13,1v.3h2.06V43c-.55,0-.78-.16-.78-.38a1.72,1.72,0,0,1,.33-.79h2.64a2.15,2.15,0,0,1,.42.92c0,.19-.18.24-.78.24v.3h3.09V43c-.5,0-.64-.11-.91-.62Zm-4.29-.88,1.13-2.39,1.18,2.39Z"/><path class="cls-1" d="M59.49,41.36a2.7,2.7,0,0,1-2.15,1.82c-.86,0-1.83-.66-1.83-2.7,0-1.87.78-2.7,1.88-2.7a2.44,2.44,0,0,1,2.14,1.55h.23V37.55h-.2a.54.54,0,0,1-.43.23,14.6,14.6,0,0,0-1.88-.3,3,3,0,1,0-.19,6h0a9,9,0,0,0,2-.39c.2,0,.33.13.43.39h.2V41.36Z"/><path class="cls-1" d="M41.91,43.32h5l.6-1.72h-.27C46.41,42.71,45.9,43,45.08,43h-1.4l3.6-5.28v-.1H42.4l-.53,1.6h.2A2.69,2.69,0,0,1,44.18,38h1.31l-3.57,5.2v.15Z"/><path class="cls-1" d="M37.5,42.57c0,.41-.13.45-.72.45v.3h2.86V43c-.59,0-.72,0-.72-.45V38.19a.26.26,0,0,1,.3-.3A2.39,2.39,0,0,1,41,39.22l.22-.08-.34-1.67h-.23a1.2,1.2,0,0,1-.57.15H36.34a.94.94,0,0,1-.3,0l-.27-.11h-.23l-.34,1.67.22.08a2.39,2.39,0,0,1,1.8-1.33.26.26,0,0,1,.3.3v4.38Z"/><path class="cls-1" d="M32.34,42.57c0,.41-.13.45-.72.45v.3h2.86V43c-.59,0-.72,0-.72-.45V38.38c0-.41.13-.45.72-.45v-.26H31.61V38c.59,0,.72,0,.72.45v4.15Z"/><path class="cls-1" d="M30,42.45,29.08,41a.87.87,0,0,0-.74-.51h0c.92-.06,1.47-.53,1.47-1.24s-.65-1.57-2.47-1.57H24.46V38c.59,0,.72,0,.72.45v4.19c0,.41-.13.45-.72.45v.3h2.88v-.3c-.59,0-.72,0-.72-.45v-2c.6,0,.81.08,1,.37L29,43.36h2v-.3c-.33,0-.5,0-.84-.58ZM27.1,40.31h-.5V37.93h.32c1.17,0,1.46.69,1.46,1.2a1.13,1.13,0,0,1-1.06,1.2H27.1Z"/><path class="cls-1" d="M15.4,42.57c0,.41-.13.45-.72.45v.3h5.26l.4-1.65h-.27A2.43,2.43,0,0,1,17.63,43c-.76,0-.86-.11-.86-.34V40.53h.38c1,0,1.5.28,1.66,1.09H19V39.07h-.23c-.23.84-.61,1.15-1.66,1.15h-.38V38.29c0-.32.1-.37.52-.37A3.09,3.09,0,0,1,20,39.18h.23l-.51-1.51h-5V38c.59,0,.72,0,.72.45v4.19Z"/><path class="cls-1" d="M11.63,42.57c0,.41-.13.45-.72.45v.3h2.86V43c-.59,0-.72,0-.72-.45V38.38c0-.41.13-.45.72-.45v-.26H10.91V38c.59,0,.72,0,.72.45v1.74H8.73V38.42c0-.41.13-.45.72-.45v-.3H6.59V38c.59,0,.72,0,.72.45v4.19c0,.41-.13.45-.72.45v.3H9.45v-.3c-.59,0-.72,0-.72-.45V40.56h2.9v2Z"/><path class="cls-1" d="M2.34,42.57c0,.41-.13.45-.72.45v.3H4.48V43c-.59,0-.72,0-.72-.45V38.19a.26.26,0,0,1,.3-.3,2.39,2.39,0,0,1,1.8,1.33l.22-.08-.34-1.67H5.51a1.2,1.2,0,0,1-.57.15H1.12a.94.94,0,0,1-.3,0,1.51,1.51,0,0,1-.27-.11H.34L0,39.18l.22.08A2.39,2.39,0,0,1,2,37.93a.26.26,0,0,1,.3.3v4.38Z"/><polygon class="cls-1" points="49.3 40.89 51.21 40.89 52.01 39.73 50.1 39.73 49.3 40.89 49.3 40.89"/><path class="cls-1" d="M44.16,55.4V52.88L43.09,55.4H42.9l-1.07-2.52V55.4h-.49V52.28H42l1,2.38,1-2.38h.61V55.4Z"/><path class="cls-1" d="M47.25,52.28l1.32,3.12h-.49l-.29-.68h-1.6l-.29.68h-.5l1.32-3.12Zm-.26.47-.65,1.58h1.32Z"/><path class="cls-1" d="M49.12,53.83a1.59,1.59,0,0,1,1.56-1.62h.11a1.46,1.46,0,0,1,1.24.64l-.36.2a1.06,1.06,0,0,0-.88-.45,1.24,1.24,0,0,0,0,2.47,1.06,1.06,0,0,0,.88-.45l.36.2a1.48,1.48,0,0,1-1.24.64,1.6,1.6,0,0,1-1.67-1.53S49.12,53.86,49.12,53.83Z"/><path class="cls-1" d="M54.34,52.28l1.32,3.12h-.49l-.29-.68H53.34L53,55.4h-.5l1.32-3.12Zm-.26.47-.66,1.58h1.32Z"/><path class="cls-1" d="M56.44,54.2V52.28h.45v1.89a.9.9,0,1,0,1.79,0h0V52.28h.45V54.2a1.34,1.34,0,0,1-2.68,0Z"/></g></g></svg>