<?xml version="1.0" standalone="no"?><!DOCTYPE svg PUBLIC "-//W3C//DTD SVG 1.1//EN" "http://www.w3.org/Graphics/SVG/1.1/DTD/svg11.dtd"><svg t="1511778541516" class="icon" style="" viewBox="0 0 1024 1024" version="1.1" xmlns="http://www.w3.org/2000/svg" p-id="3541" xmlns:xlink="http://www.w3.org/1999/xlink" width="16" height="16"><defs><style type="text/css"></style></defs><path d="M935.379394 200.316121H384.985859c-14.61398 0-26.462384-11.847111-26.462384-26.461091S370.371879 147.393939 384.985859 147.393939h550.393535c14.615273 0 26.462384 11.847111 26.462384 26.461091s-11.848404 26.461091-26.462384 26.461091zM931.781172 539.019636H384.984566c-14.61398 0-26.461091-11.845818-26.461091-26.459798 0-14.615273 11.847111-26.463677 26.461091-26.463676h546.796606c14.61398 0 26.461091 11.848404 26.461091 26.463676-0.001293 14.612687-11.848404 26.459798-26.461091 26.459798zM935.379394 877.724444H384.985859c-14.61398 0-26.462384-11.847111-26.462384-26.462383 0-14.61398 11.848404-26.461091 26.462384-26.461091h550.393535c14.615273 0 26.462384 11.847111 26.462384 26.461091 0 14.615273-11.848404 26.462384-26.462384 26.462383zM215.844848 200.316121h-127.225535c-14.61398 0-26.461091-11.847111-26.461091-26.461091S74.005333 147.393939 88.619313 147.393939h127.225535c14.61398 0 26.461091 11.847111 26.461091 26.461091s-11.847111 26.461091-26.461091 26.461091zM215.632808 539.019636h-127.013495c-14.61398 0-26.461091-11.845818-26.461091-26.459798 0-14.615273 11.847111-26.463677 26.461091-26.463676h127.013495c14.61398 0 26.462384 11.848404 26.462384 26.463676 0 14.61398-11.848404 26.459798-26.462384 26.459798zM215.844848 877.724444h-127.225535c-14.61398 0-26.461091-11.845818-26.461091-26.462383 0-14.615273 11.847111-26.461091 26.461091-26.461091h127.225535c14.61398 0 26.461091 11.845818 26.461091 26.461091 0 14.616566-11.847111 26.462384-26.461091 26.462383z" p-id="3542"></path></svg>